<svg xmlns="http://www.w3.org/2000/svg" width="512" height="512" preserveAspectRatio="none" style="display:block" viewBox="0 0 2048 2048" id="a1a44ee9-3533-4e68-a643-d06d47d1f814">
  <path fill="#5CCFEC" d="M1628.05 953.226C1698.6 947.377 1678.98 1055.07 1676.28 1103.01L1667.68 1267.9C1665.16 1319.32 1667.28 1370.3 1663.61 1421.47 1661.56 1449.99 1650.16 1467.18 1619.32 1468.33 1529.55 1471.68 1567.56 1303.6 1566.9 1241.01L1457.49 1241.01C1455.82 1300.99 1458.51 1361.46 1464.86 1421.07 1466.33 1434.93 1456.45 1449.93 1447.1 1459.4 1440.14 1464.74 1430.47 1469.52 1421.48 1469.91 1345.56 1473.2 1360.77 1348.73 1360.8 1293.2L1360.79 1044.49C1360.8 1017.98 1356.45 988.004 1375.12 968.471 1402.42 939.915 1450.81 955.593 1454.01 993.831 1458.19 1043.61 1458.2 1101.69 1457.49 1151L1527.25 1151.04C1542.72 1151.14 1558.3 1151.84 1573.7 1151 1573.29 1110.84 1578.7 1037.55 1584.57 999.167 1588.54 973.194 1601.88 957.97 1628.05 953.226zM591.084 953.226C658.075 930.881 648.023 1085.63 650.415 1121.5L661.109 1307.57C663.255 1344.34 679.648 1446.01 639.932 1464.66 616.655 1475.59 586.461 1466.05 576.966 1441.4 564.448 1408.9 573.342 1249 553.97 1243.5 542.761 1240.32 454.337 1251.62 444.597 1256.97 427.738 1266.21 460.638 1407.36 450.226 1441.51 446.267 1454.5 436.191 1461.96 424.76 1468.01 350.15 1483.22 354.155 1411.14 348.987 1358.08 340.243 1268.3 335.738 1178.9 326.335 1088.7 322.881 1055.57 310.6 995.79 337.591 969.893 358.019 950.292 393.498 950.622 407.999 976.879 425.276 1008.16 427.217 1150.83 436.487 1157.45 446.638 1164.71 542.79 1151.15 548.109 1147.46 568.931 1133 509.59 958.919 591.084 953.226zM1090.72 965.032C1141.14 962.149 1256.1 998.993 1250.48 1063.04 1242.85 1149.87 1135.42 1061.58 1108.58 1059.48 1023.47 1052.84 999.104 1287.74 1064.19 1364.25 1118.23 1427.76 1181.3 1329.2 1183.29 1277.42 1160.83 1283.08 1130.56 1290.92 1110.26 1275.8 1090.59 1261.14 1090.61 1232.89 1104.73 1214.28 1121.9 1191.65 1148.7 1188.98 1174.9 1185.23 1221.34 1177.49 1279.73 1179.19 1286.84 1237.65 1299.53 1372.06 1158.26 1549.32 1014.24 1443.57 871.716 1338.92 914.307 990.016 1090.72 965.032z"></path>
  <path fill="#FCA719" d="M 895.03 896.38 C 860.865 850.584 876.58 806.321 873.606 749.003 C 871.971 717.473 864.634 512.691 876.55 491.987 C 894.923 460.063 943.908 468.692 953.366 503.732 C 983.909 529.094 964.583 611.555 969.5 652.795 C 986.083 628.736 1000.99 608.226 1015.6 582.61 L 1042.62 534.209 C 1056.31 509.141 1086.36 454.045 1121.77 491.016 C 1127.34 496.831 1132.66 503.905 1138.77 508.96 C 1147.03 521.48 1157.33 544.118 1153.41 558.6 C 1144.63 591.016 1083.54 691.864 1059.88 710.321 C 1087.28 740.075 1167.98 822.705 1179.79 846.697 C 1233.96 899.669 1163.7 952.147 1121.77 908.862 C 1103.59 890.1 1084.9 872.644 1067.53 853.377 L 1022.4 802.28 C 1014.77 793.516 1005.28 781.804 997.371 773.716 C 991.929 777.369 979.949 785.771 979.181 792.517 C 975.002 829.249 995.943 937.505 928.922 925.741 C 913.056 922.956 903.139 909.434 895.03 896.38 z"></path>
  <path fill="#0F9ACD" d="M985.586 749.091C1012.3 785.094 1039.2 814.253 1071.9 845.101 1097.19 868.967 1128.94 918.04 1167.9 884.118 1178.91 874.017 1179.56 860.504 1179.79 846.697 1233.96 899.669 1163.7 952.147 1121.77 908.862 1103.59 890.1 1084.9 872.644 1067.53 853.377L1022.4 802.28C1014.77 793.516 1005.28 781.804 997.371 773.716 991.929 777.369 979.949 785.771 979.181 792.517 975.002 829.249 995.943 937.505 928.922 925.741 913.056 922.956 903.139 909.434 895.03 896.38 976.821 922.642 959.531 818.296 960.601 773.716 965.507 766.395 978.475 755.784 985.586 749.091zM1138.77 508.96C1147.03 521.48 1157.33 544.118 1153.41 558.6 1144.63 591.016 1083.54 691.864 1059.88 710.321L1040.14 693.154C1074.92 642.236 1133.41 568.922 1138.77 508.96zM953.366 503.732C983.909 529.094 964.583 611.555 969.5 652.795 965.065 659.886 958.894 667.07 953.366 673.304 950.449 628.205 960.621 541.85 953.366 503.732z"></path>
  <path fill="#FCA719" d="M 625.306 716.019 C 625.153 715.863 624.999 715.706 624.846 715.55 C 506.278 570.633 709.046 447.432 806.78 557.938 C 841.055 587.465 829.899 632.325 787.261 646.859 C 757.018 636.007 709.004 588.838 681.563 632.671 C 682.116 637.854 682.474 641.727 683.667 646.859 C 716.055 700.442 798.126 720.544 834.73 793.964 C 876.003 845.066 848.668 922.721 791.409 929.418 C 775.437 931.287 763.142 946.647 753.832 947.346 C 711.001 950.561 622.466 928.644 607.215 884.13 C 562.672 826.258 624.012 783.914 651.144 809.96 C 678.702 836.415 719.279 844.775 752.422 822.733 C 720.219 808.287 641.661 743.008 625.306 716.019 z"></path>
  <path fill="#0F9ACD" d="M834.73 793.964C876.003 845.066 848.668 922.721 791.409 929.418 775.437 931.287 763.142 946.647 753.832 947.346 711.001 950.561 622.466 928.644 607.215 884.13 611.902 886.991 617.087 890.109 621.59 893.224 709.637 954.108 863.865 919.538 834.73 793.964zM806.78 557.938C841.055 587.465 829.899 632.325 787.261 646.859 757.018 636.007 709.004 588.838 681.563 632.671 682.116 637.854 682.474 641.727 683.667 646.859 667.332 630.115 666.672 608.06 690.748 598.88 724.4 586.05 747.767 626.465 778.908 619.653 806.743 613.564 813.29 581.338 806.78 557.938zM625.306 716.019C654.899 739.155 741.112 803.156 752.422 822.733 720.219 808.287 641.661 743.008 625.306 716.019z"></path>
  <path fill="#FCA719" d="M 1306.87 652.795 C 1327 622.079 1359.17 549.882 1374.81 515.893 C 1396.28 469.203 1428.48 457.219 1457.49 503.732 C 1489.02 533.181 1473.53 556.585 1459.21 588.645 C 1434.49 643.974 1406.03 697.694 1379.46 752.165 C 1361.18 789.653 1358.73 784.504 1359.1 826.925 L 1359.6 881.331 C 1359.72 891.87 1360.41 901.301 1358.26 911.463 C 1348.02 959.765 1281.98 958.003 1266.28 903.873 C 1248.12 873.297 1262.97 782.1 1260.19 741.994 C 1259.86 737.27 1207.74 632.419 1201.93 618.263 C 1191.7 593.329 1164.63 545.675 1173.24 518.724 C 1183.13 487.749 1227.37 483.176 1245.74 511.329 C 1255.63 526.492 1258.8 539.602 1265.93 556.497 L 1306.87 652.795 z"></path>
  <path fill="#0F9ACD" d="M 1457.49 503.732 C 1489.02 533.181 1473.53 556.585 1459.21 588.645 C 1434.49 643.974 1406.03 697.694 1379.46 752.165 C 1361.18 789.653 1358.73 784.504 1359.1 826.925 L 1359.6 881.331 C 1359.72 891.87 1360.41 901.301 1358.26 911.463 C 1348.02 959.765 1281.98 958.003 1266.28 903.873 C 1316.35 939.611 1339.45 901.873 1339.15 852.994 L 1338.87 799.269 C 1338.72 764.295 1336.97 768.245 1352.85 738.073 C 1371.79 701.336 1459.35 539.99 1457.49 503.732 z"></path>
  <path fill="#5CCFEC" d="M 799.582 957.292 C 859.434 950.386 847.695 1031.08 847.67 1068.82 L 847.556 1248.67 C 847.587 1304.69 853.437 1361.11 850.762 1417.33 C 849.302 1448.01 838.321 1463.46 806.78 1468.01 C 743.245 1469.32 752.412 1403.75 752.392 1360.24 L 752.382 1269.69 C 752.401 1184.44 753.707 1101.1 759.063 1015.88 C 760.923 986.302 770.502 967.288 799.582 957.292 z"></path>
  <path fill="#0F9ACD" d="M1699.19 972.74C1758.3 982.22 1740.69 1089.17 1738.99 1128.93L1725.91 1461.06C1723.19 1523.04 1665.39 1546.5 1612.26 1525.17 1593.87 1515.37 1586.04 1505.63 1578.16 1486.6 1602.76 1499.08 1631.8 1501.68 1656.98 1488.75 1699.33 1467 1692.74 1415.66 1693.38 1375.84 1694.22 1317.85 1719.73 1010.18 1699.19 972.74zM663.211 965.032C679.455 977.09 686.727 986.461 692.327 1005.77 714.899 1083.61 716.489 1209.1 718.763 1294.18 719.846 1334.68 717.293 1395.54 723.91 1434.41 725.294 1442.85 729.566 1452.23 729.706 1460.96 722.028 1519.15 667.059 1553.74 613.578 1525.17 598.062 1515.98 587.318 1504.76 577.393 1489.83 679.332 1535.15 699.978 1444.03 695.189 1359.71 688.538 1242.6 684.837 1126.63 672.461 1009.99 670.853 994.837 664.312 979.541 663.211 965.032zM1311.92 1213.76C1341 1240.53 1329.95 1287.43 1331.01 1322.88 1332.23 1363.43 1335.1 1379.67 1317.76 1416.84 1256.22 1548.8 1088.41 1584.41 997.371 1474.96 986.501 1466.83 980.338 1457.26 973.347 1445.85 1024.44 1486.61 1063.79 1517.17 1138.22 1501.98 1254.96 1478.16 1334.59 1328.66 1311.92 1213.76zM873.71 975.701C926.909 1007.55 895.181 1181.12 894.968 1233.31 894.676 1305.08 925.153 1434.37 904.652 1489.85 887.896 1535.2 840.957 1543.97 799.582 1527.13 780.894 1517.1 770.399 1505.88 761.165 1486.6 796.825 1504.24 836.147 1504.94 864.151 1471.47 886.331 1444.96 880.26 1403.61 881.124 1371.75L878.722 1004.48C878.661 996.021 874.799 985.956 873.889 977.505L873.71 975.701zM1490.98 1270.53 1535.1 1270.53C1535.46 1282.99 1535.19 1295.96 1535.1 1308.47L1522.57 1308.47C1520.89 1343.21 1530.91 1472.33 1523.86 1488.93 1503.94 1535.87 1456.37 1542.09 1413.97 1525.17 1393.99 1510.88 1385.84 1506.22 1370.3 1486.6 1412.28 1506.86 1448.62 1505.92 1479.66 1466.38 1502.8 1436.9 1492.75 1405.07 1490.86 1371.13 1490.17 1358.77 1486.12 1280.8 1488.72 1271.1L1490.98 1270.53zM526.158 1274.36C540.037 1271.86 534.754 1301.94 533.994 1313.31 521.771 1315.91 510.966 1316.84 498.553 1318.19 505.441 1354.53 527.169 1478.74 501.407 1506.74 468.988 1541.97 418.426 1544.49 382.484 1513.15 373.45 1504.63 367.22 1497.28 360.988 1486.6 378.359 1496.5 387.627 1501.72 408.201 1501.12 522.012 1495.95 473.655 1351.45 470.772 1281.23 489.113 1278.74 507.766 1276.61 526.158 1274.36zM1273.04 1023.63C1313.84 1048.82 1314.17 1143.2 1262.98 1152.54 1248 1155.27 1215.99 1149.84 1196.8 1151 1177.24 1136.33 1162.98 1121.69 1138.77 1115.31 1110.56 1122.26 1103.48 1158.08 1090.04 1180.72 1049.64 1251.02 1069.27 1259.86 1084.51 1333.63L1084.36 1337.22 1083.06 1338.11C1078.24 1335.84 1071.8 1322.86 1069.61 1317.81 1045.19 1261.52 1052.79 1187.66 1073.87 1131.22 1113.58 1024.86 1150.61 1158.25 1235.23 1126.97 1278.14 1111.1 1289.52 1063.57 1273.04 1023.63zM440.259 972.74C481.275 984.052 498.092 1110.06 490.751 1125.79 482.109 1126.27 472.12 1125.23 461.776 1125.79 458.687 1080.64 453.021 1016.55 440.259 972.74zM1478.26 965.032C1519.8 992.107 1511.29 1076.12 1510.95 1120.94 1505.24 1121.44 1495.05 1121.02 1488.99 1120.94 1487.37 1069.75 1491.28 1014.64 1478.26 965.032z"></path>
  <path fill="#0F9ACD" d="M 1114.62 1308.47 C 1126.35 1311.89 1131.17 1313 1143.32 1313.31 C 1142.02 1316.13 1140.27 1319.16 1138.77 1321.93 C 1130.32 1333.42 1119.83 1315.41 1114.62 1308.47 z"></path>
</svg>
