<?xml version="1.0" encoding="utf-8"?>
<!-- Generator: Adobe Illustrator 27.5.0, SVG Export Plug-In . SVG Version: 6.00 Build 0)  -->
<svg version="1.1" xmlns="http://www.w3.org/2000/svg" xmlns:xlink="http://www.w3.org/1999/xlink" x="0px" y="0px"
	 viewBox="0 0 550 500" style="enable-background:new 0 0 550 500;" xml:space="preserve">
<g id="BACKGROUND">
	<g>
		<rect style="fill:#769AFF;" width="550" height="500"/>
		<path style="fill:#658EEA;" d="M73.199,209.047l172.268-95.044c17.448-9.626,38.909-8.182,54.909,3.697l182.142,135.219
			c35.559,26.399,22.754,82.476-20.739,90.823L213.37,391.416c-14.927,2.865-30.354-1.094-42.057-10.793L65.311,292.774
			C37.694,269.886,41.793,226.374,73.199,209.047z"/>
	</g>
</g>
<g id="OBJECTS">
	<g>
		<g>
			<rect x="73.773" y="400.857" style="fill:#4E6EA8;" width="136.889" height="61.63"/>
			<rect x="198.81" y="400.857" style="fill:#355687;" width="11.852" height="61.63"/>
			<rect x="345.18" y="378.338" style="fill:#4E6EA8;" width="136.889" height="84.148"/>
			<rect x="345.18" y="378.338" style="fill:#355687;" width="10.963" height="84.148"/>
			<rect x="209.477" y="329.745" style="fill:#4E6EA8;" width="136.889" height="132.741"/>
		</g>
		<g>
			<g>
				<polygon style="fill:#F29538;" points="378.028,126.314 307.497,117.234 281.284,36.56 254.493,36.56 217.259,115.204 
					130.958,126.314 194.247,186.028 178.145,271.538 204.936,271.538 233.487,241.283 254.493,229.799 330.842,271.538 
					357.633,271.538 326.304,175.116 				"/>
				<polygon style="fill:#E07F28;" points="262.674,234.271 330.842,271.538 357.633,271.538 336.127,205.347 262.674,205.347 				
					"/>
				<polygon style="fill:#FFC154;" points="281.284,36.56 318.519,115.204 404.819,126.314 341.531,186.028 357.633,271.538 
					281.284,229.799 204.936,271.538 221.038,186.028 157.75,126.314 244.05,115.204 				"/>
				<polygon style="fill:none;stroke:#F9DE85;stroke-width:2;stroke-miterlimit:10;" points="233.85,181.865 184.019,134.849 
					251.968,126.102 281.284,64.182 310.6,126.102 378.549,134.849 328.719,181.865 341.398,249.191 281.284,216.328 
					221.171,249.191 				"/>
				<polygon style="fill:#E07F28;" points="130.958,126.314 157.75,126.314 221.038,186.028 194.247,186.028 				"/>
				
					<line style="fill:none;stroke:#F9DE85;stroke-width:2;stroke-miterlimit:10;" x1="261.273" y1="174.441" x2="292.092" y2="143.622"/>
				
					<line style="fill:none;stroke:#F9DE85;stroke-width:2;stroke-miterlimit:10;" x1="247.79" y1="206.135" x2="314.243" y2="139.682"/>
				
					<line style="fill:none;stroke:#F9DE85;stroke-width:2;stroke-miterlimit:10;" x1="275.894" y1="144.935" x2="288.502" y2="132.327"/>
			</g>
			<g>
				<circle style="fill:#3E3D5E;" cx="278.353" cy="167.776" r="44.27"/>
				<circle style="fill:#52527F;" cx="286.005" cy="167.776" r="44.27"/>
				<path style="fill:#3E3D5E;" d="M286.005,169.007l43.43-9.822c-0.184-0.933-0.396-1.856-0.637-2.767l-43.248,10.216
					L286.005,169.007z"/>
				<g>
					<g>
						<path style="fill:#FFC154;" d="M286.005,207.196c-21.736,0-39.42-17.683-39.42-39.419c0-21.737,17.683-39.42,39.42-39.42
							c21.736,0,39.42,17.683,39.42,39.42C325.425,189.512,307.741,207.196,286.005,207.196z M286.005,129.587
							c-21.058,0-38.19,17.132-38.19,38.19c0,21.058,17.132,38.189,38.19,38.189c21.058,0,38.19-17.132,38.19-38.189
							C324.195,146.719,307.063,129.587,286.005,129.587z"/>
					</g>
					<g>
						<path style="fill:#FF5050;" d="M286.005,198.725c-17.065,0-30.949-13.883-30.949-30.948s13.884-30.949,30.949-30.949
							c17.065,0,30.947,13.884,30.947,30.949S303.07,198.725,286.005,198.725z M286.005,138.058
							c-16.387,0-29.719,13.332-29.719,29.719s13.332,29.718,29.719,29.718c16.386,0,29.718-13.331,29.718-29.718
							S302.391,138.058,286.005,138.058z"/>
					</g>
					<g>
						<path style="fill:#FFC154;" d="M286.005,190.253c-12.395,0-22.477-10.083-22.477-22.477c0-12.394,10.083-22.477,22.477-22.477
							c12.393,0,22.476,10.083,22.476,22.477C308.481,180.171,298.398,190.253,286.005,190.253z M286.005,146.53
							c-11.716,0-21.248,9.532-21.248,21.247s9.532,21.247,21.248,21.247c11.715,0,21.246-9.532,21.246-21.247
							S297.72,146.53,286.005,146.53z"/>
					</g>
					<g>
						<path style="fill:#FF5050;" d="M286.005,181.782c-7.723,0-14.006-6.283-14.006-14.005c0-7.723,6.283-14.006,14.006-14.006
							c7.722,0,14.005,6.283,14.005,14.006C300.01,175.499,293.727,181.782,286.005,181.782z M286.005,155.001
							c-7.044,0-12.775,5.731-12.775,12.776c0,7.044,5.731,12.775,12.775,12.775s12.775-5.731,12.775-12.775
							C298.78,160.732,293.049,155.001,286.005,155.001z"/>
					</g>
					<g>
						<path style="fill:#FFC154;" d="M286.005,173.311c-3.052,0-5.534-2.482-5.534-5.534c0-3.052,2.482-5.534,5.534-5.534
							c3.051,0,5.534,2.482,5.534,5.534C291.539,170.828,289.056,173.311,286.005,173.311z"/>
					</g>
				</g>
				<g>
					<g>
						<path style="fill:#FF5050;" d="M350.858,140.644l8.331-3.129c0.476-0.179,0.878-0.514,1.138-0.951l2.577-4.321
							c1.136-1.905-0.886-4.128-2.89-3.177l-10.017,4.755c-0.554,0.263-0.976,0.741-1.168,1.323l-0.891,2.695
							C347.347,139.629,349.093,141.307,350.858,140.644z"/>
						<path style="fill:#FF5050;" d="M366.128,140.74l-4.816-1.456c-0.487-0.147-1.01-0.125-1.482,0.064l-8.264,3.301
							c-1.751,0.699-1.911,3.116-0.267,4.04l2.475,1.391c0.534,0.3,1.168,0.369,1.755,0.19l10.606-3.236
							C368.255,144.387,368.251,141.382,366.128,140.74z"/>
					</g>
					<g>
						<path style="fill:#FFFFFF;" d="M286.005,169.007c-0.489,0-0.951-0.294-1.142-0.776c-0.252-0.631,0.056-1.346,0.687-1.597
							l74.877-29.787c0.635-0.252,1.347,0.057,1.597,0.688c0.252,0.631-0.057,1.346-0.687,1.597l-74.877,29.787
							C286.31,168.979,286.156,169.007,286.005,169.007z"/>
					</g>
				</g>
			</g>
		</g>
		<g>
			<g>
				<path style="fill:#FF5050;" d="M34.012,110.184c-7.674,3.996-16.56,4.995-24.93,2.803h0l14.987,21.035L34.012,110.184
					L34.012,110.184z"/>
				<path style="fill:#FFC154;" d="M66.337,103.153c-7.16,4.857-15.871,6.877-24.438,5.668l0,0l17.32,19.16L66.337,103.153
					L66.337,103.153z"/>
				<path style="fill:#FF5050;" d="M98.819,90.254c-6.189,6.046-14.405,9.575-23.051,9.9h0l20.435,15.795L98.819,90.254
					L98.819,90.254z"/>
				<path style="fill:#FFC154;" d="M171.837,11.683c-1.123,8.579-5.396,16.434-11.989,22.037l0,0l25.827-0.229L171.837,11.683
					L171.837,11.683z"/>
				<path style="fill:#FFC154;" d="M128.095,70.792c-4.766,7.221-12.048,12.411-20.429,14.561l0,0l23.319,11.104L128.095,70.792
					L128.095,70.792z"/>
				<path style="fill:#FF5050;" d="M152.151,45.161c-2.941,8.137-8.802,14.89-16.445,18.945h0l25.272,5.327L152.151,45.161
					L152.151,45.161z"/>
			</g>
			<path style="fill:#FFFFFF;" d="M175.686,0c-2.939,9.217-11.566,31.672-31.329,53.931C121.071,80.154,77.204,111.34,0,112.244
				v0.74c33.757-0.392,63.985-6.52,89.872-18.265c21.423-9.72,39.945-23.274,55.05-40.286C164.92,31.91,173.581,9.153,176.478,0
				H175.686z"/>
		</g>
		<g>
			<g>
				<path style="fill:#FF5050;" d="M515.988,110.184c7.674,3.996,16.56,4.995,24.93,2.803l0,0l-14.987,21.035L515.988,110.184
					L515.988,110.184z"/>
				<path style="fill:#FFC154;" d="M483.663,103.153c7.16,4.857,15.871,6.877,24.438,5.668l0,0l-17.32,19.16L483.663,103.153
					L483.663,103.153z"/>
				<path style="fill:#FF5050;" d="M451.181,90.254c6.189,6.046,14.405,9.575,23.051,9.9l0,0l-20.435,15.795L451.181,90.254
					L451.181,90.254z"/>
				<path style="fill:#FFC154;" d="M378.163,11.683c1.123,8.579,5.396,16.434,11.989,22.037l0,0l-25.827-0.229L378.163,11.683
					L378.163,11.683z"/>
				<path style="fill:#FFC154;" d="M421.905,70.792c4.766,7.221,12.048,12.411,20.429,14.561l0,0l-23.319,11.104L421.905,70.792
					L421.905,70.792z"/>
				<path style="fill:#FF5050;" d="M397.849,45.161c2.941,8.137,8.802,14.89,16.445,18.945h0l-25.272,5.327L397.849,45.161
					L397.849,45.161z"/>
			</g>
			<path style="fill:#FFFFFF;" d="M374.314,0c2.939,9.217,11.566,31.672,31.329,53.931C428.929,80.154,472.796,111.34,550,112.244
				v0.74c-33.757-0.392-63.985-6.52-89.872-18.265c-21.423-9.72-39.945-23.274-55.05-40.286C385.08,31.91,376.419,9.153,373.522,0
				H374.314z"/>
		</g>
		<g>
			<path style="fill:#3E3D5E;" d="M377.773,203.005c-0.593-21.037,16-19.704,20.889-14.519c4.889,5.185,22.37,1.037,27.259,9.778
				c4.889,8.741,3.852,17.482-0.741,28.445c-4.593,10.963,16.445,42.518,20,60.741c3.556,18.222-14.074,34.074-32.148,30.222
				c-18.074-3.852-36.889,0.148-35.852-16.741c1.037-16.889,10.963-42.963,7.704-55.407
				C381.625,233.079,369.329,216.783,377.773,203.005z"/>
			<g>
				<g>
					<path style="fill:#FFB692;" d="M356.29,210.895l7.433,38.249c0.707,4.059-2.01,7.922-6.069,8.628l0,0
						c-4.058,0.707-7.921-2.01-8.628-6.068l-7.433-38.25L356.29,210.895z"/>
					<g>
						<path style="fill:#FFB692;" d="M351.878,218.661l-1.801,0.281c-5.045,0.787-9.772-2.665-10.559-7.709h0
							c-0.787-5.045,2.665-9.772,7.709-10.559l1.801-0.281c5.045-0.787,9.772,2.665,10.559,7.709l0,0
							C360.375,213.147,356.923,217.874,351.878,218.661z"/>
					</g>
				</g>
				<g>
					<path style="fill:#FFB692;" d="M393.152,264.934l-32.89-20.894c-3.52-2.141-8.108-1.023-10.249,2.497l0,0
						c-2.14,3.519-1.023,8.108,2.497,10.248l32.89,20.894L393.152,264.934z"/>
				</g>
				<g>
					<g>
						<path style="fill:#FFB692;" d="M346.05,205.678l13.553-3.56c0,0,2.532,11.368-2.229,12.626
							c-5.233,1.381-5.086-6.183-5.086-6.183S347.991,209.963,346.05,205.678z"/>
						<g>
							<path style="fill:#D88D87;" d="M357.373,214.743c-0.757,0.187-1.582,0.356-2.381,0.08c-0.792-0.258-1.442-0.861-1.887-1.557
								c-0.45-0.699-0.746-1.482-0.948-2.274c-0.201-0.8-0.326-1.593-0.37-2.441v0l0.655,0.485c-0.702,0.2-1.353,0.26-2.044,0.236
								c-0.682-0.03-1.371-0.18-2.007-0.466c-0.634-0.284-1.225-0.694-1.679-1.216c-0.483-0.502-0.816-1.102-1.117-1.703
								l-0.001-0.002l-0.28-0.513l0.609-0.177c2.243-0.653,4.522-1.17,6.807-1.663c2.281-0.509,4.573-0.975,6.873-1.414
								c-2.218,0.748-4.443,1.469-6.68,2.147c-2.232,0.694-4.471,1.363-6.746,1.897l0.328-0.69l0.001,0.002
								c0.263,0.519,0.546,1.032,0.942,1.438c0.371,0.43,0.841,0.751,1.35,0.98c0.51,0.23,1.072,0.356,1.645,0.38
								c0.564,0.025,1.181-0.043,1.689-0.188l0.655-0.186v0.672v0c-0.059,1.483,0.085,3.097,0.751,4.446
								c0.336,0.669,0.846,1.259,1.542,1.574C355.782,214.922,356.595,214.852,357.373,214.743z"/>
						</g>
					</g>
					<g>
						<path style="fill:#FFB692;" d="M342.434,207.985L342.434,207.985c-1.221,0.267-2.438-0.514-2.705-1.734l-1.58-9.133
							c-0.267-1.221,0.514-2.438,1.734-2.704l0,0c1.221-0.267,2.438,0.514,2.704,1.734l1.58,9.133
							C344.435,206.501,343.655,207.718,342.434,207.985z"/>
						<g>
							<path style="fill:#D88D87;" d="M343.175,199.537c0.44,1.563,0.826,3.133,1.154,4.713c0.089,0.407,0.163,0.76,0.247,1.215
								c0.057,0.466,0.003,0.954-0.189,1.389c-0.371,0.875-1.252,1.524-2.213,1.59c-0.959,0.085-1.931-0.4-2.44-1.204
								c-0.261-0.379-0.391-0.912-0.424-1.282l-0.16-1.204c-0.212-1.606-0.406-3.214-0.516-4.834
								c0.441,1.563,0.797,3.139,1.136,4.716l0.253,1.184c0.068,0.43,0.159,0.695,0.362,0.985c0.384,0.543,1.059,0.882,1.719,0.807
								c0.658-0.05,1.276-0.471,1.548-1.087c0.15-0.299,0.206-0.639,0.184-0.975l-0.163-1.174
								C343.45,202.771,343.285,201.157,343.175,199.537z"/>
						</g>
					</g>
					<g>
						<path style="fill:#FFB692;" d="M346.762,206.592L346.762,206.592c-1.221,0.267-2.438-0.514-2.704-1.734l-1.58-9.133
							c-0.267-1.221,0.514-2.438,1.734-2.704l0,0c1.221-0.267,2.438,0.513,2.704,1.734l1.58,9.133
							C348.763,205.108,347.983,206.325,346.762,206.592z"/>
						<g>
							<path style="fill:#D88D87;" d="M347.503,198.143c0.44,1.563,0.826,3.133,1.153,4.713c0.089,0.407,0.163,0.76,0.247,1.215
								c0.057,0.466,0.003,0.954-0.189,1.389c-0.371,0.875-1.252,1.524-2.213,1.59c-0.959,0.085-1.931-0.401-2.44-1.204
								c-0.261-0.38-0.391-0.912-0.423-1.282l-0.16-1.204c-0.212-1.606-0.406-3.214-0.516-4.834
								c0.441,1.563,0.797,3.139,1.136,4.717l0.253,1.184c0.068,0.43,0.159,0.695,0.362,0.985c0.384,0.544,1.059,0.882,1.719,0.807
								c0.658-0.05,1.276-0.471,1.548-1.087c0.15-0.299,0.206-0.639,0.184-0.975l-0.163-1.174
								C347.778,201.378,347.613,199.764,347.503,198.143z"/>
						</g>
					</g>
					<g>
						<path style="fill:#FFB692;" d="M351.1,204.982L351.1,204.982c-1.221,0.267-2.438-0.514-2.704-1.734l-1.58-9.133
							c-0.267-1.221,0.514-2.438,1.734-2.704l0,0c1.221-0.267,2.438,0.514,2.704,1.734l1.58,9.133
							C353.102,203.498,352.321,204.715,351.1,204.982z"/>
						<g>
							<path style="fill:#D88D87;" d="M351.841,196.534c0.44,1.563,0.826,3.133,1.153,4.713c0.089,0.407,0.163,0.76,0.247,1.215
								c0.057,0.466,0.003,0.954-0.189,1.389c-0.371,0.875-1.252,1.524-2.213,1.59c-0.959,0.085-1.931-0.4-2.44-1.204
								c-0.261-0.38-0.391-0.912-0.423-1.282l-0.16-1.204c-0.212-1.606-0.406-3.214-0.516-4.834
								c0.441,1.563,0.797,3.139,1.136,4.716l0.253,1.184c0.068,0.43,0.159,0.695,0.362,0.985c0.384,0.544,1.059,0.882,1.719,0.807
								c0.658-0.05,1.276-0.471,1.548-1.087c0.15-0.299,0.206-0.639,0.184-0.975l-0.163-1.174
								C352.117,199.768,351.952,198.154,351.841,196.534z"/>
						</g>
					</g>
					<g>
						<path style="fill:#FFB692;" d="M355.753,205.805L355.753,205.805c-1.22,0.267-2.438-0.514-2.704-1.734l-1.58-9.133
							c-0.267-1.221,0.514-2.438,1.734-2.705l0,0c1.221-0.267,2.438,0.514,2.704,1.734l1.58,9.133
							C357.755,204.321,356.974,205.538,355.753,205.805z"/>
						<g>
							<path style="fill:#D88D87;" d="M356.494,197.356c0.44,1.563,0.826,3.133,1.154,4.713c0.089,0.407,0.163,0.76,0.247,1.215
								c0.057,0.466,0.003,0.954-0.189,1.389c-0.371,0.875-1.252,1.524-2.213,1.59c-0.959,0.085-1.931-0.401-2.44-1.204
								c-0.261-0.38-0.391-0.912-0.423-1.282l-0.16-1.204c-0.212-1.606-0.406-3.214-0.516-4.834c0.44,1.563,0.797,3.139,1.136,4.717
								l0.253,1.184c0.068,0.43,0.159,0.695,0.362,0.985c0.384,0.543,1.06,0.882,1.719,0.807c0.658-0.05,1.276-0.471,1.548-1.087
								c0.15-0.299,0.206-0.639,0.184-0.975l-0.163-1.174C356.77,200.591,356.605,198.977,356.494,197.356z"/>
						</g>
					</g>
				</g>
			</g>
			<g>
				<path style="fill:#FFB692;" d="M400.617,332.974l-6.33,48.707c-0.461,3.547-4.017,5.813-7.427,4.734l-11.013-6.152l5.337-49.326
					L400.617,332.974z"/>
				<path style="fill:#FFB692;" d="M376.699,446.303l-0.8-66.268l0,0c9.249-0.112,16.577,5.216,18.564,13.535
					c0.506,2.117,0.542,4.319,0.287,6.481l-5.421,46.016L376.699,446.303z"/>
				<path style="fill:#D88D87;" d="M376.163,401.898c7.18,2.705,13.138,3.351,18.044,2.758l0.542-4.604
					c0.255-2.162,0.219-4.364-0.287-6.481c-0.763-3.194-2.319-5.942-4.463-8.116l-14.054-1.545L376.163,401.898z"/>
				<rect x="376.44" y="438.634" style="fill:#FFFFFF;" width="14.667" height="9.333"/>
				<path style="fill:#FF5050;" d="M393.403,462.56h-32.316c-1.75,0-2.879-1.852-2.077-3.407l2.163-4.198
					c0.729-1.416,1.867-2.581,3.265-3.343l10.891-5.941h16.593L393.403,462.56z"/>
				<ellipse style="fill:none;stroke:#A83B5D;stroke-miterlimit:10;" cx="386.329" cy="455.023" rx="3" ry="3.833"/>
			</g>
			<g>
				<path style="fill:#FFB692;" d="M426.454,330.88l3.162,49.015c0.23,3.569-2.823,6.478-6.377,6.075l-11.991-3.917l-4.255-49.431
					L426.454,330.88z"/>
				<path style="fill:#FFB692;" d="M411.662,446.303l-0.8-66.268l0,0c9.249-0.112,16.577,5.216,18.564,13.535
					c0.506,2.117,0.542,4.319,0.287,6.481l-5.421,46.016L411.662,446.303z"/>
				<path style="fill:#D88D87;" d="M411.126,401.898c7.181,2.705,13.138,3.351,18.044,2.758l0.542-4.604
					c0.255-2.162,0.219-4.364-0.287-6.481c-0.763-3.194-2.319-5.942-4.463-8.116l-14.054-1.545L411.126,401.898z"/>
				<rect x="411.403" y="438.634" style="fill:#FFFFFF;" width="14.667" height="9.333"/>
				<path style="fill:#FF5050;" d="M428.366,462.56H396.05c-1.749,0-2.879-1.852-2.077-3.407l2.163-4.198
					c0.729-1.416,1.867-2.581,3.265-3.343l10.891-5.941h16.593L428.366,462.56z"/>
				<ellipse style="fill:none;stroke:#A83B5D;stroke-miterlimit:10;" cx="421.292" cy="455.023" rx="3" ry="3.833"/>
			</g>
			<path style="fill:#3E3D5E;" d="M410.344,344.724h-14.522c-8.786,0-15.974-7.188-15.974-15.974l0,0
				c0-5.881,4.812-10.693,10.693-10.693h25.084c5.881,0,10.693,4.812,10.693,10.693l0,0
				C426.318,337.536,419.129,344.724,410.344,344.724z"/>
			<path style="fill:#F29538;" d="M381.681,264.661l-1.371-6.929c4.318-2.879,9.168-6.353,16.088-8.13
				c6.136-1.576,12.585-1.149,18.639,0.719c10.126,3.124,15.846,8.419,15.846,8.419l-3.072,33.822l11.738,97.406
				c-31.556,12-73.333,2.222-73.333,2.222l16.799-98.525C375.508,286.962,378.036,277.431,381.681,264.661z"/>
			<path style="fill:#FFB692;" d="M428.014,272.616c0,5.114-2.641,9.259-5.898,9.259c-3.258,0-5.898-4.146-5.898-9.259
				c0-5.114,2.641-9.259,5.898-9.259C425.373,263.357,428.014,267.502,428.014,272.616z"/>
			<g>
				<g>
					<path style="fill:#FFB692;" d="M455.848,210.895l-7.433,38.249c-0.707,4.059,2.01,7.922,6.069,8.628l0,0
						c4.058,0.707,7.921-2.01,8.628-6.068l7.433-38.25L455.848,210.895z"/>
					<g>
						<path style="fill:#FFB692;" d="M460.26,218.661l1.801,0.281c5.045,0.787,9.772-2.665,10.559-7.709h0
							c0.787-5.045-2.665-9.772-7.709-10.559l-1.801-0.281c-5.045-0.787-9.772,2.665-10.559,7.709l0,0
							C451.764,213.147,455.215,217.874,460.26,218.661z"/>
					</g>
				</g>
				<g>
					<path style="fill:#FFB692;" d="M418.986,264.934l32.89-20.894c3.52-2.141,8.108-1.023,10.249,2.497l0,0
						c2.14,3.519,1.023,8.108-2.497,10.248l-32.89,20.894L418.986,264.934z"/>
				</g>
				<g>
					<g>
						<path style="fill:#FFB692;" d="M466.089,205.678l-13.553-3.56c0,0-2.532,11.368,2.229,12.626
							c5.233,1.381,5.086-6.183,5.086-6.183S464.147,209.963,466.089,205.678z"/>
						<g>
							<path style="fill:#D88D87;" d="M454.766,214.743c0.778,0.109,1.591,0.178,2.292-0.154c0.696-0.314,1.206-0.905,1.542-1.574
								c0.667-1.349,0.81-2.962,0.751-4.446v0v-0.672l0.655,0.186c0.508,0.145,1.125,0.213,1.689,0.188
								c0.574-0.025,1.136-0.15,1.645-0.38c0.508-0.23,0.979-0.55,1.35-0.98c0.396-0.406,0.679-0.919,0.942-1.438l0.001-0.002
								l0.328,0.69c-2.274-0.534-4.513-1.203-6.745-1.897c-2.237-0.678-4.462-1.398-6.68-2.147c2.299,0.439,4.592,0.904,6.873,1.414
								c2.285,0.493,4.564,1.01,6.807,1.663l0.609,0.177l-0.28,0.513l-0.001,0.002c-0.301,0.602-0.634,1.201-1.117,1.703
								c-0.453,0.522-1.045,0.932-1.679,1.216c-0.636,0.286-1.325,0.436-2.007,0.466c-0.691,0.023-1.342-0.037-2.044-0.236
								l0.655-0.485v0c-0.044,0.848-0.17,1.641-0.37,2.441c-0.202,0.792-0.498,1.575-0.948,2.274
								c-0.444,0.696-1.094,1.299-1.887,1.557C456.347,215.1,455.522,214.93,454.766,214.743z"/>
						</g>
					</g>
					<g>
						<path style="fill:#FFB692;" d="M469.704,207.985L469.704,207.985c1.221,0.267,2.438-0.514,2.704-1.734l1.58-9.133
							c0.267-1.221-0.514-2.438-1.734-2.704l0,0c-1.221-0.267-2.438,0.514-2.704,1.734l-1.58,9.133
							C467.703,206.501,468.484,207.718,469.704,207.985z"/>
						<g>
							<path style="fill:#D88D87;" d="M468.964,199.537c-0.11,1.62-0.275,3.234-0.499,4.838l-0.163,1.174
								c-0.022,0.336,0.034,0.677,0.184,0.975c0.272,0.616,0.89,1.036,1.548,1.087c0.659,0.075,1.335-0.264,1.719-0.807
								c0.203-0.29,0.294-0.555,0.362-0.985l0.253-1.184c0.339-1.578,0.695-3.153,1.136-4.716c-0.11,1.62-0.304,3.229-0.516,4.834
								l-0.16,1.204c-0.033,0.37-0.162,0.903-0.423,1.282c-0.508,0.803-1.48,1.289-2.44,1.204c-0.961-0.066-1.842-0.715-2.213-1.59
								c-0.192-0.435-0.247-0.923-0.189-1.389c0.084-0.455,0.158-0.808,0.247-1.215C468.137,202.67,468.523,201.1,468.964,199.537z"
								/>
						</g>
					</g>
					<g>
						<path style="fill:#FFB692;" d="M465.376,206.592L465.376,206.592c1.221,0.267,2.438-0.514,2.705-1.734l1.58-9.133
							c0.267-1.221-0.514-2.438-1.734-2.704l0,0c-1.221-0.267-2.438,0.513-2.704,1.734l-1.58,9.133
							C463.375,205.108,464.156,206.325,465.376,206.592z"/>
						<g>
							<path style="fill:#D88D87;" d="M464.636,198.143c-0.111,1.62-0.275,3.234-0.499,4.838l-0.163,1.174
								c-0.022,0.336,0.034,0.677,0.184,0.975c0.272,0.616,0.89,1.036,1.548,1.087c0.659,0.075,1.335-0.264,1.719-0.807
								c0.203-0.29,0.294-0.555,0.362-0.985l0.253-1.184c0.339-1.578,0.695-3.153,1.136-4.717c-0.11,1.62-0.304,3.229-0.516,4.834
								l-0.16,1.204c-0.033,0.37-0.162,0.903-0.423,1.282c-0.508,0.803-1.48,1.289-2.44,1.204c-0.961-0.066-1.842-0.715-2.213-1.59
								c-0.192-0.435-0.247-0.923-0.189-1.389c0.084-0.455,0.158-0.808,0.247-1.215C463.81,201.276,464.195,199.707,464.636,198.143
								z"/>
						</g>
					</g>
					<g>
						<path style="fill:#FFB692;" d="M461.038,204.982L461.038,204.982c1.22,0.267,2.438-0.514,2.704-1.734l1.58-9.133
							c0.267-1.221-0.514-2.438-1.734-2.704l0,0c-1.221-0.267-2.438,0.514-2.704,1.734l-1.58,9.133
							C459.037,203.498,459.817,204.715,461.038,204.982z"/>
						<g>
							<path style="fill:#D88D87;" d="M460.297,196.534c-0.111,1.62-0.275,3.234-0.499,4.838l-0.162,1.174
								c-0.022,0.336,0.033,0.677,0.184,0.975c0.272,0.616,0.89,1.036,1.548,1.087c0.659,0.075,1.335-0.264,1.719-0.807
								c0.203-0.29,0.294-0.555,0.362-0.985l0.253-1.184c0.339-1.578,0.695-3.153,1.136-4.716c-0.11,1.62-0.305,3.229-0.516,4.834
								l-0.16,1.204c-0.033,0.37-0.162,0.903-0.424,1.282c-0.508,0.803-1.48,1.289-2.44,1.204c-0.961-0.066-1.842-0.715-2.213-1.59
								c-0.192-0.435-0.247-0.923-0.189-1.389c0.084-0.455,0.158-0.807,0.247-1.215
								C459.471,199.667,459.857,198.097,460.297,196.534z"/>
						</g>
					</g>
					<g>
						<path style="fill:#FFB692;" d="M456.385,205.805L456.385,205.805c1.221,0.267,2.438-0.514,2.705-1.734l1.58-9.133
							c0.267-1.221-0.514-2.438-1.734-2.705l0,0c-1.221-0.267-2.438,0.514-2.704,1.734l-1.58,9.133
							C454.384,204.321,455.164,205.538,456.385,205.805z"/>
						<g>
							<path style="fill:#D88D87;" d="M455.644,197.356c-0.111,1.62-0.275,3.234-0.499,4.838l-0.163,1.174
								c-0.022,0.336,0.034,0.677,0.184,0.975c0.272,0.616,0.89,1.036,1.548,1.087c0.659,0.075,1.335-0.263,1.719-0.807
								c0.203-0.29,0.294-0.555,0.362-0.985l0.253-1.184c0.339-1.578,0.695-3.153,1.136-4.717c-0.11,1.621-0.304,3.229-0.516,4.834
								l-0.16,1.204c-0.033,0.37-0.162,0.903-0.423,1.282c-0.508,0.803-1.48,1.289-2.44,1.204c-0.961-0.066-1.842-0.715-2.213-1.59
								c-0.192-0.435-0.247-0.923-0.189-1.389c0.084-0.455,0.158-0.808,0.247-1.215C454.818,200.489,455.204,198.92,455.644,197.356
								z"/>
						</g>
					</g>
				</g>
			</g>
			<path style="fill:none;stroke:#A83B5D;stroke-miterlimit:10;" d="M442.529,245.857"/>
			<path style="fill:none;stroke:#A83B5D;stroke-miterlimit:10;" d="M427.35,231.992"/>
			<path style="fill:#FFB692;" d="M416.864,254.654c0.873,4.957-5.137,10.159-13.424,11.617c-8.286,1.459-15.711-1.377-16.584-6.335
				c-0.873-4.957,5.137-10.159,13.423-11.618C408.566,246.86,415.991,249.696,416.864,254.654z"/>
			<g>
				<g>
					<path style="fill:#FFB692;" d="M391.301,249.834c1.173-24.611,5.369-11.592,11.297-11.309
						c5.928,0.283,11.268-10.692,10.17,12.332c-0.411,8.625-5.181,7.651-11.109,7.369
						C395.731,257.943,390.89,258.459,391.301,249.834z"/>
					<path style="fill:#D88D87;" d="M412.887,243.657c-0.383-13.223-5.112-4.885-10.289-5.132
						c-5.74-0.274-9.856-12.488-11.176,9.079C400.45,251.039,407.732,247.898,412.887,243.657z"/>
				</g>
				<g>
					<path style="fill:#FFB692;" d="M386.765,217.982c1.084,3.434,0.111,6.857-2.174,7.647c-2.285,0.79-5.016-1.354-6.101-4.787
						c-1.085-3.434-0.111-6.857,2.174-7.647C382.949,212.406,385.68,214.549,386.765,217.982z"/>
					<path style="fill:#D88D87;" d="M384.332,218.699c0.349-0.121,0.714-0.134,1.077-0.06c-0.016-0.057-0.03-0.114-0.048-0.171
						c-0.716-2.268-2.521-3.684-4.03-3.163c-1.51,0.522-2.153,2.783-1.436,5.051c0.551,1.744,1.745,2.98,2.953,3.223
						C382.216,221.37,382.86,219.208,384.332,218.699z"/>
				</g>
				<path style="fill:#FF5050;" d="M383.773,226.283c0,1.135-0.92,2.056-2.055,2.056c-1.135,0-2.056-0.92-2.056-2.056
					c0-1.135,0.92-2.056,2.056-2.056C382.853,224.227,383.773,225.147,383.773,226.283z"/>
				<path style="fill:#FF5050;" d="M383.773,229.912c0,1.135-0.92,2.055-2.055,2.055c-1.135,0-2.056-0.92-2.056-2.055
					c0-1.135,0.92-2.056,2.056-2.056C382.853,227.857,383.773,228.777,383.773,229.912z"/>
				<path style="fill:#FFB692;" d="M406.385,194.273l-9.552-0.455c-7.453-0.355-13.842,5.452-14.197,12.905l-0.94,19.727
					c-0.496,10.408,7.613,19.329,18.021,19.825h0c10.407,0.496,19.329-7.613,19.825-18.021l0.884-18.535
					C420.812,201.61,414.493,194.66,406.385,194.273z"/>
				<path style="fill:#D88D87;" d="M406.385,194.273l-9.552-0.455c-6.87-0.327-12.823,4.585-13.993,11.192
					c10.079,12.052,26.006,12.165,37.32,10.252l0.264-5.543C420.812,201.61,414.493,194.66,406.385,194.273z"/>
				<path style="fill:#3E3D5E;" d="M420.662,217.968c2.367-0.21,5.105-0.249,7.532-0.222c1.673-7.028,1.209-13.257-2.273-19.482
					c-4.889-8.741-22.37-4.593-27.259-9.778c-4.889-5.185-21.482-6.519-20.889,14.518c-1.43,2.333-2.254,4.74-2.639,7.186
					c1.732,0.124,3.083,0.221,3.083,0.221c10.148,2.37,14.667-9.556,14.667-9.556s6.148,11.852,17.482,8.889
					C410.366,209.745,414.81,218.486,420.662,217.968z"/>
				<g>
					<path style="fill:#D88D87;" d="M393.027,224.291c0,0,4.895,1.139,4.872,2.066c-0.022,0.927-2.446,1.253-3.088,0.825
						C394.169,226.754,393.027,224.291,393.027,224.291z"/>
					<g>
						<path style="fill:#34344F;" d="M391.65,219.3c0.016,1.151-0.903,2.097-2.053,2.113c-1.15,0.017-2.096-0.903-2.113-2.054
							c-0.016-1.15,0.903-2.096,2.053-2.113C390.688,217.23,391.634,218.15,391.65,219.3z"/>
						<path style="fill:#34344F;" d="M406.63,219.087c0.017,1.15-0.903,2.097-2.053,2.113c-1.151,0.016-2.097-0.903-2.113-2.054
							c-0.017-1.151,0.903-2.096,2.054-2.113C405.667,217.017,406.613,217.936,406.63,219.087z"/>
						<path style="fill:#34344F;" d="M405.169,217.321l3.416-1.061c0,0-0.552,2.838-2.34,3.003
							C404.456,219.428,405.169,217.321,405.169,217.321z"/>
						<path style="fill:#34344F;" d="M388.731,217.576l-3.299-1.381c0,0,0.28,2.878,2.044,3.212
							C389.24,219.741,388.731,217.576,388.731,217.576z"/>
						<path style="fill:#D88D87;" d="M397.522,213.758c-0.67,2.362-1.494,4.64-2.369,6.901c-0.443,1.128-0.886,2.255-1.377,3.367
							l-0.092,0.208c-0.039,0.091,0.037-0.062-0.005-0.145c-0.025-0.062-0.001-0.012-0.009-0.021
							c0.02,0.054,0.112,0.175,0.197,0.276l0.593,0.648c0.409,0.444,0.832,0.888,1.219,1.391c-0.599-0.214-1.146-0.508-1.676-0.842
							c-0.259-0.177-0.524-0.346-0.768-0.571c-0.125-0.119-0.246-0.219-0.387-0.424c-0.039-0.077-0.067-0.09-0.106-0.225
							c-0.045-0.158,0.005-0.39,0.011-0.367l0.083-0.213c0.446-1.138,0.94-2.261,1.434-3.383
							C395.27,218.118,396.319,215.897,397.522,213.758z"/>
					</g>
					<g>
						<path style="fill:#34344F;" d="M394.117,229.419c2.34-0.559,5.594-1.503,8.619-2.95c1.99-0.952,3.985,1.515,3.077,3.843
							c-0.966,2.477-2.821,4.874-6.372,5.472c-2.91,0.49-4.842-0.134-6.122-1.125C391.508,233.256,392.032,229.917,394.117,229.419z
							"/>
						<path style="fill:#FF9292;" d="M399.442,235.784c3.551-0.598,5.406-2.995,6.372-5.472c0.136-0.349,0.2-0.7,0.215-1.043
							c-1.315-0.472-3.027-0.569-5.257,0.106c-3.444,1.042-4.963,3.651-5.588,6.226c-0.001,0.005-0.001,0.01-0.003,0.015
							C396.296,235.966,397.689,236.079,399.442,235.784z"/>
						<path style="fill:#FFABAB;" d="M397.501,233c0.4,0.576,1.744,0.37,3.003-0.458c1.258-0.829,1.955-1.967,1.555-2.543
							c-0.4-0.576-1.744-0.371-3.003,0.458C397.798,231.286,397.102,232.424,397.501,233z"/>
						<path style="fill:#FFFFFF;" d="M394.117,229.419c2.34-0.559,5.594-1.503,8.619-2.95c1.222-0.585,2.444,0.122,2.996,1.293
							c-1.703,1.781-4.395,3.325-7.615,4.175c-2.065,0.545-4.082,0.734-5.886,0.614
							C392.111,231.176,392.803,229.733,394.117,229.419z"/>
					</g>
				</g>
				<g>
					<path style="fill:#FFB692;" d="M416.02,219.528c-1.283,3.364-0.512,6.839,1.723,7.761c2.235,0.922,5.087-1.059,6.37-4.423
						c1.283-3.365,0.512-6.839-1.723-7.76C420.155,214.183,417.303,216.163,416.02,219.528z"/>
					<path style="fill:#D88D87;" d="M418.407,220.386c-0.341-0.141-0.705-0.175-1.072-0.123c0.02-0.056,0.036-0.112,0.058-0.169
						c0.848-2.222,2.732-3.531,4.208-2.922c1.476,0.609,1.986,2.904,1.138,5.127c-0.652,1.709-1.916,2.873-3.137,3.045
						C420.363,223.175,419.846,220.979,418.407,220.386z"/>
				</g>
				<path style="fill:#FF5050;" d="M422.217,228.801c0,1.135-0.92,2.056-2.056,2.056c-1.135,0-2.056-0.92-2.056-2.056
					c0-1.135,0.92-2.056,2.056-2.056C421.297,226.745,422.217,227.666,422.217,228.801z"/>
				<path style="fill:#FF5050;" d="M422.217,232.431c0,1.135-0.92,2.055-2.056,2.055c-1.135,0-2.056-0.92-2.056-2.055
					c0-1.135,0.92-2.056,2.056-2.056C421.297,230.375,422.217,231.295,422.217,232.431z"/>
			</g>
		</g>
		<g>
			<g>
				<path style="fill:#FFB692;" d="M205.88,267.132l-32.917,20.851c-3.436,2.272-4.38,6.9-2.108,10.336l0,0
					c2.272,3.436,6.899,4.38,10.336,2.108l32.917-20.851L205.88,267.132z"/>
				<path style="fill:#FFB692;" d="M156.035,259.615l14.228,36.275c1.579,3.805,5.943,5.61,9.748,4.031h0
					c3.805-1.579,5.609-5.943,4.031-9.748l-14.228-36.275L156.035,259.615z"/>
				<polygon style="fill:#D88D87;" points="158.423,265.704 169.206,293.198 178.564,276.208 174.724,266.417 				"/>
				<g>
					<path style="fill:#FFB692;" d="M205.924,275.555l1.012,1.39c2.835,3.892,8.288,4.75,12.18,1.915h0
						c3.893-2.834,4.75-8.288,1.915-12.18l-1.012-1.39c-2.835-3.893-8.288-4.75-12.18-1.916l0,0
						C203.947,266.21,203.09,271.663,205.924,275.555z"/>
				</g>
				<g>
					<g>
						<path style="fill:#FFB692;" d="M218.013,271.357l-6.706-12.304c0,0-10.009,5.956-7.658,10.283
							c2.584,4.755,7.988-0.541,7.988-0.541S213.564,272.883,218.013,271.357z"/>
						<g>
							<path style="fill:#D88D87;" d="M203.65,269.336c0.454,0.641,0.962,1.28,1.684,1.563c0.706,0.291,1.486,0.257,2.203,0.043
								c1.439-0.44,2.711-1.443,3.75-2.503v0l0.488-0.462l0.314,0.606c0.243,0.469,0.617,0.965,1.022,1.358
								c0.412,0.401,0.888,0.723,1.406,0.936c0.516,0.212,1.072,0.335,1.639,0.31c0.567,0.009,1.134-0.137,1.693-0.302l0.002,0
								l-0.277,0.712c-1.172-2.021-2.22-4.109-3.246-6.21c-1.041-2.092-2.043-4.206-3.02-6.333c1.258,1.974,2.492,3.962,3.686,5.971
								c1.209,2.001,2.396,4.014,3.459,6.094l0.289,0.564l-0.566,0.148l-0.002,0.001c-0.644,0.194-1.309,0.362-2.006,0.355
								c-0.691,0.028-1.395-0.121-2.036-0.387c-0.645-0.266-1.226-0.665-1.716-1.141c-0.491-0.487-0.894-1.002-1.23-1.65
								l0.802,0.144l0,0c-0.648,0.55-1.311,1.003-2.031,1.405c-0.715,0.397-1.487,0.718-2.305,0.87
								c-0.811,0.154-1.696,0.095-2.427-0.305C204.475,270.731,204.033,270.015,203.65,269.336z"/>
						</g>
					</g>
					<g>
						<path style="fill:#FFB692;" d="M218.815,275.57L218.815,275.57c0.643,1.071,2.046,1.421,3.117,0.778l7.729-5.115
							c1.071-0.643,1.422-2.046,0.778-3.117l0,0c-0.643-1.071-2.046-1.421-3.117-0.778l-7.729,5.115
							C218.522,273.096,218.172,274.499,218.815,275.57z"/>
						<g>
							<path style="fill:#D88D87;" d="M224.454,269.236c-1.255,1.031-2.542,2.018-3.863,2.956l-0.965,0.687
								c-0.26,0.214-0.469,0.489-0.584,0.803c-0.261,0.621-0.143,1.358,0.271,1.872c0.397,0.531,1.107,0.79,1.766,0.697
								c0.35-0.051,0.606-0.167,0.965-0.412l1.035-0.628c1.381-0.836,2.772-1.657,4.211-2.409c-1.255,1.031-2.558,1.993-3.872,2.941
								l-0.986,0.71c-0.292,0.23-0.768,0.501-1.223,0.571c-0.933,0.181-1.953-0.193-2.549-0.95
								c-0.611-0.745-0.743-1.831-0.361-2.701c0.185-0.438,0.503-0.813,0.881-1.091c0.389-0.251,0.696-0.439,1.053-0.653
								C221.608,270.784,223.015,269.988,224.454,269.236z"/>
						</g>
					</g>
					<g>
						<path style="fill:#FFB692;" d="M216.86,271.465L216.86,271.465c0.643,1.071,2.046,1.421,3.117,0.778l7.729-5.115
							c1.071-0.643,1.422-2.046,0.778-3.117l0,0c-0.643-1.071-2.046-1.421-3.117-0.778l-7.729,5.115
							C216.567,268.991,216.217,270.394,216.86,271.465z"/>
						<g>
							<path style="fill:#D88D87;" d="M222.499,265.131c-1.255,1.031-2.542,2.018-3.863,2.956l-0.965,0.687
								c-0.26,0.214-0.469,0.489-0.584,0.803c-0.261,0.62-0.143,1.358,0.271,1.872c0.397,0.531,1.107,0.79,1.766,0.697
								c0.35-0.051,0.606-0.167,0.965-0.412l1.035-0.628c1.381-0.836,2.772-1.657,4.211-2.409c-1.255,1.031-2.558,1.993-3.872,2.941
								l-0.986,0.71c-0.292,0.23-0.768,0.501-1.223,0.571c-0.933,0.181-1.953-0.193-2.549-0.95
								c-0.611-0.745-0.743-1.831-0.361-2.701c0.185-0.438,0.503-0.813,0.881-1.091c0.389-0.251,0.696-0.439,1.053-0.653
								C219.653,266.679,221.06,265.883,222.499,265.131z"/>
						</g>
					</g>
					<g>
						<path style="fill:#FFB692;" d="M215.055,267.204L215.055,267.204c0.643,1.071,2.046,1.421,3.117,0.778l7.729-5.115
							c1.071-0.643,1.421-2.046,0.778-3.117l0,0c-0.643-1.071-2.046-1.421-3.117-0.778l-7.729,5.115
							C214.762,264.73,214.412,266.133,215.055,267.204z"/>
						<g>
							<path style="fill:#D88D87;" d="M220.694,260.87c-1.255,1.031-2.542,2.018-3.863,2.956l-0.965,0.687
								c-0.26,0.214-0.469,0.488-0.584,0.803c-0.261,0.621-0.143,1.358,0.271,1.872c0.397,0.531,1.107,0.79,1.766,0.697
								c0.35-0.051,0.606-0.167,0.965-0.412l1.035-0.628c1.381-0.836,2.771-1.657,4.211-2.409c-1.255,1.031-2.558,1.993-3.872,2.941
								l-0.986,0.71c-0.292,0.23-0.768,0.501-1.223,0.571c-0.933,0.181-1.953-0.193-2.549-0.949
								c-0.611-0.745-0.743-1.831-0.361-2.701c0.185-0.438,0.503-0.813,0.881-1.091c0.389-0.251,0.696-0.439,1.053-0.653
								C217.848,262.418,219.255,261.622,220.694,260.87z"/>
						</g>
					</g>
					<g>
						<path style="fill:#FFB692;" d="M211.265,264.382L211.265,264.382c0.643,1.071,2.046,1.421,3.117,0.778l7.729-5.116
							c1.071-0.643,1.421-2.046,0.778-3.117l0,0c-0.643-1.071-2.046-1.422-3.117-0.778l-7.729,5.115
							C210.972,261.908,210.622,263.311,211.265,264.382z"/>
						<g>
							<path style="fill:#D88D87;" d="M216.904,258.048c-1.255,1.031-2.542,2.018-3.863,2.956l-0.965,0.687
								c-0.26,0.214-0.469,0.489-0.584,0.803c-0.261,0.621-0.143,1.358,0.271,1.872c0.397,0.531,1.107,0.79,1.766,0.697
								c0.35-0.051,0.606-0.167,0.965-0.412l1.035-0.628c1.381-0.836,2.771-1.657,4.211-2.409c-1.255,1.031-2.558,1.993-3.872,2.941
								l-0.986,0.71c-0.292,0.23-0.768,0.501-1.223,0.571c-0.933,0.181-1.953-0.193-2.549-0.95
								c-0.611-0.745-0.743-1.831-0.361-2.701c0.185-0.438,0.503-0.813,0.881-1.091c0.389-0.251,0.696-0.439,1.053-0.653
								C214.058,259.596,215.464,258.8,216.904,258.048z"/>
						</g>
					</g>
				</g>
				<path style="fill:#FF5050;" d="M181.127,271.501l-7.11-18.916c-2.255-5.21-8.306-7.606-13.516-5.352l0,0
					c-5.21,2.254-7.606,8.305-5.352,13.515l7.11,18.916L181.127,271.501z"/>
				<line style="fill:none;stroke:#A83B5D;stroke-miterlimit:10;" x1="162.403" y1="279.56" x2="181.127" y2="271.501"/>
				<line style="fill:none;stroke:#A83B5D;stroke-miterlimit:10;" x1="160.329" y1="274.375" x2="179.291" y2="266.746"/>
			</g>
			
				<rect x="135.579" y="345.425" transform="matrix(-0.1042 -0.9946 0.9946 -0.1042 -174.7141 553.0214)" style="fill:#3E3D5E;" width="52.242" height="19.539"/>
			<g>
				<path style="fill:#E5B241;" d="M154.212,460.47l24.613,0.569c2.677,0.062,4.918-2.078,4.98-4.755l0.036-1.55
					c0.161-6.952-5.395-12.771-12.347-12.932l-10.618-0.245c-6.952-0.161-12.771,5.396-12.932,12.347l0,0
					C147.862,457.435,150.682,460.389,154.212,460.47z"/>
				<path style="fill:#B73D66;" d="M150.449,462.297l31.376,0.224c0.907,0.007,1.654-0.73,1.66-1.637l0,0
					c0.007-0.907-0.73-1.654-1.637-1.66L150.473,459c-0.907-0.006-1.654,0.73-1.661,1.637l0,0
					C148.806,461.544,149.543,462.291,150.449,462.297z"/>
			</g>
			<path style="fill:#3E3D5E;" d="M173.18,443.562l0.8-66.268l0,0c-10.79-0.13-19.643-2.317-19.773,8.473l-0.564,57.56
				L173.18,443.562z"/>
			<path style="fill:#3E3D5E;" d="M139.536,341.984h14.522c8.786,0,15.974-7.188,15.974-15.974l0,0
				c0-5.881-4.812-10.694-10.693-10.694h-25.084c-5.881,0-10.693,4.812-10.693,10.694l0,0
				C123.561,334.795,130.75,341.984,139.536,341.984z"/>
			
				<rect x="94.08" y="339.647" transform="matrix(0.6492 -0.7606 0.7606 0.6492 -223.6082 214.008)" style="fill:#3E3D5E;" width="52.242" height="19.539"/>
			<g>
				<path style="fill:#F4C85B;" d="M124.262,441.421l21.061-12.751c2.291-1.387,3.03-4.396,1.643-6.686l-4.393-7.256
					c-1.627-2.687-5.156-3.555-7.844-1.928l-15.015,9.091c-5.949,3.601-7.869,11.415-4.268,17.363l0,0
					C117.275,442.274,121.242,443.249,124.262,441.421z"/>
				<path style="fill:#F25F66;" d="M122.071,444.984l26.578-16.677c0.768-0.482,1.002-1.505,0.52-2.273l0,0
					c-0.482-0.768-1.505-1.002-2.273-0.52l-26.578,16.677c-0.768,0.482-1.002,1.505-0.52,2.273l0,0
					C120.28,445.232,121.303,445.466,122.071,444.984z"/>
			</g>
			<path style="fill:#3E3D5E;" d="M140.62,412.809l-30.984-58.585l0,0c-9.539,5.045-18.36,7.357-13.315,16.896l27.026,50.823
				L140.62,412.809z"/>
			<path style="fill:#262638;" d="M133.696,315.316h26.201c3.861,0,7.232,2.19,8.942,5.387
				c-17.852,13.809-35.015,12.48-44.786,9.888c-0.31-1.201-0.491-2.452-0.491-3.746v-1.394
				C123.561,319.877,128.122,315.316,133.696,315.316z"/>
			<g>
				<g>
					<path style="fill:#FF5050;" d="M170.025,323.554h-48.207v-65.94c0-8.231,6.673-14.904,14.904-14.904h14.088
						c10.612,0,19.215,8.603,19.215,19.215V323.554z"/>
					<line style="fill:none;stroke:#A83B5D;stroke-miterlimit:10;" x1="170.025" y1="323.554" x2="170.025" y2="256.227"/>
				</g>
				<g>
					<g>
						<path style="fill:#FFB692;" d="M117.317,181.564l-4.171,38.741c-0.521,4.086-4.256,6.977-8.342,6.456l0,0
							c-4.086-0.521-6.977-4.256-6.456-8.342l4.171-38.742L117.317,181.564z"/>
						<g>
							<path style="fill:#FFB692;" d="M110.812,187.685l-1.804-0.262c-5.053-0.735-8.553-5.427-7.818-10.479l0,0
								c0.735-5.052,5.427-8.552,10.479-7.818l1.804,0.262c5.052,0.735,8.552,5.427,7.817,10.479l0,0
								C120.556,184.92,115.865,188.42,110.812,187.685z"/>
						</g>
					</g>
					<g>
						<path style="fill:#FFB692;" d="M136.613,244.067l-25.27-29.66c-2.732-3.083-7.447-3.367-10.529-0.635l0,0
							c-3.082,2.732-3.367,7.446-0.635,10.529l25.27,29.66L136.613,244.067z"/>
						<path style="fill:#FF5050;" d="M109.017,241.005l12.885,15.568c3.829,4.191,10.331,4.485,14.522,0.656v0
							c4.191-3.829,4.485-10.33,0.656-14.521l-12.885-15.568L109.017,241.005z"/>
						<line style="fill:none;stroke:#A83B5D;stroke-miterlimit:10;" x1="124.195" y1="227.14" x2="109.017" y2="241.005"/>
						<line style="fill:none;stroke:#A83B5D;stroke-miterlimit:10;" x1="127.807" y1="231.306" x2="112.628" y2="245.172"/>
					</g>
					<g>
						<g>
							<path style="fill:#FFB692;" d="M109.069,173.561l14,0.593c0,0-0.931,11.61-5.852,11.407
								c-5.407-0.222-3.037-7.407-3.037-7.407S109.662,178.227,109.069,173.561z"/>
							<g>
								<path style="fill:#D88D87;" d="M117.217,185.561c-0.778-0.044-1.616-0.126-2.299-0.625c-0.681-0.48-1.124-1.248-1.344-2.044
									c-0.224-0.801-0.276-1.636-0.235-2.452c0.044-0.824,0.158-1.618,0.366-2.442l0,0l0.483,0.657
									c-0.729-0.016-1.369-0.151-2.023-0.377c-0.643-0.229-1.257-0.576-1.781-1.037c-0.522-0.458-0.966-1.025-1.246-1.657
									c-0.313-0.622-0.455-1.293-0.566-1.957l0-0.002l-0.117-0.573l0.634,0.01c2.336,0.037,4.666,0.214,6.995,0.417
									c2.33,0.186,4.657,0.416,6.984,0.675c-2.34,0.061-4.679,0.094-7.016,0.082c-2.338,0.005-4.674-0.015-7.005-0.175
									l0.517-0.563l0,0.002c0.098,0.574,0.217,1.147,0.476,1.652c0.227,0.521,0.583,0.965,1.001,1.335
									c0.419,0.37,0.919,0.656,1.46,0.849c0.532,0.19,1.141,0.307,1.669,0.318l0.682,0.015l-0.199,0.642l0,0
									c-0.494,1.4-0.832,2.984-0.593,4.47c0.124,0.738,0.437,1.453,1.01,1.958C115.645,185.262,116.442,185.435,117.217,185.561z"
									/>
							</g>
						</g>
						<g>
							<path style="fill:#FFB692;" d="M104.934,174.699L104.934,174.699c-1.245-0.105-2.178-1.209-2.073-2.454l1.183-9.193
								c0.105-1.245,1.209-2.178,2.455-2.073l0,0c1.245,0.105,2.178,1.209,2.073,2.454l-1.182,9.193
								C107.284,173.871,106.179,174.804,104.934,174.699z"/>
							<g>
								<path style="fill:#D88D87;" d="M108.132,166.844c-0.04,1.624-0.134,3.237-0.287,4.843c-0.035,0.415-0.068,0.774-0.122,1.234
									c-0.082,0.462-0.279,0.913-0.59,1.272c-0.612,0.727-1.645,1.087-2.583,0.867c-0.942-0.201-1.728-0.952-1.977-1.869
									c-0.138-0.44-0.105-0.987-0.027-1.35l0.202-1.198c0.271-1.597,0.559-3.191,0.932-4.772c-0.04,1.623-0.164,3.234-0.305,4.842
									l-0.107,1.206c-0.062,0.431-0.053,0.711,0.056,1.048c0.207,0.633,0.752,1.155,1.405,1.278
									c0.644,0.146,1.358-0.074,1.8-0.582c0.232-0.241,0.385-0.55,0.463-0.878l0.191-1.169
									C107.442,170.016,107.76,168.425,108.132,166.844z"/>
							</g>
						</g>
						<g>
							<path style="fill:#FFB692;" d="M109.481,174.643L109.481,174.643c-1.245-0.105-2.178-1.209-2.073-2.454l1.183-9.193
								c0.105-1.245,1.209-2.178,2.455-2.073l0,0c1.245,0.105,2.178,1.209,2.073,2.454l-1.182,9.193
								C111.83,173.815,110.726,174.748,109.481,174.643z"/>
							<g>
								<path style="fill:#D88D87;" d="M112.679,166.789c-0.04,1.624-0.134,3.237-0.287,4.843c-0.035,0.415-0.068,0.774-0.122,1.234
									c-0.082,0.462-0.279,0.912-0.59,1.272c-0.612,0.727-1.645,1.087-2.583,0.867c-0.942-0.201-1.728-0.952-1.977-1.869
									c-0.138-0.44-0.105-0.987-0.027-1.35l0.202-1.198c0.271-1.597,0.559-3.191,0.932-4.772c-0.04,1.623-0.164,3.234-0.305,4.842
									l-0.107,1.206c-0.062,0.431-0.053,0.711,0.056,1.048c0.207,0.633,0.752,1.155,1.405,1.278
									c0.644,0.146,1.358-0.074,1.8-0.582c0.232-0.241,0.385-0.55,0.463-0.878l0.191-1.169
									C111.988,169.961,112.307,168.37,112.679,166.789z"/>
							</g>
						</g>
						<g>
							<path style="fill:#FFB692;" d="M114.101,174.384L114.101,174.384c-1.245-0.105-2.178-1.209-2.073-2.454l1.183-9.193
								c0.105-1.245,1.209-2.178,2.455-2.073l0,0c1.245,0.105,2.178,1.209,2.073,2.454l-1.182,9.193
								C116.451,173.556,115.346,174.489,114.101,174.384z"/>
							<g>
								<path style="fill:#D88D87;" d="M117.299,166.53c-0.04,1.623-0.134,3.237-0.287,4.843c-0.035,0.415-0.068,0.774-0.122,1.233
									c-0.082,0.462-0.279,0.913-0.59,1.272c-0.612,0.727-1.645,1.087-2.583,0.867c-0.942-0.201-1.728-0.952-1.977-1.869
									c-0.138-0.44-0.105-0.987-0.027-1.35l0.202-1.198c0.271-1.597,0.559-3.191,0.932-4.772c-0.04,1.624-0.164,3.234-0.305,4.842
									l-0.107,1.206c-0.062,0.431-0.053,0.711,0.056,1.048c0.207,0.632,0.752,1.155,1.404,1.278
									c0.644,0.146,1.358-0.074,1.8-0.582c0.232-0.241,0.385-0.55,0.463-0.878l0.191-1.169
									C116.609,169.701,116.927,168.11,117.299,166.53z"/>
							</g>
						</g>
						<g>
							<path style="fill:#FFB692;" d="M118.305,176.541L118.305,176.541c-1.245-0.105-2.178-1.209-2.073-2.454l1.183-9.193
								c0.105-1.245,1.209-2.178,2.455-2.073l0,0c1.245,0.105,2.178,1.209,2.073,2.454l-1.182,9.193
								C120.654,175.713,119.55,176.646,118.305,176.541z"/>
							<g>
								<path style="fill:#D88D87;" d="M121.503,168.687c-0.04,1.624-0.134,3.237-0.287,4.843c-0.035,0.415-0.068,0.774-0.122,1.234
									c-0.082,0.462-0.279,0.913-0.59,1.272c-0.612,0.727-1.645,1.087-2.583,0.867c-0.942-0.202-1.728-0.952-1.977-1.869
									c-0.138-0.44-0.105-0.987-0.027-1.35l0.202-1.198c0.271-1.597,0.559-3.191,0.932-4.772c-0.04,1.624-0.164,3.234-0.305,4.842
									l-0.107,1.205c-0.062,0.431-0.053,0.711,0.056,1.048c0.207,0.632,0.752,1.155,1.405,1.278
									c0.644,0.146,1.358-0.074,1.8-0.582c0.232-0.241,0.385-0.55,0.463-0.878l0.191-1.169
									C120.812,171.859,121.131,170.268,121.503,168.687z"/>
							</g>
						</g>
					</g>
				</g>
				<path style="fill:none;stroke:#A83B5D;stroke-miterlimit:10;" d="M107.351,243.116"/>
				<path style="fill:none;stroke:#A83B5D;stroke-miterlimit:10;" d="M122.529,229.251"/>
				<path style="fill:#FFB692;" d="M135.741,249.238c-0.698,3.966,4.109,8.126,10.738,9.293c6.629,1.167,12.568-1.102,13.266-5.067
					c0.698-3.966-4.109-8.127-10.738-9.293C142.378,243.004,136.439,245.272,135.741,249.238z"/>
			</g>
			<g>
				<g>
					<path style="fill:#FFB692;" d="M158.771,247.53c0-24.639-4.811-11.834-10.746-11.834c-5.935,0-10.746-11.216-10.746,11.834
						c0,8.635,4.811,7.889,10.746,7.889C153.96,255.419,158.771,256.165,158.771,247.53z"/>
					<path style="fill:#D88D87;" d="M137.504,240.332c1.012-13.19,5.338-4.637,10.522-4.637c5.746,0,10.439-12.005,10.731,9.601
						C149.575,248.298,142.451,244.814,137.504,240.332z"/>
				</g>
				<g>
					<path style="fill:#FFB692;" d="M164.819,215.931c-1.247,3.378-0.438,6.844,1.807,7.741c2.245,0.898,5.075-1.114,6.322-4.491
						c1.247-3.378,0.438-6.844-1.807-7.741C168.896,210.542,166.066,212.553,164.819,215.931z"/>
					<path style="fill:#D88D87;" d="M167.215,216.763c-0.343-0.137-0.707-0.167-1.073-0.112c0.019-0.056,0.035-0.113,0.056-0.169
						c0.824-2.231,2.693-3.56,4.176-2.967c1.483,0.593,2.018,2.883,1.194,5.114c-0.633,1.716-1.885,2.893-3.103,3.079
						C169.201,219.531,168.661,217.341,167.215,216.763z"/>
				</g>
				<path style="fill:#FFB692;" d="M146.35,191.314h9.562c7.461,0,13.566,6.105,13.566,13.566v19.749
					c0,10.419-8.525,18.944-18.944,18.944h0c-10.419,0-18.944-8.525-18.944-18.944v-18.556
					C131.59,197.956,138.232,191.314,146.35,191.314z"/>
				<path style="fill:#D88D87;" d="M155.912,191.314h-9.562c-5.964,0-11.12,3.591-13.442,8.712
					c13.557,12.783,27.381,13.32,36.571,11.529v-6.675C169.479,197.419,163.374,191.314,155.912,191.314z"/>
				<path style="fill:#323244;" d="M177.138,197.053c0-6.48-5.253-11.733-11.733-11.733c-1.11,0-2.179,0.164-3.197,0.452
					c-1.757-2.245-4.484-3.693-7.558-3.693c-2.495,0-4.761,0.958-6.471,2.517c-0.706-0.165-1.439-0.262-2.196-0.262
					c-2.194,0-4.211,0.739-5.827,1.976c-0.835-0.27-1.723-0.42-2.648-0.42c-4.085,0-7.497,2.852-8.372,6.672
					c-2.329,1.538-3.867,4.175-3.867,7.175c0,2.461,1.04,4.675,2.698,6.242c-0.16,0.516-0.267,1.055-0.267,1.624
					c0,2.283,1.386,4.241,3.362,5.082c-0.057,0.217-0.097,0.441-0.097,0.676c0,1.475,1.196,2.671,2.671,2.671
					c1.475,0,2.671-1.196,2.671-2.671c0-0.373-0.077-0.727-0.215-1.05c1.045-0.639,1.859-1.613,2.294-2.776
					c1.956-1.037,3.299-3.065,3.372-5.415c0.447-0.295,0.851-0.648,1.21-1.043c0.949,0.313,1.961,0.489,3.015,0.489
					c0.885,0,1.737-0.129,2.551-0.353c1.135,1.063,2.657,1.718,4.335,1.718c0.635,0,1.246-0.096,1.825-0.269
					c1.676,2.823,4.746,4.721,8.266,4.721c0.02,0,0.04-0.003,0.061-0.003c0.519,1.524,1.683,2.748,3.17,3.344
					c-0.05,0.205-0.085,0.416-0.085,0.636c0,1.475,1.196,2.671,2.671,2.671c1.475,0,2.671-1.196,2.671-2.671
					c0-0.395-0.091-0.767-0.245-1.104c1.537-0.98,2.56-2.696,2.56-4.654c0-0.697-0.136-1.36-0.372-1.973
					C175.691,203.489,177.138,200.443,177.138,197.053z"/>
				<g>
					<path style="fill:#D88D87;" d="M158.263,221.934c0,0-4.943,0.905-4.965,1.832c-0.022,0.927,2.384,1.368,3.045,0.971
						C157.005,224.34,158.263,221.934,158.263,221.934z"/>
					<g>
						<path style="fill:#34344F;" d="M159.876,217.014c-0.071,1.148,0.802,2.137,1.951,2.208c1.148,0.071,2.137-0.802,2.208-1.951
							c0.071-1.148-0.802-2.137-1.951-2.208C160.936,214.993,159.947,215.866,159.876,217.014z"/>
						<path style="fill:#34344F;" d="M144.924,216.088c-0.071,1.148,0.802,2.137,1.951,2.208c1.148,0.071,2.137-0.802,2.208-1.951
							c0.071-1.148-0.802-2.137-1.951-2.208C145.984,214.066,144.995,214.939,144.924,216.088z"/>
						<path style="fill:#D88D87;" d="M154.275,211.199c0.557,2.391,1.272,4.706,2.038,7.006c0.389,1.148,0.778,2.294,1.215,3.429
							l0.082,0.212c0.034,0.093-0.034-0.064,0.011-0.145c0.028-0.06,0.002-0.012,0.01-0.02c-0.022,0.053-0.12,0.17-0.21,0.266
							l-0.623,0.619c-0.429,0.424-0.873,0.847-1.284,1.331c0.608-0.185,1.169-0.453,1.714-0.761c0.267-0.164,0.54-0.321,0.794-0.534
							c0.131-0.113,0.256-0.207,0.406-0.405c0.042-0.075,0.072-0.087,0.117-0.22c0.052-0.156,0.014-0.39,0.006-0.367l-0.073-0.217
							c-0.392-1.158-0.831-2.304-1.271-3.448C156.317,215.661,155.375,213.393,154.275,211.199z"/>
					</g>
					<g>
						<path style="fill:#34344F;" d="M156.93,227.004c-2.31-0.67-5.516-1.767-8.469-3.357c-1.943-1.046-4.052,1.323-3.257,3.692
							c0.847,2.52,2.586,5.003,6.104,5.769c2.883,0.628,4.843,0.097,6.169-0.832C159.354,230.962,158.989,227.601,156.93,227.004z"
							/>
						<path style="fill:#FF9292;" d="M151.309,233.109c-3.518-0.766-5.257-3.249-6.104-5.769c-0.119-0.355-0.166-0.709-0.165-1.053
							c1.336-0.409,3.05-0.424,5.246,0.356c3.391,1.205,4.784,3.883,5.285,6.485c0.001,0.005,0.001,0.01,0.002,0.015
							C154.442,233.44,153.045,233.487,151.309,233.109z"/>
						<path style="fill:#FFABAB;" d="M153.38,230.42c-0.427,0.556-1.76,0.287-2.978-0.601c-1.218-0.888-1.859-2.058-1.433-2.614
							c0.427-0.556,1.76-0.287,2.977,0.601C153.165,228.694,153.806,229.864,153.38,230.42z"/>
						<path style="fill:#FFFFFF;" d="M156.93,227.004c-2.31-0.67-5.516-1.767-8.469-3.357c-1.193-0.642-2.447,0.006-3.054,1.148
							c1.616,1.859,4.232,3.531,7.408,4.533c2.037,0.643,4.042,0.928,5.85,0.894C158.851,228.855,158.228,227.381,156.93,227.004z"
							/>
					</g>
				</g>
				<g>
					<path style="fill:#FFB692;" d="M135.524,216.081c1.121,3.422,0.186,6.855-2.091,7.67c-2.276,0.814-5.031-1.3-6.152-4.721
						c-1.122-3.422-0.186-6.855,2.091-7.67C131.647,210.546,134.402,212.66,135.524,216.081z"/>
					<path style="fill:#D88D87;" d="M133.098,216.825c0.348-0.125,0.712-0.141,1.076-0.072c-0.017-0.057-0.031-0.114-0.049-0.171
						c-0.741-2.26-2.561-3.657-4.064-3.119c-1.504,0.538-2.122,2.807-1.381,5.067c0.57,1.738,1.777,2.961,2.988,3.191
						C131.012,219.518,131.632,217.349,133.098,216.825z"/>
				</g>
			</g>
			
				<ellipse transform="matrix(0.7071 -0.7071 0.7071 0.7071 -155.2568 187.557)" style="fill:none;stroke:#A83B5D;stroke-miterlimit:10;" cx="148.773" cy="281.19" rx="10.444" ry="10.444"/>
			<circle style="fill:#A83B5D;" cx="148.773" cy="281.19" r="4"/>
		</g>
	</g>
</g>
</svg>
