<?xml version="1.0" encoding="utf-8"?>
<!-- Generator: Adobe Illustrator 27.5.0, SVG Export Plug-In . SVG Version: 6.00 Build 0)  -->
<svg version="1.1" id="Layer_1" xmlns="http://www.w3.org/2000/svg" xmlns:xlink="http://www.w3.org/1999/xlink" x="0px" y="0px"
	 viewBox="0 0 2500 2500" style="enable-background:new 0 0 2500 2500;" xml:space="preserve">
<rect y="0" style="fill:#FFFFDE;" width="2500" height="2500"/>
<g>
	<g>
		<path style="fill:#CCF3FF;" d="M1047.823,613.215c0,0,34.822-7.815,15.243-34.548c-5.28-7.209-13.461-8.289-21.627-6.821
			c27.524-22.81,26.486-70.408-8.301-97.875c-31.635-24.977-70.016-8.332-78.767,10.628c2.417-24.443-30.738-111.773-116.365-76.367
			c-58.436,24.163-52.251,81.107-40.334,107.161c-15.334-9.111-42.034-13.668-61.58,13.187c-14.912,20.489-10.883,40.115-0.3,52.736
			c-19.341,4.2-35.292,23.236-12.356,40.482l-45.609,5.564c53.047,16.001,453.744,11.686,488.153,0
			C1179.555,622.752,1060.769,615.763,1047.823,613.215z"/>
	</g>
	<g>
		<g>
			<polygon style="fill:#FFC7B6;" points="799.369,1590.69 756.331,1964.172 889.057,1968.431 955.818,1602.864 			"/>
		</g>
		<g>
			<polygon style="fill:#FFC7B6;" points="1169.923,1590.69 1212.961,1964.172 1080.235,1968.431 1013.475,1602.864 			"/>
		</g>
		<g>
			<path style="fill:#294946;" d="M1080.235,1968.431l-12.175,127.958h252.942c0-89.001-70.69-132.216-108.041-132.216
				L1080.235,1968.431z"/>
		</g>
		<g>
			<path style="fill:#294946;" d="M889.057,1968.431l13.161,127.958H635.782c0-89.001,64.696-132.216,120.549-132.216
				L889.057,1968.431z"/>
		</g>
		<g>
			<path style="fill:#C5DAE2;" d="M902.224,2096.388H635.78c0-10.095,0.831-19.59,2.398-28.513h261.117L902.224,2096.388z"/>
		</g>
		<g>
			<path style="fill:#C5DAE2;" d="M1321.002,2096.388h-252.943l2.711-28.513h247.657
				C1320.089,2076.798,1321.002,2086.293,1321.002,2096.388z"/>
		</g>
		<g>
			<path style="fill:#C5DAE2;" d="M775.255,2096.388H635.78c0-10.095,0.831-19.59,2.398-28.513
				c6.757-38.772,27.233-66.495,52.586-83.456c40.406,3.488,73.415,22.492,82.243,83.456
				C774.26,2076.511,775.023,2085.993,775.255,2096.388z"/>
		</g>
		<g>
			<path style="fill:#C5DAE2;" d="M1321.002,2096.388H1182.74c0-10.395,0.722-19.876,2.084-28.513
				c8.624-54.766,43.104-75.609,84.614-81.031c22.138,17.111,42.082,44.044,48.989,81.031
				C1320.089,2076.798,1321.002,2086.293,1321.002,2096.388z"/>
		</g>
		<g>
			<path d="M761,2069.665H645.057c-0.989,0-1.791-0.801-1.791-1.79c0-0.989,0.802-1.791,1.791-1.791H761
				c0.989,0,1.791,0.802,1.791,1.791C762.791,2068.864,761.989,2069.665,761,2069.665z"/>
		</g>
		<g>
			<path d="M1309.843,2069.665H1193.9c-0.989,0-1.791-0.801-1.791-1.79c0-0.989,0.802-1.791,1.791-1.791h115.943
				c0.989,0,1.791,0.802,1.791,1.791C1311.633,2068.864,1310.831,2069.665,1309.843,2069.665z"/>
		</g>
		<g>
			<polygon style="fill:#D8AD82;" points="815.224,1310.073 747.86,1631.76 969.3,1649.5 981.523,1563.038 988.194,1649.93 
				1205.577,1635.934 1142.949,1319.444 			"/>
		</g>
		<g>
			<path d="M982.218,1541.698c-0.989,0-1.791-0.802-1.791-1.791v-186.436c0-0.989,0.802-1.791,1.791-1.791
				c0.988,0,1.79,0.801,1.79,1.791v186.436C984.008,1540.896,983.206,1541.698,982.218,1541.698z"/>
		</g>
		<g>
			<path style="fill:#016B63;" d="M988.194,840.97l-69.189,0.598c0,0-60.609,7.429-114.87,29.057l-28.526,481.851
				c0,0,87.747,25.044,204.45,25.044s197.639-28.522,197.639-28.522L1149.64,863.73c-24.864-9.263-93.369-24.234-98.375-24.275
				L988.194,840.97z"/>
		</g>
		<g>
			<path style="fill:#FFC7B6;" d="M928.421,756.831l-9.416,84.736c0,0,10.236,34.733,71.392,34.733s60.868-36.845,60.868-36.845
				l-7.133-84.479L928.421,756.831z"/>
		</g>
		<g>
			<path style="fill:#EF9289;" d="M1047.583,795.817c-29.423,35.187-83.22,43.797-126.969,31.252l7.806-70.242l115.716-1.853
				L1047.583,795.817z"/>
		</g>
		<g>
			<path style="fill:#5C2C00;" d="M1077.795,665.22c-4.696,0.274-6.971-4.796-6.971-4.796c0.768-9.333-8.693-7.246-8.693-7.246
				c6.957-5.739,14.957,4.87,15.305-1.829s-6.799-8.281-6.799-8.281c7.114-7.502-3.14-15.629-3.14-15.629
				c5.887-1.391,7.678-12.348,3.14-9.739c-4.538,2.609-8.853-1.391-8.853-1.391c-2.257-11.757-14.887-7.652-14.887-7.652
				c-6.064-13.175-21.797-8.607-21.797-8.607c9.043-6.288,1.855-17.828,0-14.582c-3.415,5.976-11.826,3.187-11.826,3.187
				c-12.29-7.712-21.797,0-21.797,0c-2.675-6.16-14.145-9.216-12.674-5.969c2.255,4.978,2.114,9.771,2.114,9.771
				c-4.969-0.669-7.735-0.161-9.218,0.823c-1.129-3.723-4.653-6.179-6.656-3.406c-4.338,6.007-14.377,10.667-14.377,10.667
				c-13.918-2.856-14.145,5.333-14.145,5.333c-11.362-3.246-19.014,7.188-15.304,6.957c4.947-0.309,11.944,5.565,11.944,5.565
				c-4.984,0.232-12.176-1.623-15.654,1.159c-3.478,2.783,4.177,11.508,4.177,11.508c-10.344,4.567-9.046,9.557-9.046,9.557
				s-5.445-4.008-6.718,0c-3.059,9.632,7.645,14.824,7.645,14.824s-7.848,7.104-10.435,9.776c-2.586,2.673,8.74,4.19,8.74,4.19
				c-1.695,6.261-9.667,14.841-10.258,19.015c-0.59,4.174,8.446,3.71,8.446,3.71c-3.043,8.116,8.752,39.189,8.752,39.189
				l135.592,1.275c11.388-28,8.786-37.044,8.786-37.044c12.87-5.217,5.391-22.783,5.391-22.783
				C1074.49,673.468,1082.49,664.946,1077.795,665.22z"/>
		</g>
		<g>
			<path style="fill:#EF9289;" d="M922.023,726.971c0,0-6.753-17.513-21.339-10.497c-17.202,8.274-11.58,45.505,16.618,51.555
				c13.43,2.881,15.484-8.022,15.484-8.022L922.023,726.971z"/>
		</g>
		<g>
			<path style="fill:#EF9289;" d="M1050.761,726.971c0,0,6.754-17.513,21.339-10.497c17.202,8.274,11.58,45.505-16.618,51.555
				c-13.43,2.881-15.484-8.022-15.484-8.022L1050.761,726.971z"/>
		</g>
		<g>
			<path style="fill:#FFC7B6;" d="M1054.4,696.639c-0.518,19.904-3.011,79.996-22.247,103.55
				c-15.067,18.473-58.852,21.688-83.047,2.67c-22.737-17.874-27.928-59.561-30.298-100.308c4.823-4.25,12.574-12.097,16.198-21.674
				c0,0-2.581,9.082-1.853,10.163c0.728,1.08,6.348-1.39,8.283-5.027c-0.136,0.354,2.91,8.898,5.395,8.133
				s-2.602-6.444,2.615-12.506c7.435,2.263,1.638,11.949,4.169,13.051c2.483,1.081,10.585-3.12,13.378-9.89
				c0.149,4.928,4.845,9.972,7.67,9.713c3.922-0.359-1.907-4.005,0-10.095c0.957,5.006,8.262,11.136,10.789,10.095
				c2.716-1.119-3.12-6.771-1.226-9.55c0,0.245,0.164,4.21,10.613,5.722c0,0-2.971,3.574-1.921,4.7
				c1.05,1.126,6.444,0.518,11.144-6.961c0,0,5.918,5.939,8.869,5.013c2.951-0.926-3.665-7.929,0-12.561
				c0,0,2.261,6.158,13.732,7.724c0,0-7.161,2.719-5.558,4.836c1.603,2.117,14.086,1.948,19.999-9.877c0,0,3.814,9.201,6.43,9.032
				c1.71-0.11,0.899-6.342,1.39-9.904C1048.923,682.689,1048.16,690.1,1054.4,696.639z"/>
		</g>
		<g>
			<path d="M993.796,764.383c-0.692,0-1.352-0.404-1.645-1.08c-0.393-0.908,0.025-1.962,0.933-2.354
				c0.253-0.112,6.34-2.885,6.34-9.683c0-4.604-2.453-13.014-4.423-19.771c-1.443-4.948-2.689-9.222-2.985-11.791
				c-0.113-0.983,0.591-1.871,1.574-1.984c0.978-0.115,1.872,0.591,1.984,1.574c0.261,2.269,1.526,6.607,2.865,11.199
				c2.14,7.34,4.566,15.659,4.566,20.774c0,9.187-8.152,12.82-8.499,12.969C994.274,764.335,994.033,764.383,993.796,764.383z"/>
		</g>
		<g>
			<ellipse cx="968.247" cy="732.02" rx="7.13" ry="10.261"/>
		</g>
		<g>
			<path style="fill:#FFFFFF;" d="M969.764,728.377c0,1.627-1.203,2.947-2.688,2.947c-1.485,0-2.688-1.319-2.688-2.947
				c0-1.627,1.203-2.946,2.688-2.946C968.56,725.431,969.764,726.75,969.764,728.377z"/>
		</g>
		<g>
			<ellipse cx="1019.133" cy="732.02" rx="7.13" ry="10.261"/>
		</g>
		<g>
			<path style="fill:#FFFFFF;" d="M1020.812,728.377c0,1.627-1.203,2.947-2.688,2.947c-1.485,0-2.688-1.319-2.688-2.947
				c0-1.627,1.203-2.946,2.688-2.946C1019.608,725.431,1020.812,726.75,1020.812,728.377z"/>
		</g>
		<g>
			<path style="fill:#281106;" d="M938.372,699.723c-0.288,0-0.579-0.07-0.851-0.216c-0.87-0.47-1.194-1.557-0.723-2.426
				c4.635-8.57,12.762-13.979,23.505-15.643c11.301-1.745,17.669,6.876,21.497,13.513c0.493,0.857,0.199,1.952-0.657,2.446
				c-0.853,0.492-1.95,0.201-2.446-0.656c-3.581-6.209-8.849-13.158-17.846-11.763c-6.69,1.036-15.747,4.272-20.903,13.807
				C939.624,699.383,939.009,699.723,938.372,699.723z"/>
		</g>
		<g>
			<path style="fill:#281106;" d="M1038.577,699.723c-0.671,0-1.314-0.379-1.62-1.026c-4.486-9.489-12.323-12.702-18.106-13.727
				c-7.655-1.352-12.19,5.533-15.29,11.681c-0.446,0.884-1.522,1.239-2.406,0.793c-0.882-0.445-1.237-1.522-0.793-2.405
				c3.376-6.693,9.032-15.377,19.113-13.595c6.614,1.172,15.579,4.851,20.72,15.723c0.422,0.894,0.04,1.961-0.853,2.384
				C1039.094,699.668,1038.833,699.723,1038.577,699.723z"/>
		</g>
		<g>
			<path style="fill:#FFFFFF;" d="M975.939,791.15c-0.291-8.436,8.58-13.218,17.855-12.522c9.275,0.696,14.926,8.435,11.826,14.145
				C1001.215,800.889,976.171,797.875,975.939,791.15z"/>
		</g>
		<g>
			<g>
				<path style="fill:#003530;" d="M676.826,1150.818c-3.043,9.609-6.934,35.583,76.522,22.041l-43.305-87.041L676.826,1150.818z"/>
			</g>
			<g>
				<path style="fill:#FFC7B6;" d="M817.348,1133.412l70.957,73.276c0,0,46.132,13.295,67.812,31.063
					c21.68,17.768,67.145,70.966,55.319,81.633c-11.826,10.667-63.57-51.305-63.57-51.305s7.048,8.696,1.831,14.261
					c-5.217,5.565-12.351,2.783-12.351,2.783s2.924,6.261-1.841,9.739c-4.765,3.478-11.2,1.217-11.2,1.217s1.391,6.087-4.174,9.217
					c-5.565,3.13-11.989,1.913-23.994-1.565c-12.006-3.478-48.876-20.527-49.919-36.872c0,0-121.044-34.547-144.939-77.079
					c-17.312-30.814,5.808-68.952,5.808-68.952l93.566-16.054L817.348,1133.412z"/>
			</g>
			<g>
				<path style="fill:#016B63;" d="M804.134,870.624c-37.801,16.063-46.149,46.671-60.99,85.628
					c-14.841,38.957-66.319,194.566-66.319,194.566s47.768-45.232,140.522-17.406L804.134,870.624z"/>
			</g>
			<g>
				<path d="M824.305,1110.278c-0.019,0-0.037,0-0.056,0c-0.988-0.03-1.765-0.856-1.735-1.845l0.171-5.398
					c1.576-48.862,4.858-150.535-43.035-185.686c-0.797-0.585-0.969-1.706-0.384-2.503c0.586-0.798,1.707-0.968,2.503-0.384
					c49.414,36.268,46.092,139.215,44.495,188.689l-0.171,5.393C826.065,1109.512,825.268,1110.278,824.305,1110.278z"/>
			</g>
		</g>
		<g>
			<g>
				<path style="fill:#003530;" d="M1274.162,1125.173c7.42,21.689-10.667,31.126-65.392,42.871l-27.99-101.009L1274.162,1125.173z"
					/>
			</g>
			<g>
				<path style="fill:#016B63;" d="M1149.64,863.73c40.116,13.218,49.391,49.392,61.449,84.638
					c12.058,35.247,63.073,176.805,63.073,176.805s-24.474-12.899-68.585-11.141l-85.85,50.151L1149.64,863.73z"/>
			</g>
			<g>
				<path d="M1116.479,1131.029c-0.963,0-1.759-0.766-1.788-1.736c-0.739-24.173,2.544-71.983,10.244-116.592
					c6.701-38.815,19.025-88.096,39.683-102.442c0.81-0.564,1.927-0.365,2.492,0.449c0.564,0.812,0.363,1.928-0.45,2.492
					c-19.64,13.639-31.612,61.968-38.197,100.11c-7.58,43.903-10.909,92.468-10.194,115.873c0.03,0.989-0.746,1.814-1.735,1.845
					C1116.516,1131.029,1116.498,1131.029,1116.479,1131.029z"/>
			</g>
			<g>
				<g>
					<path style="fill:#AACFE8;" d="M1026.508,1060.832c0,0-62.609-52.87-142.146-62.145l-22.493,22.725l143.131,45.623
						l42.583-2.261l102.056-51.015l-15.918-19.486C1067.784,1003.557,1026.508,1060.832,1026.508,1060.832z"/>
				</g>
				<g>
					<polygon style="fill:#7FB1CC;" points="1005.001,1067.035 1026.508,1060.832 1047.583,1064.774 1037.175,1081.512 
						1014.914,1080.079 					"/>
				</g>
				<g>
					<path d="M1012.478,1056.692c-0.262,0-0.527-0.086-0.747-0.264c-26.147-21.042-89.885-49.826-121.753-51.565
						c-0.657-0.036-1.162-0.599-1.126-1.257c0.035-0.658,0.609-1.166,1.257-1.127c32.263,1.761,96.71,30.837,123.119,52.089
						c0.514,0.414,0.594,1.165,0.182,1.679C1013.173,1056.54,1012.828,1056.692,1012.478,1056.692z"/>
				</g>
				<g>
					<path d="M1011.435,1060.925c-0.22,0-0.443-0.061-0.642-0.189c-73.966-47.392-118.061-51.772-129.814-51.985
						c-0.659-0.012-1.183-0.556-1.172-1.215c0.012-0.652,0.544-1.172,1.194-1.172c0.007,0,0.014,0,0.022,0
						c11.91,0.216,56.564,4.632,131.056,52.363c0.556,0.355,0.717,1.094,0.361,1.649
						C1012.214,1060.731,1011.828,1060.925,1011.435,1060.925z"/>
				</g>
				<g>
					<path d="M1006.595,1064.196c-0.212,0-0.427-0.057-0.621-0.175c-65.145-39.788-101.329-47.576-125.574-49.917
						c-0.656-0.063-1.138-0.647-1.074-1.303c0.063-0.656,0.647-1.136,1.302-1.074c24.5,2.366,61.03,10.215,126.591,50.256
						c0.562,0.344,0.74,1.078,0.396,1.641C1007.39,1063.993,1006.997,1064.196,1006.595,1064.196z"/>
				</g>
				<g>
					<path d="M1034.378,1058.935c-0.196,0-0.395-0.048-0.578-0.15c-0.577-0.32-0.785-1.047-0.464-1.623
						c9.153-16.474,56.638-53.173,97.542-60.075c0.651-0.114,1.265,0.328,1.376,0.978c0.109,0.65-0.329,1.266-0.979,1.376
						c-40.249,6.793-86.889,42.75-95.851,58.882C1035.204,1058.714,1034.797,1058.935,1034.378,1058.935z"/>
				</g>
				<g>
					<path d="M1038.797,1060.925c-0.253,0-0.508-0.08-0.725-0.247c-0.523-0.401-0.622-1.151-0.22-1.674
						c11.857-15.456,50.805-49.848,95.516-57.502c0.666-0.112,1.267,0.326,1.378,0.975c0.112,0.65-0.325,1.267-0.975,1.379
						c-43.586,7.461-82.819,41.994-94.026,56.602C1039.51,1060.764,1039.156,1060.925,1038.797,1060.925z"/>
				</g>
				<g>
					<path d="M1045.032,1062.603c-0.274,0-0.549-0.093-0.774-0.284c-0.501-0.427-0.562-1.181-0.135-1.683
						c6.683-7.855,42.548-47.434,92.382-55.247c0.666-0.101,1.262,0.344,1.365,0.994c0.101,0.651-0.344,1.262-0.994,1.364
						c-49.002,7.683-84.347,46.693-90.934,54.435C1045.705,1062.46,1045.369,1062.603,1045.032,1062.603z"/>
				</g>
				<g>
					<path style="fill:#C40808;" d="M1005.001,1067.035c15.231,4.911,30.574,5.803,42.583-2.261l-8.785,159.537
						c-7.788,10.266-25.453,10.138-37.088,2.551L1005.001,1067.035z"/>
				</g>
				<g>
					<path style="fill:#FF3333;" d="M1005.001,1067.035c0,0-90.609-56.87-148.001-51.652l7.719,184.403
						c56.629-9.706,136.99,27.076,136.99,27.076L1005.001,1067.035z"/>
				</g>
				<g>
					<path style="fill:#FF3333;" d="M1047.583,1064.774c0,0,45.74-57.635,106.014-55.078l-14.718,176.486
						c-43.269,1.028-100.081,38.13-100.081,38.13L1047.583,1064.774z"/>
				</g>
			</g>
			<g>
				<g>
					<path style="fill:#FFC7B6;" d="M1235.205,1116.962c42.234,20.887,28.608,107.348-20.506,121.397
						c-52.958,15.149-131.413,0.054-131.413,0.054l15.131-64.354C1157.932,1129.239,1205.577,1102.31,1235.205,1116.962z"/>
				</g>
				<g>
					<path style="fill:#FFC7B6;" d="M1102.48,1183.363c0,0-6.576-33.379-21.754-39.665c-15.178-6.286-68.081,5.31-62.227,18.986
						c4.146,9.688,28.313,5.99,35.845,3.672c5.476-1.685,9.549,4.971,2.338,7.179c-9.075,2.779-28.505,4.489-37.86,4.414
						c-15.465-0.125-42.997-16.557-51.037-21.502c-8.041-4.945-14.918,4.696-5.099,17.951c0,0-11.661-12.884-16.717-4.678
						c-6.001,9.739,10.071,23.746,10.071,23.746s-6.581,5.073,9.147,17.184c15.728,12.11,64.788,29.472,118.101,27.765
						L1102.48,1183.363z"/>
				</g>
				<g>
					<path style="fill:#EF9289;" d="M1032.11,1201.893c-0.012,0-0.023,0-0.035-0.001c-29.03-0.819-54.491-13.283-61.671-19.774
						c-0.488-0.442-0.527-1.197-0.085-1.686c0.445-0.49,1.198-0.526,1.687-0.085c6.951,6.285,31.729,18.357,60.137,19.159
						c0.659,0.019,1.178,0.568,1.16,1.227C1033.284,1201.381,1032.754,1201.893,1032.11,1201.893z"/>
				</g>
				<g>
					<path style="fill:#EF9289;" d="M1026.347,1220.818c-0.045,0-0.092-0.002-0.14-0.008c-28.974-3.378-44.814-10.305-60.979-20.386
						c-0.56-0.349-0.73-1.085-0.381-1.645c0.349-0.558,1.083-0.73,1.645-0.381c15.884,9.906,31.461,16.714,59.993,20.041
						c0.654,0.076,1.124,0.669,1.047,1.324C1027.46,1220.37,1026.945,1220.818,1026.347,1220.818z"/>
				</g>
				<g>
					<path style="fill:#EF9289;" d="M1083.499,1234.656c-0.389,0-0.772-0.19-1-0.541c-0.361-0.552-0.206-1.292,0.346-1.652
						c13.355-8.725,18.924-27.156,19.299-36.724c0.026-0.659,0.586-1.184,1.239-1.146c0.659,0.026,1.172,0.58,1.146,1.239
						c-0.393,10.044-6.272,29.413-20.378,38.63C1083.949,1234.593,1083.723,1234.656,1083.499,1234.656z"/>
				</g>
			</g>
		</g>
		<g>
			<path d="M995.436,899.956c-48.957,0-79.975-14.663-94.824-44.826c-0.437-0.887-0.072-1.961,0.816-2.397
				c0.887-0.437,1.961-0.072,2.397,0.815c14.187,28.818,44.153,42.827,91.612,42.827c39.361,0,63.411-16.221,69.549-46.909
				c0.193-0.97,1.145-1.599,2.106-1.405c0.97,0.193,1.599,1.137,1.405,2.107C1063.953,872.881,1047.591,899.956,995.436,899.956z"/>
		</g>
		<g>
			<path d="M952.308,1614.046c-0.055,0-0.108-0.002-0.164-0.008l-176.696-16c-0.984-0.089-1.71-0.959-1.622-1.944
				c0.091-0.985,0.95-1.717,1.946-1.622l176.696,16c0.984,0.089,1.71,0.959,1.622,1.944
				C954.005,1613.346,953.224,1614.046,952.308,1614.046z"/>
		</g>
		<g>
			<path d="M1008.651,1614.046c-0.913,0-1.693-0.695-1.78-1.622c-0.093-0.984,0.63-1.858,1.613-1.951l169.044-16
				c0.966-0.098,1.858,0.628,1.951,1.614c0.093,0.984-0.63,1.858-1.613,1.951l-169.044,16
				C1008.765,1614.043,1008.708,1614.046,1008.651,1614.046z"/>
		</g>
	</g>
	<g>
		<g>
			<g>
				
					<rect x="798.104" y="1546.258" transform="matrix(-1 -1.224647e-16 1.224647e-16 -1 1617.6665 3250.3123)" style="fill:#D05200;" width="21.459" height="157.797"/>
			</g>
			<g>
				
					<rect x="776.645" y="1546.258" transform="matrix(-1 -1.224647e-16 1.224647e-16 -1 1574.7491 3250.3123)" style="fill:#913400;" width="21.459" height="157.797"/>
			</g>
			<g>
				
					<rect x="686.711" y="1546.258" transform="matrix(-1 -1.224647e-16 1.224647e-16 -1 1394.8813 3250.3123)" style="fill:#913400;" width="21.459" height="157.797"/>
			</g>
			<g>
				
					<rect x="665.253" y="1546.258" transform="matrix(-1 -1.224647e-16 1.224647e-16 -1 1351.9642 3250.3123)" style="fill:#D05200;" width="21.459" height="157.797"/>
			</g>
			<g>
				
					<rect x="774.561" y="1489.862" transform="matrix(-1 -1.224647e-16 1.224647e-16 -1 1617.6665 3036.1196)" style="fill:#D05200;" width="68.544" height="56.396"/>
			</g>
			<g>
				
					<rect x="641.71" y="1489.862" transform="matrix(-1 -1.224647e-16 1.224647e-16 -1 1416.2716 3036.1196)" style="fill:#913400;" width="132.851" height="56.396"/>
			</g>
		</g>
		<g>
			<g>
				<path style="fill:#2F68AF;" d="M456.873,1256.71c-1.044-6.956-24.116-20.174-11.594-35.662
					c12.522-15.488,37.449-15.793,30.841-25.554c-6.609-9.76-13.565-5.587-2.435-18.456c11.131-12.87,29.614-4.702,16.348-14.725
					c-3.942-2.978-23.675-7.732-10.667-19.918c6.957-6.517,26.626-13.409,25.93-27.12c-0.696-13.71-2.394-36.325,9.433-50.238
					c11.826-13.913,66.212-86.957,131.715-56.696c0,0,22.373-8.348,50.199,29.217c27.826,37.565,25.044,79.129,16,88.26
					c-9.044,9.131-40.348,22.697-40.348,22.697s20.406,31.652,15.073,42.087c-5.333,10.435-19.826,4.174-11.71,11.478
					c8.116,7.304,21.913,4.522,11.71,13.913c-10.203,9.391,7.42,24.348,0,32.696s-37.531,8.019-37.531,8.019H456.873z"/>
			</g>
			<g>
				<path style="fill:#FF80C6;" d="M493.097,1261.827c-0.231,0-0.464-0.066-0.669-0.206c-4.493-3.047-6.881-7.253-6.725-11.844
					c0.224-6.6,5.501-13.24,14.857-18.697c2.962-1.728,4.52-3.303,4.761-4.814c0.329-2.071-1.856-4.527-4.386-7.371
					c-4.284-4.817-10.152-11.416-8.843-21.752c1.653-13.039,5.797-14.076,12.426-14.235c3.163-0.075,6.434-0.153,9.923-2.621
					c1.393-0.986,2.117-1.933,2.212-2.895c0.188-1.91-2.073-4.295-4.466-6.821c-3.84-4.05-8.617-9.091-6.819-15.757
					c1.592-5.9,4.953-7.76,8.511-9.728c5.331-2.949,11.374-6.292,13.611-25.924c0.073-0.655,0.659-1.133,1.321-1.051
					c0.655,0.075,1.125,0.666,1.05,1.321c-2.376,20.855-9.279,24.674-14.826,27.743c-3.371,1.865-6.034,3.337-7.362,8.26
					c-1.45,5.373,2.639,9.687,6.246,13.493c2.9,3.06,5.404,5.703,5.109,8.698c-0.168,1.693-1.217,3.201-3.21,4.61
					c-4.084,2.888-8.054,2.983-11.243,3.059c-5.179,0.124-8.6,0.205-10.114,12.148c-1.174,9.261,4.057,15.141,8.259,19.865
					c2.933,3.298,5.466,6.146,4.958,9.333c-0.365,2.295-2.245,4.36-5.915,6.501c-8.623,5.028-13.478,10.965-13.674,16.715
					c-0.129,3.796,1.835,7.181,5.679,9.787c0.546,0.37,0.688,1.112,0.318,1.658C493.856,1261.643,493.479,1261.827,493.097,1261.827
					z"/>
			</g>
			<g>
				<path style="fill:#FF80C6;" d="M472.64,1257.906c-0.324,0-0.648-0.132-0.884-0.391c-0.443-0.488-0.407-1.243,0.08-1.686
					c0.589-0.535,1.414-1.108,2.371-1.771c2.89-2.005,6.849-4.75,7.24-8.499c0.245-2.344-0.962-4.944-3.588-7.73
					c-0.525-0.557-1.654-1.299-2.85-2.085c-3.582-2.354-8.488-5.579-8.7-10.604c-0.162-3.821,2.426-7.774,7.911-12.085
					c11.258-8.848,10.426-13.944,9.623-18.872c-0.854-5.24-1.738-10.658,10.698-18.748c0.551-0.36,1.292-0.202,1.651,0.35
					c0.36,0.553,0.203,1.292-0.35,1.652c-11.13,7.24-10.44,11.467-9.643,16.362c0.873,5.35,1.862,11.415-10.503,21.133
					c-4.771,3.75-7.127,7.151-7.001,10.107c0.161,3.803,4.475,6.639,7.626,8.709c1.373,0.903,2.559,1.683,3.276,2.443
					c3.124,3.314,4.546,6.55,4.226,9.616c-0.506,4.838-5.169,8.072-8.255,10.212c-0.887,0.615-1.653,1.147-2.125,1.576
					C473.214,1257.803,472.927,1257.906,472.64,1257.906z"/>
			</g>
			<g>
				<path style="fill:#FF80C6;" d="M534.312,1222.243c-0.25,0-0.5-0.078-0.715-0.238c-0.528-0.396-0.635-1.144-0.239-1.671
					c2.552-3.406,3.603-5.942,3.124-7.541c-0.542-1.811-3.264-2.79-6.146-3.827c-4.932-1.774-11.07-3.982-10.186-11.807
					c0.671-5.945,5.555-9.094,9.863-11.874c3.571-2.303,6.654-4.292,6.589-7.268c-0.079-3.69-2.487-6.249-5.035-8.959
					c-2.553-2.714-5.192-5.522-5.566-9.614c-0.455-4.991,2.942-7.264,6.54-9.671c4.331-2.897,9.238-6.181,10.867-15.056
					c0.118-0.648,0.732-1.078,1.39-0.958c0.648,0.119,1.077,0.741,0.958,1.39c-1.81,9.867-7.398,13.605-11.887,16.609
					c-3.823,2.557-5.802,4.05-5.49,7.469c0.298,3.273,2.547,5.664,4.928,8.196c2.745,2.919,5.583,5.937,5.683,10.542
					c0.093,4.31-3.684,6.747-7.682,9.327c-4.051,2.613-8.241,5.315-8.784,10.135c-0.673,5.949,3.841,7.573,8.621,9.292
					c3.464,1.247,6.737,2.423,7.625,5.389c0.729,2.43-0.385,5.498-3.502,9.657C535.033,1222.078,534.675,1222.243,534.312,1222.243z
					"/>
			</g>
			<g>
				<path style="fill:#FF80C6;" d="M548.683,1214.78c-0.174,0-0.351-0.038-0.518-0.119c-1.261-0.608-12.316-6.101-12.305-11.535
					c0.003-1.949,1.294-3.553,3.834-4.768c15.289-7.306,13.482-15.2,11.888-22.166c-1.176-5.141-2.393-10.458,4.784-13.362
					c6.514-2.635,5.721-7.938,3.888-16.373c-0.562-2.581-1.142-5.25-1.383-7.887c-0.059-0.657,0.424-1.237,1.081-1.297
					c0.67-0.048,1.237,0.424,1.297,1.081c0.226,2.49,0.792,5.086,1.337,7.596c1.664,7.654,3.385,15.57-5.325,19.094
					c-5.056,2.045-4.627,5.047-3.353,10.616c1.616,7.057,3.827,16.723-13.184,24.853c-1.643,0.785-2.476,1.666-2.477,2.618
					c-0.006,2.978,6.717,7.335,10.956,9.381c0.593,0.286,0.843,1,0.556,1.594C549.554,1214.532,549.127,1214.78,548.683,1214.78z"/>
			</g>
			<g>
				<polygon style="fill:#E88885;" points="750.439,1311.45 825.106,1427.359 690.964,1427.359 690.964,1329.521 				"/>
			</g>
			<g>
				<g>
					<path style="fill:#FFB600;" d="M511.11,1204.213l-47.513,226.006c0,0-30.609,71.344-40.348,178.008l325.514-4.938
						c0,0-21.413-67.619-40.593-113.426c0,0,12.35-127.633-7.821-193.156l-1.62-70.624c-27.826-21.391-68.087-34.287-93.817-38.683
						C579.182,1183.003,537.682,1190.326,511.11,1204.213z"/>
				</g>
				<g>
					<path style="fill:#B55804;" d="M608.19,1270.944c-32.393,0-60.826-23.579-70.958-61.09c-0.258-0.955,0.308-1.937,1.261-2.196
						c0.956-0.256,1.938,0.306,2.196,1.262c11.318,41.904,46.386,65.65,83.38,56.469c29.653-7.362,32.038-51.699,32.059-52.146
						c0.047-0.987,0.881-1.752,1.87-1.706c0.987,0.045,1.752,0.882,1.707,1.869c-0.088,1.934-2.522,47.451-34.773,55.458
						C619.286,1270.266,613.678,1270.944,608.19,1270.944z"/>
				</g>
				<g>
					<path style="fill:#B55804;" d="M710.256,1358.626c-0.928,0-1.714-0.716-1.784-1.658c-1.813-24.325-5.121-44.424-9.834-59.736
						c-0.291-0.946,0.239-1.947,1.184-2.238c0.948-0.291,1.948,0.239,2.238,1.184c4.792,15.568,8.151,35.931,9.983,60.524
						c0.073,0.986-0.667,1.845-1.653,1.919C710.346,1358.625,710.301,1358.626,710.256,1358.626z"/>
				</g>
				<g>
					<path style="fill:#B55804;" d="M702.197,1305.012c-0.436,0-0.872-0.158-1.217-0.477c-0.725-0.672-0.768-1.805-0.097-2.53
						c6.754-7.29,14.709-29.332,16.243-41.594c0.122-0.981,1.028-1.671,1.999-1.554c0.98,0.122,1.676,1.018,1.554,1.999
						c-1.63,13.037-9.873,35.709-17.169,43.584C703.158,1304.819,702.677,1305.012,702.197,1305.012z"/>
				</g>
			</g>
			<g>
				<path style="fill:#FFB600;" d="M698.729,1226.082c26.667,22.725,74.899,83.66,74.899,83.66s-20.883,50.949-97.934,84.802
					l-3.399-153.621L698.729,1226.082z"/>
			</g>
			<g>
				<g>
					<path style="fill:#FFD4CA;" d="M551.685,1198.539l14.061-28.6l87.939,17.319c-5.971,41.607-22.756,70.308-40.986,69.434
						C578.844,1255.068,545.964,1220.107,551.685,1198.539z"/>
				</g>
				<g>
					<path style="fill:#E88885;" d="M653.692,1187.256c-1.498,10.381-3.665,19.958-6.362,28.473
						c-20.912,5.136-52.286,8.474-93.292,0.777c-2.806-6.348-3.787-12.574-2.357-17.969l14.059-28.595L653.692,1187.256z"/>
				</g>
				<g>
					<path style="fill:#FFD4CA;" d="M689.685,1115.299c0,0-8.412,32.827-10.894,44.348c-2.482,11.521,0.064,57.127-58.538,53.958
						c-26.569-1.436-47.663-29.897-54.507-43.667c0,0,9.504-9.944,8.982-18.292c-0.522-8.348-5.122-14.457-4.174-18.957
						c0.948-4.5,7.652-0.174,7.13-6.609c-0.522-6.435-5.739-9.043-1.565-15.304c4.747-7.12,14.261-13.913,14.261-13.913
						s-2.957,7.13-3.13,8.87c-0.174,1.739,41.391-0.87,48.696-15.652c0,0-5.097,12.101-2.722,12.637
						c2.375,0.536,19.221-7.941,22.624-26.724c0,0,15.313,16.871,3.75,22.957c-3.304,1.739,2.733,4.696,7.019,3.652
						c0,0-9.169,6.208-6.845,8.174c2.324,1.966,16.825-3.093,21.545-10.957c0,0-8.154,11.478-6.067,14.261
						c2.087,2.783,9.739-2.435,13.565-13.217C688.816,1100.864,681.317,1118.777,689.685,1115.299z"/>
				</g>
				<g>
					<path d="M641.104,1175.379c-0.745,0-1.408-0.526-1.555-1.284c-0.168-0.859,0.394-1.692,1.253-1.86
						c2.041-0.398,7.668-2.07,9.185-4.985c0.689-1.324-0.444-4.439-1.644-7.736c-1.464-4.025-3.286-9.033-3.463-14.584
						c-0.028-0.875,0.659-1.608,1.534-1.636c0.87-0.033,1.609,0.659,1.637,1.535c0.162,5.044,1.887,9.789,3.275,13.601
						c1.569,4.315,2.809,7.724,1.476,10.285c-2.492,4.789-10.491,6.461-11.394,6.636
						C641.305,1175.37,641.204,1175.379,641.104,1175.379z"/>
				</g>
				<g>
					<path style="fill:#2F68AF;" d="M687.367,1115.9c-0.67,0-1.293-0.427-1.51-1.099c-1.133-3.51-3.529-5.844-6.927-6.749
						c-5.212-1.39-12.115,0.76-17.164,5.348c-0.647,0.589-1.649,0.542-2.241-0.107c-0.589-0.649-0.541-1.652,0.107-2.241
						c5.904-5.368,13.8-7.749,20.115-6.067c4.426,1.18,7.669,4.319,9.129,8.84c0.269,0.833-0.189,1.728-1.022,1.997
						C687.692,1115.876,687.528,1115.9,687.367,1115.9z"/>
				</g>
				<g>
					<path style="fill:#1C2228;" d="M664.575,1147.121c-1.163,4.466-4.309,7.513-7.026,6.805c-2.717-0.708-3.976-4.902-2.813-9.368
						c1.163-4.466,4.309-7.513,7.026-6.805C664.479,1138.461,665.739,1142.655,664.575,1147.121z"/>
				</g>
				<g>
					<path style="fill:#FFFFFF;" d="M648.99,1181.309c-7.884,6.512-35.766,0.673-46.637-12.582c0,0-11.436,32.462,16.26,36.72
						C642.729,1209.155,648.99,1181.309,648.99,1181.309z"/>
				</g>
				<g>
					<path style="fill:#2F68AF;" d="M637.976,1110.596c-0.47,0-0.934-0.208-1.246-0.604c-3.565-4.52-22.571-19.79-43.825-5.964
						c-0.733,0.477-1.717,0.271-2.195-0.465c-0.477-0.734-0.269-1.717,0.465-2.195c21.164-13.767,41.853-1.191,48.044,6.659
						c0.543,0.688,0.426,1.685-0.262,2.228C638.666,1110.485,638.32,1110.596,637.976,1110.596z"/>
				</g>
				<g>
					<path style="fill:#1C2228;" d="M626.43,1140.478c-1.358,5.212-5.224,8.717-8.635,7.828c-3.411-0.889-5.076-5.834-3.718-11.046
						c1.358-5.212,5.224-8.717,8.635-7.828C626.123,1130.32,627.788,1135.265,626.43,1140.478z"/>
				</g>
				<g>
					<path style="fill:#FFFFFF;" d="M622.514,1135.587c-0.434,1.666-1.911,2.723-3.3,2.361c-1.388-0.362-2.162-2.005-1.728-3.671
						c0.434-1.666,1.911-2.723,3.3-2.361S622.948,1133.922,622.514,1135.587z"/>
				</g>
				<g>
					<path style="fill:#FFFFFF;" d="M661.511,1142.879c-0.32,1.229-1.411,2.01-2.435,1.743c-1.025-0.267-1.596-1.48-1.276-2.709
						c0.32-1.229,1.41-2.009,2.435-1.742C661.26,1140.437,661.831,1141.65,661.511,1142.879z"/>
				</g>
				<g>
					<path style="fill:#1A2F47;" d="M602.36,1133.537c-0.26,0-0.515-0.085-0.725-0.246l-6.589-5.044
						c-0.523-0.4-0.624-1.15-0.223-1.673c0.4-0.523,1.152-0.624,1.673-0.222l5.369,4.11c5.883-12.934,15.972-12.63,19.011-12.204
						c5.649,0.788,10.072,4.465,10.517,8.744c0.069,0.656-0.407,1.243-1.063,1.311c-0.666,0.063-1.243-0.409-1.31-1.064
						c-0.329-3.15-3.972-5.999-8.474-6.627c-2.72-0.38-11.958-0.618-17.078,12.165c-0.14,0.346-0.432,0.608-0.793,0.707
						C602.572,1133.523,602.466,1133.537,602.36,1133.537z"/>
				</g>
				<g>
					<path style="fill:#1A2F47;" d="M671.714,1147.971c-0.205,0-0.41-0.053-0.596-0.159c-0.395-0.227-0.626-0.661-0.596-1.116
						c0.604-8.82-2.506-13.446-5.619-14.833c-2.751-1.229-5.939-0.274-8.75,2.617c-0.458,0.473-1.217,0.484-1.687,0.025
						c-0.473-0.459-0.485-1.215-0.026-1.688c3.496-3.597,7.773-4.768,11.435-3.134c4.437,1.979,7.063,7.543,7.105,14.797
						l2.006-1.357c0.548-0.371,1.288-0.226,1.658,0.32c0.37,0.546,0.226,1.288-0.319,1.657l-3.943,2.667
						C672.182,1147.902,671.949,1147.971,671.714,1147.971z"/>
				</g>
			</g>
			<g>
				<g>
					
						<rect x="640.787" y="1252.824" transform="matrix(-0.8224 0.5688 -0.5688 -0.8224 1938.598 2049.9929)" style="fill:#305477;" width="17.152" height="149.446"/>
				</g>
				<g>
					<polygon style="fill:#AACFE8;" points="701.074,1408.617 706.974,1404.537 699.021,1384.267 684.915,1394.024 					"/>
				</g>
				<g>
					<path style="fill:#305477;" d="M706.892,1411.486l0.714-0.494c1.018-0.704,1.272-2.099,0.568-3.117l-1.95-2.82l-4.399,3.042
						l1.95,2.82C704.479,1411.936,705.874,1412.19,706.892,1411.486z"/>
				</g>
				<g>
					<path style="fill:#AACFE8;" d="M624.415,1307.873l0.618-0.427l-25.228-36.476l-0.618,0.427
						c-1.762,1.219-2.202,3.635-0.984,5.396l20.815,30.095C620.237,1308.651,622.653,1309.091,624.415,1307.873z"/>
				</g>
				<g>
					
						<rect x="605.881" y="1273.249" transform="matrix(-0.8224 0.5688 -0.5688 -0.8224 1846.2693 1977.8837)" style="fill:#AACFE8;" width="17.152" height="7.66"/>
				</g>
				<g>
					<path style="fill:#AACFE8;" d="M599.805,1270.97l14.106-9.757l-5.67-8.198c-2.257-3.263-6.732-4.079-9.995-1.822l-2.289,1.583
						c-3.263,2.257-4.079,6.732-1.822,9.995L599.805,1270.97z"/>
				</g>
			</g>
			<g>
				<g>
					<path style="fill:#B55804;" d="M533.166,1374.224c-0.097,0-0.193-0.008-0.291-0.023c-0.977-0.16-1.638-1.081-1.478-2.057
						c7.668-46.792-1.653-109.053-11.711-133.091c-0.381-0.912,0.049-1.961,0.961-2.343c0.917-0.382,1.962,0.048,2.343,0.961
						c10.224,24.434,19.713,87.632,11.942,135.052C534.786,1373.601,534.027,1374.224,533.166,1374.224z"/>
				</g>
				<g>
					<path style="fill:#B55804;" d="M401.452,1314.176c-11.594,16.913-5.159,38.348,56.058,58.258l21.217-72.438l-64,4.174
						L401.452,1314.176z"/>
				</g>
				<g>
					<path style="fill:#FFD4CA;" d="M431.13,1333.891c20.873-39.866,34.554-59.982,34.554-59.982l53.911,58.841l13.568,39.684
						l-88.116,15.834L431.13,1333.891z"/>
				</g>
				<g>
					<path style="fill:#FFB600;" d="M401.452,1314.176c0,0,87.189-5.826,131.711,58.258l-22.052-168.221
						C482.119,1219.039,432.695,1270.316,401.452,1314.176z"/>
				</g>
				<g>
					<path style="fill:#FFD4CA;" d="M685.02,1374.75c1.722,0.127,4,0.426,4.854-1.073c2.246-3.942-9.573-23.891-20.036-30.324
						c-8.767-5.39-34.423-11.914-41.718-10.14s-40.513,22.357-40.513,22.357l-156.477-21.679
						c-21.569,38.707-28.055,88.598,8.908,108.634c35.565,19.278,151.908-28.43,151.908-28.43
						c19.024,3.945,29.333-5.983,29.333-5.983s46.64,6.948,48.558-0.929c0.95-3.903-6.346-5.364-9.022-6.222
						c3.809,1.085,18.417,1.503,19.242-2.753c0.889-4.585-2.393-7.264-5.435-8.75c5.657,2.02,17.177,5.149,20.801-1.257
						C697.969,1383.702,691.68,1378.612,685.02,1374.75z"/>
				</g>
				<g>
					<path style="fill:#E88885;" d="M495.193,1343.96c-0.055,0-0.11-0.004-0.166-0.011l-56.194-7.785
						c-0.653-0.091-1.109-0.694-1.018-1.346c0.091-0.653,0.688-1.111,1.346-1.019l56.194,7.785c0.653,0.091,1.109,0.694,1.018,1.346
						C496.291,1343.527,495.78,1343.96,495.193,1343.96z"/>
				</g>
				<g>
					<path style="fill:#E88885;" d="M675.692,1372.205c-0.163,0-0.33-0.034-0.488-0.106l-45.834-20.638
						c-0.602-0.27-0.87-0.977-0.599-1.578c0.272-0.6,0.979-0.868,1.578-0.598l45.834,20.638c0.602,0.271,0.87,0.977,0.599,1.578
						C676.582,1371.943,676.148,1372.205,675.692,1372.205z"/>
				</g>
				<g>
					<path style="fill:#E88885;" d="M668.878,1387.891c-0.132,0-0.266-0.022-0.396-0.068l-44.525-15.687
						c-0.622-0.219-0.949-0.901-0.73-1.523c0.218-0.621,0.904-0.947,1.523-0.729l44.525,15.687c0.622,0.219,0.949,0.901,0.73,1.523
						C669.832,1387.584,669.37,1387.891,668.878,1387.891z"/>
				</g>
				<g>
					<path style="fill:#E88885;" d="M652.144,1400.918c-0.092,0-0.184-0.01-0.277-0.033l-30.458-7.246
						c-0.641-0.152-1.038-0.796-0.885-1.437c0.153-0.642,0.801-1.033,1.437-0.885l30.458,7.246c0.641,0.152,1.037,0.796,0.885,1.437
						C653.173,1400.55,652.684,1400.918,652.144,1400.918z"/>
				</g>
				<g>
					<path style="fill:#E88885;" d="M670.376,1369.81c-0.311,0-0.621-0.121-0.856-0.361c-3.743-3.849-8.065-8.088-8.814-8.521
						c-1.106-0.5-12.829-2.949-19.951-4.372c-0.646-0.129-1.066-0.758-0.936-1.404c0.128-0.646,0.752-1.067,1.405-0.937
						c4.502,0.899,19.296,3.892,20.629,4.618c1.329,0.725,7.516,7.035,9.38,8.952c0.459,0.473,0.449,1.228-0.023,1.688
						C670.976,1369.697,670.676,1369.81,670.376,1369.81z"/>
				</g>
				<g>
					<path style="fill:#E88885;" d="M591.937,1414.11c-1.499,0.599-116.561,47.572-151.899,28.418
						c-14.836-8.051-22.683-20.898-25.353-35.911C462.666,1449.49,590.139,1414.601,591.937,1414.11z"/>
				</g>
				<g>
					<path style="fill:#B55804;" d="M534.313,1301.787c-0.73,0-1.415-0.449-1.681-1.174c-8.398-22.899-31.419-48.412-54.736-60.665
						c-0.875-0.46-1.212-1.542-0.753-2.418c0.46-0.876,1.539-1.212,2.419-0.752c24.026,12.625,47.759,38.953,56.432,62.602
						c0.34,0.928-0.136,1.957-1.064,2.298C534.726,1301.751,534.518,1301.787,534.313,1301.787z"/>
				</g>
			</g>
			<g>
				<path style="fill:#FFD4CA;" d="M825.704,1417.545c-5.406,17.061-31.016,15.611-53.235,15.611
					c-22.22,0-31.579-16.254-26.553-33.431c7.189-24.563,29.567-32.424,53.683-22.453
					C824.139,1387.418,829.688,1404.968,825.704,1417.545z"/>
			</g>
		</g>
		<g>
			<path style="fill:#305477;" d="M423.249,1608.226c-3.71,38.612,1.855,80.235,33.392,111.308h217.044l5.547-147.943
				C580.004,1557.678,466.38,1581.794,423.249,1608.226z"/>
		</g>
		<g>
			<g>
				<g>
					<path style="fill:#913400;" d="M377.344,2089.014h12.077c5.994,0,10.854-4.859,10.854-10.854v-343.242h-33.785v343.242
						C366.491,2084.155,371.35,2089.014,377.344,2089.014z"/>
				</g>
				<g>
					<path style="fill:#913400;" d="M645.069,2089.014h12.077c5.994,0,10.854-4.859,10.854-10.854v-343.242h-33.784v343.242
						C634.215,2084.155,639.075,2089.014,645.069,2089.014z"/>
				</g>
			</g>
			<g>
				<g>
					<path style="fill:#D05200;" d="M525.431,2089.014h12.077c5.994,0,10.854-4.859,10.854-10.854v-343.242h-33.784v343.242
						C514.577,2084.155,519.437,2089.014,525.431,2089.014z"/>
				</g>
				<g>
					<path style="fill:#D05200;" d="M793.156,2089.014h12.077c5.994,0,10.854-4.859,10.854-10.854v-343.242h-33.785v343.242
						C782.302,2084.155,787.162,2089.014,793.156,2089.014z"/>
				</g>
			</g>
			<g>
				
					<rect x="511.11" y="1704.054" transform="matrix(-1 -1.224647e-16 1.224647e-16 -1 1330.6642 3447.947)" style="fill:#D05200;" width="308.443" height="39.838"/>
			</g>
			<g>
				
					<rect x="363.075" y="1704.054" transform="matrix(-1 -1.224647e-16 1.224647e-16 -1 874.1856 3447.947)" style="fill:#913400;" width="148.035" height="39.838"/>
			</g>
		</g>
		<g>
			<g>
				<g>
					<path style="fill:#FFB600;" d="M651.808,1945.722l-40.058,90.198l176.062,59.328c0,0,15.261-75.578-60.647-116.948
						L651.808,1945.722z"/>
				</g>
				<g>
					<path style="fill:#C5DAE2;" d="M787.809,2095.247l-176.058-59.332l7.633-17.2l169.661,58.333
						C789.245,2088.122,787.809,2095.247,787.809,2095.247z"/>
				</g>
				<g>
					<path style="fill:#C5DAE2;" d="M789.046,2077.048l-81.152-27.906c0,0,7.099-41.006,51.375-46.506
						C783.693,2028.508,788.703,2058.39,789.046,2077.048z"/>
				</g>
				<g>
					<path d="M779.42,2075.593c-0.201,0-0.403-0.033-0.603-0.101l-63.653-21.888c-0.969-0.333-1.484-1.388-1.152-2.357
						c0.333-0.969,1.392-1.483,2.357-1.151l63.653,21.888c0.969,0.333,1.484,1.388,1.152,2.357
						C780.91,2075.11,780.19,2075.593,779.42,2075.593z"/>
				</g>
			</g>
			<g>
				<path style="fill:#305477;" d="M657.674,1569.171c0,0,152.36,3.812,192.244,27c39.884,23.189,25.121,90.133,8.556,144.233
					c-16.565,54.1-110.586,248.117-110.586,248.117l-128.464-56.116L657.674,1569.171z"/>
			</g>
			<g>
				<path style="fill:#B89475;" d="M746.232,1947.645c-0.228,0-0.46-0.044-0.684-0.137l-96.217-39.884
					c-0.914-0.379-1.348-1.426-0.969-2.34c0.378-0.914,1.427-1.347,2.34-0.969l96.217,39.884c0.914,0.379,1.347,1.426,0.969,2.34
					C747.601,1947.229,746.935,1947.645,746.232,1947.645z"/>
			</g>
		</g>
		<g>
			<g>
				
					<rect x="511.11" y="1546.258" transform="matrix(-1 -1.224647e-16 1.224647e-16 -1 1043.6794 3250.3123)" style="fill:#D05200;" width="21.459" height="157.797"/>
			</g>
			<g>
				
					<rect x="489.652" y="1546.258" transform="matrix(-1 -1.224647e-16 1.224647e-16 -1 1000.7621 3250.3123)" style="fill:#913400;" width="21.459" height="157.797"/>
			</g>
			<g>
				
					<rect x="399.718" y="1546.258" transform="matrix(-1 -1.224647e-16 1.224647e-16 -1 820.8942 3250.3123)" style="fill:#913400;" width="21.459" height="157.797"/>
			</g>
			<g>
				
					<rect x="378.259" y="1546.258" transform="matrix(-1 -1.224647e-16 1.224647e-16 -1 777.977 3250.3123)" style="fill:#D05200;" width="21.459" height="157.797"/>
			</g>
			<g>
				
					<rect x="487.568" y="1489.862" transform="matrix(-1 -1.224647e-16 1.224647e-16 -1 1043.6794 3036.1196)" style="fill:#D05200;" width="68.544" height="56.396"/>
			</g>
			<g>
				
					<rect x="354.717" y="1489.862" transform="matrix(-1 -1.224647e-16 1.224647e-16 -1 842.2844 3036.1196)" style="fill:#913400;" width="132.851" height="56.396"/>
			</g>
		</g>
		<g>
			<g>
				<g>
					<path style="fill:#FFB600;" d="M570.824,1949.26l-40.058,90.198l176.062,59.328c0,0,15.261-75.578-60.646-116.948
						L570.824,1949.26z"/>
				</g>
				<g>
					<path style="fill:#C5DAE2;" d="M706.825,2098.785l-176.058-59.332l7.633-17.2l169.661,58.333
						C708.26,2091.66,706.825,2098.785,706.825,2098.785z"/>
				</g>
				<g>
					<path style="fill:#C5DAE2;" d="M708.061,2080.586l-81.152-27.906c0,0,7.099-41.006,51.375-46.505
						C702.709,2032.047,707.718,2061.928,708.061,2080.586z"/>
				</g>
				<g>
					<path d="M698.435,2079.131c-0.201,0-0.403-0.033-0.603-0.101l-63.652-21.888c-0.969-0.333-1.484-1.388-1.152-2.357
						c0.333-0.969,1.392-1.482,2.357-1.15l63.653,21.888c0.969,0.333,1.484,1.388,1.152,2.357
						C699.925,2078.648,699.206,2079.131,698.435,2079.131z"/>
				</g>
			</g>
			<g>
				<path style="fill:#305477;" d="M679.233,1571.591c88.982,14.145,90.453,52.406,88.714,107.363
					c-1.739,54.957-91.131,316.523-91.131,316.523l-115.013-43.215c0,0,16.578-180.786,42.665-277.83
					C617.274,1626.792,654.078,1567.592,679.233,1571.591z"/>
			</g>
			<g>
				<path style="fill:#4C6E89;" d="M696.513,1938.244c-0.185,0-0.373-0.029-0.558-0.09c-0.94-0.308-1.451-1.32-1.142-2.26
					c26.126-79.605,70.138-218.846,71.345-256.997c1.482-46.843-0.739-76.565-43.99-94.307c-0.915-0.375-1.352-1.421-0.977-2.336
					c0.375-0.914,1.42-1.352,2.336-0.977c48.671,19.965,47.476,57.74,46.21,97.733c-1.222,38.599-45.335,178.213-71.522,258.001
					C697.967,1937.766,697.266,1938.244,696.513,1938.244z"/>
			</g>
			<g>
				<path style="fill:#B89475;" d="M674.612,1962.022c-0.203,0-0.409-0.035-0.611-0.108l-94.609-34.319
					c-0.929-0.338-1.409-1.365-1.073-2.294c0.338-0.93,1.366-1.408,2.294-1.073l94.609,34.319c0.929,0.338,1.409,1.365,1.073,2.294
					C676.031,1961.569,675.344,1962.022,674.612,1962.022z"/>
			</g>
			<g>
				<path style="fill:#B89475;" d="M586.008,1940.225c-0.124,0-0.249-0.013-0.375-0.04c-0.966-0.206-1.584-1.157-1.378-2.124
					c24.339-114.385,59.672-287.42,57.704-297.423c-4.128-5.489-14.547-5.575-14.653-5.575c-0.987-0.002-1.788-0.804-1.787-1.792
					c0.001-0.989,0.801-1.789,1.789-1.789c0.51,0,12.575,0.082,17.689,7.242c1.088,1.523,3.352,4.692-26.729,153.166
					c-14.794,73.019-30.354,146.186-30.511,146.916C587.579,1939.648,586.835,1940.225,586.008,1940.225z M642.083,1640.806h0.012
					H642.083z M641.931,1640.516L641.931,1640.516L641.931,1640.516z"/>
			</g>
			<g>
				<path style="fill:#4C6E89;" d="M598.777,1700.82c-0.126,0-0.254-0.013-0.382-0.041c-0.966-0.21-1.578-1.164-1.37-2.13
					c0.024-0.114,0.11-0.565,0.251-1.304c5.325-28.056,9.495-44.628,12.055-53.589c0.272-0.951,1.265-1.499,2.214-1.23
					c0.951,0.272,1.501,1.263,1.23,2.214c-2.54,8.89-6.681,25.349-11.98,53.273c-0.151,0.797-0.244,1.281-0.269,1.399
					C600.341,1700.249,599.6,1700.82,598.777,1700.82z"/>
			</g>
			<g>
				<path style="fill:#4C6E89;" d="M601.1,1688.847c-0.471,0-0.942-0.185-1.293-0.552c-0.565-0.59-13.85-14.648-13.877-31.176
					c-0.001-0.989,0.799-1.792,1.788-1.793c0,0,0.001,0,0.002,0c0.987,0,1.789,0.8,1.791,1.788
					c0.025,15.074,12.754,28.57,12.883,28.705c0.683,0.715,0.658,1.848-0.057,2.531
					C601.991,1688.682,601.544,1688.847,601.1,1688.847z"/>
			</g>
		</g>
	</g>
	<g>
		<g>
			<path style="fill:#C6173D;" d="M1269.716,1186.67c-48.708,21.856-86.752,223.391-86.752,223.391s127.425,37.605,125.626,35.75
				c-1.799-1.855-7.828-231.885-9.219-231.885C1297.979,1213.925,1269.716,1186.67,1269.716,1186.67z"/>
		</g>
		<g>
			<path style="fill:#89090F;" d="M1287.019,1304.743c-0.333,0-0.669-0.092-0.969-0.286c-27.037-17.431-40.862-52.637-44.769-70.691
				c-0.21-0.967,0.405-1.92,1.371-2.129c0.968-0.211,1.92,0.403,2.129,1.371c3.791,17.516,17.157,51.642,43.209,68.439
				c0.831,0.536,1.071,1.644,0.535,2.475C1288.182,1304.453,1287.606,1304.743,1287.019,1304.743z"/>
		</g>
		<g>
			<path style="fill:#EA7554;" d="M1098.961,1405.185c0,0,87.735-31.59,162.055-10.059c45.552,13.197,39.293,64.077,21.544,84.573
				c-21.544,24.877-157.164-11.76-184.035-30.459L1098.961,1405.185z"/>
		</g>
		<g>
			<g>
				<rect x="1144.73" y="1546.258" style="fill:#D05200;" width="21.459" height="157.797"/>
			</g>
			<g>
				<rect x="1166.189" y="1546.258" style="fill:#913400;" width="21.459" height="157.797"/>
			</g>
			<g>
				<rect x="1256.123" y="1546.258" style="fill:#913400;" width="21.459" height="157.797"/>
			</g>
			<g>
				<rect x="1277.582" y="1546.258" style="fill:#D05200;" width="21.459" height="157.797"/>
			</g>
			<g>
				<rect x="1121.188" y="1489.862" style="fill:#D05200;" width="68.544" height="56.396"/>
			</g>
			<g>
				<rect x="1189.732" y="1489.862" style="fill:#913400;" width="132.851" height="56.396"/>
			</g>
		</g>
		<g>
			<g>
				<path style="fill:#C6173D;" d="M1542.986,1165.921c39.787,12.121,18.15,413.604,18.15,413.604l-285.109-20.791l-6.312-372.064
					c35.33-17.612,60.01-20.161,111.338-26.542C1455.661,1150.852,1522.638,1159.722,1542.986,1165.921z"/>
			</g>
		</g>
		<g>
			<path style="fill:#89090F;" d="M1503.367,1313.09c-0.423,0-0.847-0.149-1.188-0.452c-22.824-20.288-31.111-53.829-33.614-67.308
				c-0.181-0.972,0.46-1.907,1.434-2.087c0.966-0.182,1.907,0.461,2.087,1.433c2.436,13.116,10.476,45.734,32.472,65.286
				c0.74,0.657,0.807,1.789,0.149,2.528C1504.354,1312.888,1503.862,1313.09,1503.367,1313.09z"/>
		</g>
		<g>
			<path style="fill:#89090F;" d="M1507.892,1326.309c-0.133,0-0.268-0.015-0.403-0.047c-14.67-3.385-35.735-10.285-49.268-31.027
				c-0.541-0.828-0.308-1.938,0.521-2.478c0.828-0.54,1.936-0.308,2.477,0.521c12.828,19.66,33.01,26.249,47.075,29.495
				c0.964,0.222,1.564,1.184,1.343,2.147C1509.444,1325.749,1508.708,1326.309,1507.892,1326.309z"/>
		</g>
		<g>
			<g>
				<path style="fill:#89090F;" d="M1273.115,1373.858c-0.973,0-1.771-0.78-1.789-1.758l-2.33-127.064
					c-0.017-0.989,0.769-1.805,1.758-1.823c0.01-0.001,0.022-0.001,0.034-0.001c0.973,0,1.771,0.78,1.789,1.758l2.33,127.064
					c0.018,0.989-0.769,1.805-1.758,1.823C1273.139,1373.858,1273.127,1373.858,1273.115,1373.858z"/>
			</g>
		</g>
		<g>
			<g>
				<path style="fill:#FFC7B6;" d="M1459.719,1159.659c-5.912,26.079-50.882,34.378-74.157,34.393
					c-9.269,0.006-47.539,1.065-41.627-25.014c2.098-9.255,11.088-77.987,11.088-77.987l56.348-10.109l42.641,1.93
					L1459.719,1159.659z"/>
			</g>
			<g>
				<path style="fill:#EF9289;" d="M1455.883,1108.01c-52.86,48.103-72.107,55.927-111.751,60.16
					c2.384-12.016,10.885-77.121,10.885-77.121l56.359-10.109l42.641,1.935L1455.883,1108.01z"/>
			</g>
			<g>
				<path style="fill:#374747;" d="M1479.457,975.685c-5.63-11.728-17.859-13.515-17.859-13.515s25.154,2.165,12.649-4.231
					c-12.505-6.396-17.148,0.104-17.148,0.104c-2.579-47.837-76.261-43.119-112.819-16.486c-10.29,7.497-24.533-4.032-27.512-3.324
					c-2.651,0.63-1.153,14.93,4.329,20.39c-0.455,0.279-18.457-1.692-19.903,2.347c-0.815,2.276,6.851,12.614,6.851,12.614
					s-7.582-0.114-8.532,3.661c-0.95,3.775,15.763,35.442,15.763,35.442l0-0.001c0.816,1.893,1.359,3.009,1.359,3.009l11.261,28.344
					l109.413,30.332l24.911-17.787c23.895-42.735,19.131-50.347,19.131-50.347S1489.31,996.208,1479.457,975.685z"/>
			</g>
			<g>
				<path style="fill:#374747;" d="M1481.344,1006.239c0,0,4.772,7.61-19.13,50.345l-24.902,17.791l-109.41-30.336l-3.592-9.025
					l-7.68-19.323c0,0-0.532-1.111-1.357-3.005c0,0-16.705-31.659-15.762-35.437c0.956-3.776,8.538-3.664,8.538-3.664
					s-7.674-10.342-6.852-12.611c1.437-4.047,19.442-2.076,19.895-2.349c-5.478-5.456-6.971-19.757-4.325-20.386
					c2.979-0.717,17.227,10.808,27.517,3.322c36.558-26.64,110.241-31.361,112.817,16.488c0,0,4.646-6.511,17.15-0.116
					c12.503,6.409-12.655,4.242-12.655,4.242s12.229,1.778,17.866,13.509C1489.307,996.207,1481.344,1006.239,1481.344,1006.239z"/>
			</g>
			<g>
				<path style="fill:#1C2D2C;" d="M1414.608,987.08l-15.18,13.75l-75.118,34.184l-7.68-19.323c0,0-0.532-1.111-1.357-3.005
					c0,0-16.705-31.659-15.762-35.437c0.956-3.776,8.538-3.664,8.538-3.664s-7.674-10.342-6.852-12.611
					c0,0,17.533,3.866,26.305,8.584c0,0-2.295-8.154,0.557-9.029c2.838-0.862,22.477,8.02,22.477,8.02s-5.511-8.011-4.833-9.716
					c0.677-1.692,17.786,7.717,29.996,10.914c0,0-1.638-9.287,2.529-9.139C1382.41,960.757,1398.861,981.045,1414.608,987.08z"/>
			</g>
			<g>
				<path style="fill:#FFC7B6;" d="M1439.061,1067.742c0,0,6.85-33.329,27.472-25.639c20.622,7.69,11.183,42.238-10.763,49.278
					c-10.251,3.288-16.731-4.159-16.731-4.159s0.391,16.794-8.273,26.681c-19.366,22.1-42.352,32.476-57.305,32.392
					c-13.043-0.073-40.572-20.116-44.39-50.482c-6.219-49.456-21.114-80.033-6.334-106.68c0,0,19.092,8.549,30.363,8.199
					c29.059-0.902,53.259-20.987,78.766-3.209c0,0-8.09,39.775,1.849,44.372C1437.517,1040.254,1433.287,1076.269,1439.061,1067.742
					z"/>
			</g>
			<g>
				<path d="M1452.784,1084.323c-2.298,0-3.736-1.164-4.508-2.069c-4.081-4.786-2.625-17.079,2.995-25.296
					c4.923-7.196,10.025-6.273,11.993-5.542c4.014,1.492,6.651,6.103,6.132,10.727c-0.08,0.72-0.737,1.236-1.45,1.159
					c-0.722-0.081-1.24-0.731-1.159-1.451c0.381-3.405-1.568-6.906-4.438-7.973c-2.934-1.091-6.181,0.573-8.91,4.564
					c-5.278,7.717-6.152,18.607-3.165,22.11c0.443,0.519,1.785,2.1,5.474,0.36c0.655-0.31,1.437-0.029,1.749,0.627
					c0.309,0.656,0.028,1.438-0.627,1.748C1455.281,1084.035,1453.926,1084.323,1452.784,1084.323z"/>
			</g>
			<g>
				<path d="M1461.502,1078.164c-0.31,0-0.62-0.109-0.871-0.33c-0.542-0.481-0.593-1.31-0.112-1.854
					c1.834-2.07,1.923-7.864-0.586-11.674c-1.386-2.105-4.029-4.288-8.734-2.733c-0.69,0.227-1.432-0.146-1.658-0.835
					c-0.229-0.688,0.146-1.432,0.835-1.659c4.832-1.597,9.115-0.219,11.749,3.782c3.019,4.581,3.19,11.664,0.359,14.86
					C1462.226,1078.014,1461.865,1078.164,1461.502,1078.164z"/>
			</g>
			<g>
				<path d="M1355.458,1086.461c-0.072,0-0.145-0.005-0.217-0.015c-0.438-0.06-10.761-1.557-12.725-9.333
					c-1.867-7.384,13.384-21.493,16.46-24.246c0.653-0.585,1.655-0.529,2.24,0.124c0.584,0.653,0.528,1.655-0.123,2.24
					c-7.056,6.317-16.529,17.04-15.502,21.104c1.44,5.695,9.995,6.955,10.081,6.967c0.867,0.121,1.474,0.921,1.353,1.788
					C1356.916,1085.885,1356.237,1086.461,1355.458,1086.461z"/>
			</g>
			<g>
				<path style="fill:#FFFFFF;" d="M1396.734,1088.814c0,0-10.609,7.605-23.28,8.915c-16.484,1.703-20.648-1.827-20.648-1.827
					s0.7,40.228,28.701,31.557C1409.898,1118.667,1396.734,1088.814,1396.734,1088.814z"/>
			</g>
			<g>
				<path d="M1326.689,1029.494c-0.295,0-0.593-0.082-0.859-0.254c-0.736-0.475-0.948-1.457-0.473-2.193
					c6.38-9.888,20.849-11.576,27.122-7.845c0.753,0.448,1,1.422,0.551,2.175c-0.448,0.753-1.423,0.998-2.174,0.552
					c-5.255-3.128-17.577-1.309-22.832,6.838C1327.719,1029.238,1327.21,1029.494,1326.689,1029.494z"/>
			</g>
			<g>
				<path d="M1419.268,1021.888c-0.339,0-0.681-0.108-0.97-0.332c-15.383-11.898-34.993-5.314-38.406-1.044
					c-0.548,0.685-1.546,0.795-2.23,0.249c-0.684-0.547-0.795-1.545-0.248-2.229c4.781-5.982,26.476-12.13,42.827,0.515
					c0.692,0.536,0.819,1.532,0.283,2.225C1420.211,1021.676,1419.742,1021.888,1419.268,1021.888z"/>
			</g>
			<g>
				<path d="M1338.332,1057.66c0.627,5.229,3.368,9.2,6.121,8.87c2.753-0.33,4.477-4.837,3.85-10.066
					c-0.627-5.229-3.368-9.2-6.121-8.87S1337.705,1052.431,1338.332,1057.66z"/>
			</g>
			<g>
				<path d="M1382.286,1053.799c0.714,5.951,4.106,10.438,7.576,10.021c3.47-0.416,5.705-5.578,4.991-11.529
					s-4.106-10.438-7.576-10.022C1383.806,1042.686,1381.572,1047.848,1382.286,1053.799z"/>
			</g>
			<g>
				<path style="fill:#FFFFFF;" d="M1386.988,1048.283c0.201,1.678,1.446,2.909,2.78,2.749c1.334-0.16,2.253-1.65,2.051-3.328
					s-1.446-2.909-2.78-2.749C1387.705,1045.115,1386.787,1046.605,1386.988,1048.283z"/>
			</g>
			<g>
				<path style="fill:#FFFFFF;" d="M1341.723,1052.966c0.163,1.355,1.168,2.349,2.245,2.22c1.077-0.129,1.819-1.332,1.656-2.688
					c-0.162-1.355-1.168-2.349-2.245-2.219C1342.302,1050.408,1341.561,1051.611,1341.723,1052.966z"/>
			</g>
		</g>
		<g>
			<path style="fill:#C6173D;" d="M1542.986,1165.921c49.487,10.902,67.574,35.946,102.473,244.624
				c0,0-78.609-25.044-144.001-13.218c0,0-6.625-72.561-6.625-105.489C1494.833,1219.954,1542.986,1165.921,1542.986,1165.921z"/>
		</g>
		<g>
			<path style="fill:#89090F;" d="M1498.104,1358.2c-0.928,0-1.714-0.717-1.784-1.658c-2.175-29.329-3.278-51.098-3.278-64.703
				c0-51.882,24.641-94.396,39.33-115.12c0.571-0.807,1.69-0.999,2.496-0.425c0.807,0.572,0.998,1.689,0.426,2.496
				c-14.442,20.377-38.67,62.16-38.67,113.05c0,13.327,1.131,35.609,3.269,64.438c0.073,0.986-0.667,1.845-1.653,1.918
				C1498.194,1358.198,1498.148,1358.2,1498.104,1358.2z"/>
		</g>
		<g>
			<path style="fill:#FFC7B6;" d="M1645.459,1410.545c-3.13-24.83-67.826-30.264-150.625-39.402l-122.239-16.933
				c0,0-68.242-23.128-81.484-21.419c-13.241,1.709-45.928,7.134-52.505,18.85c-6.577,11.716-19.172,32.967-10.36,39.218
				c1.587,1.125,3.355,0.997,5.186,0.052c-4.019,5.801-5.933,11.021-3.447,14.295c6.739,8.876,28.542-11.922,38.883-22.717
				c-5.32,6.35-12.019,16.32-8.159,22.717c6.029,9.99,34.992-18.764,34.992-18.764s-20.477,21.477-12.43,25.579
				c8.047,4.102,42.829-25.115,42.829-25.115s7.329,31.498,53.288,18.3c0,0,84.478,58.703,166.241,73.007
				C1613.807,1490.139,1652.367,1465.341,1645.459,1410.545z M1244.742,1377.773c3.888-6.429,6.692-12.665,6.692-12.665l15.87-7.317
				C1267.304,1357.791,1255.325,1367.108,1244.742,1377.773z"/>
		</g>
		<g>
			<g>
				<g>
					<path style="fill:#913400;" d="M1586.949,2089.014h-12.077c-5.994,0-10.854-4.859-10.854-10.854v-343.242h33.785v343.242
						C1597.802,2084.155,1592.943,2089.014,1586.949,2089.014z"/>
				</g>
				<g>
					<path style="fill:#913400;" d="M1319.224,2089.014h-12.077c-5.995,0-10.854-4.859-10.854-10.854v-343.242h33.785v343.242
						C1330.078,2084.155,1325.218,2089.014,1319.224,2089.014z"/>
				</g>
			</g>
			<g>
				<g>
					<path style="fill:#D05200;" d="M1438.862,2089.014h-12.077c-5.994,0-10.854-4.859-10.854-10.854v-343.242h33.784v343.242
						C1449.716,2084.155,1444.856,2089.014,1438.862,2089.014z"/>
				</g>
				<g>
					<path style="fill:#D05200;" d="M1171.137,2089.014h-12.077c-5.995,0-10.854-4.859-10.854-10.854v-343.242h33.785v343.242
						C1181.991,2084.155,1177.131,2089.014,1171.137,2089.014z"/>
				</g>
			</g>
			<g>
				<rect x="1144.739" y="1704.054" style="fill:#D05200;" width="308.443" height="39.838"/>
			</g>
			<g>
				<rect x="1453.183" y="1704.054" style="fill:#913400;" width="148.035" height="39.838"/>
			</g>
		</g>
		<g>
			<g>
				<path style="fill:#C6173D;" d="M1061.362,1994.737l90.491-4.112l21.72,105.764H992.233
					C990.125,2047.891,1020.176,2007.488,1061.362,1994.737z"/>
			</g>
			<g>
				<path style="fill:#D8AD82;" d="M1276.027,1558.734c0,0-202.609-40.199-239.246,1.512
					c-36.637,41.711-2.564,434.677-2.564,434.677l130.881,1.249l37.717-292.228h331.754c0,0,21.661,0.925,26.566-18.834
					c4.905-19.759,0-105.584,0-105.584l-208.83-30.136l-10.418,23.316L1276.027,1558.734z"/>
			</g>
			<g>
				<g>
					<path d="M1162.175,1952.746h-109.707c-0.989,0-1.791-0.802-1.791-1.791c0-0.989,0.802-1.791,1.791-1.791h109.707
						c0.989,0,1.791,0.802,1.791,1.791C1163.965,1951.944,1163.163,1952.746,1162.175,1952.746z"/>
				</g>
				<g>
					<path d="M1107.323,1970.525c-0.059,0-0.119-0.003-0.179-0.009c-0.984-0.098-1.702-0.975-1.604-1.959l30.161-303.462
						c0.054-0.55,0.36-1.044,0.828-1.338s1.047-0.355,1.564-0.168c0.073,0.027,7.674,2.689,13.357-0.68
						c3.306-1.958,5.409-5.647,6.249-10.963c0.091-0.578,0.46-1.075,0.987-1.331c0.528-0.257,1.148-0.237,1.656,0.049
						c2.825,1.582,11.094,5.183,15.387,2.87c1.795-0.968,2.773-2.935,2.992-6.012c0.066-0.938,0.848-1.664,1.785-1.664
						c0.01,0,0.021,0,0.031,0l267.581,4.577c0.989,0.017,1.776,0.832,1.76,1.821c-0.017,0.989-0.886,1.766-1.821,1.76l-265.963-4.55
						c-0.578,3.436-2.145,5.861-4.671,7.222c-5.175,2.789-12.912-0.087-16.659-1.812c-1.258,5.187-3.778,8.924-7.513,11.126
						c-5.098,3.007-11.059,2.281-14.199,1.566l-29.951,301.342C1109.011,1969.836,1108.233,1970.525,1107.323,1970.525z"/>
				</g>
				<g>
					<path d="M1175.437,1679.984c-0.598,0-1.183-0.3-1.523-0.846l-28.152-45.31c-0.521-0.84-0.263-1.944,0.576-2.465
						c0.842-0.522,1.944-0.266,2.467,0.576l28.152,45.31c0.521,0.84,0.263,1.944-0.576,2.465
						C1176.087,1679.897,1175.76,1679.984,1175.437,1679.984z"/>
				</g>
				<g>
					<path d="M1161.36,1689.945c-0.445,0-0.891-0.165-1.238-0.497l-42.341-40.505c-0.715-0.684-0.739-1.817-0.056-2.532
						c0.684-0.715,1.816-0.739,2.532-0.056l42.341,40.505c0.715,0.684,0.739,1.817,0.056,2.532
						C1162.302,1689.76,1161.831,1689.945,1161.36,1689.945z"/>
				</g>
			</g>
			<g>
				<path style="fill:#C5DAE2;" d="M1173.573,2096.389H992.233c-0.255-5.877-0.035-11.632,0.615-17.238l153.638-1.309l23.238-0.193
					L1173.573,2096.389z"/>
			</g>
			<g>
				<path style="fill:#C5DAE2;" d="M1150.879,2096.389H992.233c-0.255-5.877-0.035-11.632,0.615-17.238
					c1.775-15.314,6.8-29.477,14.312-41.777c12.432-9.796,31.075-18.292,58.346-18.292c50.114,0,72.342,33.492,80.979,58.759
					C1148.937,2085.002,1150.29,2091.504,1150.879,2096.389z"/>
			</g>
			<g>
				<path d="M1003.835,2080.212c-0.633,0-1.149-0.51-1.155-1.145c-0.005-0.638,0.508-1.159,1.146-1.165l128.881-1.098
					c0.002,0,0.006,0,0.009,0c0.633,0,1.149,0.511,1.155,1.145c0.005,0.638-0.508,1.159-1.146,1.165l-128.881,1.098
					C1003.842,2080.212,1003.839,2080.212,1003.835,2080.212z"/>
			</g>
			<g>
				<polygon style="fill:#C6173D;" points="1051.138,2005.266 1034.197,1962.581 1086.244,1953.915 1085.185,2003.719 				"/>
			</g>
		</g>
		<g>
			<g>
				<rect x="1431.724" y="1546.258" style="fill:#D05200;" width="21.459" height="157.797"/>
			</g>
			<g>
				<rect x="1453.183" y="1546.258" style="fill:#913400;" width="21.459" height="157.797"/>
			</g>
			<g>
				<rect x="1543.117" y="1546.258" style="fill:#913400;" width="21.459" height="157.797"/>
			</g>
			<g>
				<rect x="1564.575" y="1546.258" style="fill:#D05200;" width="21.459" height="157.797"/>
			</g>
			<g>
				<rect x="1408.181" y="1489.862" style="fill:#D05200;" width="68.544" height="56.396"/>
			</g>
			<g>
				<rect x="1476.725" y="1489.862" style="fill:#913400;" width="132.851" height="56.396"/>
			</g>
		</g>
		<g>
			<g>
				<path style="fill:#C6173D;" d="M1297.435,1994.737l90.491-4.112l21.72,105.764h-181.339
					C1226.198,2047.891,1256.249,2007.488,1297.435,1994.737z"/>
			</g>
			<g>
				<path style="fill:#C5DAE2;" d="M1409.646,2096.389h-181.339c-0.255-5.877-0.035-11.632,0.615-17.238l153.638-1.309l23.238-0.193
					L1409.646,2096.389z"/>
			</g>
			<g>
				<path style="fill:#C5DAE2;" d="M1386.952,2096.389h-158.646c-0.255-5.877-0.035-11.632,0.615-17.238
					c1.775-15.314,6.8-29.477,14.312-41.777c12.432-9.796,31.075-18.292,58.346-18.292c50.114,0,72.343,33.492,80.979,58.759
					C1385.01,2085.002,1386.363,2091.504,1386.952,2096.389z"/>
			</g>
			<g>
				<path d="M1239.908,2080.212c-0.633,0-1.15-0.51-1.155-1.145c-0.005-0.638,0.508-1.159,1.146-1.165l128.881-1.098
					c0.002,0,0.006,0,0.009,0c0.633,0,1.149,0.511,1.155,1.145c0.005,0.638-0.508,1.159-1.146,1.165l-128.881,1.098
					C1239.915,2080.212,1239.912,2080.212,1239.908,2080.212z"/>
			</g>
			<g>
				<path style="fill:#D8AD82;" d="M1397.184,1998.921l-115.044-3.373c-4.755-84.421-33.091-385.895-23.602-407.999
					c9.489-22.104,54.055-41.427,96.737-37.955c42.682,3.472,83.193,50.305,79.262,173.387
					C1430.606,1846.063,1397.184,1998.921,1397.184,1998.921z"/>
			</g>
			<g>
				<path d="M1259.579,1695.133c-0.942,0-1.731-0.735-1.786-1.687c-3.791-65.328-4.077-99.202-0.9-106.604
					c0.388-0.909,1.44-1.33,2.351-0.939c0.908,0.39,1.329,1.443,0.94,2.352c-2.869,6.683-2.47,42.005,1.183,104.984
					c0.058,0.987-0.696,1.834-1.683,1.891C1259.649,1695.132,1259.614,1695.133,1259.579,1695.133z"/>
			</g>
			<g>
				<path d="M1434.397,1689.458c-0.953,0-1.746-0.751-1.788-1.712c-2.413-55.442-15.915-96.438-39.045-118.556
					c-0.715-0.683-0.739-1.817-0.056-2.531c0.684-0.716,1.817-0.74,2.532-0.057c23.81,22.768,37.693,64.605,40.148,120.987
					c0.042,0.988-0.724,1.824-1.711,1.867C1434.449,1689.457,1434.422,1689.458,1434.397,1689.458z"/>
			</g>
			<g>
				<path d="M1391.251,1974.088c-0.021,0-0.042-0.001-0.063-0.001l-103.174-3.562c-0.989-0.034-1.761-0.863-1.728-1.851
					c0.035-0.989,0.882-1.743,1.851-1.728l103.174,3.562c0.989,0.034,1.761,0.863,1.728,1.851
					C1393.005,1973.326,1392.211,1974.088,1391.251,1974.088z"/>
			</g>
			<g>
				<polygon style="fill:#C6173D;" points="1313.234,2005.266 1296.293,1962.581 1348.34,1953.915 1347.281,2003.719 				"/>
			</g>
		</g>
		<g>
			<path style="fill:#89090F;" d="M1378.585,1211.534c-0.781,0-1.549-0.003-2.307-0.009c-33.03-0.272-43.805-13.64-46.905-19.374
				c-3.364-6.223-3.311-13.145,0.143-18.516c0.536-0.832,1.645-1.071,2.475-0.537c0.831,0.535,1.073,1.643,0.537,2.475
				c-2.737,4.257-2.74,9.818-0.006,14.875c2.798,5.175,12.663,17.24,43.785,17.496c32.42,0.259,88.54-4.905,99.965-42.542
				c0.287-0.947,1.288-1.479,2.234-1.194c0.947,0.287,1.48,1.287,1.194,2.233
				C1467.872,1205.407,1412.305,1211.534,1378.585,1211.534z"/>
		</g>
	</g>
	<g>
		<g>
			<path style="fill:#2B5870;" d="M553.356,853.073h113.319c0,0-11.118,27.702-56.66,27.702S553.356,853.073,553.356,853.073z"/>
		</g>
		<g>
			<path style="fill:#FFB600;" d="M610.108,522.239c-80.728,0-161.091,48.107-153.394,128.783
				c9.042,94.773,96.246,93.268,96.246,105.339s0,43.012,0,43.012h57.149h57.149c0,0,0-30.941,0-43.012
				s87.203-10.566,96.246-105.339C771.199,570.346,690.835,522.239,610.108,522.239z"/>
		</g>
		<g>
			<path d="M604.291,793.925c-1.318,0-2.387-1.069-2.387-2.388v-60.441c-9.187-0.525-17.612-2.009-22.653-4.744
				c-4.546-2.467-5.501-5.509-5.501-7.627c0-7.495,6.359-25.109,12.31-39.095c12.561-29.517,16.183-29.517,17.547-29.517
				c1.204,0,2.247,0.739,2.723,1.928c0.238,0.592,0.349,1.298,0.349,2.221v72.246c4.496,0.089,9.039-0.046,13.307-0.337
				c0.01-0.609,0.022-1.214,0.033-1.823c0.346-19.081,0.75-34.308,1.202-45.259c0.269-6.526,0.558-11.598,0.861-15.075
				c0.457-5.252,0.757-7.589,3.066-7.94c0.758-0.113,1.522,0.103,2.164,0.611c5.095,4.04,18.741,60.098,19.144,65.144
				c0.089,1.127-0.275,2.777-2.519,4.236c-3.156,2.052-10.489,3.664-19.263,4.536c-0.34,20.175-0.571,41.504-0.688,59.412
				c-0.008,1.313-1.076,2.372-2.387,2.372c-0.005,0-0.01,0-0.015,0c-1.318-0.009-2.38-1.084-2.372-2.403
				c0.002-0.305,0.191-28.833,0.693-58.99c-4.293,0.28-8.791,0.385-13.224,0.29v60.254
				C606.678,792.856,605.609,793.925,604.291,793.925z M601.903,657.998c-7.094,11.701-23.379,49.74-23.379,60.727
				c0,2.422,4.127,4.119,6.588,4.915c4.617,1.494,10.534,2.333,16.791,2.688V657.998z M626.684,665.894
				c-0.819,10.906-1.464,34.126-1.927,59.873c8.653-0.874,15.405-2.382,16.902-3.917
				C640.849,714.349,631.652,679.781,626.684,665.894z"/>
		</g>
		<g>
			<rect x="553.356" y="776.686" style="fill:#2B5870;" width="113.319" height="76.387"/>
		</g>
		<g>
			<path style="fill:#C5DAE2;" d="M669.575,807.537H550.456c-7.137,0-12.922-5.785-12.922-12.922v-5.006
				c0-7.137,5.785-12.922,12.922-12.922h119.119c7.137,0,12.922,5.786,12.922,12.922v5.006
				C682.497,801.752,676.711,807.537,669.575,807.537z"/>
		</g>
		<g>
			<path style="fill:#C5DAE2;" d="M669.575,853.073H550.456c-7.137,0-12.922-5.785-12.922-12.922v-5.006
				c0-7.137,5.785-12.922,12.922-12.922h119.119c7.137,0,12.922,5.785,12.922,12.922v5.006
				C682.497,847.288,676.711,853.073,669.575,853.073z"/>
		</g>
	</g>
	<g>
		<g>
			<path style="fill:#D05200;" d="M1426.425,1478.582H522.346c-8.376,0-15.167-6.791-15.167-15.167v-5.876
				c0-8.376,6.791-15.167,15.167-15.167h904.079c8.376,0,15.167,6.791,15.167,15.167v5.876
				C1441.592,1471.792,1434.801,1478.582,1426.425,1478.582z"/>
		</g>
		<g>
			<path style="fill:#D05200;" d="M1227.865,2100.104H720.906c-8.377,0-15.167-6.79-15.167-15.167v-5.876
				c0-8.376,6.791-15.167,15.167-15.167h506.958c8.376,0,15.167,6.791,15.167,15.167v5.876
				C1243.032,2093.314,1236.241,2100.104,1227.865,2100.104z"/>
		</g>
		<g>
			<rect x="807.351" y="1478.582" style="fill:#913400;" width="334.07" height="585.312"/>
		</g>
	</g>
	<g>
		<g>
			<path style="fill:#2B5870;" d="M1361.336,1442.372h-201.514v-6.944h195.696c3.213,0,5.817,2.605,5.817,5.818V1442.372z"/>
		</g>
		<g>
			<polygon style="fill:#9596A1;" points="1132.612,1246.642 900.008,1246.642 945.696,1442.372 1178.3,1442.372 			"/>
		</g>
	</g>
	<g>
		<path style="fill:#CCF3FF;" d="M1500.207,700.251c0,0-34.822-7.815-15.243-34.548c5.28-7.209,13.461-8.289,21.627-6.821
			c-27.524-22.81-26.486-70.408,8.301-97.875c31.635-24.977,70.016-8.332,78.767,10.628
			c-2.417-24.443,30.738-111.773,116.365-76.368c58.436,24.163,52.251,81.107,40.334,107.161
			c15.334-9.111,42.034-13.668,61.58,13.187c14.912,20.489,10.883,40.115,0.3,52.736c19.341,4.2,35.292,23.236,12.356,40.482
			l45.609,5.564c-53.047,16.001-453.744,11.686-488.153,0C1368.475,709.787,1487.261,702.799,1500.207,700.251z"/>
	</g>
	<g>
		<g>
			<path style="fill:#AACFE8;" d="M800.597,1422.38c0,0,39.145-17.716,123.074-3.629l3.159,17.677H800.597V1422.38z"/>
		</g>
		<g>
			<path style="fill:#AACFE8;" d="M800.597,1422.38c0,0-39.145-17.716-123.074-3.629l-3.159,17.677h126.232V1422.38z"/>
		</g>
		<g>
			<rect x="561.803" y="1436.428" style="fill:#FF2A17;" width="368.5" height="5.944"/>
		</g>
		<g>
			<polygon style="fill:#7FB1CC;" points="813.28,1436.428 800.597,1422.38 786.266,1436.428 			"/>
		</g>
		<g>
			<polygon style="fill:#7FB1CC;" points="677.523,1418.751 566.206,1422.38 564.294,1436.428 674.365,1436.428 			"/>
		</g>
		<g>
			<path d="M569.023,1427c-0.324,0-0.59-0.259-0.597-0.585c-0.006-0.329,0.255-0.602,0.585-0.609l101.978-2.009
				c0.354,0.003,0.602,0.255,0.608,0.585c0.006,0.329-0.255,0.602-0.585,0.608L569.034,1427C569.031,1427,569.026,1427,569.023,1427
				z"/>
		</g>
		<g>
			<path d="M670.376,1429.082H567.772c-0.33,0-0.597-0.267-0.597-0.597s0.267-0.597,0.597-0.597h102.604
				c0.33,0,0.597,0.267,0.597,0.597S670.706,1429.082,670.376,1429.082z"/>
		</g>
		<g>
			<path d="M670.376,1433.048H567.772c-0.33,0-0.597-0.267-0.597-0.597c0-0.33,0.267-0.597,0.597-0.597h102.604
				c0.33,0,0.597,0.267,0.597,0.597C670.973,1432.781,670.706,1433.048,670.376,1433.048z"/>
		</g>
		<g>
			<path d="M808.99,1426.362c-0.195,0-0.386-0.096-0.5-0.271c-0.18-0.276-0.101-0.646,0.175-0.826
				c17.789-11.583,90.25-7.917,112.734-0.966c0.315,0.097,0.492,0.431,0.394,0.746c-0.098,0.315-0.435,0.491-0.746,0.394
				c-22.325-6.899-94.163-10.61-111.731,0.827C809.215,1426.331,809.102,1426.362,808.99,1426.362z"/>
		</g>
		<g>
			<path d="M811.63,1429.082c-0.242,0-0.471-0.149-0.56-0.389c-0.114-0.31,0.043-0.653,0.352-0.767
				c10.476-3.882,83.082-9.573,109.981-0.989c0.314,0.1,0.487,0.437,0.387,0.75c-0.1,0.314-0.431,0.488-0.751,0.388
				c-26.716-8.527-98.804-2.882-109.202,0.97C811.769,1429.07,811.699,1429.082,811.63,1429.082z"/>
		</g>
		<g>
			<path d="M813.894,1432.229c-0.281,0-0.53-0.199-0.585-0.485c-0.062-0.324,0.152-0.636,0.476-0.698
				c5.024-0.953,50.765-9.09,108.447-1.117c0.326,0.045,0.555,0.346,0.509,0.673c-0.044,0.328-0.353,0.558-0.673,0.51
				c-57.494-7.947-103.056,0.158-108.062,1.108C813.969,1432.225,813.932,1432.229,813.894,1432.229z"/>
		</g>
		<g>
			<path d="M815.135,1434.682c-0.289,0-0.542-0.21-0.589-0.505c-0.05-0.326,0.172-0.631,0.498-0.682
				c9.978-1.557,64.346-5.799,107.735-0.554c0.328,0.04,0.561,0.337,0.521,0.665c-0.039,0.328-0.358,0.56-0.663,0.521
				c-43.271-5.232-97.466-1.005-107.408,0.548C815.196,1434.68,815.166,1434.682,815.135,1434.682z"/>
		</g>
		<g>
			<path d="M792.205,1426.362c-0.112,0-0.225-0.031-0.325-0.097c-17.568-11.437-89.408-7.727-111.732-0.827
				c-0.313,0.097-0.649-0.079-0.746-0.394c-0.098-0.315,0.079-0.649,0.394-0.746c22.482-6.951,94.944-10.617,112.735,0.966
				c0.276,0.179,0.354,0.55,0.175,0.826C792.59,1426.267,792.399,1426.362,792.205,1426.362z"/>
		</g>
		<g>
			<path d="M789.564,1429.082c-0.069,0-0.139-0.012-0.208-0.037c-10.398-3.853-82.487-9.498-109.204-0.97
				c-0.319,0.1-0.649-0.074-0.751-0.388c-0.1-0.314,0.073-0.65,0.387-0.75c26.903-8.585,99.505-2.893,109.982,0.989
				c0.309,0.114,0.466,0.458,0.352,0.767C790.035,1428.933,789.807,1429.082,789.564,1429.082z"/>
		</g>
		<g>
			<path d="M787.3,1432.229c-0.037,0-0.075-0.004-0.112-0.01c-5.007-0.95-50.568-9.055-108.062-1.108
				c-0.321,0.043-0.628-0.182-0.673-0.51c-0.045-0.326,0.183-0.628,0.509-0.673c57.68-7.973,103.423,0.163,108.447,1.117
				c0.324,0.061,0.537,0.374,0.476,0.698C787.831,1432.03,787.581,1432.229,787.3,1432.229z"/>
		</g>
		<g>
			<path d="M786.06,1434.682c-0.031,0-0.062-0.002-0.093-0.007c-9.945-1.553-64.136-5.781-107.409-0.548
				c-0.307,0.04-0.625-0.193-0.663-0.521c-0.04-0.328,0.193-0.625,0.521-0.665c43.392-5.244,97.758-1.003,107.736,0.554
				c0.325,0.051,0.548,0.356,0.498,0.682C786.602,1434.472,786.349,1434.682,786.06,1434.682z"/>
		</g>
	</g>
	<g>
		<g>
			<g>
				
					<rect x="2078.562" y="1546.258" transform="matrix(-1 -1.224647e-16 1.224647e-16 -1 4178.582 3250.3123)" style="fill:#D05200;" width="21.459" height="157.797"/>
			</g>
			<g>
				
					<rect x="2057.103" y="1546.258" transform="matrix(-1 -1.224647e-16 1.224647e-16 -1 4135.665 3250.3123)" style="fill:#913400;" width="21.459" height="157.797"/>
			</g>
			<g>
				
					<rect x="1967.169" y="1546.258" transform="matrix(-1 -1.224647e-16 1.224647e-16 -1 3955.7971 3250.3123)" style="fill:#913400;" width="21.459" height="157.797"/>
			</g>
			<g>
				
					<rect x="1945.71" y="1546.258" transform="matrix(-1 -1.224647e-16 1.224647e-16 -1 3912.8796 3250.3123)" style="fill:#D05200;" width="21.459" height="157.797"/>
			</g>
			<g>
				
					<rect x="2055.019" y="1489.862" transform="matrix(-1 -1.224647e-16 1.224647e-16 -1 4178.582 3036.1196)" style="fill:#D05200;" width="68.544" height="56.396"/>
			</g>
			<g>
				
					<rect x="1922.168" y="1489.862" transform="matrix(-1 -1.224647e-16 1.224647e-16 -1 3977.187 3036.1196)" style="fill:#913400;" width="132.851" height="56.396"/>
			</g>
		</g>
		<g>
			<g>
				<path style="fill:#D6E3E8;" d="M1804.925,1191.593c-45.913-9.105-51.95,9.365-66.555,26.797
					c-14.605,17.432-98.547,185.051-98.547,185.051c36.954,23.287,89.446,37.083,143.769,49.761L1804.925,1191.593z"/>
			</g>
			<g>
				<g>
					<path style="fill:#E85A9D;" d="M1800.216,1249.323l-4.632,56.795c-22.696-5.041-58.607-14.563-90.417-29.821
						c12.915-24.304,24.386-45.066,30.557-54.275C1752.494,1232.58,1774.372,1243.002,1800.216,1249.323z"/>
				</g>
				<g>
					<path style="fill:#E85A9D;" d="M1791.074,1361.525l-4.7,57.667c-33.677-8.964-84.505-24.672-130.47-47.6
						c7.725-15.244,17.52-34.426,27.683-54.043C1711.951,1333.025,1751.622,1351.92,1791.074,1361.525z"/>
				</g>
			</g>
			<g>
				<path d="M1786.375,1294.523c-0.296,0-0.592-0.109-0.823-0.329c-26.664-25.374-32.716-51.604-37.579-72.681
					c-0.423-1.835-0.837-3.626-1.253-5.367c-0.153-0.641,0.242-1.285,0.884-1.438c0.646-0.15,1.286,0.242,1.438,0.884
					c0.417,1.747,0.832,3.544,1.257,5.385c4.791,20.765,10.754,46.609,36.899,71.487c0.478,0.455,0.497,1.21,0.042,1.688
					C1787.005,1294.399,1786.69,1294.523,1786.375,1294.523z"/>
			</g>
			<g>
				<path style="fill:#D6E3E8;" d="M1933.621,1189.908c34.783-4.406,61.931,7.593,79.986,43.992
					c18.055,36.399,77.58,165.29,77.58,165.29s-30.571,44.45-129.392,56.744L1933.621,1189.908z"/>
			</g>
			<g>
				<g>
					<path style="fill:#E85A9D;" d="M2033.773,1275.998c-30.543,14.74-64.983,24.181-87.924,29.399l-5.981-56.523
						c26.606-6.73,48.935-17.806,65.678-28.772c2.861,4.141,5.558,8.733,8.065,13.8
						C2018.201,1243.166,2025.476,1258.41,2033.773,1275.998z"/>
				</g>
				<g>
					<path style="fill:#E85A9D;" d="M2079.152,1373.2c-42.518,20.789-88.701,35.475-121.41,44.426l-6.062-57.204
						c37.437-9.768,74.682-27.464,101.888-42.232C2063.022,1338.46,2072.218,1358.255,2079.152,1373.2z"/>
				</g>
			</g>
			<g>
				<path d="M1966.654,1297.769c-0.295,0-0.59-0.108-0.821-0.327c-0.479-0.454-0.499-1.209-0.046-1.688
					c24.912-26.302,26.219-55.446,23.92-83.023c-0.055-0.657,0.432-1.234,1.09-1.289c0.659-0.057,1.234,0.434,1.288,1.091
					c1.466,17.58,4.516,54.16-24.566,84.863C1967.286,1297.645,1966.97,1297.769,1966.654,1297.769z"/>
			</g>
			<g>
				<g>
					<path style="fill:#D6E3E8;" d="M1776.635,1208.973c-0.178,85.714-32.485,226.513-65.031,367.72c0,0,72.13,30.145,167.06,30.145
						c94.93,0,150.725-24.58,150.725-24.58c-25.59-146.494-51.344-293.67-61.218-375.19l-34.551-17.16l-64.348,15.768
						l-64.348-14.084L1776.635,1208.973z"/>
				</g>
				<g>
					<g>
						<path style="fill:#E85A9D;" d="M1978.585,1281.297c-23.813,4.373-55.787,7.738-97.829,7.738
							c-49.657,0-84.968-4.455-109.354-9.686c2.37-18.786,4.019-36.333,4.755-52.341c32.314,6.103,71.631,11.948,103.905,11.948
							c31.061,0,64.411-2.915,91.453-6.09C1973.544,1247.634,1975.915,1263.859,1978.585,1281.297z"/>
					</g>
					<g>
						<path style="fill:#E85A9D;" d="M1995.396,1385.297c-24.849,5.967-61.781,11.28-114.64,11.28
							c-62.858,0-102.747-7.125-126.546-13.977c3.406-17.37,6.525-34.249,9.291-50.515c34.249,6.907,79.928,14.413,116.561,14.413
							c37.587,0,78.524-4.278,107.569-8.079C1990.097,1353.514,1992.685,1369.181,1995.396,1385.297z"/>
					</g>
					<g>
						<path style="fill:#E85A9D;" d="M2015.654,1503.479c-28.187,7.901-71.291,15.203-134.312,15.203
							c-79.096,0-126.151-10.926-151.858-20.203c4.7-20.789,9.237-41.347,13.542-61.482c39.399,8.909,94.055,19.141,137.527,19.141
							c43.962,0,91.984-5.654,125.102-10.517C2008.91,1464.598,2012.248,1483.929,2015.654,1503.479z"/>
					</g>
					<g>
						<path style="fill:#E85A9D;" d="M2029.386,1582.262c0,0-55.787,24.576-150.728,24.576c-94.927,0-167.048-30.148-167.048-30.148
							c1.975-8.569,3.951-17.152,5.912-25.707c37.818,9.441,109.054,25.217,163.03,25.217c54.098,0,114.326-8.569,145.387-13.664
							C2027.084,1569.102,2028.242,1575.682,2029.386,1582.262z"/>
					</g>
				</g>
			</g>
			<g>
				<g>
					<path style="fill:#B95847;" d="M1766.796,1562.733h162.526v-5.601h-157.834c-2.591,0-4.692,2.101-4.692,4.692V1562.733z"/>
				</g>
				<g>
					<polygon style="fill:#F2D2CC;" points="1951.267,1404.872 2138.867,1404.872 2102.019,1562.733 1914.419,1562.733 					"/>
				</g>
			</g>
			<g>
				<g>
					<path style="fill:#FFD4CA;" d="M1896.752,1528.866c-0.174-6.435-7.605-22.875-12.174-26.957
						c-3.581-3.199-32.87-26.261-63.296-38.609l-148.196-42.825c0,0-16.144,64.97-2.422,88.971
						c13.722,24,120.456-2.833,120.456-2.833s0,17.557,35.022,24.688c0,0,11.652,26.878,22.261,25.961
						c10.609-0.917-9.565-35.248-9.565-35.248s15.652,9.751,16.87,10.563c1.218,0.811,6.013,23.369,18.435,19.942
						c6.867-1.894-1.638-20.654-5.286-27.579l4.373,3.579c0,0,5.435,25.043,14.653,23.478c9.217-1.565,4.348-13.901,4.348-13.901
						S1896.926,1535.301,1896.752,1528.866z"/>
				</g>
				<g>
					<path style="fill:#E88885;" d="M1862.896,1519.883c-0.231,0-0.464-0.066-0.669-0.206l-16.001-10.855
						c-0.546-0.37-0.688-1.113-0.317-1.658c0.371-0.546,1.115-0.687,1.658-0.318l16.001,10.855c0.546,0.37,0.688,1.113,0.317,1.658
						C1863.654,1519.7,1863.278,1519.883,1862.896,1519.883z"/>
				</g>
				<g>
					<path style="fill:#E88885;" d="M1890.028,1531.741c-0.452,0-0.885-0.258-1.085-0.695c-2.905-6.322-7.257-15.759-7.981-17.244
						c-1.667-1.248-14.833-10.214-23.605-16.159c-0.547-0.37-0.689-1.112-0.319-1.658c0.371-0.546,1.113-0.688,1.658-0.318
						c23.85,16.162,24.042,16.454,24.212,16.712c0.188,0.284,2.947,6.229,8.203,17.67c0.276,0.599,0.013,1.308-0.585,1.583
						C1890.364,1531.706,1890.195,1531.741,1890.028,1531.741z"/>
				</g>
			</g>
			<g>
				<g>
					<path style="fill:#FFD4CA;" d="M1822.781,1131.937c0,0,19.478,38.725,11.13,50.783c-8.348,12.058-28.986,8.873-28.986,8.873
						s6.576,35.013,70.261,31.475c50.087-2.783,58.435-33.16,58.435-33.16c-24.297-1.196-38.377-4.013-22.261-52.364
						L1822.781,1131.937z"/>
				</g>
				<g>
					<path style="fill:#DD9C4E;" d="M1816.024,952.933l41.308-2.551c15.304-27.594,9.707-52.638-20.654-52.174
						c-30.361,0.464-53.798,15.784-49.268,31.892C1791.94,946.208,1816.024,952.933,1816.024,952.933z"/>
				</g>
				<g>
					<path style="fill:#E88885;" d="M1911.354,1137.545c-3.269,9.795-5.286,17.71-6.24,24.127
						c-24.604,16.021-52.477,19.686-70.623,20.067c6.771-13.038-11.716-49.807-11.716-49.807L1911.354,1137.545z"/>
				</g>
				<g>
					<path style="fill:#E88885;" d="M1813.969,1087.704c-0.232-0.046-0.974-18.919-22.029-19.292
						c-21.056-0.373-13.913,53.333,26.899,52.406L1813.969,1087.704z"/>
				</g>
				<g>
					<path style="fill:#E88885;" d="M1919.281,1087.704c0.232-0.046,0.974-18.919,22.029-19.292
						c21.055-0.373,13.913,53.333-26.899,52.406L1919.281,1087.704z"/>
				</g>
				<g>
					<path style="fill:#AF6635;" d="M1822.839,950.777c0,0-31.478-37.392-30.261-25.913
						C1793.795,936.342,1822.839,950.777,1822.839,950.777z"/>
				</g>
				<g>
					<path style="fill:#DD9C4E;" d="M1876.798,1076.176c0.012,0.12,76.534,1.511,86.273-14.257
						c9.739-15.768,5.797-144.464-92.522-117.334c0,0-105.74-37.333-103.107,117.993
						C1767.782,1082.633,1876.798,1076.176,1876.798,1076.176z"/>
				</g>
				<g>
					<path style="fill:#FFD4CA;" d="M1930.829,1043.832c0,0-3.816,71.938-10.425,92.317c-6.609,20.379-25.739,31.857-49.739,31.857
						s-47.431-15.489-54.672-34.353c-7.241-18.864-11.067-61.647-11.067-61.647s7.013-0.55,11.13-5.033
						c4.118-4.483,11.13-40.184,11.13-40.184s-1.339,35.823-2.409,39.303c-1.069,3.48,16.607,2.078,26.061-7.011
						c9.454-9.089,9.044-44.467,9.044-44.467s2.783,28.87-0.696,46.609c0,0,7.652,3.02,11.478-2.142s6.133-44.467,6.133-44.467
						s4.721,26.621,3.403,44.467c-0.492,6.664,28.083,3.526,35.421-4.814c7.337-8.341,2.696-42.435,2.696-42.435
						S1932.243,1021.921,1930.829,1043.832z"/>
				</g>
				<g>
					<path d="M1877.288,1119.515l-1.008-0.639c0.029-0.045,2.836-4.571,2.531-11.017c-0.128-2.685-0.612-6.603-1.125-10.75
						c-0.758-6.135-1.617-13.088-1.485-17.547l1.194,0.035c-0.129,4.369,0.724,11.274,1.476,17.365
						c0.516,4.171,1.003,8.111,1.132,10.84C1880.327,1114.642,1877.413,1119.319,1877.288,1119.515z"/>
				</g>
				<g>
					<path d="M1876.336,1144.406c-16.236,0-25.253-17.041-25.629-17.767c-0.303-0.585-0.075-1.304,0.509-1.608
						c0.586-0.305,1.306-0.076,1.61,0.509c0.085,0.164,8.738,16.478,23.509,16.478c11.182,0,16.977-16.16,17.034-16.323
						c0.219-0.621,0.898-0.952,1.521-0.732c0.622,0.217,0.95,0.898,0.733,1.52
						C1895.367,1127.215,1889.214,1144.406,1876.336,1144.406z"/>
				</g>
				<g>
					<ellipse style="fill:#004268;" cx="1848.513" cy="1087.897" rx="6.121" ry="8.319"/>
				</g>
				<g>
					<ellipse style="fill:#FFFFFF;" cx="1847.231" cy="1084.553" rx="2.42" ry="2.587"/>
				</g>
				<g>
					<path d="M1831.935,1074.856c-0.218,0-0.439-0.06-0.636-0.185c-0.557-0.353-0.724-1.09-0.371-1.647
						c3.38-5.343,9.132-7.209,16.636-5.393c5.45,1.317,9.871,4.095,10.057,4.213c0.557,0.353,0.722,1.09,0.37,1.647
						c-0.353,0.557-1.091,0.722-1.647,0.37c-0.164-0.104-16.592-10.316-23.399,0.44
						C1832.719,1074.659,1832.33,1074.856,1831.935,1074.856z"/>
				</g>
				<g>
					<path d="M1834.795,1071.69c-0.337,0-0.671-0.142-0.908-0.418l-4.651-5.448c-0.428-0.501-0.368-1.255,0.133-1.683
						c0.501-0.428,1.253-0.37,1.683,0.132l4.651,5.448c0.428,0.501,0.368,1.255-0.133,1.683
						C1835.345,1071.597,1835.07,1071.69,1834.795,1071.69z"/>
				</g>
				<g>
					<ellipse style="fill:#004268;" cx="1896.041" cy="1087.897" rx="6.121" ry="8.319"/>
				</g>
				<g>
					<ellipse style="fill:#FFFFFF;" cx="1894.884" cy="1084.553" rx="2.42" ry="2.587"/>
				</g>
				<g>
					<path d="M1912.619,1074.856c-0.395,0-0.783-0.197-1.01-0.556c-6.804-10.755-23.234-0.544-23.399-0.44
						c-0.556,0.353-1.294,0.187-1.647-0.37c-0.352-0.557-0.188-1.294,0.37-1.647c0.185-0.118,4.607-2.896,10.057-4.213
						c7.503-1.814,13.257,0.05,16.636,5.393c0.353,0.557,0.186,1.295-0.371,1.647
						C1913.059,1074.796,1912.837,1074.856,1912.619,1074.856z"/>
				</g>
				<g>
					<path d="M1909.76,1071.69c-0.275,0-0.55-0.094-0.775-0.286c-0.501-0.428-0.561-1.181-0.133-1.683l4.651-5.448
						c0.429-0.502,1.183-0.56,1.683-0.132c0.501,0.428,0.561,1.182,0.133,1.683l-4.651,5.448
						C1910.431,1071.548,1910.097,1071.69,1909.76,1071.69z"/>
				</g>
				<g>
					<path style="fill:#AF6635;" d="M1779.419,1056.939c-0.015,0-0.03-0.001-0.046-0.002c-0.329-0.025-0.576-0.311-0.551-0.64
						c3.601-47.925,15.591-77.866,21.427-87.001c0.176-0.279,0.547-0.357,0.824-0.182c0.277,0.178,0.359,0.547,0.181,0.824
						c-5.78,9.048-17.659,38.76-21.241,86.448C1779.989,1056.701,1779.728,1056.939,1779.419,1056.939z"/>
				</g>
				<g>
					<path style="fill:#AF6635;" d="M1792.544,1056.939c-0.016,0-0.031-0.001-0.048-0.002c-0.329-0.026-0.575-0.313-0.548-0.642
						c3.555-45.215,11.831-66.921,16.776-79.889c0.607-1.594,1.168-3.065,1.669-4.442c0.112-0.31,0.453-0.469,0.765-0.357
						c0.31,0.112,0.47,0.455,0.357,0.765c-0.502,1.383-1.065,2.86-1.675,4.459c-4.922,12.909-13.16,34.514-16.703,79.558
						C1793.113,1056.702,1792.852,1056.939,1792.544,1056.939z"/>
				</g>
				<g>
					<path style="fill:#AF6635;" d="M1845.505,1055.316c-0.043,0-0.089-0.005-0.133-0.015c-0.322-0.073-0.522-0.393-0.449-0.715
						c6.468-28.223,4.942-61.693,4.208-77.777c-0.138-3.019-0.246-5.404-0.282-7.179c-0.007-0.329,0.255-0.602,0.585-0.609
						c0.29,0.003,0.602,0.255,0.609,0.585c0.035,1.759,0.143,4.137,0.281,7.148c0.736,16.138,2.266,49.717-4.237,78.099
						C1846.024,1055.129,1845.778,1055.316,1845.505,1055.316z"/>
				</g>
				<g>
					<path style="fill:#AF6635;" d="M1837.39,1058.098c-0.069,0-0.139-0.012-0.206-0.037c-0.31-0.115-0.467-0.457-0.353-0.767
						c8.962-24.253,8.302-67.813,8.078-76.299c-0.008-0.329,0.252-0.604,0.582-0.613c0.332,0.024,0.605,0.252,0.612,0.581
						c0.224,8.524,0.886,52.286-8.153,76.744C1837.861,1057.949,1837.632,1058.098,1837.39,1058.098z"/>
				</g>
				<g>
					<path style="fill:#AF6635;" d="M1954.955,1049.983c-0.008,0-0.017,0-0.027,0c-0.329-0.015-0.584-0.294-0.569-0.623
						c2.968-66.669-29.042-84.834-44.425-93.565l-0.47-0.267c-0.287-0.163-0.387-0.527-0.224-0.814
						c0.162-0.287,0.527-0.388,0.814-0.224l0.47,0.266c15.589,8.847,48.028,27.256,45.026,94.656
						C1955.537,1049.733,1955.273,1049.983,1954.955,1049.983z"/>
				</g>
				<g>
					<path style="fill:#AF6635;" d="M1942.203,1055.316c-0.021,0-0.042-0.001-0.062-0.003c-0.329-0.034-0.567-0.327-0.533-0.655
						c4.392-42.681-5.485-73.709-29.357-92.221c-0.26-0.202-0.308-0.577-0.106-0.838c0.203-0.262,0.576-0.308,0.838-0.105
						c24.219,18.782,34.249,50.168,29.811,93.287C1942.764,1055.087,1942.505,1055.316,1942.203,1055.316z"/>
				</g>
				<g>
					<path style="fill:#AF6635;" d="M1908.811,1051.838c-0.034,0-0.069-0.003-0.103-0.009c-0.325-0.057-0.543-0.365-0.486-0.69
						c9.778-56.468-14.733-82-27.901-95.717c-0.229-0.238-0.221-0.616,0.016-0.844c0.239-0.226,0.617-0.221,0.844,0.017
						c13.315,13.869,38.097,39.685,28.215,96.748C1909.347,1051.633,1909.095,1051.838,1908.811,1051.838z"/>
				</g>
				<g>
					<path style="fill:#AF6635;" d="M1900.096,1051.838c-0.024,0-0.049-0.001-0.075-0.005c-0.326-0.04-0.559-0.338-0.519-0.665
						c6.106-49.639-7.068-76.195-19.195-89.732c-0.22-0.245-0.199-0.622,0.046-0.843c0.244-0.219,0.623-0.201,0.843,0.047
						c12.293,13.721,25.653,40.59,19.491,90.674C1900.649,1051.616,1900.393,1051.838,1900.096,1051.838z"/>
				</g>
			</g>
			<g>
				<path d="M1878.71,1236.565c-0.642,0-1.288-0.005-1.942-0.013c-62.609-0.873-75.261-16.493-85.295-36.823
					c-0.293-0.591-0.049-1.307,0.542-1.598c0.59-0.292,1.307-0.048,1.598,0.542c9.991,20.242,21.807,34.636,83.188,35.492
					c0.646,0.009,1.288,0.013,1.921,0.013c58.323,0,66.656-37.664,66.735-38.048c0.13-0.646,0.765-1.061,1.407-0.932
					c0.646,0.131,1.063,0.761,0.931,1.408c-0.085,0.421-2.209,10.426-12.087,20.42
					C1926.839,1225.996,1909.786,1236.565,1878.71,1236.565z"/>
			</g>
		</g>
		<g>
			<path style="fill:#5AC8FF;" d="M1731.812,1583.87c-17.256,39.592-15.929,105.716,18.621,119.299
				c34.55,13.583,166.725,4.771,166.725,4.771l-9.739-145.206C1840.819,1563.19,1764.577,1566.214,1731.812,1583.87z"/>
		</g>
		<g>
			<path style="fill:#327AC9;" d="M1915.578,1708.046c-14.999,0.926-132.813,7.833-165.141-4.877
				c-14.904-5.858-23.636-21.511-27.355-40.584c11.879,17.015,28.663,30.462,52.163,31.443
				c66.781,2.779,112.228-94.763,112.228-94.763L1915.578,1708.046z"/>
		</g>
		<g>
			<g>
				
					<rect x="1791.568" y="1546.258" transform="matrix(-1 -1.224647e-16 1.224647e-16 -1 3604.5947 3250.3123)" style="fill:#D05200;" width="21.459" height="157.797"/>
			</g>
			<g>
				
					<rect x="1770.109" y="1546.258" transform="matrix(-1 -1.224647e-16 1.224647e-16 -1 3561.6775 3250.3123)" style="fill:#913400;" width="21.459" height="157.797"/>
			</g>
			<g>
				
					<rect x="1680.176" y="1546.258" transform="matrix(-1 -1.224647e-16 1.224647e-16 -1 3381.8098 3250.3123)" style="fill:#913400;" width="21.459" height="157.797"/>
			</g>
			<g>
				
					<rect x="1658.717" y="1546.258" transform="matrix(-1 -1.224647e-16 1.224647e-16 -1 3338.8926 3250.3123)" style="fill:#D05200;" width="21.459" height="157.797"/>
			</g>
			<g>
				
					<rect x="1768.026" y="1489.862" transform="matrix(-1 -1.224647e-16 1.224647e-16 -1 3604.595 3036.1196)" style="fill:#D05200;" width="68.544" height="56.396"/>
			</g>
			<g>
				
					<rect x="1635.174" y="1489.862" transform="matrix(-1 -1.224647e-16 1.224647e-16 -1 3403.2 3036.1196)" style="fill:#913400;" width="132.851" height="56.396"/>
			</g>
		</g>
		<g>
			<g>
				<g>
					<path style="fill:#913400;" d="M1657.802,2089.014h12.077c5.994,0,10.854-4.859,10.854-10.854v-343.242h-33.785v343.242
						C1646.948,2084.155,1651.808,2089.014,1657.802,2089.014z"/>
				</g>
				<g>
					<path style="fill:#913400;" d="M1925.527,2089.014h12.077c5.994,0,10.854-4.859,10.854-10.854v-343.242h-33.785v343.242
						C1914.673,2084.155,1919.532,2089.014,1925.527,2089.014z"/>
				</g>
			</g>
			<g>
				<g>
					<path style="fill:#D05200;" d="M1805.889,2089.014h12.077c5.994,0,10.854-4.859,10.854-10.854v-343.242h-33.785v343.242
						C1795.035,2084.155,1799.895,2089.014,1805.889,2089.014z"/>
				</g>
				<g>
					<path style="fill:#D05200;" d="M2073.614,2089.014h12.077c5.994,0,10.854-4.859,10.854-10.854v-343.242h-33.784v343.242
						C2062.76,2084.155,2067.619,2089.014,2073.614,2089.014z"/>
				</g>
			</g>
			<g>
				
					<rect x="1791.568" y="1704.054" transform="matrix(-1 -1.224647e-16 1.224647e-16 -1 3891.5796 3447.947)" style="fill:#D05200;" width="308.443" height="39.838"/>
			</g>
			<g>
				
					<rect x="1643.533" y="1704.054" transform="matrix(-1 -1.224647e-16 1.224647e-16 -1 3435.1011 3447.947)" style="fill:#913400;" width="148.035" height="39.838"/>
			</g>
		</g>
		<g>
			<g>
				<polygon style="fill:#D3BECC;" points="1972.149,1874.085 1972.149,1940.219 2062.192,1940.219 2062.192,1862.955 				"/>
			</g>
			<g>
				<path style="fill:#5AC8FF;" d="M1965.385,1907.625c0.919,0.015,92.295,2.05,126.382-6.179c0,0,24.42-230.139,20.094-283.707
					c-4.326-53.568-38.181-55.016-61.138-55.016c-22.957,0-152.362,0-152.362,0l73.787,155.537L1965.385,1907.625z"/>
			</g>
			<g>
				<path style="fill:#327AC9;" d="M2094.969,1870.162c-1.921,19.236-3.202,31.279-3.202,31.279
					c-17.792,4.305-51.196,5.804-79.192,6.253c-1.676,0.027-3.338,0.041-4.973,0.068c-0.545,0.014-1.09,0.014-1.635,0.014
					c-1.607,0.013-3.201,0.027-4.768,0.041c-8.405,0.068-15.885,0.041-21.743-0.014c-7.861-0.068-12.779-0.177-12.997-0.177
					l6.771-189.363l-44.384-93.551c34.017-0.885,66.032-1.553,66.032-1.063C1994.879,1624.494,2067.327,1802.373,2094.969,1870.162z
					"/>
			</g>
			<g>
				<path d="M1972.149,1883.644c-0.968,0-1.764-0.772-1.789-1.745c-0.025-0.989,0.756-1.81,1.745-1.836
					c0.91-0.023,91.292-2.369,108.393-5.991c0.957-0.206,1.918,0.412,2.123,1.381c0.204,0.967-0.414,1.918-1.381,2.122
					c-17.421,3.69-105.311,5.972-109.044,6.068C1972.18,1883.644,1972.165,1883.644,1972.149,1883.644z"/>
			</g>
			<g>
				<g>
					<path style="fill:#FFB600;" d="M1972.161,1943.651l-28.665,74.409l201.725,51.484c0,0,5.283-86.05-83.017-125.893H1972.161z"/>
				</g>
				<g>
					<path style="fill:#2E46FF;" d="M2145.227,2069.348v0.041c0,0.095,0,0.15,0,0.15h-0.014l-201.719-51.482l7.602-19.726
						l21.061-58.111h90.035c16.13,7.275,29.155,19.516,39.631,29.08c29.181,26.593,38.854,58.866,42,79.478
						C2145.567,2060.207,2145.295,2068.04,2145.227,2069.348z"/>
				</g>
				<g>
					<path style="fill:#2E46FF;" d="M2145.227,2069.348v0.041c0,0.095,0,0.15,0,0.15h-0.014l-201.719-51.482l7.602-19.726
						l21.061-58.111h90.035c16.13,7.275,29.155,19.516,39.631,29.08c29.181,26.593,38.854,58.866,42,79.478
						C2145.567,2060.207,2145.295,2068.04,2145.227,2069.348z"/>
				</g>
				<g>
					<path style="fill:#C5DAE2;" d="M2145.227,2069.348v0.041c-0.014,0.095-0.014,0.15-0.014,0.15l-201.719-51.482l7.602-19.726
						l100.948,26.415l91.78,24.031C2145.567,2060.207,2145.295,2068.04,2145.227,2069.348z"/>
				</g>
				<g>
					<path style="fill:#C5DAE2;" d="M2143.823,2048.777l-91.78-24.031c0,0,4.25-44.044,49.779-55.447
						C2131.004,1995.891,2140.677,2028.165,2143.823,2048.777z"/>
				</g>
				<g>
					<path d="M2134.035,2048.294c-0.174,0-0.351-0.022-0.528-0.068l-72.967-19.104c-1.11-0.291-1.774-1.427-1.484-2.537
						c0.29-1.11,1.422-1.774,2.538-1.485l72.967,19.104c1.11,0.291,1.774,1.427,1.484,2.537
						C2135.8,2047.675,2134.957,2048.294,2134.035,2048.294z"/>
				</g>
			</g>
		</g>
		<g>
			<g>
				<polygon style="fill:#D6E3E8;" points="1902.068,1874.085 1902.068,1943.651 1992.11,1943.651 1992.11,1862.955 				"/>
			</g>
			<g>
				<path style="fill:#5AC8FF;" d="M1907.419,1562.733c53.334,0,85.334-2.389,96.116,62.307s-11.229,283.037-11.229,283.037
					l-121.392-2.041c0,0-12.467-231.952-6.01-283.082S1898.258,1562.733,1907.419,1562.733z"/>
			</g>
			<g>
				<path d="M1977.796,1880.63c-0.019,0-0.038,0-0.057-0.001l-96.348-3.015c-0.988-0.031-1.765-0.857-1.733-1.845
					c0.031-0.989,0.848-1.799,1.845-1.734l96.348,3.015c0.989,0.031,1.765,0.857,1.734,1.845
					C1979.554,1879.864,1978.759,1880.63,1977.796,1880.63z"/>
			</g>
			<g>
				<path d="M1863.26,1702.316c-0.983,0-1.782-0.792-1.791-1.776l-0.042-4.646c-0.264-27.75-0.753-79.404,7.398-100.711
					c0.354-0.924,1.39-1.384,2.313-1.032c0.923,0.353,1.386,1.388,1.033,2.312c-7.908,20.672-7.423,71.884-7.162,99.397l0.042,4.65
					c0.008,0.989-0.787,1.797-1.775,1.805C1863.269,1702.316,1863.264,1702.316,1863.26,1702.316z"/>
			</g>
			<g>
				<path d="M1864.605,1631.287c-0.135,0-0.272-0.016-0.409-0.048c-10.024-2.348-18.111-10.314-24.037-23.675
					c-0.401-0.904,0.007-1.962,0.91-2.363c0.906-0.403,1.962,0.006,2.363,0.91c5.524,12.455,12.583,19.534,21.58,21.641
					c0.963,0.226,1.561,1.189,1.336,2.152C1866.154,1630.73,1865.417,1631.287,1864.605,1631.287z"/>
			</g>
			<g>
				<path d="M1866.153,1616.682c-0.531,0-1.057-0.235-1.411-0.687c-0.411-0.526-10.098-13.104-11.63-32.203
					c-0.079-0.986,0.656-1.849,1.641-1.928c0.995-0.082,1.85,0.656,1.928,1.641c1.443,17.981,10.789,30.164,10.883,30.285
					c0.607,0.779,0.469,1.904-0.31,2.512C1866.927,1616.559,1866.539,1616.682,1866.153,1616.682z"/>
			</g>
			<g>
				<g>
					<path style="fill:#FFB600;" d="M1902.068,1943.651l-28.665,74.409l201.725,51.484c0,0,5.283-86.05-83.017-125.893H1902.068z"/>
				</g>
				<g>
					<path style="fill:#2E92FF;" d="M2075.133,2069.348v0.041c0,0.095,0,0.15,0,0.15h-0.014l-201.719-51.482l7.602-19.726
						l21.062-54.684h90.05c16.13,7.275,29.14,16.089,39.616,25.653c29.181,26.593,38.854,58.866,42,79.478
						C2075.473,2060.207,2075.201,2068.04,2075.133,2069.348z"/>
				</g>
				<g>
					<path style="fill:#C5DAE2;" d="M2075.133,2069.348v0.041c-0.014,0.095-0.014,0.15-0.014,0.15l-201.719-51.482l7.602-19.726
						l100.948,26.415l91.78,24.031C2075.473,2060.207,2075.201,2068.04,2075.133,2069.348z"/>
				</g>
				<g>
					<path style="fill:#C5DAE2;" d="M2073.73,2048.777l-91.78-24.031c0,0,4.25-44.044,49.779-55.447
						C2060.91,1995.891,2070.583,2028.165,2073.73,2048.777z"/>
				</g>
				<g>
					<path d="M2063.941,2048.294c-0.174,0-0.351-0.022-0.528-0.068l-72.967-19.104c-1.11-0.291-1.774-1.427-1.484-2.537
						c0.29-1.11,1.422-1.774,2.538-1.485l72.967,19.104c1.11,0.291,1.774,1.427,1.484,2.537
						C2065.706,2047.675,2064.863,2048.294,2063.941,2048.294z"/>
				</g>
			</g>
		</g>
	</g>
	<g>
		<path style="fill:#5AC8FF;" d="M1509.659,651.161h-23.253c-3.171-14.332-8.812-27.735-16.464-39.734l16.446-16.446
			c6.502-6.502,6.502-17.043,0-23.545l-14.554-14.554c-6.502-6.502-17.043-6.502-23.545,0l-16.447,16.447
			c-11.999-7.652-25.402-13.293-39.734-16.464v-23.253c0-9.195-7.454-16.649-16.649-16.649h-20.582
			c-9.195,0-16.649,7.454-16.649,16.649v23.253c-14.332,3.171-27.735,8.812-39.734,16.464l-16.447-16.447
			c-6.502-6.502-17.043-6.502-23.545,0l-14.554,14.554c-6.502,6.502-6.502,17.043,0,23.545l16.446,16.446
			c-7.652,11.999-13.294,25.402-16.464,39.734h-23.253c-9.195,0-16.649,7.454-16.649,16.649v20.582
			c0,9.195,7.454,16.649,16.649,16.649h23.253c3.171,14.332,8.812,27.735,16.464,39.734l-16.446,16.446
			c-6.502,6.502-6.502,17.043,0,23.545l14.554,14.554c6.502,6.502,17.043,6.502,23.545,0l16.447-16.447
			c11.999,7.652,25.402,13.294,39.734,16.464v23.253c0,9.195,7.454,16.649,16.649,16.649h20.582c9.195,0,16.649-7.454,16.649-16.649
			v-23.253c14.332-3.171,27.735-8.812,39.734-16.464l16.447,16.447c6.502,6.502,17.043,6.502,23.545,0l14.554-14.554
			c6.502-6.502,6.502-17.043,0-23.545l-16.446-16.446c7.652-11.999,13.294-25.402,16.464-39.734h23.253
			c9.195,0,16.649-7.454,16.649-16.649V667.81C1526.307,658.615,1518.853,651.161,1509.659,651.161z M1365.169,721.422
			c-23.936,0-43.322-19.399-43.322-43.322c0-23.936,19.386-43.322,43.322-43.322c23.922,0,43.322,19.386,43.322,43.322
			C1408.491,702.023,1389.091,721.422,1365.169,721.422z"/>
	</g>
	<g>
		<path style="fill:#327AC9;" d="M1746.93,808.159h-23.253c-3.171-14.332-8.812-27.735-16.464-39.734l16.446-16.446
			c6.502-6.502,6.502-17.043,0-23.545l-14.554-14.554c-6.502-6.502-17.043-6.502-23.545,0l-16.447,16.447
			c-11.999-7.652-25.402-13.294-39.734-16.464v-23.253c0-9.195-7.454-16.649-16.649-16.649h-20.582
			c-9.195,0-16.649,7.454-16.649,16.649v23.253c-14.332,3.171-27.735,8.812-39.734,16.464l-16.447-16.447
			c-6.502-6.502-17.043-6.502-23.545,0l-14.554,14.554c-6.502,6.502-6.502,17.043,0,23.545l16.447,16.446
			c-7.652,11.999-13.294,25.402-16.464,39.734h-23.253c-9.195,0-16.649,7.454-16.649,16.649v20.582
			c0,9.195,7.454,16.648,16.649,16.648h23.253c3.171,14.332,8.812,27.735,16.464,39.734l-16.447,16.446
			c-6.502,6.502-6.502,17.043,0,23.545l14.554,14.554c6.502,6.502,17.043,6.502,23.545,0l16.447-16.446
			c11.999,7.652,25.402,13.294,39.734,16.464v23.253c0,9.195,7.454,16.649,16.649,16.649h20.582c9.195,0,16.649-7.454,16.649-16.649
			v-23.253c14.332-3.171,27.735-8.812,39.734-16.464l16.447,16.446c6.502,6.502,17.043,6.502,23.545,0l14.554-14.554
			c6.502-6.502,6.502-17.043,0-23.545l-16.446-16.446c7.652-11.999,13.293-25.402,16.464-39.734h23.253
			c9.195,0,16.649-7.454,16.649-16.648v-20.582C1763.579,815.613,1756.125,808.159,1746.93,808.159z M1602.44,878.421
			c-23.936,0-43.322-19.399-43.322-43.322c0-23.936,19.386-43.322,43.322-43.322c23.922,0,43.322,19.386,43.322,43.322
			C1645.762,859.022,1626.363,878.421,1602.44,878.421z"/>
	</g>
</g>
</svg>
