<?xml version="1.0" encoding="utf-8"?>
<!-- Generator: Adobe Illustrator 27.5.0, SVG Export Plug-In . SVG Version: 6.00 Build 0)  -->
<svg version="1.1" xmlns="http://www.w3.org/2000/svg" xmlns:xlink="http://www.w3.org/1999/xlink" x="0px" y="0px"
	 viewBox="0 0 3000 3000" style="enable-background:new 0 0 3000 3000;" xml:space="preserve">
<g id="Background">
	<g>
		<rect x="22.554" y="18.696" style="fill:#FCF3E1;" width="2958.75" height="2958.75"/>
	</g>
	<g>
		<g>
			<g>
				<path style="fill:#89A0F5;" d="M686.115,284.451c68.959,0,138.008-2.072,206.837,0.922c31.802,1.383,63.412-4.919,95.235,0.946
					c22.767,4.196,39.851,20.876,39.943,44.562c0.191,49.157,0.689,98.327-0.151,147.47c-1.073,62.751,3.142,125.366,3.552,188.07
					c0.328,50.322-11.053,65.003-60.11,71.094c-13.187,1.637-15.366,6.184-16.174,18.139c-1.186,17.548-1.541,35.456-7.331,52.52
					c-4.766,14.045-7.994,14.974-19.071,5.58c-23.151-19.634-44.703-40.954-65.878-62.63c-8.639-8.844-17.785-12.907-30.406-12.693
					c-38.688,0.657-77.465,1.636-116.08-0.198c-72.627-3.45-145.253-1.762-217.876-2.535c-26.12-0.278-47.49-21.434-46.353-47.211
					c2.858-64.809,1.178-129.624,1.397-194.432c0.174-51.712,0.463-103.412-2.308-155.136c-1.966-36.704,17.598-54.974,54.35-54.997
					c60.142-0.037,120.283-0.01,180.424-0.01C686.115,284.093,686.115,284.272,686.115,284.451z"/>
			</g>
			<g>
				<path style="fill:#587ADB;" d="M529.072,598.58c0-8.357-0.11-16.716,0.024-25.072c0.253-15.782,5.794-22.317,21.177-22.802
					c19.308-0.609,38.651-0.294,57.975-0.1c14.526,0.146,22.717,8.849,23.588,22.246c1.25,19.236,1.046,38.643,0.135,57.915
					c-0.63,13.344-8.502,20.568-22.688,20.311c-18.276-0.331-36.565,0.109-54.845-0.099c-18.672-0.213-24.929-6.716-25.241-25.761
					c-0.146-8.877-0.025-17.758-0.025-26.638C529.138,598.58,529.105,598.58,529.072,598.58z"/>
			</g>
			<g>
				<path style="fill:#FFFFFF;" d="M816.324,418.989c-37.622,0-75.244-0.081-112.865,0.059c-8.885,0.033-17.639,0.272-17.202-12.147
					c0.401-11.401,8.55-12.871,17.629-12.886c76.288-0.132,152.577-0.244,228.864-0.527c8.67-0.032,16.332,1.112,16.648,11.677
					c0.344,11.511-7.902,13.175-17.076,13.167c-38.666-0.035-77.332-0.015-115.998-0.015
					C816.324,418.541,816.324,418.765,816.324,418.989z"/>
			</g>
			<g>
				<path style="fill:#FFFFFF;" d="M816.345,497.758c-37.585,0-75.171-0.125-112.755,0.085c-9.759,0.054-18.37-0.609-17.902-13.438
					c0.45-12.344,9.814-11.628,18.19-11.661c75.614-0.297,151.229-0.453,226.843-0.792c9.04-0.04,18.006,0.912,18.402,11.897
					c0.431,11.953-8.547,13.416-18.459,13.35c-38.105-0.255-76.213-0.103-114.319-0.103
					C816.345,497.316,816.345,497.537,816.345,497.758z"/>
			</g>
			<g>
				<path style="fill:#FFFFFF;" d="M839.839,584.602c-45.273-3.533-90.549-0.596-135.817,0.027
					c-13.577,0.187-18.92-5.511-18.037-18.892c0.567-8.584,4.012-12.099,12.646-11.662c18.714,0.947,37.454,2.073,56.177,1.977
					c38.541-0.197,77.086-0.851,115.611-1.961c11.947-0.344,16.941,3.457,16.963,15.933c0.021,12.169-5.287,15.4-16.272,14.717
					C860.723,584.095,850.265,584.602,839.839,584.602z"/>
			</g>
			<g>
				<path style="fill:#FFFFFF;" d="M571.521,442.646c16.166-19.004,30.876-36.542,45.891-53.816
					c5.234-6.022,11.27-12.141,19.747-4.772c7.703,6.696,3.393,13.126-1.461,19.021c-18.534,22.514-37.372,44.781-55.678,67.477
					c-7.159,8.877-12.96,9.09-19.29-0.405c-8.96-13.439-18.258-26.656-27.017-40.222c-4.016-6.22-8.083-13.802,0.619-19.049
					c8.069-4.866,14.953-0.962,19.95,6.381C559.826,425.406,565.353,433.561,571.521,442.646z"/>
			</g>
			<g>
				<path style="fill:#FFFFFF;" d="M755.796,631.745c18.259,0,36.521,0.205,54.775-0.089c8.836-0.142,13.544,2.525,13.673,12.38
					c0.136,10.407-4.401,13.553-14.203,13.469c-36.516-0.312-73.038-0.251-109.555,0.004c-9.427,0.066-14.983-2.735-14.927-13.168
					c0.058-10.838,6.421-12.63,15.46-12.467c18.254,0.329,36.517,0.098,54.777,0.098
					C755.796,631.896,755.796,631.82,755.796,631.745z"/>
			</g>
		</g>
		<g>
			<g>
				<path style="fill:#8DA6E7;" d="M2144.357,278.297c63.076,0,126.152,0.207,189.227-0.114c21.772-0.111,43.59-0.859,65.296-2.51
					c40.813-3.104,61.504,20.382,58.473,64.576c-4.91,71.584-3.826,143.315-0.544,215.012c0.883,19.291,1.73,38.704-2.069,57.981
					c-5.23,26.539-26.838,42.288-53.785,39.464c-12.003-1.258-24.198-0.904-36.304-0.878c-7.949,0.017-11.818,3.611-12.355,12.468
					c-0.726,11.985-3.435,23.855-5.386,35.76c-1.68,10.249-6.108,11.154-13.213,3.941c-12.257-12.443-24.682-24.721-37.014-37.09
					c-8.902-8.929-18.905-12.899-32.224-13.297c-110.966-3.314-221.949-1.313-332.919-2c-26.33-0.163-41.375-15.328-42.25-41.097
					c-3.174-93.559-2.29-187.149-2.473-280.731c-0.066-33.817,16.968-51.032,50.846-51.099
					c68.898-0.136,137.796-0.041,206.694-0.041C2144.357,278.527,2144.357,278.412,2144.357,278.297z"/>
			</g>
			<g>
				<path style="fill:#FFFFFF;" d="M2179.122,485.736c-58.199,0-116.398-0.055-174.598,0.066
					c-7.716,0.016-15.522,0.345-23.122,1.562c-9.277,1.485-14.349-2.531-15.242-11.038c-0.895-8.528,4.269-11.487,12.621-11.788
					c129.903-4.677,259.854-1.61,389.778-2.679c7.9-0.065,13.058,1.697,13.234,11.061c0.184,9.801-4.673,12.439-13.524,12.416
					c-63.049-0.164-126.098-0.087-189.147-0.087C2179.122,485.41,2179.122,485.573,2179.122,485.736z"/>
			</g>
			<g>
				<path style="fill:#FFFFFF;" d="M2234.175,360.008c43.18,0,86.361,0.154,129.54-0.118c9.691-0.061,16.395,1.576,15.184,13.398
					c-1.125,10.986-7.398,12.387-17.262,11.989c-18.225-0.734-36.522,0.552-54.79,0.599c-67.439,0.172-134.878,0.233-202.317,0.207
					c-13.331-0.005-19.577-6.918-16.215-17.279c2.629-8.103,9.025-8.826,16.32-8.8c43.18,0.151,86.361,0.075,129.541,0.075
					C2234.175,360.055,2234.175,360.032,2234.175,360.008z"/>
			</g>
			<g>
				<path style="fill:#FFFFFF;" d="M2124.177,570.125c-47.468,0.002-94.937-0.095-142.404,0.091
					c-8.567,0.034-16.134-0.644-15.899-11.59c0.226-10.545,7.654-11.82,16.242-11.823c95.421-0.025,190.841-0.152,286.261-0.349
					c7.949-0.016,14.349,0.4,14.397,11.175c0.049,10.857-5.591,12.653-14.74,12.607
					C2220.083,569.994,2172.129,570.123,2124.177,570.125z"/>
			</g>
			<g>
				<path style="fill:#FFFFFF;" d="M2008.662,386.347c-9.679,0-19.364-0.208-29.036,0.059c-9.446,0.261-13.557-5.306-13.39-13.426
					c0.166-8.075,4.432-13.238,13.855-13.061c19.835,0.373,39.683,0.253,59.524,0.09c8-0.066,13.135,2.393,13.178,11.388
					c0.045,9.296-3.876,14.787-13.643,14.879c-10.162,0.096-20.326,0.021-30.489,0.021
					C2008.662,386.315,2008.662,386.331,2008.662,386.347z"/>
			</g>
		</g>
		<g>
			<g>
				<path style="fill:#FFFFFF;" d="M528.418,1025.678c46.105-0.001,92.259,1.299,138.299-0.437
					c33.216-1.252,54.997,26.04,55.747,54.434c1.407,53.266,4.893,106.504,3.27,159.843c-0.342,11.228-1.549,22.261-5.545,32.683
					c-10.018,26.125-33.437,27.794-56.353,30.062c-8.609,0.852-18.696-3.238-25.544,2.027c-6.952,5.344-1.059,15.755-3.506,23.477
					c-3.17,10.004-1.815,20.198-2.287,30.325c-0.172,3.691,1.154,8.221-3.435,10.244c-4.798,2.115-8.914-0.295-11.444-3.96
					c-12.76-18.481-31.819-31.229-44.699-49.566c-7.745-11.026-17.453-16.257-31.896-15.714
					c-31.016,1.167-62.122-0.239-93.162,0.554c-21.655,0.554-42.953,3.786-64.969,0.32c-30.115-4.741-49.754-22.767-50.154-53.621
					c-0.724-55.8-0.764-111.624,0.015-167.423c0.464-33.274,22.43-53.23,55.893-53.245
					C435.237,1025.663,481.828,1025.678,528.418,1025.678z"/>
			</g>
			<g>
				<path style="fill:#A1AFD3;" d="M531.594,1186.176c-14.026-0.102-23.508-8.808-23.692-21.752
					c-0.188-13.185,10.313-22.826,24.739-22.714c14.113,0.11,23.838,9.911,23.525,23.709
					C555.882,1177.902,545.963,1186.281,531.594,1186.176z"/>
			</g>
			<g>
				<path style="fill:#A0AED3;" d="M440.657,1186.205c-14.666-0.349-21.541-7.983-20.877-23.184
					c0.617-14.126,9.234-21.85,23.641-21.193c13.158,0.601,23.265,10.856,22.85,23.184
					C465.828,1178.158,455.671,1186.562,440.657,1186.205z"/>
			</g>
			<g>
				<path style="fill:#A1AFD3;" d="M617.883,1186.134c-13.183-0.163-22.735-9.869-22.711-23.074
					c0.023-12.205,10.849-21.747,24.246-21.37c14.569,0.411,22.168,8.437,21.837,23.066
					C640.929,1179.171,633.11,1186.323,617.883,1186.134z"/>
			</g>
		</g>
		<g>
			<g>
				<path style="fill:#FE8974;" d="M289.478,1693.462c32.479,0,64.961-0.25,97.438,0.063c40.613,0.392,67.351,27.148,67.262,67.756
					c-0.096,43.601,1.066,87.216-2.151,130.795c-2.732,37.013-28.731,62.706-66.057,63.537c-18.413,0.41-36.888,0.973-55.243-0.103
					c-11.542-0.677-19.104,3.491-26.127,11.902c-10.862,13.006-22.404,25.452-33.86,37.95c-3.439,3.752-6.511,9.751-12.84,7.439
					c-5.628-2.056-6.301-8.205-7.249-13.411c-1.817-9.977-3.617-19.973-4.877-30.03c-1.209-9.652-6.962-13.171-15.857-13.212
					c-12.119-0.055-24.359-1.186-36.334,0.111c-38.623,4.185-72.613-32.089-73.544-70.23c-1.123-46.016-1.242-92.08,2.557-138.005
					c2.605-31.503,33.254-57.513,65.134-56.422c16.944,0.579,33.898,0.977,50.85,1.175c16.964,0.198,33.932,0.043,50.899,0.043
					C289.478,1693.034,289.478,1693.248,289.478,1693.462z"/>
			</g>
			<g>
				<path style="fill:#FFFFFF;" d="M288.622,1856.841c24.246,0,48.497,0.319,72.734-0.162c9.286-0.185,15.824,2.637,16.125,12.193
					c0.313,9.933-7.263,10.783-15.266,10.741c-48.007-0.251-96.014-0.283-144.022-0.39c-1.455-0.003-2.914,0.039-4.363-0.06
					c-7.713-0.525-13.028-3.641-13.087-12.308c-0.065-9.515,6.068-10.646,13.688-10.593c24.729,0.17,49.461,0.063,74.191,0.063
					C288.622,1856.497,288.622,1856.669,288.622,1856.841z"/>
			</g>
			<g>
				<path style="fill:#FFFFFF;" d="M291.778,1791.467c24.259,0,48.56,0.8,72.757-0.423c8.757-0.443,11.871,2.859,12.904,9.57
					c1.214,7.879-2.607,13.407-10.944,14.033c-7.723,0.58-15.549,0.715-23.272,0.193c-42.657-2.878-85.362-1.031-128.04-1.631
					c-6.91-0.097-16.497,2.341-16.572-8.632c-0.072-10.582,8.269-12.824,17.459-12.779c25.235,0.123,50.471,0.042,75.707,0.042
					C291.778,1791.716,291.778,1791.591,291.778,1791.467z"/>
			</g>
		</g>
		<g>
			<g>
				<path style="fill:#CAC7F3;" d="M1699.842,1051.83c-17.459-0.004-34.922,0.213-52.376-0.105
					c-7.532-0.137-12.563,2.478-16.961,8.778c-6.042,8.655-13.115,16.624-20.123,24.555c-13.153,14.884-21.345-0.149-18.581-14.76
					c5.122-27.08-47.992-20.029-48.353-58.955c-0.301-32.49-0.465-64.99,0.045-97.475c0.47-29.942,16.688-45.503,46.163-45.519
					c49.468-0.027,98.935-0.01,148.403-0.006c31.242,0.003,47.517,11.911,49.038,42.734c1.759,35.643,3.995,71.657-2.067,107.274
					c-3.702,21.751-17.928,33.421-40.086,33.476C1729.911,1051.865,1714.876,1051.834,1699.842,1051.83z"/>
			</g>
			<g>
				<path style="fill:#FFFFFF;" d="M1668.957,979.196c-10.154-0.705-17.274-5.505-17.481-15.662
					c-0.223-10.914,6.864-16.625,17.644-16.415c10.111,0.197,16.703,5.932,16.588,16.063
					C1685.592,973.317,1678.662,978.26,1668.957,979.196z"/>
			</g>
			<g>
				<path style="fill:#FFFFFF;" d="M1738.385,978.371c-10.154-0.706-17.274-5.505-17.481-15.662
					c-0.223-10.914,6.864-16.625,17.645-16.415c10.111,0.197,16.703,5.932,16.588,16.063
					C1755.021,972.493,1748.091,977.435,1738.385,978.371z"/>
			</g>
			<g>
				<path style="fill:#FFFFFF;" d="M1587.021,962.443c-0.835-11.024,6.37-14.996,16.103-15.242
					c9.715-0.246,15.754,5.274,15.671,15.059c-0.092,10.972-6.756,16.561-17.605,16.643
					C1590.667,978.984,1586.785,972.729,1587.021,962.443z"/>
			</g>
		</g>
		<g>
			<g>
				<path style="fill:#CAE1F1;" d="M2737.899,872.036c27.073-0.013,54.147-0.066,81.221,0.007
					c17.298,0.047,26.419,9.092,26.438,26.344c0.06,53.048,0.035,106.096-0.002,159.144c-0.013,19.109-8.398,29.267-27.594,29.503
					c-52.675,0.648-105.369,0.672-158.043-0.02c-20.211-0.265-29.622-11.53-29.632-31.605c-0.025-51.95-0.023-103.901,0.005-155.851
					c0.01-18.811,8.567-27.422,27.484-27.486C2684.483,871.98,2711.191,872.049,2737.899,872.036z"/>
			</g>
			<g>
				<g>
					<path style="fill:#4E7FD2;" d="M2737.722,924.992c16.81-0.004,33.621-0.068,50.43,0.016c12.662,0.063,17.5,4.571,17.563,16.889
						c0.151,29.599,0.158,59.199,0.028,88.798c-0.054,12.254-4.938,16.978-17.549,17.021c-33.62,0.114-67.241,0.107-100.861-0.014
						c-13.008-0.046-18.136-4.451-18.303-17.576c-0.381-29.926-0.041-59.861,0.113-89.793c0.054-10.429,5.944-15.244,15.955-15.307
						C2702.639,924.917,2720.18,924.997,2737.722,924.992z"/>
				</g>
				<g>
					<path style="fill:#FFFFFF;" d="M2775.119,965.923c0.403,3.781-2.118,5.977-4.451,8.315
						c-12.11,12.134-24.366,24.128-36.216,36.513c-5.527,5.777-10.178,6.132-15.47,0.041c-3.824-4.401-7.847-8.649-12.012-12.73
						c-3.628-3.554-5.285-7.119-0.94-11.064c3.661-3.324,7.561-4.149,11.54-0.155c3.33,3.343,7.836,9.735,10.086,9.053
						c4.674-1.417,8.321-6.505,12.166-10.31c8.036-7.954,15.869-16.112,23.917-24.054c2.052-2.024,4.48-3.903,7.722-1.848
						C2773.778,961.154,2775.255,963.052,2775.119,965.923z"/>
				</g>
			</g>
		</g>
	</g>
</g>
<g id="post">
	<g>
		<defs>
			<rect id="SVGID_1_" x="20.625" y="20.625" width="2958.75" height="2958.75"/>
		</defs>
		<clipPath id="SVGID_00000132791688091925458790000006823159016415383950_">
			<use xlink:href="#SVGID_1_"  style="overflow:visible;"/>
		</clipPath>
		<g style="clip-path:url(#SVGID_00000132791688091925458790000006823159016415383950_);">
			<g>
				<path style="fill:#98A9AE;" d="M2369.333,2962.049l-6.938-0.694L-148.131,2709.89l810.179-303.816l5.787,0.244l2349.638,99.224
					v197.659L2369.333,2962.049z M100.545,2677.513l2260.595,226.431l599.333-239.356v-104.401l-2289.257-96.675L100.545,2677.513z"
					/>
			</g>
			<g>
				<polygon style="fill:#DEDBD3;" points="2988.973,2679.774 2365.236,2928.876 -23.793,2689.581 666.632,2430.671 
					2988.973,2528.743 				"/>
			</g>
		</g>
	</g>
	<g>
		<g>
			<g>
				<g>
					<g>
						<path style="fill:#3E6680;" d="M2508.906,2434.076c-28.609-0.769-57.225-1.361-85.827-2.345
							c-314.955-10.724-629.918-21.239-944.878-31.827c-116.421,0-233.373-8.169-349.721-12.354
							c-23.711-0.853-40.328-17.306-38.861-41.077c2.289-37.088,6.353-74.071,9.847-111.08c4.787-50.7,9.75-101.384,14.631-152.075
							c4.881-50.693,9.737-101.388,14.636-152.08c4.041-41.808,8.148-83.61,12.193-125.418
							c4.975-51.426,9.928-102.854,14.866-154.283c4.761-49.587,9.404-99.186,14.258-148.764
							c4.999-51.055,9.82-102.132,15.478-153.115c2.281-20.55,15.153-32.39,36.252-36.413c3.635,1.21,7.39,0.645,11.086,0.646
							c203.263,0.03,406.527,0.031,609.79-0.004c3.688-0.001,7.452,0.643,11.061-0.733c1.641-3.859-2.345-3.604-3.836-4.983
							c-14.651-13.554-19.84-30.488-15.789-49.523c3.827-17.979,15.016-30.184,33.448-34.768
							c34.205,1.521,68.426,0.362,102.639,0.59c13.755,0.092,27.533,0.736,41.276-0.478c3.497-0.309,6.576,0.792,9.603,2.324
							c27.393,13.861,36.948,48.583,20.771,74.78c-5.731,9.281-14.309,12.249-24.49,12.821c-11.489,0.645-22.956,0.157-34.44,0.057
							c-32.377-0.281-64.757-0.093-91.181-0.099c31.899,0.948,69.762-0.827,107.639,0.729c11.214,0.461,22.715-0.557,34.107-3.873
							c11.513-3.351,24.104-4.427,35.705,1.807c0.671-0.302,1.241-0.17,1.711,0.397c192.111-0.337,384.222-0.028,576.334-0.246
							c11.793-0.013,19.741,5.374,25.7,14.734c6.938,10.898,8.148,23.085,7.028,35.525c-4.737,52.623-9.923,105.208-14.445,157.847
							c-4.681,54.496-9.675,108.968-14.782,163.419c-3.961,42.231-7.759,84.481-11.638,126.72
							c-4.935,53.724-10.346,107.403-14.816,161.171c-4.192,50.432-9.784,100.742-13.9,151.179
							c-4.48,54.889-10.624,109.621-15.105,164.507c-2.786,34.123-6.479,68.162-9.531,102.261
							c-1.033,11.542-3.619,22.755-11.451,32.114c-6.967,8.326-15.437,12.034-26.38,11.54
							C2534.917,2433.119,2521.888,2432.637,2508.906,2434.076z"/>
					</g>
					<g>
						<g>
							<g>
								<path style="fill:#1F4057;" d="M1687.017,2449.583c-0.843-3.031-1.687-6.061-2.53-9.091
									c-3.089-18.417-6.178-36.833-9.266-55.249c44.733-1.073,89.356,1.499,133.98,4.027c0.742,0.042,1.486,0.102,2.228,0.092
									c53.805-0.735,107.413,5.325,161.215,4.666c7.514,20.068,15.029,40.135,22.543,60.201
									c3.353,10.902,6.946,21.738,9.941,32.738c1.204,4.42,3.376,5.581,7.695,5.766c9.588,0.41,19.148,1.489,28.72,2.296
									c-1.192,5.58-5.99,4.822-9.768,5.157c-6.671,0.592-13.436,0.651-20.014-0.807c-6.858-1.52-13.07-0.628-19.427,2.477
									c-9.951,4.861-13.682,3.263-17.559-7.417c-3.554-9.79-5.921-19.977-8.527-30.054c-1.819-7.033-5.439-10.944-12.906-11.469
									c-4.805-0.338-9.557-1.562-14.412-1.53c-58.776,0.384-117.386-5.084-176.179-4.854c-17.405,0.068-34.845-2.125-52.353-2.119
									C1702.026,2444.415,1694.386,2445.935,1687.017,2449.583z"/>
							</g>
							<g>
								<path style="fill:#3B637E;" d="M2096.14,2501.948c-4.125-2.207-8.584-1.77-13.018-1.893c-0.779-0.021-0.8-1.095-0.066-0.645
									c0.577,0.354,1.172,0.071,1.694-0.705c-14.294-2.495-28.734-3.28-43.207-3.678c-10.163,3.381-20.809,3.107-30.574,0.256
									c-7.83-2.286-14.999-1.344-19.919,2.917c-10.551,9.138-11.601-0.122-13.514-6.133c-3.592-11.29-6.63-22.802-9.061-34.396
									c-1.265-6.032-4.333-7.169-9.829-8.116c-26.538-4.575-53.374-1.999-80.038-3.539c-59.667-3.447-119.526-3.509-179.291-5.432
									c-7.525-0.242-10.722,2.544-12.299,8.998c0.85,5.872,0.838,12.042,2.739,17.551c3.333,9.659-0.858,12.657-9.449,15.326
									c-45.75,14.213-91.316,29.018-136.945,43.622c-7.589,2.429-14.173,6.544-13.768,15.301c0.03,0.659,0.021,1.239-0.007,1.784
									c27.916,8.272,57.262,10.191,86.373,10.373c30.737,0.192,61.278-0.899,91.948,1.901c16.298,1.488,32.535,3.549,48.783,5.487
									c15.927,1.9,31.908,3.288,47.8,5.44c3.722,0.504,7.446,0.998,11.171,1.487c21.635,0.908,43.273,1.781,64.857,3.474
									c-20.506-0.752-40.995-1.836-61.476-3.035c31.781,4.129,63.658,7.66,95.608,10.128c-0.714-1.703-1.67-2.983-2.805-3.94
									c2.466,0.31,4.932,0.618,7.396,0.961c4.119,0.575,8.189-0.105,12.099-1.446c49.266-16.897,98.344-34.331,147.326-52.031
									c6.981-2.523,13.769-5.702,19.693-10.342c2.082-1.631,4.002-3.712,3.833-6.496
									C2101.951,2501.165,2098.169,2503.035,2096.14,2501.948z"/>
							</g>
						</g>
						<g>
							<g>
								<path style="fill:#1E3F54;" d="M2516.268,2413.804l-1338.301-40.877c-24.474-0.747-43.361-22.765-41.413-48.277
									l71.838-940.844c1.776-23.253,20.346-41.177,42.663-41.177H2606.36c25.229,0,44.984,22.695,42.608,48.95l-88.843,981.722
									C2558.002,2396.772,2538.814,2414.492,2516.268,2413.804z"/>
							</g>
							<g>
								<path style="fill:#D1DAD8;" d="M2443.913,2379.122l-1251.64-38.23c-22.889-0.699-40.553-21.291-38.731-45.151l67.186-879.92
									c1.661-21.747,19.029-38.511,39.9-38.511h1267.543c23.595,0,42.071,21.226,39.849,45.78l-83.089,918.15
									C2482.945,2363.194,2465,2379.767,2443.913,2379.122z"/>
							</g>
						</g>
					</g>
				</g>
				<g>
					<g>
						<path style="fill:#1C3B50;" d="M2051.976,1316.383c-64.821,3.893-129.687,2.487-194.64,0.145c3.695,0,7.39-0.006,11.085,0.001
							c40.211,0.07,80.422,0.18,120.632,0.201c28.503,0.015,45.272-20.974,39.499-49.16c-3.799-18.545-24.522-39.562-46.865-38.597
							c-39.764,1.717-79.656,0.515-119.494,0.423c-3.973-0.009-8.239,1.244-11.847-1.672c12.516-2.317,25.17-1.325,37.763-1.412
							c42.304-0.294,84.61-0.567,126.915-0.494c37.675,0.065,61.583,31.007,52.135,66.542
							C2064.562,1302.13,2057.673,1308.786,2051.976,1316.383z"/>
					</g>
					<g>
						<path style="fill:#1B394D;" d="M1941.537,1275.244c0.078,11.35-10.946,23.394-21.32,23.294
							c-12.538-0.121-25.417-12.186-25.178-23.589c0.228-10.901,10.698-22.355,20.809-22.764
							C1928.057,1251.691,1941.458,1263.72,1941.537,1275.244z"/>
					</g>
				</g>
			</g>
			<g>
				<g>
					<g>
						<g>
							<g>
								<path style="fill:#FFFFFF;" d="M2420.602,2241.144l-729.299-24.517c-13.337-0.448-23.629-13.654-22.568-28.955
									l39.147-564.298c0.968-13.947,11.088-24.697,23.249-24.697h738.565c13.749,0,24.514,13.612,23.219,29.359l-48.414,588.815
									C2443.345,2230.929,2432.889,2241.557,2420.602,2241.144z"/>
							</g>
							<g>
								<g>
									<g>
										<path style="fill:#A8BDC6;" d="M1846.664,2138.319c-0.062-11.739,6.422-13.782,15.509-13.617
											c54.319,0.986,108.664,1.041,162.955,2.8c42.04,1.362,84.128,0.568,126.097,2.548c33.499,1.58,67.015,0.022,100.411,2.085
											c27.902,1.724,55.775,1.358,83.661,1.859c9.338,0.168,14.935,4.023,14.667,14.01c-0.262,9.735-7.066,15.89-17.1,14.278
											c-8.183-1.314-16.315-1.192-24.477-1.332c-55.07-0.942-110.166-1.055-165.206-2.863
											c-65.07-2.137-130.155-3.065-195.224-4.707c-28.627-0.722-57.265-0.786-85.885-1.656
											C1850.641,2151.379,1846.51,2147.331,1846.664,2138.319z"/>
									</g>
									<g>
										<g>
											<path style="fill:#315F7C;" d="M1714.523,2137.508c0.091-27.805,20.191-48.603,47.039-48.672
												c25.124-0.064,43.368,19.497,43.271,46.397c-0.096,26.885-21.625,49.241-47.293,49.111
												C1732.472,2184.217,1714.434,2164.579,1714.523,2137.508z"/>
										</g>
										<g>
											<path style="fill:#F7F5EA;" d="M1738.005,2124.531c3.39,4.047,6.896,7.399,9.363,11.393
												c2.866,4.638,5.131,4.941,9.263,1.367c6.126-5.301,12.771-10.01,19.295-14.837c1.896-1.402,4.198-3.97,6.194-0.04
												c1.169,2.301,2.197,4.625-0.619,6.771c-9.095,6.931-18.175,13.886-27.115,21.013c-3.174,2.531-5.344,1.445-7.446-1.159
												c-4.171-5.169-8.315-10.361-12.438-15.568c-1.534-1.938-1.922-4.018-0.088-5.974
												C1735.354,2126.495,1736.541,2125.723,1738.005,2124.531z"/>
										</g>
									</g>
								</g>
								<g>
									<g>
										<g>
											<path style="fill:#AEC1C9;" d="M2029.155,1680.529c40.161,0,80.333-0.536,120.479,0.253
												c17.042,0.335,34.098,1.852,51.169,1.379c7.424-0.206,11.914,3.124,11.955,9.996c0.041,6.788-3.612,12.345-11.458,12.486
												c-12.638,0.227-25.341,0.763-37.918-0.163c-44.186-3.253-88.417-1.199-132.622-1.718
												c-40.158-0.471-80.323-0.229-120.485-0.415c-4.42-0.021-8.867-0.597-13.248-1.268
												c-5.765-0.883-10.095-3.939-9.479-10.252c0.604-6.202,4.779-9.838,11.084-10.546c2.205-0.248,4.458-0.081,6.689-0.081
												c41.278-0.003,82.556-0.002,123.833-0.002C2029.155,1680.307,2029.155,1680.418,2029.155,1680.529z"/>
										</g>
										<g>
											<path style="fill:#AEC1C9;" d="M2095.358,1756.255c-65.468-3.026-130.979-2.026-196.477-2.182
												c-8.193-0.019-15.324-1.18-15.872-11.235c-0.459-8.417,6.126-13.663,16.745-13.12c75.521,3.86,151.1,0.932,226.642,2.124
												c2.234,0.035,4.485-0.126,6.699,0.09c7.656,0.748,13.23,4.678,12.684,12.637c-0.509,7.41-5.262,11.902-13.556,11.745
												C2119.939,1756.083,2107.646,1756.255,2095.358,1756.255z"/>
										</g>
									</g>
									<g>
										<g>
											<path style="fill:#315E7B;" d="M1845.094,1699.214c-0.038,27.011-20.556,48.229-46.453,48.036
												c-24.67-0.183-42.209-18.987-41.993-45.02c0.214-25.761,20.48-46.67,45.304-46.743
												C1827.048,1655.415,1845.13,1673.743,1845.094,1699.214z"/>
										</g>
										<g>
											<path style="fill:#F6F3E9;" d="M1793.534,1715.53c-0.961-0.853-2.186-1.676-3.076-2.772
												c-4.423-5.446-8.624-11.077-13.172-16.414c-2.732-3.206-1.063-5.434,1.083-7.613c3.305-3.357,4.287,0.565,5.75,2.143
												c11.211,12.097,11.177,12.11,24.447,1.845c3.502-2.709,7.073-5.327,10.61-7.99c1.716-1.292,3.53-3.397,5.522-0.759
												c1.52,2.014,3.242,4.697,0.542,6.903c-9.722,7.944-19.603,15.694-29.442,23.495
												C1795.264,1714.793,1794.566,1715.01,1793.534,1715.53z"/>
										</g>
									</g>
								</g>
								<g>
									<g>
										<g>
											<path style="fill:#AEC1C8;" d="M2282.791,1877.17c-59.338-1.474-129.665-1.505-199.927-3.199
												c-50.213-1.21-100.422-0.27-150.594-1.97c-15.954-0.54-31.899-1.724-47.879-1.608
												c-8.086,0.059-12.847-3.236-12.788-11.753c0.062-8.923,5.599-11.009,13.379-10.911
												c66.947,0.846,133.895,1.639,200.844,2.299c28.658,0.283,57.37-0.846,85.968,0.527
												c60.249,2.893,120.514,0.97,180.758,2.105c3.681,0.069,7.337,1.019,11.023,1.333c7.688,0.655,11.45,4.635,10.95,12.434
												c-0.51,7.957-5.206,10.804-12.668,10.775C2339.155,1877.112,2316.45,1877.17,2282.791,1877.17z"/>
										</g>
										<g>
											<path style="fill:#AEC1C8;" d="M2187.801,1928.52c-101.564-1.996-203.135-2.869-304.714-2.518
												c-9.019,0.031-15.641-2.667-16.027-12.704c-0.421-10.957,7.023-12.212,15.757-12.163
												c50.995,0.286,102.05-1.086,152.97,0.952c53.577,2.145,107.158-0.116,160.651,2.226
												c28.634,1.254,57.229,1.151,85.842,1.676c7.883,0.145,14.253,2.125,14.009,11.788
												c-0.248,9.819-6.876,10.83-14.686,10.797C2250.337,1928.443,2219.069,1928.52,2187.801,1928.52z"/>
										</g>
									</g>
									<g>
										<path style="fill:#376887;" d="M1785.948,1818.648c-23.853,0.147-44.169,21.319-43.904,45.756
											c0.257,23.834,19.022,43.5,41.73,43.735c23.656,0.244,45.436-21.922,45.347-46.15
											C1829.033,1837.936,1809.674,1818.502,1785.948,1818.648z M1784.242,1896.132c-16.339-0.017-30.373-14.888-30.457-32.274
											c-0.086-17.751,14.726-33.102,32.24-33.415c16.582-0.297,31.341,14.505,31.322,31.411
											C1817.327,1879.632,1801.375,1896.149,1784.242,1896.132z"/>
									</g>
								</g>
								<g>
									<g>
										<g>
											<path style="fill:#ACC0C8;" d="M2358.486,2017.936c-42.021-1.878-91.518-1.368-140.907-3.181
												c-41.284-1.515-82.583,0.21-123.771-2.035c-39.786-2.168-79.611-0.135-119.31-2.285
												c-33.843-1.833-67.644-1.125-101.462-1.567c-8.365-0.11-14.76-1.337-15.126-11.694
												c-0.372-10.53,6.261-14.555,14.706-14.02c44.922,2.843,89.901-0.115,134.87,2.382
												c38.964,2.163,78.154-0.073,117.184,1.312c48.332,1.716,96.713,0.35,144.975,2.42
												c46.121,1.979,92.212,0.768,138.301,1.878c13.158,0.317,16.341,3.315,15.955,14.309
												c-0.309,8.774-4.528,12.693-13.351,12.548C2395.668,2017.76,2380.781,2017.936,2358.486,2017.936z"/>
										</g>
										<g>
											<path style="fill:#ABBFC7;" d="M1906.496,2037.704c54.647,2.981,109.396,0.904,164.015,3.009
												c37.204,1.433,74.418-0.08,111.524,2.044c23.433,1.341,46.819,1.382,70.23,1.494c8.749,0.042,17.032,1.8,16.489,11.803
												c-0.503,9.266-7.983,13.404-17.556,13.057c-23.398-0.846-46.799-1.76-70.207-2.127
												c-64.352-1.01-128.747-0.687-193.048-3.005c-37.948-1.368-75.868-0.621-113.782-1.777
												c-2.604-0.08-5.252,0.146-7.804-0.251c-7.621-1.187-12.654-5.712-12.035-13.467c0.566-7.1,5.5-10.904,13.087-10.819
												C1880.436,2037.809,1893.467,2037.704,1906.496,2037.704z"/>
										</g>
									</g>
									<g>
										<path style="fill:#366786;" d="M1773.783,1955.087c-25.887-0.119-45.476,19.26-45.332,44.846
											c0.138,24.556,17.948,42.771,41.824,42.775c25.514,0.004,45.465-19.649,45.613-44.932
											C1816.029,1973.763,1797.717,1955.197,1773.783,1955.087z M1771.3,2031.059c-17.859,0.126-31.352-13.612-31.32-31.89
											c0.03-17.506,14.997-32.418,32.791-32.672c16.767-0.239,31.313,13.968,31.667,30.928
											C1804.807,2015.101,1789.209,2030.933,1771.3,2031.059z"/>
									</g>
								</g>
							</g>
						</g>
						<g>
							<g>
								<g>
									<g>
										<path style="fill:#8AA8B6;" d="M1380.767,2066.703c44.934,2.605,89.941,1.511,134.88,2.896
											c19.297,0.594,38.6,1.336,57.909,1.458c8.891,0.056,13.043,3.914,12.822,12.82c-0.234,9.413-5.914,13.876-14.276,13.54
											c-59.766-2.401-119.559-3.325-179.355-4.447c-13.304-0.25-26.667-1.866-40.025-1.534
											c-8.878,0.221-12.141-4.631-12.307-12.256c-0.176-8.077,4.33-12.365,12.452-12.453
											C1362.167,2066.626,1371.468,2066.703,1380.767,2066.703z"/>
									</g>
									<g>
										<path style="fill:#8BA8B7;" d="M1496.36,2149.438c-38.255-2.6-76.582-1.912-114.87-2.861
											c-11.088-0.275-22.215-1.7-33.36-1.497c-8.369,0.152-12.325-3.627-12.56-11.952c-0.24-8.495,4.27-12.743,12.118-12.615
											c14.48,0.236,28.943-0.25,43.464,1.057c15.521,1.397,31.228,0.655,46.85,1.009c27.497,0.622,54.988,1.53,82.487,1.956
											c7.619,0.118,11.339,4.23,11.597,10.725c0.285,7.171-2.855,13.477-11.167,14.055
											C1512.77,2149.882,1504.55,2149.438,1496.36,2149.438z"/>
									</g>
									<g>
										<path style="fill:#8AA7B6;" d="M1380.611,2200.539c-12.655,0-25.31-0.046-37.964,0.015
											c-8.984,0.044-13.011-5.432-13.16-13.309c-0.147-7.797,5.111-13.542,12.608-12.708
											c33.353,3.709,66.909-0.544,100.255,3.254c8.523,0.971,11.257,5.785,10.9,12.392c-0.377,6.979-3.552,13.146-12.494,12.567
											C1420.73,2201.453,1400.702,2200.141,1380.611,2200.539z"/>
									</g>
								</g>
								<g>
									<g>
										<path style="fill:#7899AB;" d="M1293.764,2179.958c-0.084,19.814-15.606,35.969-34.785,36.202
											c-16.542,0.202-30.428-14.504-30.3-32.087c0.139-19.055,15.899-34.975,34.572-34.922
											C1281.526,2149.203,1293.841,2161.636,1293.764,2179.958z"/>
									</g>
									<g>
										<g>
											<path style="fill:#33607E;" d="M1266.712,2122.214c-16.073-0.133-27.187-12.786-26.772-30.482
												c0.468-19.974,16.324-36.221,35.065-35.93c16.74,0.26,27.47,12.055,27.236,29.938
												C1301.968,2106.575,1286.575,2122.378,1266.712,2122.214z"/>
										</g>
										<g>
											<path style="fill:#F5F6F3;" d="M1268.264,2097.564c-2.477-0.24-11.98-13.098-11.362-14.801
												c0.34-0.936,1.235-1.906,2.133-2.355c1.66-0.831,2.865,0.295,3.487,1.691c4.874,10.929,10.264,4.441,15.976,0.788
												c3.04-1.945,6.829-7.736,9.645-4.114c3.33,4.283-3.391,6.124-6.167,8.486
												C1277.502,2091.064,1272.589,2094.354,1268.264,2097.564z"/>
										</g>
									</g>
								</g>
							</g>
							<g>
								<g>
									<polygon style="fill:#FFFFFF;" points="1563.553,1977.056 1239.482,1967.276 1281.806,1603.101 1611.313,1598.677 
																			"/>
								</g>
								<g>
									<g>
										<path style="fill:#577C93;" d="M1255.939,1919.847c20.325-26.876,48.339-41.544,80.108-49.977
											c10.063-2.671,20.055-6.173,30.726-5.832c0.946,0.96,1.44,2.157,1.377,3.462c-1.123,23.183,12.426,32.986,36.806,37.249
											c8.96,1.566,18.385,1.842,27.154-3.146c8.821-5.017,13.126-12.693,15.682-21.992c0.982-3.572,0.756-7.815,4.5-10.222
											c36.835,10.679,71.061,25.421,93.816,58.721c7.133,10.438,9.74,22.737,15.178,33.84
											c-3.943,10.82-12.344,15.308-23.156,15.1c-74.28-1.434-148.555-3.087-222.833-4.635
											c-12.809-0.267-25.622-0.36-38.434-0.547c-14.575-0.212-23.182-8.501-23.083-23.323
											C1253.844,1938.974,1255.176,1929.412,1255.939,1919.847z"/>
									</g>
									<g>
										<path style="fill:#E8A36F;" d="M1452.292,1869.388c-1.721,15.516-5.693,29.846-21.954,36.406
											c-18.911,7.63-60.495-0.88-64.255-26.591c-0.756-5.172-0.696-10.162,0.692-15.165c0.588-7.656,3.168-15.059,5.467-22.09
											c2.522-7.711,2.959-13.899-1.304-20.557c-0.679-1.061-1.378-2.281-1.516-3.49c-1.415-12.453-6.809-21.621-16.48-30.648
											c-11.357-10.6-6.228-33.117,6.68-42.514c7.503-2.43,11.097,2.57,14.599,7.702c4.882,7.154,6.669,7.263,10.752-0.394
											c5.721-10.729,9.716-22.221,13.833-33.64c4.507-12.503,7.42-14.114,19.903-10.794c21.773,5.791,43.756,8.855,66.351,6.168
											c8.837-1.051,11.469,1.473,11.989,10.561c0.726,12.692-0.225,25.359-1.014,38.022c4.966,15.386,1.243,28.892-9.231,40.688
											c-4.52,5.09-4.99,11.676-7.067,17.556c-5.506,15.588-14.862,27.58-29.268,35.648c-12.026,7.935-24.649,5.087-36.979,1.422
											c-7.299-2.169-14.091-5.979-20.476-8.99c3.363,2.749,7.531,5.521,11.606,8.398c11.248,7.939,23.139,10.447,36.237,4.397
											c2.671-1.234,5.486-3.721,8.984-1.977C1452.671,1862.301,1451.327,1866.131,1452.292,1869.388z"/>
									</g>
									<g>
										<path style="fill:#1B374A;" d="M1496.034,1762.365c-3.535-3.456-1.542-7.815-1.712-11.728
											c-0.347-7.98-0.717-16.033-0.023-23.964c0.831-9.496-1.941-11.159-11.579-9.929c-23.392,2.985-46.596-0.348-69.037-7.472
											c-6.495-2.062-8.509-0.923-10.645,5.527c-4.302,12.99-9.715,25.635-15.161,38.21c-2.101,4.852-4.585,9.956-10.592,12.163
											c-5.215-7.335-5.455-19.191-17.663-20.433c-5.101-15.844-4.689-32.243-4.263-48.521
											c0.291-11.137-0.466-9.046,10.813-12.742c5.426-1.778,7.1-7.73,10.714-12.429c2.82-3.666,4.89-7.745,8.143-11.571
											c7.286-8.571,14.615-3.273,21.429-6c10.474-4.192,15.031-14.82,24.429-13.714c8.798,1.036,6.73,8.009,15.028,10.714
											c8.299,2.706,19.445-4.867,26.813,0.429c2.757,1.982,15.737,13.874,19.192,13.734c8.021-0.325,20.773-0.464,24.556,7.847
											c4.05,8.898,2.258,18.732-4.728,25.964c-4.693,4.859-5.74,9.808-6.044,16.135
											C1504.918,1730.941,1501.205,1746.83,1496.034,1762.365z"/>
									</g>
									<g>
										<path style="fill:#98664D;" d="M1449.839,1859.507c-23.16,17.139-46.484,6.045-66.694-19.358
											c22.642,12.544,43.117,23.284,67.32,16.108C1450.258,1857.341,1450.049,1858.424,1449.839,1859.507z"/>
									</g>
									<g>
										<path style="fill:#6A4E3F;" d="M1451.832,1764.941c-4.839,12.363-3.571,22.272,2.089,31.872
											c2.369,4.018,0.937,8.133-2.643,11.144c-3.3,2.775-7.124,2.625-10.868,1.132c-2.124-0.847-4.305-2.44-3.493-5.019
											c0.922-2.927,3.006-0.769,4.659-0.396c6.784,1.53,9.239-0.955,7.072-7.698c-2.071-6.446-3.364-13.005-2.905-19.832
											C1445.995,1772.395,1446.432,1768.784,1451.832,1764.941z"/>
									</g>
									<g>
										<path style="fill:#172D3B;" d="M1425.029,1764.504c-0.384,3.748-0.548,8.508-5.762,8.999
											c-4.957,0.466-5.045-4.143-4.889-7.415c0.193-4.017,0.927-9.065,5.832-9.495
											C1424.65,1756.205,1425.049,1760.525,1425.029,1764.504z"/>
									</g>
									<g>
										<path style="fill:#15222F;" d="M1471.866,1746.568c3.641,0.615,7.724,1.314,11.811,1.991
											c1.776,0.294,3.044,1.195,2.825,3.097c-0.227,1.967-1.88,2.472-3.538,2.34c-6.346-0.503-12.684-1.105-19.022-1.71
											c-1.351-0.129-2.711-0.849-2.447-2.257c0.188-1.003,1.338-2.364,2.285-2.582
											C1466.234,1746.88,1468.814,1746.857,1471.866,1746.568z"/>
									</g>
									<g>
										<path style="fill:#0B1D29;" d="M1427.284,1746.484c-1.441,0-2.134,0.162-2.712-0.026
											c-3.682-1.204-10.852,3.044-10.566-3.211c0.233-5.082,7.451-2.103,11.546-2.806c0.307-0.053,0.646-0.008,0.955,0.059
											c4.109,0.895,11.642-0.929,11.276,3.897C1437.35,1750.134,1430.256,1744.637,1427.284,1746.484z"/>
									</g>
									<g>
										<path style="fill:#121F29;" d="M1445.887,1826.861c-7.257,4.193-13.926,2.588-20.326-1.227
											c-1.429-0.852-2.722-2.122-1.79-3.861c0.912-1.703,2.49-1.225,4.142-0.664
											C1433.868,1823.131,1439.89,1824.959,1445.887,1826.861z"/>
									</g>
									<g>
										<path style="fill:#172737;" d="M1472.727,1769.722c-1.073,3.091-1.303,7.314-5.908,7.301
											c-3.404-0.01-3.719-3.133-3.311-5.71c0.529-3.34,0.709-7.618,5.478-7.495
											C1472.051,1763.896,1472.57,1766.897,1472.727,1769.722z"/>
									</g>
								</g>
							</g>
						</g>
					</g>
					<g>
						<g>
							<path style="fill:#5C839A;" d="M2453.113,1632.113c-23.208,31.722-52.93,53.649-92.302,60.664
								c-55.503,9.89-106.761-14.764-133.743-64.036c-1.419-2.592-2.909-5.145-4.365-7.716
								c-13.028-33.073-16.877-66.814-6.333-101.263c17.797-58.141,73.272-101.407,130.038-101.848
								c88.702-0.689,151.565,85.963,125.578,172.814C2467.577,1605.467,2460.702,1618.911,2453.113,1632.113z"/>
						</g>
						<g>
							<path style="fill:#FBF1E0;" d="M2343.771,1451.466c-0.671,5.531-1.421,11.054-1.985,16.596
								c-0.436,4.276,1.127,7.477,5.805,7.821c4.515,0.331,6.8-2.302,7.223-6.664c0.718-7.396,2.008-14.797,1.955-22.189
								c-0.052-7.412,3.708-7.654,9.186-6.627c41.503,7.779,79.208,46.243,87.131,88.931c0.61,3.286,1.422,6.542,1.871,9.849
								c1.848,13.627,1.59,14.048-12.129,14.568c-4.923,0.187-9.544,0.994-9.783,6.619c-0.286,6.716,5.102,7.709,10.176,7.012
								c10.737-1.474,11.302,3.89,9.523,12.267c-10.133,47.701-53.321,87.936-101.389,94.639
								c-9.554,1.332-14.278-0.743-12.014-11.316c0.775-3.619,1.058-7.349,1.453-11.041c0.484-4.532,1.109-10.089-4.853-10.647
								c-6.038-0.565-7.615,4.625-8.041,9.864c-0.361,4.439-1.526,8.892-1.294,13.284c0.553,10.477-4.997,11.392-13.181,9.425
								c-31.218-7.501-55.443-24.702-71.694-52.43c-8.129-13.871-13.272-28.891-14.637-45.166c-0.578-6.88,1.336-9.766,8.355-8.939
								c2.564,0.302,5.231,0.204,7.801-0.113c4.045-0.499,7.238-2.395,7.159-6.994c-0.079-4.63-3.177-5.988-7.41-6.529
								c-17.353-2.217-18.19-2.561-13.275-19.54c14.564-50.309,45.73-84.098,98.339-95.302
								C2343.778,1435.497,2344.117,1436.073,2343.771,1451.466z"/>
						</g>
						<g>
							<path style="fill:#598098;" d="M2340.268,1572.361c-8.217-0.436-13.563-5.243-14.156-12.94
								c-0.472-6.12-3.277-9.154-7.64-12.353c-11.075-8.12-21.87-16.621-32.83-24.898c-4.535-3.425-8.221-8-4.592-13.105
								c3.814-5.366,8.529-1.374,12.417,1.538c11.584,8.676,23.271,17.219,34.691,26.107c10.6,8.249,17.591,8.487,29.026,1.343
								c17.616-11.005,35.46-21.646,53.257-32.359c4.253-2.56,9.779-5.176,12.901-0.093c3.664,5.965-1.985,9.137-6.535,11.895
								c-15.547,9.421-31.163,18.734-46.582,28.361c-7.181,4.483-15.669,7.307-16.822,18.395
								C2352.846,1569.58,2346.748,1572.895,2340.268,1572.361z"/>
						</g>
					</g>
				</g>
				<g>
					<path style="fill:#295774;" d="M1408.192,1532.959c-6.483-3.614-11.63-8.664-15.441-15.146
						c-3.813-6.483-5.717-13.771-5.717-21.865c0-8.092,1.904-15.361,5.717-21.806c3.811-6.442,8.958-11.472,15.441-15.087
						c6.482-3.614,13.614-5.422,21.393-5.422s14.91,1.809,21.393,5.422c6.483,3.615,11.59,8.645,15.323,15.087
						c3.731,6.444,5.599,13.713,5.599,21.806c0,8.094-1.886,15.382-5.657,21.865s-8.881,11.533-15.323,15.146
						c-6.444,3.615-13.555,5.422-21.334,5.422S1414.675,1536.575,1408.192,1532.959z M1445.439,1513.275
						c3.967-4.321,5.952-10.097,5.952-17.327c0-7.229-1.985-13.004-5.952-17.327c-3.969-4.32-9.253-6.483-15.854-6.483
						c-6.68,0-12.004,2.163-15.971,6.483c-3.969,4.323-5.953,10.098-5.953,17.327c0,7.23,1.984,13.006,5.953,17.327
						c3.967,4.322,9.292,6.482,15.971,6.482C1436.186,1519.758,1441.47,1517.598,1445.439,1513.275z"/>
					<path style="fill:#295774;" d="M1557.119,1537.556h-20.155l-33.71-51.037v51.037h-20.157v-82.744h20.157l33.71,51.273v-51.273
						h20.155V1537.556z"/>
					<path style="fill:#295774;" d="M1591.892,1522.233h26.402v15.323h-46.559v-82.744h20.156V1522.233z"/>
					<path style="fill:#295774;" d="M1648.113,1454.812v82.744h-20.156v-82.744H1648.113z"/>
					<path style="fill:#295774;" d="M1736.75,1537.556h-20.155l-33.71-51.037v51.037h-20.156v-82.744h20.156l33.71,51.273v-51.273
						h20.155V1537.556z"/>
					<path style="fill:#295774;" d="M1771.521,1470.724v17.208h26.991v15.205h-26.991v18.506h30.527v15.912h-50.684v-82.744h50.684
						v15.913H1771.521z"/>
					<path style="fill:#295774;" d="M1862.514,1470.724v17.208h26.991v15.205h-26.991v18.506h30.527v15.912h-50.684v-82.744h50.684
						v15.913H1862.514z"/>
					<path style="fill:#295774;" d="M1956.806,1537.556l-16.854-25.342l-14.852,25.342h-22.867l26.521-42.079l-27.109-40.665h23.456
						l16.619,24.988l14.616-24.988h22.866l-26.285,41.726l27.346,41.019H1956.806z"/>
					<path style="fill:#295774;" d="M2041.907,1522.94h-30.882l-4.95,14.616h-21.099l29.938-82.744h23.339l29.938,82.744h-21.334
						L2041.907,1522.94z M2036.839,1507.618l-10.372-30.528l-10.255,30.528H2036.839z"/>
					<path style="fill:#295774;" d="M2170.974,1454.812v82.744h-20.155v-49.623l-18.506,49.623h-16.266l-18.623-49.741v49.741
						h-20.156v-82.744h23.81l23.221,57.285l22.984-57.285H2170.974z"/>
				</g>
			</g>
		</g>
		<g>
			<g>
				<g>
					<path style="fill:#3C657F;" d="M2126.905,2816.089c-0.56-13.647,5.18-25.59,11.816-36.613
						c37.373-62.071,91.873-93.164,165.048-89.331c7.375,0.386,14.907-0.248,22.058,2.384c1.174,2.481-6.574-0.056-2.4,4.802
						c4.092,4.764,7.673,9.888,13.279,13.018c11.806,6.592,19.16,5.073,31.283-6.356c22.303,7.218,41.686,18.633,55.247,38.419
						c2.701,11.727,1.969,13.506-8.156,14.044c-46.939,2.497-84.117,24.095-112.391,60.216
						c-28.484,36.389-65.909,45.111-109.093,41.581c-15.178-1.24-29.066-5.642-42.722-11.694
						C2137.48,2840.624,2127.638,2831.953,2126.905,2816.089z"/>
				</g>
				<g>
					<path style="fill:#24465D;" d="M2126.905,2816.089c9.851,27.857,34.554,32.51,58.916,37.858
						c16.267,3.571,32.464,1.375,48.677-0.062c27.409-2.428,47.37-17.293,64.177-37.948c30.146-37.048,67.637-61.17,116.763-62.266
						c10.573-0.236,6.47-6.709,7.797-11.26c12.065,20.997,9.541,38.576-8.058,54.813c-14.362,13.251-31.488,22.376-48.767,30.905
						c-30.824,15.216-59.607,35.095-93.976,42.424c-30.398,6.482-61.195,9.803-91.774,3.103
						c-24.26-5.315-45.942-15.701-52.859-43.241C2126.597,2825.628,2126.321,2820.92,2126.905,2816.089z"/>
				</g>
				<g>
					<path style="fill:#1B3A4E;" d="M2367.988,2703.993c-5.079,14.771-18.843,18.353-34.345,8.488
						c-5.221-3.323-9.915-7.586-12.602-13.516c-2.313-5.106,0.466-6.322,4.789-6.435
						C2340.567,2693.827,2354.747,2697.184,2367.988,2703.993z"/>
				</g>
			</g>
			<g>
				<g>
					<g>
						<path style="fill:#1C3E54;" d="M1794.377,2845.16L866.961,2702.48c-13.817-2.126-18.612-19.595-7.817-28.477l188.076-154.741
							c3.278-2.698,7.486-3.998,11.715-3.62l1056.118,94.296c15.354,1.371,20.269,21.405,7.292,29.726l-316.777,203.125
							C1802.251,2844.916,1798.271,2845.759,1794.377,2845.16z"/>
					</g>
					<g>
						<path style="fill:#36607C;" d="M1747.436,2831.076l-927.416-142.679c-13.817-2.126-18.612-19.595-7.817-28.477
							l188.076-154.741c3.279-2.697,7.486-3.998,11.715-3.62l1056.118,94.296c15.354,1.371,20.269,21.405,7.292,29.726
							l-316.777,203.125C1755.309,2830.832,1751.33,2831.675,1747.436,2831.076z"/>
					</g>
					<g>
						<path style="fill:#234760;" d="M1670.197,2807.092L877.834,2685.19c-11.805-1.816-15.902-16.741-6.679-24.33l160.688-132.208
							c2.801-2.304,6.396-3.416,10.009-3.093l902.322,80.564c13.118,1.171,17.317,18.288,6.23,25.397l-270.647,173.545
							C1676.924,2806.884,1673.524,2807.604,1670.197,2807.092z"/>
					</g>
				</g>
				<g>
					<g>
						<path style="fill:#335D79;" d="M1075.217,2566.043l-63.367-8.688c-2.344-0.322-3.126-3.319-1.237-4.744l29.043-21.91
							c0.517-0.39,1.158-0.577,1.804-0.527l63.329,4.956c2.334,0.183,3.303,3.079,1.549,4.63l-29.005,25.642
							C1076.755,2565.914,1075.982,2566.148,1075.217,2566.043z"/>
					</g>
					<g>
						<path style="fill:#335D79;" d="M1163.884,2574.872l-63.366-8.688c-2.344-0.322-3.125-3.319-1.237-4.744l29.043-21.91
							c0.517-0.39,1.158-0.577,1.804-0.527l63.329,4.956c2.334,0.183,3.303,3.08,1.549,4.63l-29.005,25.642
							C1165.422,2574.743,1164.649,2574.977,1163.884,2574.872z"/>
					</g>
					<g>
						<path style="fill:#335D79;" d="M1246.427,2583.993l-63.367-8.688c-2.344-0.322-3.125-3.319-1.237-4.744l29.043-21.909
							c0.517-0.39,1.158-0.577,1.804-0.527l63.329,4.956c2.334,0.183,3.303,3.08,1.549,4.63l-29.005,25.642
							C1247.964,2583.865,1247.192,2584.098,1246.427,2583.993z"/>
					</g>
					<g>
						<path style="fill:#335D79;" d="M1337.27,2592.265l-63.5-7.656c-2.349-0.283-3.179-3.268-1.314-4.723l28.682-22.379
							c0.51-0.398,1.149-0.596,1.795-0.556l63.401,3.925c2.337,0.145,3.353,3.025,1.625,4.604l-28.584,26.111
							C1338.805,2592.111,1338.036,2592.358,1337.27,2592.265z"/>
					</g>
					<g>
						<path style="fill:#335D79;" d="M1417.812,2601.387l-63.5-7.656c-2.349-0.283-3.179-3.268-1.314-4.723l28.682-22.379
							c0.51-0.398,1.149-0.596,1.795-0.556l63.401,3.925c2.337,0.145,3.353,3.025,1.625,4.604l-28.584,26.111
							C1419.348,2601.233,1418.579,2601.479,1417.812,2601.387z"/>
					</g>
					<g>
						<path style="fill:#335D79;" d="M1498.355,2610.508l-63.5-7.656c-2.349-0.283-3.179-3.268-1.314-4.723l28.682-22.38
							c0.51-0.398,1.149-0.596,1.795-0.556l63.401,3.925c2.337,0.145,3.353,3.025,1.625,4.604l-28.584,26.111
							C1499.891,2610.354,1499.122,2610.601,1498.355,2610.508z"/>
					</g>
					<g>
						<path style="fill:#335D79;" d="M1578.898,2619.63l-63.5-7.656c-2.349-0.283-3.179-3.268-1.314-4.723l28.682-22.379
							c0.51-0.398,1.149-0.596,1.795-0.556l63.401,3.925c2.337,0.145,3.353,3.025,1.625,4.604l-28.584,26.111
							C1580.433,2619.476,1579.664,2619.722,1578.898,2619.63z"/>
					</g>
					<g>
						<path style="fill:#335D79;" d="M1659.44,2628.751l-63.5-7.656c-2.349-0.283-3.179-3.268-1.314-4.723l28.682-22.38
							c0.51-0.398,1.149-0.596,1.795-0.556l63.401,3.924c2.337,0.145,3.353,3.026,1.624,4.604l-28.584,26.111
							C1660.976,2628.597,1660.207,2628.844,1659.44,2628.751z"/>
					</g>
					<g>
						<path style="fill:#335D79;" d="M1739.983,2637.873l-63.5-7.656c-2.349-0.283-3.179-3.268-1.314-4.723l28.682-22.38
							c0.51-0.398,1.149-0.596,1.795-0.556l63.401,3.925c2.337,0.145,3.353,3.025,1.625,4.604l-28.584,26.111
							C1741.519,2637.719,1740.75,2637.965,1739.983,2637.873z"/>
					</g>
					<g>
						<path style="fill:#335D79;" d="M1820.526,2646.994l-63.5-7.656c-2.349-0.283-3.179-3.268-1.314-4.723l28.682-22.379
							c0.51-0.398,1.149-0.596,1.795-0.556l63.401,3.925c2.337,0.145,3.353,3.025,1.625,4.604l-28.584,26.111
							C1822.061,2646.84,1821.292,2647.086,1820.526,2646.994z"/>
					</g>
					<g>
						<path style="fill:#335D79;" d="M1901.068,2656.115l-63.5-7.656c-2.349-0.283-3.179-3.268-1.314-4.723l28.682-22.379
							c0.51-0.398,1.149-0.596,1.795-0.556l63.401,3.925c2.337,0.145,3.353,3.025,1.625,4.604l-28.584,26.111
							C1902.604,2655.961,1901.835,2656.208,1901.068,2656.115z"/>
					</g>
					<g>
						<path style="fill:#335D79;" d="M1026.52,2602.236l-63.367-8.689c-2.344-0.321-3.125-3.319-1.237-4.744l29.043-21.91
							c0.517-0.39,1.158-0.577,1.804-0.527l63.329,4.956c2.334,0.183,3.303,3.08,1.549,4.63l-29.005,25.642
							C1028.058,2602.107,1027.285,2602.341,1026.52,2602.236z"/>
					</g>
					<g>
						<path style="fill:#335D79;" d="M1115.187,2611.066l-63.366-8.689c-2.344-0.321-3.125-3.319-1.237-4.744l29.043-21.909
							c0.517-0.39,1.158-0.577,1.804-0.527l63.329,4.956c2.334,0.183,3.303,3.08,1.549,4.63l-29.005,25.642
							C1116.725,2610.937,1115.952,2611.17,1115.187,2611.066z"/>
					</g>
					<g>
						<path style="fill:#335D79;" d="M1197.73,2620.187l-63.366-8.689c-2.344-0.321-3.126-3.319-1.237-4.744l29.043-21.909
							c0.517-0.39,1.158-0.577,1.804-0.527l63.329,4.956c2.334,0.183,3.303,3.08,1.549,4.63l-29.005,25.642
							C1199.267,2620.058,1198.495,2620.292,1197.73,2620.187z"/>
					</g>
					<g>
						<path style="fill:#335D79;" d="M1288.573,2628.459l-63.5-7.656c-2.349-0.283-3.179-3.268-1.314-4.723l28.682-22.38
							c0.51-0.398,1.149-0.596,1.795-0.556l63.401,3.925c2.337,0.145,3.353,3.025,1.625,4.604l-28.584,26.111
							C1290.108,2628.305,1289.339,2628.552,1288.573,2628.459z"/>
					</g>
					<g>
						<path style="fill:#335D79;" d="M1369.115,2637.58l-63.5-7.656c-2.349-0.283-3.179-3.268-1.314-4.723l28.682-22.379
							c0.51-0.398,1.149-0.596,1.795-0.556l63.401,3.924c2.337,0.145,3.353,3.025,1.625,4.604l-28.584,26.111
							C1370.651,2637.427,1369.882,2637.673,1369.115,2637.58z"/>
					</g>
					<g>
						<path style="fill:#335D79;" d="M1449.658,2646.702l-63.5-7.656c-2.349-0.283-3.179-3.268-1.314-4.723l28.682-22.379
							c0.51-0.398,1.149-0.596,1.795-0.556l63.401,3.925c2.337,0.145,3.353,3.025,1.625,4.604l-28.584,26.111
							C1451.194,2646.548,1450.425,2646.794,1449.658,2646.702z"/>
					</g>
					<g>
						<path style="fill:#335D79;" d="M1530.201,2655.823l-63.5-7.656c-2.349-0.283-3.179-3.268-1.314-4.723l28.682-22.38
							c0.51-0.398,1.149-0.596,1.795-0.556l63.401,3.925c2.337,0.145,3.353,3.025,1.625,4.604l-28.584,26.111
							C1531.736,2655.669,1530.967,2655.916,1530.201,2655.823z"/>
					</g>
					<g>
						<path style="fill:#335D79;" d="M1610.743,2664.945l-63.5-7.656c-2.349-0.283-3.179-3.268-1.314-4.723l28.682-22.379
							c0.51-0.398,1.149-0.596,1.795-0.556l63.401,3.925c2.337,0.145,3.353,3.025,1.625,4.604l-28.584,26.111
							C1612.279,2664.791,1611.51,2665.037,1610.743,2664.945z"/>
					</g>
					<g>
						<path style="fill:#335D79;" d="M1691.286,2674.066l-63.5-7.656c-2.349-0.283-3.179-3.268-1.314-4.723l28.682-22.379
							c0.51-0.398,1.149-0.596,1.795-0.556l63.401,3.925c2.337,0.145,3.353,3.025,1.625,4.604l-28.584,26.111
							C1692.822,2673.912,1692.053,2674.158,1691.286,2674.066z"/>
					</g>
					<g>
						<path style="fill:#335D79;" d="M1771.829,2683.188l-63.5-7.656c-2.349-0.283-3.179-3.268-1.314-4.723l28.682-22.38
							c0.51-0.398,1.149-0.596,1.795-0.556l63.401,3.925c2.337,0.145,3.353,3.025,1.625,4.604l-28.584,26.111
							C1773.364,2683.033,1772.595,2683.28,1771.829,2683.188z"/>
					</g>
					<g>
						<path style="fill:#335D79;" d="M1852.371,2692.309l-63.5-7.656c-2.349-0.283-3.179-3.268-1.314-4.723l28.682-22.379
							c0.51-0.398,1.149-0.596,1.795-0.556l63.401,3.925c2.337,0.145,3.353,3.025,1.625,4.604l-28.584,26.111
							C1853.907,2692.155,1853.138,2692.401,1852.371,2692.309z"/>
					</g>
					<g>
						<path style="fill:#335D79;" d="M977.823,2638.43l-63.367-8.688c-2.344-0.321-3.125-3.319-1.237-4.744l29.043-21.909
							c0.517-0.39,1.158-0.577,1.804-0.527l63.329,4.956c2.334,0.183,3.303,3.08,1.549,4.63l-29.005,25.642
							C979.361,2638.301,978.588,2638.535,977.823,2638.43z"/>
					</g>
					<g>
						<path style="fill:#335D79;" d="M1066.49,2647.259l-63.367-8.688c-2.344-0.322-3.126-3.319-1.237-4.744l29.043-21.91
							c0.517-0.39,1.158-0.577,1.804-0.527l63.329,4.956c2.334,0.183,3.303,3.079,1.549,4.63l-29.005,25.642
							C1068.028,2647.13,1067.255,2647.364,1066.49,2647.259z"/>
					</g>
					<g>
						<path style="fill:#335D79;" d="M1149.032,2656.381l-63.366-8.689c-2.344-0.321-3.125-3.319-1.237-4.744l29.043-21.909
							c0.517-0.39,1.158-0.577,1.804-0.527l63.329,4.956c2.334,0.183,3.303,3.08,1.549,4.63l-29.005,25.642
							C1150.57,2656.252,1149.798,2656.485,1149.032,2656.381z"/>
					</g>
					<g>
						<path style="fill:#335D79;" d="M1228.574,2665.945l-61.525-9.259c-2.276-0.343-3.008-3.347-1.158-4.755l28.439-21.647
							c0.506-0.385,1.131-0.567,1.759-0.51l61.523,5.526c2.267,0.204,3.183,3.109,1.464,4.644l-28.437,25.38
							C1230.07,2665.83,1229.317,2666.056,1228.574,2665.945z"/>
					</g>
					<g>
						<path style="fill:#335D79;" d="M1308.871,2676.366l-61.525-9.259c-2.276-0.343-3.008-3.347-1.158-4.755l28.439-21.647
							c0.506-0.385,1.131-0.567,1.759-0.51l61.523,5.526c2.267,0.204,3.183,3.109,1.463,4.644l-28.437,25.38
							C1310.368,2676.251,1309.614,2676.478,1308.871,2676.366z"/>
					</g>
					<g>
						<path style="fill:#335D79;" d="M1384.996,2687.634l-61.525-9.259c-2.276-0.343-3.008-3.347-1.158-4.755l28.439-21.647
							c0.506-0.385,1.132-0.567,1.759-0.51l61.523,5.526c2.267,0.204,3.183,3.109,1.464,4.644l-28.437,25.38
							C1386.492,2687.519,1385.739,2687.746,1384.996,2687.634z"/>
					</g>
					<g>
						<path style="fill:#335D79;" d="M1465.539,2700.048l-61.525-9.259c-2.276-0.343-3.008-3.347-1.158-4.755l28.439-21.647
							c0.506-0.385,1.132-0.567,1.759-0.51l61.523,5.526c2.268,0.204,3.183,3.109,1.464,4.644l-28.437,25.38
							C1467.035,2699.933,1466.281,2700.16,1465.539,2700.048z"/>
					</g>
					<g>
						<path style="fill:#335D79;" d="M1546.081,2709.831l-61.525-9.259c-2.276-0.343-3.008-3.347-1.158-4.755l28.439-21.647
							c0.506-0.385,1.131-0.567,1.759-0.51l61.523,5.526c2.267,0.204,3.183,3.109,1.463,4.644l-28.437,25.38
							C1547.578,2709.716,1546.824,2709.943,1546.081,2709.831z"/>
					</g>
					<g>
						<path style="fill:#335D79;" d="M1627.113,2720.243l-61.525-9.259c-2.276-0.343-3.008-3.347-1.158-4.755l28.439-21.647
							c0.506-0.385,1.132-0.567,1.759-0.51l61.523,5.526c2.268,0.204,3.183,3.109,1.463,4.644l-28.437,25.38
							C1628.609,2720.128,1627.856,2720.354,1627.113,2720.243z"/>
					</g>
					<g>
						<path style="fill:#335D79;" d="M1707.167,2727.936l-61.525-9.259c-2.276-0.343-3.008-3.347-1.158-4.755l28.439-21.647
							c0.506-0.385,1.131-0.567,1.759-0.51l61.523,5.526c2.267,0.204,3.183,3.109,1.463,4.644l-28.437,25.379
							C1708.663,2727.821,1707.91,2728.047,1707.167,2727.936z"/>
					</g>
					<g>
						<path style="fill:#335D79;" d="M1787.709,2738.445l-61.525-9.259c-2.276-0.343-3.008-3.347-1.158-4.755l28.439-21.647
							c0.506-0.385,1.131-0.567,1.758-0.51l61.523,5.526c2.267,0.204,3.183,3.109,1.463,4.644l-28.437,25.38
							C1789.206,2738.33,1788.452,2738.557,1787.709,2738.445z"/>
					</g>
					<g>
						<g>
							<path style="fill:#335D79;" d="M936.55,2677.651l-58.651-9.571c-2.17-0.354-2.862-3.362-1.096-4.761l27.158-21.502
								c0.483-0.383,1.08-0.561,1.678-0.501l58.656,5.839c2.162,0.215,3.029,3.125,1.387,4.651l-27.164,25.235
								C937.977,2677.544,937.258,2677.767,936.55,2677.651z"/>
						</g>
						<g>
							<path style="fill:#335D79;" d="M1018.655,2687.716l-58.651-9.571c-2.17-0.354-2.862-3.362-1.096-4.76l27.158-21.502
								c0.483-0.383,1.08-0.561,1.678-0.501l58.656,5.839c2.162,0.215,3.029,3.125,1.387,4.651l-27.164,25.234
								C1020.082,2687.608,1019.363,2687.832,1018.655,2687.716z"/>
						</g>
						<g>
							<path style="fill:#335D79;" d="M1095.078,2697.987l-58.651-9.571c-2.17-0.354-2.862-3.362-1.096-4.76l27.158-21.502
								c0.483-0.383,1.08-0.561,1.678-0.501l58.656,5.838c2.162,0.215,3.03,3.125,1.387,4.651l-27.164,25.235
								C1096.505,2697.88,1095.787,2698.103,1095.078,2697.987z"/>
						</g>
						<g>
							<path style="fill:#335D79;" d="M1179.206,2707.525l-58.786-8.54c-2.174-0.316-2.912-3.312-1.167-4.741l26.829-21.977
								c0.477-0.391,1.071-0.58,1.67-0.531l58.734,4.808c2.165,0.177,3.076,3.072,1.457,4.626l-26.778,25.709
								C1180.631,2707.392,1179.916,2707.628,1179.206,2707.525z"/>
						</g>
						<g>
							<path style="fill:#335D79;" d="M1253.776,2717.768l-58.786-8.541c-2.175-0.316-2.912-3.312-1.167-4.741l26.829-21.977
								c0.477-0.391,1.071-0.58,1.67-0.531l58.734,4.808c2.165,0.177,3.076,3.072,1.457,4.627l-26.778,25.709
								C1255.201,2717.636,1254.486,2717.871,1253.776,2717.768z"/>
						</g>
						<g>
							<path style="fill:#335D79;" d="M1328.346,2728.012l-58.786-8.541c-2.175-0.316-2.912-3.312-1.167-4.741l26.829-21.977
								c0.477-0.391,1.071-0.58,1.67-0.531l58.734,4.808c2.165,0.177,3.076,3.072,1.457,4.626l-26.778,25.709
								C1329.771,2727.879,1329.056,2728.115,1328.346,2728.012z"/>
						</g>
						<g>
							<path style="fill:#335D79;" d="M1402.916,2738.255l-58.786-8.54c-2.174-0.316-2.912-3.312-1.167-4.741l26.829-21.977
								c0.477-0.391,1.071-0.58,1.67-0.531l58.734,4.808c2.165,0.177,3.076,3.072,1.457,4.626l-26.778,25.709
								C1404.341,2738.123,1403.625,2738.358,1402.916,2738.255z"/>
						</g>
						<g>
							<path style="fill:#335D79;" d="M1477.485,2748.498l-58.786-8.54c-2.175-0.316-2.912-3.312-1.167-4.741l26.829-21.977
								c0.477-0.391,1.071-0.58,1.67-0.531l58.734,4.808c2.165,0.177,3.076,3.072,1.457,4.626l-26.778,25.709
								C1478.91,2748.366,1478.195,2748.602,1477.485,2748.498z"/>
						</g>
						<g>
							<path style="fill:#335D79;" d="M1552.055,2758.742l-58.786-8.54c-2.175-0.316-2.912-3.312-1.167-4.741l26.829-21.977
								c0.477-0.391,1.071-0.58,1.67-0.531l58.734,4.808c2.165,0.177,3.076,3.072,1.457,4.626l-26.778,25.709
								C1553.48,2758.609,1552.765,2758.845,1552.055,2758.742z"/>
						</g>
						<g>
							<path style="fill:#335D79;" d="M1626.625,2768.985l-58.786-8.54c-2.175-0.316-2.912-3.312-1.167-4.741l26.829-21.977
								c0.477-0.391,1.071-0.58,1.67-0.531l58.734,4.808c2.165,0.177,3.076,3.072,1.457,4.626l-26.778,25.709
								C1628.05,2768.853,1627.334,2769.088,1626.625,2768.985z"/>
						</g>
						<g>
							<path style="fill:#335D79;" d="M1701.194,2779.229l-58.786-8.54c-2.175-0.316-2.912-3.312-1.167-4.741l26.829-21.977
								c0.478-0.391,1.072-0.58,1.67-0.531l58.734,4.808c2.165,0.177,3.076,3.072,1.457,4.626l-26.778,25.709
								C1702.62,2779.096,1701.904,2779.332,1701.194,2779.229z"/>
						</g>
					</g>
				</g>
			</g>
		</g>
		<g>
			<g>
				<path style="fill:#DCDBD3;" d="M818.481,2642.84c7.673,19.508,15.337,39.02,23.021,58.525
					c8.417,21.367,18.686,41.875,28.976,62.372c-21.157-2.274-42.264-5.114-63.567-5.807c2.073-22.177,4.046-44.363,6.253-66.526
					C814.777,2675.2,816.698,2659.027,818.481,2642.84z"/>
			</g>
			<g>
				<path style="fill:#B17454;" d="M757.675,1959.046c-9.941-20.847-10.566-42.554-5.264-64.548
					c2.789-11.571,7.32-22.625,18.945-28.315c16.336-7.995,36.396,1.518,42.378,20.07c2.268,7.034,3.836,14.314,5.376,21.556
					c1.201,5.648,3.716,5.94,7.838,2.73c5.038-3.923,8.522-9.131,11.572-14.534c13.355-23.656,24.972-48,29.241-75.229
					c1.386-8.84,1.26-17.666,0.811-26.513c-0.152-2.99,0.117-4.412,3.714-3.895c10.22,1.47,19.986-0.846,29.566-4.2
					c6.772,15.069,8.333,31.284,9.93,47.403c0.574,5.794,2.468,11.777,0.135,17.668c-9.365,0.601-18.284,2.485-25.862,8.556
					c-2.814,2.254-5.648,4.455-7.765,7.413c-0.861,1.204-1.586,2.694-0.727,4.006c1.203,1.839,3.015,0.966,4.499,0.271
					c4.349-2.037,8.019-5.251,12.388-7.268c6.953-3.211,11.768-2.746,16.182,1.555c-7.157,21.366-3.243,41.388,7.08,60.769
					c6.846,12.854,13.37,25.881,19.933,38.883c7.674,15.202,2.893,25.19-13.781,29.05c-0.465,0.108-0.91,0.305-1.376,0.405
					c-5.027,1.076-11.86-0.885-14.75,3.058c-2.756,3.761-2.115,10.045-2.863,15.235c-0.882,6.119-1.876,12.202-4.231,17.969
					c-1.633,4.243-5.114,4.861-9.127,5.054c-7.584,0.366-15.101-0.85-22.716-0.681c6.605,3.744,13.89,3.999,21.12,4.401
					c2.787,0.155,5.874-0.835,7.424,2.657c-4.606,18.128-10.001,35.973-21.303,51.267c-9.705,13.132-23.133,19.668-39.273,20.965
					c-23.82,1.914-45.463-4.542-66.051-17.619c-4.62,16.082-7.318,32.052-10.059,48.026c-1.05,6.119-0.741,12.445-2.86,18.39
					c-12.64-4.271-25.164-8.934-37.945-12.728c-24.224-7.192-48.466-14.209-73.304-19.297c-25.579-5.24-51.289-5.694-77.133-5.733
					c9.552-26.131,14.413-53.42,19.934-80.547c0.379-1.862,0.963-3.683,1.452-5.523c23.975,10.176,48.609,11.144,73.648,4.961
					c30.396-7.506,53.642-25.291,71.46-50.584c5.492-7.796,10.602-15.862,15.887-23.804c3.194-0.559,3.744,2.351,5.171,4.025
					c4.484,5.257,8.822,10.635,15.687,13.048c3.974,1.397,7.796,1.898,12.131-1.441
					C771.695,1980.693,761.957,1972.495,757.675,1959.046z"/>
			</g>
			<g>
				<path style="fill:#3E6680;" d="M362.471,2488.897c-3.116-0.252-6.599,0.485-6.405-4.395c-2.413-2.803-1.276-6.005-0.673-8.929
					c5.845-28.379,11.145-56.867,17.096-85.225c4.669-22.247,8.602-44.638,12.818-66.983c-3.788,12.898-6.215,26.106-8.838,39.255
					c-7.542,37.807-14.886,75.654-22.788,113.388c-0.624,2.977-0.654,6.282-3.428,8.421c-2.036,3.687-5.588,3.281-8.832,2.937
					c-14.11-1.498-28.23-2.972-42.279-4.943c-3.808-0.534-7.557-0.601-11.339-0.771c-4.919-0.221-6.726-2.05-4.965-7.233
					c1.209-3.56,4.507-7.097,1.653-11.342c21.193-60.785,40.742-122.18,67.2-181.012c14.779-32.863,34.499-62.238,61.105-86.769
					c0.105-3.415,2.98-4.72,5.108-6.493c19.649-16.373,41.852-28.394,65.325-38.259c7.713-3.242,15.534-6.202,23.301-9.302
					c3.122-1.246,6.241-2.132,9.61-2.034c17.467-5.626,34.848-11.597,53.283-13.366c1.735-0.808,3.415-1.893,5.397-1.853
					c16.022,0.321,31.987-0.734,48.076,1.388c31.789,4.191,62.445,12.772,93.031,21.78c12.179,3.587,24.211,7.741,36.023,12.457
					c2.233,0.892,4.428,1.889,5.853,3.989c20.796,9.064,41.44,18.348,61.138,29.766c48.551,28.143,83.341,67.128,100.37,121.489
					c8.642,27.588,16.887,55.254,24.195,83.208c10.276,39.304,20.397,78.648,30.585,117.975c3.911,3.44,1.392,5.886-1.525,7.74
					c-4.542,2.886-9.384,5.279-14.451,7.16c-17.815,7.741-35.032,16.77-52.872,24.461c-31.095,13.405-62.832,24.981-95.673,33.316
					c-5.41,1.373-5.684,4.211-4.425,8.418c3.439,11.495,7.479,22.783,11.823,33.965c1.65,4.247,3.506,8.439,3.341,13.159
					c-2.403,30.053-6.229,59.953-9.131,89.947c-0.772,7.976,0.133,16.359-4.264,23.723c-3.342,17.204-3.495,34.758-5.725,52.084
					c-0.744,10.938-3.436,21.704-2.874,32.757c-2.858,4.414-2.942,9.782-2.734,14.392c0.618,13.664-7.023,21.924-17.124,28.49
					c-19.185,12.47-53.504,90.085-484.429,5.228"/>
			</g>
			<g>
				<path style="fill:#3E6680;" d="M662.615,2676.825"/>
			</g>
			<g>
				<path style="fill:#3E6680;" d="M694.593,2877.135"/>
			</g>
			<g>
				<path style="fill:#1A374A;" d="M590.806,2039.775c-15.363-9.859-25.16-23.827-30.265-41.201c-0.708-2.41-1.881-4.18-3.904-5.729
					c-14.56-11.146-22.811-26.136-25.907-43.988c-0.626-3.61-2.187-5.813-4.861-8.137c-15.863-13.786-23.711-30.891-20.419-52.194
					c0.377-2.438-0.382-3.908-1.729-5.758c-13.675-18.779-15.92-38.931-6.286-60.071c1.524-3.345,0.218-5.35-0.856-7.871
					c-7.45-17.481-10.123-35.656,3.439-50.553c8.291-9.107,11.485-17.552,12.186-29.558c1.099-18.823,16.582-33.873,35.249-37.476
					c3.268-0.631,4.105-1.66,4.578-4.844c3.532-23.776,26.806-44.77,55.152-37.629c3.638,0.916,4.007-1.034,5.138-3.016
					c14.404-25.226,40.575-31.092,64.039-14.191c7.33-9.103,16.071-16.156,27.995-18.293c14.471-2.594,27.081,1.062,37.237,11.74
					c2.709,2.849,4.213,3.152,7.495,0.851c22.106-15.498,42.737-12.139,58.134,9.539c2.137,3.009,4.017,2.304,6.603,1.9
					c10.98-1.716,21.796-2.33,32.196,3.116c8.72,4.567,14.973,11.344,18.068,20.424c1.77,5.195,4.574,6.591,9.553,7.316
					c16.521,2.406,31.444,8.89,35.238,26.616c2.302,10.757,7.4,18.036,14.046,26.154c10.173,12.428,12.959,40.171-10.002,52.832
					c-3.726,2.055-7.955,3.291-11.07,6.411c-5.721,6.513-13.776,5.984-21.224,6.574c-9.787,0.775-10.075,0.417-9.768,10.466
					c0.685,22.409-6.003,43.108-14.867,63.15c-5.414,12.243-11.111,24.45-18.638,35.642c-2.42,3.598-5.047,7.032-8.571,9.615
					c-5.521,4.046-9.205,2.983-11.605-3.385c-1.611-4.275-2.267-8.813-3.237-13.26c-1.392-6.381-3.496-12.449-7.452-17.76
					c-11.532-15.48-33.678-15.197-44.599,0.646c-8.112,11.768-9.348,25.463-10.49,39.094c-1.018,12.16,1.211,23.867,5.972,35.094
					c0.843,1.988,1.718,3.969,1.586,6.208c-1.017,4.822-3.897,8.839-5.75,13.307c-12,19.097-23.883,38.341-42.161,52.325
					c-33.236,25.428-70.074,32.947-110.515,21.533C596.893,2044.388,593.065,2043.345,590.806,2039.775z"/>
			</g>
			<g>
				<path style="fill:#1B394E;" d="M350.253,2484.43c3.561-18.477,7.042-36.969,10.699-55.427
					c6.991-35.293,14.112-70.56,21.074-105.859c0.54-2.74,0.674-5.659,4.26-5.377c4.612,0.362,1.773,3.745,1.464,5.431
					c-3.438,18.743-7.055,37.454-10.751,56.148c-6.932,35.061-13.949,70.105-20.931,105.156
					C354.108,2486.073,352.118,2490.284,350.253,2484.43z"/>
			</g>
			<g>
				<path style="fill:#B37554;" d="M957.645,2529.477c4.862,17.374,9.683,34.759,14.636,52.107c0.692,2.423,0.55,5.252,2.78,7.101
					c3.31,24.209,11.061,47.389,16.487,71.109c1.019,4.453,3.299,7.93,8.094,9.106c10.627,2.606,20.718,7.167,31.769,8.288
					c7.099,0.721,14.191,0.944,21.316,1.022c32.783,6.085,65.992,8.729,99.093,12.056c22.605,2.272,45.276,4.057,67.98,5.428
					c11.226,0.678,22.419,1.125,33.646,1.23c2.876,0.027,5.758,0.07,8.491-1.01c5.389-0.812,9.835-3.35,13.721-7.171
					c5.139-5.053,11.268-8.852,17.136-12.976c25.086-18.519,51.892-34.217,79.36-48.893c10.683-5.707,22.14-5.782,33.487-5.605
					c14.698,0.229,27.424,6.061,39.633,14.58c7.974,5.563,16.457,10.467,23.971,16.752c4.027,3.203,8.56,5.576,13.125,7.896
					c4.999,4.064,11.542,6.127,15.347,11.757c4.955,7.604,12.295,13.708,14.529,23.039c-0.412,5.224-1.639,9.95-7.333,11.924
					c-8.352-0.956-13.084-7.403-18.617-12.522c-2.792-2.584-5.289-5.488-8.132-8.07c-10.47-9.508-22.62-13.63-36.768-12.935
					c-10.204,0.502-20.453,0.101-30.682,0.141c9.054,0.019,18.172,0.729,27.148-0.113c17.555-1.647,31.045,5.702,42.879,17.531
					c7.077,7.073,13.705,14.711,23.499,18.308c3.616,4.584,3.366,9.341,0.619,14.203c-0.451,0.407-0.901,0.814-1.352,1.22
					c-2.839,5.462-6.108,10.303-13.422,9.324c-13.821-14.46-27.121-29.656-50.203-27.523c-7.602,0.702-15.322,0.079-22.989,0.149
					c11.717,0.475,23.512-0.983,35.152,1.483c2.583,0.547,5.414,0.636,7.542,2.178c10.438,7.563,21.535,14.33,30.106,24.23
					c1.334,2.585,0.217,4.427-1.804,5.997c-5.513,8.621-11.977,10.088-25.145,5.706c-2.607-1.048-5.513-0.424-8.14-1.732
					c-13.49-6.713-26.584-4.494-39.384,2.102c-2.572,1.325-5.229,2.166-8.098,2.383c-20.819,13.545-42.501,25.097-67.34,29.493
					c-10.198,1.805-20.394,2.682-30.753,1.556c-12.766-1.388-25.378,0.531-37.865,2.775c-17.196,3.091-34.29,6.75-51.432,10.168
					c-35.192,6.533-70.486,12.635-106.091,16.129c-38.253,3.754-76.477,8.002-115.061,8.165
					c-17.426,0.074-34.805,0.478-52.265-0.022c-22.726-0.651-40.07-10.864-55.51-26.133c-8.257-8.166-13.799-18.269-20.327-27.674
					c-3.568-2.018-5.067-5.658-6.789-9.014c-14.948-29.136-27.363-59.367-38.642-90.077c-2.619-7.13-5.848-14.095-6.567-21.805
					c-4.901-14.176-9.824-28.344-14.68-42.534c-0.771-2.254-1.143-4.643-1.871-6.914c-1.337-4.168,1.075-5.789,4.47-6.51
					c23.92-5.082,46.714-13.568,69.588-22.042c26.638-9.869,52.053-22.277,77.511-34.676
					C954.876,2529.493,956.187,2529.248,957.645,2529.477z"/>
			</g>
			<g>
				<path style="fill:#19374B;" d="M780.103,2588.426c-0.098-0.401,0.664,1.669-1.751,2.022c-2.485,0.364-2.857-1.848-3.318-3.794
					c-5.232-22.065-10.703-44.075-15.737-66.186c-9.905-43.504-20.607-86.831-29.147-130.642c-1.185-6.08-2.936-12.049-4.416-18.072
					c-0.483-1.966-2.082-4.383,1.428-5.085c3.118-0.624,3.451,2.056,3.926,4.037c3.118,12.993,6.219,25.992,9.147,39.029
					c5.122,22.805,10.013,45.662,15.186,68.455c7.654,33.727,15.479,67.416,23.197,101.128
					C779.149,2581.639,779.395,2584.023,780.103,2588.426z"/>
			</g>
			<g>
				<path style="fill:#754D40;" d="M757.675,1959.046c2.988,4.017,6.101,7.948,8.938,12.07c5.331,7.746,13.55,11.007,22.065,13.924
					c-6.257,8.539-15.591,6.596-23.933,0.384c-5.379-4.006-9.228-9.531-12.943-15.075
					C753.402,1966.395,754.878,1962.377,757.675,1959.046z"/>
			</g>
			<g>
				<path style="fill:#70493C;" d="M786.056,1947.623c-11.096-6.125-14.971-27.965-9.87-39.068
					c2.66-5.79,3.079-14.294,13.472-14.933c-5.505,8.713-9.578,17.119-10.091,26.545
					C779.073,1929.232,782.728,1937.689,786.056,1947.623z"/>
			</g>
			<g>
				<path style="fill:#B37554;" d="M1122.234,2585.283c6.461,4.343,12.922,8.686,19.384,13.029
					c5.417,1.966,10.618,4.27,14.141,9.157c1.89,2.622,3.406,5.292,0.846,8.367c-9.624-0.888-18.086-5.678-25.395-10.876
					c-22.442-15.962-47.988-17.28-72.35-18.271c8.013-0.605,17.422,0.997,26.806,1.889c13.342,1.269,26.164,4.533,37.797,12.189
					c10.951,7.207,23.02,12.578,35.388,17.12c4.04,5.214,3.72,10.906,0.725,16.163c-3.389,5.949-9.29,8.417-15.938,7.718
					c-9.996-1.051-20.117-2.137-29.339-6.521c-21.496-10.219-43.086-9.722-64.91-1.286c-2.672,1.033-5.399,1.995-7.998,2.465
					c8.522-0.106,17.3-0.545,26.034,0.933c4.534,0.767,9.069,0.106,13.609-0.471c8.154-1.037,16.336-1.248,24.107,2.005
					c9.606,4.02,12.226,12.367,6.742,20.755c-5.337,6.639-12.92,8.915-20.795,9.579c-11.451,0.965-22.495,3.468-33.405,6.832
					c-4.454,1.421-8.974,2.527-13.672,2.751c-13.204-0.93-25.839-4.385-38.409-8.313c-6.984-2.183-11.631-6.049-13.503-13.392
					c-5.15-20.208-10.328-40.409-15.435-60.629c-0.773-3.062-1.47-6.13,1.18-8.738c22.866-9.764,45.295-21.028,71.05-20.986
					c14.074,0.023,27.18,5.374,40.869,7.523C1101.229,2576.073,1112.076,2579.646,1122.234,2585.283z"/>
			</g>
			<g>
				<path style="fill:#1A3547;" d="M910.634,1865.774c-6.762-3.528-12.936-1.744-18.882,2.092
					c-3.417,2.204-6.786,4.486-10.266,6.586c-1.939,1.17-4.069,1.642-5.93-0.265c-1.974-2.023-1.703-4.472-0.691-6.699
					c4.544-9.996,26.301-19.471,37.054-16.249C914.217,1856.326,914.352,1861.22,910.634,1865.774z"/>
			</g>
			<g>
				<path style="fill:#6F493D;" d="M897.349,2042.575c-8.394-1.136-17.057,0.039-25.241-2.767c-3.123-1.071-8.995-0.433-8.214-4.762
					c0.883-4.892,6.609-2.708,9.878-2.051c6.454,1.298,12.883,0.742,19.308,1.16c3.104,0.202,5.525-0.8,7.567-3.01
					C900.244,2035.155,899.503,2039.069,897.349,2042.575z"/>
			</g>
			<g>
				<path style="fill:#1A3547;" d="M900.375,1905.663c-0.275,6.044-0.83,10.975-3.923,15.224c-1.607,2.207-3.535,3.941-6.488,3.73
					c-3.202-0.229-4.278-2.826-5.155-5.257c-3.081-8.536,0.175-16.027,4.899-22.721c3.043-4.312,8.084-2.934,9.735,2.279
					C900.217,1901.358,900.173,1904.058,900.375,1905.663z"/>
			</g>
			<g>
				<path style="fill:#895844;" d="M977.842,2587.736c-0.336,7.543,2.609,14.407,4.435,21.505
					c4.161,16.167,8.628,32.266,12.273,48.548c1.325,5.919,5.071,8.823,9.761,10.231c13.21,3.967,26.507,7.769,40.256,9.552
					c1.944,1.843,6.286-2.461,6.934,2.705c-15.718,0.018-31.197-1.377-45.871-7.649c-1.074-0.459-2.268-0.802-3.427-0.876
					c-7.088-0.448-11.1-3.891-12.78-11.041c-4.94-21.021-10.459-41.906-15.334-62.941c-0.625-2.696-2.796-6.473,0.973-9.087
					C975.988,2588.369,976.915,2588.052,977.842,2587.736z"/>
			</g>
			<g>
				<path style="fill:#835340;" d="M1156.378,2615.553c0.469,1.001,0.937,2.003,1.404,3.005
					c-13.72-3.708-26.043-10.609-38.051-17.798c-12.343-7.39-25.813-9.544-39.563-11.038c-8.522-0.926-17.125-1.095-25.691-1.628
					c-1.602-0.1-3.868,0.266-3.931-2.004c-0.068-2.428,2.116-2.13,3.762-1.89c15.772,2.307,31.884,1.373,47.512,5.263
					c7.711,1.919,14.848,4.441,21.555,9.048C1133.595,2605.533,1145.023,2610.548,1156.378,2615.553z"/>
			</g>
			<g>
				<path style="fill:#2A4E66;" d="M255.1,2626.885c-2.426-30.962-5.81-61.777-9.563-92.547c-2.528-20.722-4.951-41.6,2.155-61.86
					c9.387-26.762,25.824-42.893,50.152-45.829c6.792-0.82,11.029-2.853,11.932-11.661c0.364-3.551,2.002-6.914,3.06-10.363
					c4.674,2.832,2.384,7.313,1.442,10.971c-1.585,6.154,0.182,8.156,5.242,8.705c15.445,1.676,30.831,4.07,46.232,6.258
					c3.877,0.551,7.608,0.236,11.342-0.87c3.03,0.773,6.254-0.678,9.231,1.06c9.673,3.874,19.83,3.948,29.779,5.08
					c44.602,5.074,89.116,11.076,133.634,17.089c16.177,2.185,32.451,3.366,48.671,5.176c25.089,2.799,44.068,17.881,59.235,40.892
					c12.824,19.457,19.067,42.297,22.44,66.398c9.005,64.361,17.12,128.889,25.464,193.377c5.62,43.437,10.904,86.974,18.08,130.125
					c2.717,16.34,4.557,32.897,6.677,49.38c1.863,14.414,4.339,28.688,6.687,42.992c0.782,4.764,1.869,9.603-1.24,13.883
					c-147.315,0-294.631,0-441.946,0c-2.495-2.648-3.282-6.167-3.696-9.964c-8.569-78.501-16.112-157.156-24.364-235.704
					c-0.09-0.855-0.026-1.719-0.01-2.576c-2.967-21.354-3.848-43.025-6.772-64.387c-1.528-12.948-2.491-26-4.319-38.879
					C253.821,2637.833,257.138,2632.513,255.1,2626.885z"/>
			</g>
			<g>
				<path style="fill:#1A374A;" d="M777.84,2820.547c63.413,4.266,126.849,8.233,190.233,12.895
					c47.435,3.489,94.942,6.678,142.169,12.148c65.104,7.541,130.753,14.154,191.867,40.218
					c49.065,20.925,81.694,57.63,96.65,109.331c-254.011,0-508.022,0-762.033,0c-0.258-20.299-6.794-39.566-9.928-59.396
					c-0.753-4.767-1.128-9.423-1.157-14.179c7.205-5.683,15.993-4.666,24.296-5.839c31.714-4.481,62.635-11.561,90.418-28.512
					c17.582-10.728,30.552-23.951,30.221-46.858C770.483,2833.968,768.116,2824.362,777.84,2820.547z"/>
			</g>
		</g>
	</g>
</g>
</svg>
