<?xml version="1.0" encoding="utf-8"?>
<!-- Generator: Adobe Illustrator 27.5.0, SVG Export Plug-In . SVG Version: 6.00 Build 0)  -->
<svg version="1.1" xmlns="http://www.w3.org/2000/svg" xmlns:xlink="http://www.w3.org/1999/xlink" x="0px" y="0px"
	 viewBox="0 0 500 500" style="enable-background:new 0 0 500 500;" xml:space="preserve">
<g id="BACKGROUND">
	<rect style="fill:#FFFFFF;" width="500" height="500"/>
</g>
<g id="OBJECTS">
	<g>
		<g>
			<g>
				<path style="fill:#DAF0FD;" d="M440.925,312.799c-27.62,74.28-101.5,121.4-178.61,128.79c-2.85,0.28-5.72,0.49-8.58,0.66
					c-3.14,0.18-6.29,0.29-9.44,0.34c-53.32,0.85-106.86-16.74-149.27-49.08c-1.45-1.11-2.87-2.23-4.27-3.38
					c-5.53-4.51-10.65-9.27-15.37-14.26c-33.16-35.07-46.54-81.56-42.85-131.43c2.43-32.83,20.74-62.86,46.64-82.67
					c6.96-5.32,14.51-9.49,22.34-13.08c5.9-2.71,11.99-5.08,18.1-7.36c1.05-0.4,2.1-0.79,3.15-1.18c2.37-0.88,4.74-1.75,7.11-2.62
					c0.45-0.17,0.9-0.33,1.34-0.5c0.67-0.25,1.34-0.49,2-0.74c0.21-0.08,0.41-0.16,0.61-0.23c2.39-0.9,4.77-1.81,7.13-2.75
					c0.67-0.26,1.33-0.53,1.99-0.8c3.41-1.38,6.78-2.84,10.08-4.41c0.25-0.11,0.49-0.22,0.73-0.34c2.61-1.26,5.17-2.59,7.69-4.01
					c0.73-0.41,1.45-0.83,2.17-1.25c1.38-0.82,2.73-1.67,4.07-2.55c0.01-0.01,0.01-0.01,0-0.01c1.64-1.07,3.25-2.2,4.83-3.39
					c0.02-0.02,0.05-0.03,0.07-0.05c0.4-0.31,0.8-0.61,1.2-0.91c1.27-0.97,2.54-1.94,3.82-2.91c1.2-0.92,2.4-1.84,3.6-2.76
					c0.84-0.65,1.69-1.3,2.53-1.95c17-13.07,34.38-26.42,53.32-36.01c42.52-21.54,94.56-18.82,135.74,5.53
					c35.75,21.14,60.27,56.71,72.3,96.02C458.865,218.559,457.345,268.649,440.925,312.799z"/>
			</g>
			<g>
				
					<circle style="fill:none;stroke:#0F1109;stroke-width:1.0641;stroke-linecap:round;stroke-miterlimit:10;" cx="83.854" cy="119.988" r="5.879"/>
				
					<circle style="fill:none;stroke:#0F1109;stroke-width:1.0641;stroke-linecap:round;stroke-miterlimit:10;" cx="288.527" cy="406.652" r="5.879"/>
				
					<circle style="fill:none;stroke:#0F1109;stroke-width:1.0641;stroke-linecap:round;stroke-miterlimit:10;" cx="413.561" cy="74.396" r="5.879"/>
				<path style="fill:#F1D156;" d="M204.771,58.988c-1.137,4.119-2.059,5.04-6.178,6.178c4.119,1.137,5.04,2.059,6.178,6.178
					c1.137-4.119,2.059-5.04,6.178-6.178C206.831,64.028,205.909,63.106,204.771,58.988z"/>
				<path style="fill:#F1D156;" d="M182.034,70.942c-1.532,5.547-2.774,6.789-8.321,8.321c5.547,1.532,6.789,2.774,8.321,8.321
					c1.532-5.547,2.774-6.789,8.321-8.321C184.808,77.731,183.566,76.489,182.034,70.942z"/>
				<path style="fill:#F1D156;" d="M402.096,390.518c-1.532,5.547-2.774,6.789-8.321,8.321c5.547,1.532,6.789,2.774,8.321,8.321
					c1.532-5.547,2.774-6.789,8.321-8.321C404.869,397.307,403.628,396.066,402.096,390.518z"/>
				<path style="fill:#F1D156;" d="M181.613,51.482c-0.829,3.001-1.501,3.673-4.502,4.502c3.001,0.829,3.673,1.501,4.502,4.502
					c0.829-3.001,1.501-3.673,4.502-4.502C183.114,55.155,182.442,54.483,181.613,51.482z"/>
				<path style="fill:#F1D156;" d="M427.982,370.81c-0.829,3.001-1.501,3.673-4.502,4.502c3.001,0.829,3.673,1.501,4.502,4.502
					c0.829-3.001,1.501-3.673,4.502-4.502C429.483,374.483,428.811,373.811,427.982,370.81z"/>
				<path style="fill:#FFFFFF;" d="M106.28,162.704c-0.829,3.001-1.501,3.673-4.502,4.502c3.001,0.829,3.673,1.501,4.502,4.502
					c0.829-3.001,1.501-3.673,4.502-4.502C107.781,166.377,107.109,165.705,106.28,162.704z"/>
				<path style="fill:#FFFFFF;" d="M296.305,155.818c-0.829,3.001-1.501,3.673-4.502,4.502c3.001,0.829,3.673,1.501,4.502,4.502
					c0.829-3.001,1.501-3.673,4.502-4.502C297.806,159.491,297.134,158.819,296.305,155.818z"/>
				<path style="fill:#FFFFFF;" d="M362.238,335.354c-0.829,3.001-1.501,3.673-4.502,4.502c3.001,0.829,3.673,1.501,4.502,4.502
					c0.829-3.001,1.501-3.673,4.502-4.502C363.739,339.028,363.067,338.356,362.238,335.354z"/>
				<path style="fill:none;stroke:#43434D;stroke-width:1.323;stroke-linecap:round;stroke-miterlimit:10;" d="M371.394,374.297
					c2.358,0,2.358,3.746,4.716,3.746c2.359,0,2.359-3.746,4.718-3.746s2.359,3.746,4.718,3.746c2.359,0,2.359-3.746,4.718-3.746
					c2.36,0,2.36,3.746,4.719,3.746c2.358,0,2.358-3.746,4.716-3.746c2.36,0,2.36,3.746,4.721,3.746
					c2.362,0,2.362-3.746,4.724-3.746s2.362,3.746,4.724,3.746"/>
				<path style="fill:none;stroke:#43434D;stroke-width:1.323;stroke-linecap:round;stroke-miterlimit:10;" d="M76.411,67.084
					c2.358,0,2.358,3.746,4.716,3.746c2.359,0,2.359-3.746,4.718-3.746c2.359,0,2.359,3.746,4.718,3.746
					c2.359,0,2.359-3.746,4.718-3.746c2.36,0,2.36,3.746,4.719,3.746c2.358,0,2.358-3.746,4.716-3.746
					c2.36,0,2.36,3.746,4.721,3.746c2.362,0,2.362-3.746,4.724-3.746s2.362,3.746,4.724,3.746"/>
				<path style="fill:none;stroke:#43434D;stroke-width:1.323;stroke-linecap:round;stroke-miterlimit:10;" d="M222.739,164.764
					c2.358,0,2.358,3.746,4.716,3.746c2.359,0,2.359-3.746,4.718-3.746s2.359,3.746,4.718,3.746c2.359,0,2.359-3.746,4.718-3.746
					c2.36,0,2.36,3.746,4.719,3.746c2.358,0,2.358-3.746,4.716-3.746c2.36,0,2.36,3.746,4.721,3.746
					c2.362,0,2.362-3.746,4.724-3.746c2.362,0,2.362,3.746,4.724,3.746"/>
				<path style="fill:none;stroke:#43434D;stroke-width:1.323;stroke-linecap:round;stroke-miterlimit:10;" d="M247.615,176.037
					c2.358,0,2.358,3.746,4.716,3.746c2.359,0,2.359-3.746,4.718-3.746c2.359,0,2.359,3.746,4.718,3.746
					c2.359,0,2.359-3.746,4.718-3.746c2.36,0,2.36,3.746,4.719,3.746c2.358,0,2.358-3.746,4.716-3.746
					c2.36,0,2.36,3.746,4.721,3.746c2.362,0,2.362-3.746,4.724-3.746s2.362,3.746,4.724,3.746"/>
				<path style="fill:none;stroke:#43434D;stroke-width:1.323;stroke-linecap:round;stroke-miterlimit:10;" d="M54.993,76.382
					c2.407,0,2.407,4,4.814,4c2.408,0,2.408-4,4.816-4c2.407,0,2.407,4,4.815,4c2.408,0,2.408-4,4.816-4c2.408,0,2.408,4,4.817,4
					c2.408,0,2.408-4,4.816-4c2.406,0,2.406,4,4.811,4c2.408,0,2.408-4,4.816-4c2.406,0,2.406,4,4.813,4c2.408,0,2.408-4,4.815-4
					c2.409,0,2.409,4,4.817,4c2.409,0,2.409-4,4.817-4c2.409,0,2.409,4,4.817,4c2.408,0,2.408-4,4.816-4c2.408,0,2.408,4,4.817,4
					c2.41,0,2.41-4,4.821-4c2.412,0,2.412,4,4.824,4s2.412-4,4.824-4"/>
			</g>
			<g>
				<g>
					<path style="fill:none;stroke:#43434D;stroke-width:1.323;stroke-linecap:round;stroke-miterlimit:10;" d="M311.578,334.02
						c2.464-1.042,5.174-1.619,8.017-1.619c4.424,0,8.523,1.395,11.879,3.769"/>
					<path style="fill:none;stroke:#43434D;stroke-width:1.323;stroke-linecap:round;stroke-miterlimit:10;" d="M303.245,365.527
						c-2.663-3.471-4.246-7.814-4.246-12.528c0-3.607,0.927-6.997,2.556-9.945"/>
					<path style="fill:none;stroke:#43434D;stroke-width:1.323;stroke-linecap:round;stroke-miterlimit:10;" d="M340.193,352.999
						c0-4.548-1.474-8.752-3.971-12.16"/>
					<path style="fill:none;stroke:#43434D;stroke-width:1.323;stroke-linecap:round;stroke-miterlimit:10;" d="M307.823,369.903
						c3.337,2.328,7.395,3.694,11.773,3.694c7.3,0,13.713-3.798,17.372-9.525"/>
					
						<polyline style="fill:none;stroke:#43434D;stroke-width:1.323;stroke-linecap:round;stroke-linejoin:round;stroke-miterlimit:10;" points="
						303.277,361.698 303.736,366.441 299.376,364.162 					"/>
					
						<polyline style="fill:none;stroke:#43434D;stroke-width:1.323;stroke-linecap:round;stroke-linejoin:round;stroke-miterlimit:10;" points="
						335.924,344.6 335.465,339.857 339.826,342.136 					"/>
				</g>
				
					<text transform="matrix(1 0 0 1 291.834 345.5478)" style="fill:#E06F5B; font-family:'Quicksand-Regular'; font-size:33.6842px;">A</text>
				
					<text transform="matrix(1 0 0 1 328.9796 380.8515)" style="fill:#E06F5B; font-family:'Quicksand-Regular'; font-size:33.6842px;">Z</text>
			</g>
			<g>
				<g>
					<path style="fill:#FFFFFF;" d="M354.386,273.607H301.45c-4.575,0-8.283-3.709-8.283-8.283l0,0c0-4.575,3.709-8.283,8.283-8.283
						h52.936c4.575,0,8.283,3.709,8.283,8.283l0,0C362.669,269.898,358.961,273.607,354.386,273.607z"/>
					<g>
						
							<line style="fill:none;stroke:#E06F5B;stroke-linecap:round;stroke-miterlimit:10;" x1="304.503" y1="262.609" x2="299.074" y2="268.038"/>
						
							<line style="fill:none;stroke:#E06F5B;stroke-linecap:round;stroke-miterlimit:10;" x1="299.074" y1="262.609" x2="304.503" y2="268.038"/>
					</g>
				</g>
				<g>
					<path style="fill:#FFFFFF;" d="M386.741,294.263h-37.575c-4.575,0-8.283-3.709-8.283-8.283l0,0
						c0-4.575,3.709-8.283,8.283-8.283h37.575c4.575,0,8.283,3.709,8.283,8.283l0,0
						C395.024,290.555,391.315,294.263,386.741,294.263z"/>
					<g>
						
							<line style="fill:none;stroke:#E06F5B;stroke-linecap:round;stroke-miterlimit:10;" x1="352.218" y1="283.266" x2="346.79" y2="288.694"/>
						
							<line style="fill:none;stroke:#E06F5B;stroke-linecap:round;stroke-miterlimit:10;" x1="346.79" y1="283.266" x2="352.218" y2="288.694"/>
					</g>
				</g>
				<g>
					<path style="fill:#FFFFFF;" d="M328.136,294.263H311.13c-4.575,0-8.283-3.709-8.283-8.283l0,0c0-4.575,3.709-8.283,8.283-8.283
						h17.006c4.575,0,8.283,3.709,8.283,8.283l0,0C336.419,290.555,332.711,294.263,328.136,294.263z"/>
					<g>
						
							<line style="fill:none;stroke:#E06F5B;stroke-linecap:round;stroke-miterlimit:10;" x1="314.183" y1="283.266" x2="308.754" y2="288.694"/>
						
							<line style="fill:none;stroke:#E06F5B;stroke-linecap:round;stroke-miterlimit:10;" x1="308.754" y1="283.266" x2="314.183" y2="288.694"/>
					</g>
				</g>
				<g>
					<path style="fill:#FFFFFF;" d="M432.693,294.263h-25.289c-4.575,0-8.283-3.709-8.283-8.283l0,0
						c0-4.575,3.709-8.283,8.283-8.283h25.289c4.575,0,8.283,3.709,8.283,8.283l0,0
						C440.976,290.555,437.267,294.263,432.693,294.263z"/>
					<g>
						
							<line style="fill:none;stroke:#E06F5B;stroke-linecap:round;stroke-miterlimit:10;" x1="410.457" y1="283.266" x2="405.028" y2="288.694"/>
						
							<line style="fill:none;stroke:#E06F5B;stroke-linecap:round;stroke-miterlimit:10;" x1="405.028" y1="283.266" x2="410.457" y2="288.694"/>
					</g>
				</g>
				<g>
					<path style="fill:#FFFFFF;" d="M412.552,273.713h-37.575c-4.575,0-8.283-3.709-8.283-8.283v0c0-4.575,3.709-8.283,8.283-8.283
						h37.575c4.575,0,8.283,3.709,8.283,8.283v0C420.835,270.004,417.126,273.713,412.552,273.713z"/>
					<g>
						
							<line style="fill:none;stroke:#E06F5B;stroke-linecap:round;stroke-miterlimit:10;" x1="378.029" y1="262.715" x2="372.601" y2="268.144"/>
						
							<line style="fill:none;stroke:#E06F5B;stroke-linecap:round;stroke-miterlimit:10;" x1="372.601" y1="262.715" x2="378.029" y2="268.144"/>
					</g>
				</g>
				<g>
					<path style="fill:#FFFFFF;" d="M417.723,314.814H361.9c-4.575,0-8.283-3.709-8.283-8.283v0c0-4.575,3.709-8.283,8.283-8.283
						h55.824c4.575,0,8.283,3.709,8.283,8.283v0C426.007,311.105,422.298,314.814,417.723,314.814z"/>
					<g>
						
							<line style="fill:none;stroke:#E06F5B;stroke-linecap:round;stroke-miterlimit:10;" x1="364.953" y1="303.816" x2="359.524" y2="309.245"/>
						
							<line style="fill:none;stroke:#E06F5B;stroke-linecap:round;stroke-miterlimit:10;" x1="359.524" y1="303.816" x2="364.953" y2="309.245"/>
					</g>
				</g>
			</g>
		</g>
		<g>
			<g>
				<path style="fill:#EAAC93;" d="M197.387,242.419c5.235,11.302,8.966,23.333,12.862,35.027
					c2.773,8.346,5.629,16.516,9.197,24.116c5.439,11.617,9.414,23.33,21.297,26.192c0.37,0.089,0.743,0.165,1.13,0.244
					c2.028,0.405,4.14,0.578,6.31,0.513c4.497-0.147,8.717-1.354,12.42-3.371c8.948-4.865,14.874-14.486,14.53-25.365
					c-0.053-1.579-0.123-3.148-0.209-4.707c-1.392-26.907-7.363-51.407-21.486-76.263c-7.601-13.383-21.226-22.945-35.186-16.49
					C204.287,208.783,190.919,228.456,197.387,242.419z"/>
			</g>
			<path style="fill:#31394B;" d="M126.598,156.513c1.979,4.406,7.355,7.047,11.998,5.715c4.643-1.332,7.821-6.62,6.62-11.299
				c-1.243-4.841-8.103-10.568-13.369-9.088C126.372,143.381,124.556,151.966,126.598,156.513z"/>
			<path style="fill:#31394B;" d="M184.784,145.707c3.306,1.944,4.692,6.407,3.502,10.052c-1.19,3.646-4.607,6.333-8.358,7.135
				c-3.75,0.802-7.74-0.123-11.062-2.04c-3.16-1.823-2.219-6.301-1.515-9.881c0.704-3.58,3.279-6.738,6.644-8.148
				C177.361,141.415,181.639,143.858,184.784,145.707z"/>
			<path style="fill:#43434D;" d="M244.295,442.589c-53.32,0.85-106.86-16.74-149.27-49.08c-1.45-1.11-2.87-2.23-4.27-3.38
				c-5.53-4.51-10.65-9.27-15.37-14.26c3.62-14.42,7.52-28,11.7-39.9c1.79-5.09,3.62-9.87,5.51-14.28l15.74,0.34l18.03,0.37
				l32.59,0.7h0.02l32.81,0.69h0.01l0.27,0.01l20.74,0.44c0,0,13.35-12.23,21.35,13.2c1.34,4.27,2.54,9.63,3.5,16.29
				C240.125,370.979,244.625,407.209,244.295,442.589z"/>
			<g>
				<path style="fill:#EAAC93;" d="M121.592,242.419c-5.235,11.302-8.966,23.333-12.862,35.027
					c-2.773,8.346-5.629,16.516-9.197,24.116c-5.439,11.617-9.414,23.33-21.297,26.192c-0.37,0.089-0.743,0.165-1.13,0.244
					c-2.028,0.405-4.14,0.578-6.31,0.513c-4.497-0.147-8.717-1.354-12.42-3.371c-8.948-4.865-14.874-14.486-14.53-25.365
					c0.053-1.579,0.123-3.148,0.209-4.707c1.392-26.907,7.363-51.407,21.486-76.263c7.601-13.383,21.226-22.945,35.186-16.49
					C114.691,208.783,128.059,228.456,121.592,242.419z"/>
			</g>
			<g>
				<g>
					<path style="fill:#EAAC93;" d="M181.066,153.641l-23.418,2.315l-23.418-2.315c0,0,1.994,12.57-3.959,27.894
						c0,0,1.999,12.514,9.614,19.59c6.154,5.719,32.745,5.792,38.893,0.067c7.596-7.074,6.108-19.658,6.108-19.658
						C178.931,166.209,181.066,153.641,181.066,153.641z"/>
					<path style="fill:#EAAC93;" d="M181.413,143.904c0,7.749-0.344,15.605-3.18,21.265c-3.892,7.773-11.523,12.057-20.66,12.057
						c-9.125,0-16.685-4.414-20.577-12.175c-2.848-5.672-3.263-13.386-3.263-21.146c0-2.373-0.012-4.901,0.083-7.393
						c0.012-0.415,0.024-0.819,0.047-1.222c0.166-3.56,0.593-6.966,1.59-9.707c3.572-9.802,11.653-12.292,22.119-12.292
						c10.609,0,18.797,2.763,22.321,12.755c1.032,2.955,1.377,6.657,1.483,10.466c0.012,0.297,0.012,0.593,0.012,0.89
						C181.437,139.596,181.413,141.803,181.413,143.904z"/>
					<path style="fill:#EAAC93;" d="M196.735,145.906c0-5.189-4.206-9.395-9.395-9.395c-5.189,0-12.291,4.206-12.291,9.395
						c0,5.189,7.102,9.395,12.291,9.395C192.529,155.301,196.735,151.094,196.735,145.906z"/>
					<path style="fill:#EAAC93;" d="M118.421,145.906c0-5.189,4.206-9.395,9.395-9.395c5.189,0,12.291,4.206,12.291,9.395
						c0,5.189-7.102,9.395-12.291,9.395C122.627,155.301,118.421,151.094,118.421,145.906z"/>
					<g>
						<path style="fill:none;stroke:#0F1109;stroke-width:1.1071;stroke-linecap:round;stroke-miterlimit:10;" d="M187.339,143.804
							c1.171,1.135,2.108,2.511,2.736,4.017"/>
						<path style="fill:none;stroke:#0F1109;stroke-width:1.1071;stroke-linecap:round;stroke-miterlimit:10;" d="M190.938,143.64
							c-1.611,1.204-3.032,2.66-4.196,4.3"/>
						<path style="fill:none;stroke:#0F1109;stroke-width:1.1071;stroke-linecap:round;stroke-miterlimit:10;" d="M127.817,143.804
							c-1.171,1.135-2.108,2.511-2.736,4.017"/>
						<path style="fill:none;stroke:#0F1109;stroke-width:1.1071;stroke-linecap:round;stroke-miterlimit:10;" d="M124.218,143.64
							c1.611,1.204,3.032,2.66,4.196,4.3"/>
						<circle style="fill:#050902;" cx="149.315" cy="142.406" r="0.923"/>
						<circle style="fill:#050902;" cx="167.61" cy="142.406" r="0.923"/>
						<path style="fill:none;stroke:#0F1109;stroke-width:1.1071;stroke-linecap:round;stroke-miterlimit:10;" d="M175.862,168.921
							c0,0-6.663,8.307-18.287,8.307s-17.692-7.782-17.692-7.782"/>
						
							<ellipse transform="matrix(0.7071 -0.7071 0.7071 0.7071 -58.2713 168.912)" style="opacity:0.3;fill:#222221;" cx="174.759" cy="154.796" rx="4.735" ry="4.783"/>
						<path style="opacity:0.3;fill:#222221;" d="M145.069,155.728c0.636-3.357-2.252-6.245-5.608-5.609
							c-1.876,0.355-3.388,1.868-3.744,3.743c-0.637,3.357,2.252,6.246,5.609,5.609
							C143.201,159.116,144.713,157.604,145.069,155.728z"/>
						<path style="fill:none;stroke:#0F1109;stroke-width:1.1071;stroke-linecap:round;stroke-miterlimit:10;" d="M160.021,141.28
							c0.099,2.749,0.198,5.498,0.297,8.247c0.019,0.518,0.032,1.06-0.195,1.526c-0.293,0.599-0.943,0.958-1.599,1.07
							s-1.329,0.016-1.988-0.08"/>
						<path style="fill:none;stroke:#0F1109;stroke-width:1.1071;stroke-linecap:round;stroke-miterlimit:10;" d="M150.597,152.09
							c-0.025,1.823,0.847,3.637,2.286,4.757c1.439,1.12,3.412,1.52,5.173,1.048"/>
						
							<ellipse transform="matrix(0.9894 -0.1453 0.1453 0.9894 -18.2549 23.1369)" style="fill:#31394B;" cx="149.228" cy="136.51" rx="4.563" ry="1.213"/>
						
							<ellipse transform="matrix(0.1453 -0.9894 0.9894 0.1453 9.3464 284.0023)" style="fill:#31394B;" cx="169.057" cy="136.591" rx="1.213" ry="4.594"/>
					</g>
				</g>
			</g>
			<g>
				<defs>
					<path id="XMLID_00000042731479254042504860000004478224482299305603_" d="M224.297,193.931
						c-10.484-3.542-39.407-12.398-39.407-12.398s-6.529,15.466-25.401,15.865c-0.001,0-4.401-0.24-4.402-0.24
						c-14.334-0.427-24.817-15.623-24.817-15.623s-24.689,3.701-35.154,7.29c-41.191,14.126-47.561,64.596-47.561,64.596
						s4.189,1.601,15.369,7.392c15.444,7.999,32.374,15.159,32.374,15.159l1.755-10.219c-8.187,48.832-19.594,98.929-19.594,98.929
						s37.063,10.63,86.757,10.63c51.737,0,75.602-13.176,75.602-13.176s-13.28-71.395-20.638-95.386c0,0,11.946-1.358,27.729-7.621
						c10.277-4.078,21.684-9.351,21.684-9.351S258.397,205.45,224.297,193.931z"/>
				</defs>
				<use xlink:href="#XMLID_00000042731479254042504860000004478224482299305603_"  style="overflow:visible;fill:#E06F5B;"/>
				<clipPath id="XMLID_00000072994858182625702560000015294894697758294965_">
					<use xlink:href="#XMLID_00000042731479254042504860000004478224482299305603_"  style="overflow:visible;"/>
				</clipPath>
				
					<line style="clip-path:url(#XMLID_00000072994858182625702560000015294894697758294965_);fill:none;stroke:#FFFFFF;stroke-width:1.4762;stroke-miterlimit:10;" x1="271.931" y1="195.255" x2="41.333" y2="195.255"/>
				
					<line style="clip-path:url(#XMLID_00000072994858182625702560000015294894697758294965_);fill:none;stroke:#FFFFFF;stroke-width:1.4762;stroke-miterlimit:10;" x1="271.931" y1="215.024" x2="41.333" y2="215.024"/>
				
					<line style="clip-path:url(#XMLID_00000072994858182625702560000015294894697758294965_);fill:none;stroke:#FFFFFF;stroke-width:1.4762;stroke-miterlimit:10;" x1="271.931" y1="234.793" x2="41.333" y2="234.793"/>
				
					<line style="clip-path:url(#XMLID_00000072994858182625702560000015294894697758294965_);fill:none;stroke:#FFFFFF;stroke-width:1.4762;stroke-miterlimit:10;" x1="271.931" y1="254.562" x2="41.333" y2="254.562"/>
				
					<line style="clip-path:url(#XMLID_00000072994858182625702560000015294894697758294965_);fill:none;stroke:#FFFFFF;stroke-width:1.4762;stroke-miterlimit:10;" x1="271.931" y1="274.331" x2="41.333" y2="274.331"/>
				
					<line style="clip-path:url(#XMLID_00000072994858182625702560000015294894697758294965_);fill:none;stroke:#FFFFFF;stroke-width:1.4762;stroke-miterlimit:10;" x1="271.931" y1="294.1" x2="41.333" y2="294.1"/>
				
					<line style="clip-path:url(#XMLID_00000072994858182625702560000015294894697758294965_);fill:none;stroke:#FFFFFF;stroke-width:1.4762;stroke-miterlimit:10;" x1="271.931" y1="313.869" x2="41.333" y2="313.869"/>
				
					<line style="clip-path:url(#XMLID_00000072994858182625702560000015294894697758294965_);fill:none;stroke:#FFFFFF;stroke-width:1.4762;stroke-miterlimit:10;" x1="271.931" y1="333.638" x2="41.333" y2="333.638"/>
				
					<line style="clip-path:url(#XMLID_00000072994858182625702560000015294894697758294965_);fill:none;stroke:#FFFFFF;stroke-width:1.4762;stroke-miterlimit:10;" x1="271.931" y1="353.407" x2="41.333" y2="353.407"/>
			</g>
			<g>
				<path style="fill:none;stroke:#0F1109;stroke-width:1.1071;stroke-linecap:round;stroke-miterlimit:10;" d="M51.19,244.655
					c0,0,18.241,9.552,44.108,22.095"/>
				
					<line style="fill:none;stroke:#0F1109;stroke-width:1.1071;stroke-linecap:round;stroke-miterlimit:10;" x1="219.18" y1="266.75" x2="213.769" y2="242.931"/>
				<path style="fill:none;stroke:#0F1109;stroke-width:1.1071;stroke-linecap:round;stroke-miterlimit:10;" d="M219.18,257.943
					c0,0,27.265-7.174,45.97-16.661"/>
				
					<line style="fill:none;stroke:#0F1109;stroke-width:1.1071;stroke-linecap:round;stroke-miterlimit:10;" x1="95.506" y1="274.784" x2="103.273" y2="243.461"/>
			</g>
			<g>
				<g>
					<polygon style="fill:#E8C245;" points="127.421,328.535 109.447,224.327 187.851,210.803 205.825,315.013 127.422,328.536 
											"/>
					<path style="fill:none;stroke:#FFFFFF;stroke-width:1.4762;stroke-miterlimit:10;" d="M194.028,310.741
						c0,0.406,0.041,0.803,0.114,1.185l-56.442,9.73c-0.463-2.986-3.043-5.267-6.151-5.267c-0.373,0-0.738,0.033-1.096,0.097
						l-14.137-81.916c2.938-0.503,5.169-3.059,5.169-6.143c0-0.357-0.032-0.714-0.089-1.055l55.939-9.649
						c0.39,3.068,3.003,5.429,6.168,5.429c0.463,0,0.909-0.049,1.347-0.146l14.08,81.648
						C196.13,305.263,194.028,307.755,194.028,310.741z"/>
				</g>
			</g>
			<g>
				<path style="fill:#EAAC93;" d="M111.106,325.955c2.912,3.269,6.928,6.376,10.219,8.668c3.291,2.292,5.858,3.771,5.858,3.771
					c1.878,1.277,4.053,2.332,6.546,3.12c31.984,9.305,66.628,7.061,98.051-3.272c7.996-2.631,15.894-5.743,23.492-9.497
					c1.875-0.894,3.727-1.853,5.559-2.85c4.001-2.044,7.27-4.957,9.706-8.393c6.5-9.076,7.259-21.776,0.627-31.658
					c-0.23-0.351-0.472-0.687-0.714-1.022c-8.713-11.981-25.414-15.094-37.887-6.83c-7.986,5.598-17.005,10.345-26.535,14.039
					c-12.443,4.824-25.744,7.822-38.776,8.541c-5.235,0.288-10.45,0.147-15.649-0.354c-0.37-0.083-9.59-2.137-15.109-7.153
					c-5.644-5.121-9.941-10.798-12.141-9.678c-2.201,1.107-1.627,7.165,1.743,11.865c0,0-4.247-0.008-6.683-2.646
					c-2.433-2.625-2.561-7.8-5.906-6.993c-3.346,0.794-4.748,4.161-4.742,6.358c0,0-4.592,1.952-2.491,10.92
					c0,0-2.364,3.178-0.761,8.756C105.513,311.646,105.281,319.417,111.106,325.955z"/>
				<path style="opacity:0.3;fill:#222221;" d="M250.49,316.584c0.565,3.847,1.871,7.407,3.735,10.555
					c0.329,0.556,0.668,1.084,1.047,1.605c1.875-0.894,3.727-1.853,5.559-2.85c4.001-2.044,7.27-4.957,9.706-8.393
					c6.487-7.852,8.397-18.988,4.02-28.954c-0.638-1.445-1.288-2.875-1.949-4.29c-0.734,0.149-1.449,0.336-2.157,0.564
					C257.1,288.981,248.396,302.325,250.49,316.584z"/>
				<g>
					<path style="fill:none;stroke:#0F1109;stroke-width:1.1071;stroke-linecap:round;stroke-miterlimit:10;" d="M206.016,292.033
						c5.204-2.761,11.517-5.053,16.72-7.814"/>
					<path style="fill:none;stroke:#0F1109;stroke-width:1.1071;stroke-linecap:round;stroke-miterlimit:10;" d="M108.769,291.969
						c0,0,1.327,7.468,5.823,11.422"/>
					<path style="fill:none;stroke:#0F1109;stroke-width:1.1071;stroke-linecap:round;stroke-miterlimit:10;" d="M106.28,302.89
						c0,0,1.504,5.556,5.896,7.848"/>
					<path style="fill:none;stroke:#0F1109;stroke-width:1.1071;stroke-linecap:round;stroke-miterlimit:10;" d="M105.521,311.652
						c0,0,1.948,6.07,6.67,7.753"/>
				</g>
			</g>
			
				<circle style="fill:none;stroke:#0F1109;stroke-width:1.1071;stroke-linecap:round;stroke-miterlimit:10;" cx="168.533" cy="141.687" r="7.61"/>
			
				<circle style="fill:none;stroke:#0F1109;stroke-width:1.1071;stroke-linecap:round;stroke-miterlimit:10;" cx="150.597" cy="141.687" r="7.61"/>
			<g>
				<path style="fill:#EAAC93;" d="M210.676,307.409c-2.406,3.657-5.928,7.315-8.851,10.061c-2.923,2.746-5.484,3.826-13.451,8.159
					c-29.262,15.915-62.715,17.13-95.305,11.474c-8.294-1.441-16.56-3.372-24.623-5.982c-1.985-0.612-3.956-1.292-5.914-2.012
					c-4.256-1.441-7.913-3.848-10.823-6.893c-7.75-8.035-10.347-20.49-5.221-31.231c0.177-0.381,0.367-0.748,0.557-1.115
					c6.88-13.12,22.951-18.627,36.492-12.264c8.715,4.378,18.328,7.763,28.294,10.034c13.012,2.964,26.608,3.997,39.606,2.814
					c5.221-0.476,10.36-1.373,15.432-2.624c0.354-0.136,9.177-3.508,13.909-9.273c4.84-5.887,8.267-12.128,10.605-11.339
					c2.339,0.775,2.651,6.853,0,11.992c0,0,4.201-0.625,6.227-3.589c2.026-2.95,1.4-8.09,4.827-7.777
					c3.426,0.299,5.303,3.426,5.615,5.602c0,0,4.827,1.264,4.052,10.442c0,0,2.801,2.801,2.026,8.552
					C214.129,292.44,215.489,300.095,210.676,307.409z"/>
				<path style="opacity:0.3;fill:#222221;" d="M71.409,318.395c0,3.889-0.775,7.6-2.162,10.986
					c-0.245,0.598-0.503,1.169-0.802,1.74c-1.985-0.612-3.956-1.292-5.914-2.012c-4.256-1.441-7.913-3.848-10.823-6.893
					c-7.56-6.825-11.067-17.566-8.185-28.063c0.421-1.523,0.856-3.032,1.305-4.527c0.748,0.041,1.482,0.122,2.216,0.245
					C60.859,292.046,71.409,303.983,71.409,318.395z"/>
				<g>
					<path style="fill:none;stroke:#0F1109;stroke-width:1.1071;stroke-linecap:round;stroke-miterlimit:10;" d="M204.484,268.426
						c0,0,8.409,4.935-0.537,17.166"/>
					<path style="fill:none;stroke:#0F1109;stroke-width:1.1071;stroke-linecap:round;stroke-miterlimit:10;" d="M209.752,274.528
						c0,0,6.226,8.637-2.346,17.981"/>
					<path style="fill:none;stroke:#0F1109;stroke-width:1.1071;stroke-linecap:round;stroke-miterlimit:10;" d="M213.373,285.927
						c0,0,3.725,10.887-4.721,15.16"/>
					<path style="fill:none;stroke:#0F1109;stroke-width:1.1071;stroke-linecap:round;stroke-miterlimit:10;" d="M94.165,282.34
						c5.55,1.976,11.954,3.908,17.679,5.301c22.496,5.474,39.593,2.814,48.052,1.669s14.064-5.053,14.064-5.053
						s2.97-1.308,6.819-5.699s6.921-9.272,7.97-10.132"/>
				</g>
				<path style="fill:none;stroke:#0F1109;stroke-width:1.1071;stroke-linecap:round;stroke-miterlimit:10;" d="M214.376,295.434
					c0,0,0.113,13.348-16.116,24.761c0,0-31.312,20.565-67.935,19.988"/>
				<path style="fill:none;stroke:#0F1109;stroke-width:1.1071;stroke-linecap:round;stroke-miterlimit:10;" d="M191.4,267.331
					c0,0,4.188,1.37,0,12.368"/>
				<path style="fill:none;stroke:#0F1109;stroke-width:1.1071;stroke-linecap:round;stroke-miterlimit:10;" d="M202.159,267.984
					c0,0-1.428-0.965-2.79,4.108c-1.362,5.074-3.904,6.394-5.638,6.939"/>
			</g>
			<circle style="fill:#31394B;" cx="132.783" cy="125.582" r="12.292"/>
			<circle style="fill:#31394B;" cx="182.034" cy="132.077" r="7.632"/>
			<circle style="fill:#31394B;" cx="187.065" cy="124.279" r="7.632"/>
			<circle style="fill:#31394B;" cx="156.536" cy="121.913" r="7.114"/>
			<circle style="fill:#31394B;" cx="190.355" cy="134.708" r="7.114"/>
			<circle style="fill:#31394B;" cx="126.449" cy="134.077" r="7.114"/>
			<circle style="fill:#31394B;" cx="176.876" cy="115.519" r="10.189"/>
			<circle style="fill:#31394B;" cx="145.157" cy="115.602" r="10.189"/>
			<circle style="fill:#31394B;" cx="160.923" cy="110.345" r="10.189"/>
			<circle style="fill:#31394B;" cx="171.112" cy="120.534" r="10.189"/>
			<path style="fill:none;stroke:#FFFFFF;stroke-width:1.4762;stroke-miterlimit:10;" d="M205.279,375.312
				c0,0,0.926,25.231,35.901,32.18"/>
			<path style="fill:none;stroke:#FFFFFF;stroke-width:1.4762;stroke-miterlimit:10;" d="M104.956,372.981
				c0,0-0.357,8.268-4.71,15.752"/>
		</g>
		<g>
			<rect x="227.846" y="125.127" style="fill:#43434D;" width="197.588" height="11.348"/>
			<rect x="307.751" y="225.863" style="fill:#43434D;" width="154.635" height="11.348"/>
			<g>
				<g>
					
						<rect x="321.749" y="182.714" transform="matrix(6.123234e-17 -1 1 6.123234e-17 164.9864 547.6115)" style="fill:#E06F5B;" width="69.101" height="17.198"/>
					<path style="fill:none;stroke:#FFFFFF;stroke-width:1.1521;stroke-miterlimit:10;" d="M352.688,159.506h7.222
						c0,1.651,1.344,2.983,3.009,2.983v57.919c-1.665,0-3.009,1.332-3.009,2.983h-7.222c0-1.651-1.344-2.983-3.009-2.983v-57.919
						C351.344,162.489,352.688,161.156,352.688,159.506z"/>
				</g>
				<g>
					
						<rect x="291.318" y="181.395" transform="matrix(6.123234e-17 -1 1 6.123234e-17 135.3053 517.1812)" style="fill:#857FF0;" width="69.85" height="19.085"/>
					
						<line style="fill:none;stroke:#E8C245;stroke-width:1.1521;stroke-miterlimit:10;" x1="335.841" y1="162.553" x2="316.701" y2="162.553"/>
					
						<line style="fill:none;stroke:#E8C245;stroke-width:1.1521;stroke-miterlimit:10;" x1="335.841" y1="165.724" x2="316.701" y2="165.724"/>
					
						<line style="fill:none;stroke:#E8C245;stroke-width:1.1521;stroke-miterlimit:10;" x1="335.841" y1="217.94" x2="316.701" y2="217.94"/>
					
						<line style="fill:none;stroke:#E8C245;stroke-width:1.1521;stroke-miterlimit:10;" x1="335.841" y1="221.111" x2="316.701" y2="221.111"/>
				</g>
				<g>
					<rect x="335.79" y="160.32" style="fill:#E8C245;" width="11.912" height="65.543"/>
				</g>
				<g>
					<g>
						<rect x="364.898" y="149.74" style="fill:#857FF0;" width="11.912" height="76.123"/>
					</g>
					<g>
						
							<line style="fill:none;stroke:#FFFFFF;stroke-width:1.1521;stroke-miterlimit:10;" x1="365.726" y1="220.665" x2="376.116" y2="220.665"/>
						
							<line style="fill:none;stroke:#FFFFFF;stroke-width:1.1521;stroke-miterlimit:10;" x1="365.726" y1="216.936" x2="376.116" y2="216.936"/>
					</g>
				</g>
				<g>
					<g>
						<path style="fill:#E8C245;" d="M385.839,174.366c0-2.149,0.872-4.098,2.285-5.511c1.413-1.413,3.362-2.285,5.516-2.285h62.619
							v15.597H393.64C389.332,182.167,385.839,178.674,385.839,174.366z"/>
						<path style="fill:#FFFFFF;" d="M456.259,168.435v11.866h-62.453c-3.364,0-6.102-2.662-6.102-5.935
							c0-1.582,0.635-3.071,1.787-4.193c1.152-1.121,2.684-1.738,4.315-1.738H456.259z"/>
						<path style="fill:#E8C245;" d="M367.528,174.366c0-2.149,0.872-4.098,2.285-5.511c1.413-1.413,3.362-2.285,5.516-2.285h65.283
							v0.061c-1.776,0.21-3.366,1.021-4.565,2.224c-1.413,1.413-2.285,3.362-2.285,5.511c0,3.987,2.989,7.278,6.849,7.74v0.061
							h-65.283C371.02,182.167,367.528,178.674,367.528,174.366z"/>
						<polygon style="fill:#E06F5B;" points="442.219,177.256 439.748,175.391 437.277,177.256 437.277,170.742 442.219,170.742 
													"/>
					</g>
					<path style="fill:none;stroke:#0F1109;stroke-width:0.7;stroke-linecap:round;stroke-miterlimit:10;" d="M436.257,180.086
						c0,0-5.404-4.948-0.211-11.231"/>
					<polyline style="fill:none;stroke:#0F1109;stroke-width:0.7;stroke-linecap:round;stroke-miterlimit:10;" points="
						375.328,166.57 456.259,166.57 456.259,182.167 					"/>
					
						<line style="fill:none;stroke:#0F1109;stroke-width:0.7;stroke-linecap:round;stroke-miterlimit:10;" x1="437.762" y1="170.742" x2="453.983" y2="170.742"/>
				</g>
				<g>
					<g>
						<path style="fill:#E06F5B;" d="M452.475,218.062c0-2.149-0.872-4.098-2.285-5.511c-1.413-1.413-3.362-2.285-5.516-2.285
							h-62.619v15.597h62.619C448.983,225.863,452.475,222.371,452.475,218.062z"/>
						<path style="fill:#FFFFFF;" d="M382.055,212.131v11.866h62.453c3.364,0,6.102-2.662,6.102-5.935
							c0-1.582-0.635-3.071-1.787-4.193c-1.152-1.121-2.684-1.738-4.315-1.738H382.055z"/>
						<path style="fill:#E06F5B;" d="M456.259,210.266h-58.556v0.061c1.776,0.21,3.366,1.021,4.565,2.224
							c1.413,1.413,2.285,3.362,2.285,5.511c0,3.987-2.989,7.278-6.849,7.74v0.061h58.556V210.266z"/>
						<polygon style="fill:#E8C245;" points="396.096,220.952 398.567,219.087 401.038,220.952 401.038,214.438 396.096,214.438 
													"/>
					</g>
					<path style="fill:none;stroke:#0F1109;stroke-width:0.7;stroke-linecap:round;stroke-miterlimit:10;" d="M401.656,223.998
						c0,0,6.439-4.685,0.158-11.866"/>
					
						<line style="fill:none;stroke:#0F1109;stroke-width:0.7;stroke-linecap:round;stroke-miterlimit:10;" x1="401.038" y1="220.952" x2="384.4" y2="220.952"/>
					<g>
						<rect x="437.449" y="213.241" style="fill:#FFFFFF;" width="14.212" height="9.647"/>
					</g>
					<circle style="fill:#E06F5B;" cx="444.555" cy="218.065" r="3.182"/>
				</g>
				<g>
					
						<rect x="379.687" y="196.613" transform="matrix(-1 -1.224647e-16 1.224647e-16 -1 843.0672 406.9602)" style="fill:#78CD72;" width="83.693" height="13.734"/>
					<g>
						
							<line style="fill:none;stroke:#0F1109;stroke-width:0.7;stroke-linecap:round;stroke-miterlimit:10;" x1="384.07" y1="210.266" x2="462.395" y2="210.266"/>
						
							<line style="fill:none;stroke:#0F1109;stroke-width:0.7;stroke-linecap:round;stroke-miterlimit:10;" x1="379.687" y1="196.613" x2="462.395" y2="196.493"/>
					</g>
				</g>
				<g>
					
						<rect x="376.687" y="182.452" transform="matrix(-1 -1.224647e-16 1.224647e-16 -1 837.0672 378.638)" style="fill:#78CD72;" width="83.693" height="13.734"/>
					<g>
						
							<line style="fill:none;stroke:#0F1109;stroke-width:0.7;stroke-linecap:round;stroke-miterlimit:10;" x1="376.687" y1="182.452" x2="459.395" y2="182.332"/>
					</g>
				</g>
				
					<ellipse style="fill:none;stroke:#FFFFFF;stroke-width:1.1521;stroke-miterlimit:10;" cx="341.746" cy="172.859" rx="3.725" ry="7.135"/>
				
					<line style="fill:none;stroke:#FFFFFF;stroke-width:1.1521;stroke-miterlimit:10;" x1="345.47" y1="220.665" x2="338.021" y2="220.665"/>
				
					<line style="fill:none;stroke:#0F1109;stroke-width:0.7;stroke-linecap:round;stroke-miterlimit:10;" x1="347.7" y1="156.762" x2="347.702" y2="225.863"/>
				
					<line style="fill:none;stroke:#0F1109;stroke-width:0.7;stroke-linecap:round;stroke-miterlimit:10;" x1="316.701" y1="156.388" x2="316.702" y2="225.488"/>
				
					<line style="fill:none;stroke:#0F1109;stroke-width:0.7;stroke-linecap:round;stroke-miterlimit:10;" x1="364.897" y1="149.74" x2="364.899" y2="225.863"/>
			</g>
			<g>
				<path style="fill:#FFFFFF;" d="M440.525,201.111c0.546,0.582,0.891,1.358,0.891,2.231s-0.345,1.658-0.891,2.231
					c-0.521,0.573-1.297,0.943-2.108,0.943c-0.847,0-1.623-0.37-2.161-0.943c-0.547-0.573-0.873-1.358-0.873-2.231
					s0.326-1.649,0.873-2.231c0.538-0.582,1.314-0.944,2.161-0.944C439.228,200.166,440.004,200.529,440.525,201.111z
					 M440.409,203.342c0-0.6-0.238-1.155-0.6-1.544c-0.37-0.396-0.864-0.626-1.394-0.626c-0.564,0-1.059,0.229-1.429,0.626
					c-0.37,0.389-0.6,0.944-0.6,1.544s0.229,1.155,0.6,1.534c0.37,0.397,0.864,0.635,1.429,0.635c0.529,0,1.023-0.237,1.394-0.635
					C440.171,204.498,440.409,203.942,440.409,203.342z"/>
				<path style="fill:#FFFFFF;" d="M445.462,203.818c0-0.291,0.238-0.528,0.521-0.528h1.658c0.282,0,0.521,0.237,0.521,0.528
					c0,0.282-0.238,0.521-0.521,0.521h-1.658C445.7,204.338,445.462,204.1,445.462,203.818z"/>
				<path style="fill:#FFFFFF;" d="M456.443,201.12l-3.246,4.419h2.84c0.273,0,0.494,0.22,0.494,0.493s-0.221,0.485-0.494,0.485
					h-3.801c-0.026,0-0.053,0-0.088-0.009c-0.009,0-0.018,0-0.026-0.009c-0.019,0-0.036-0.009-0.063-0.009
					c-0.009-0.009-0.018-0.009-0.026-0.026c-0.009,0-0.026-0.009-0.044-0.018s-0.026-0.009-0.035-0.018c0,0,0,0,0-0.009
					c-0.009,0-0.018-0.009-0.026-0.018s-0.026-0.027-0.035-0.045c-0.018-0.009-0.026-0.018-0.035-0.026s-0.018-0.026-0.027-0.035
					c-0.009-0.026-0.018-0.035-0.018-0.044c-0.009-0.018-0.026-0.026-0.026-0.044c-0.009-0.018-0.009-0.035-0.018-0.053
					c0-0.009-0.009-0.018-0.009-0.035c0-0.026-0.009-0.045-0.009-0.063c0-0.009,0-0.018,0-0.026c0,0,0,0,0-0.009
					c0-0.026,0-0.044,0.009-0.062c0-0.009,0-0.018,0-0.044c0.009-0.009,0.009-0.026,0.018-0.044c0-0.009,0.009-0.026,0.009-0.044
					c0.018-0.009,0.026-0.027,0.026-0.036c0.009-0.009,0.018-0.026,0.027-0.044c0,0,0,0,0.009,0l3.236-4.427h-2.849
					c-0.273,0-0.485-0.229-0.485-0.494c0-0.273,0.212-0.485,0.485-0.485h3.801h0.009c0.027,0,0.045,0,0.063,0
					c0.009,0,0.026,0.009,0.035,0.009c0.026,0,0.035,0.009,0.053,0.009c0.009,0.009,0.026,0.009,0.035,0.018
					c0.026,0,0.035,0.018,0.044,0.026c0.018,0.009,0.026,0.018,0.044,0.026c0,0,0,0,0.009,0c0.018,0.009,0.018,0.019,0.027,0.027
					c0.018,0.009,0.026,0.026,0.035,0.035s0.018,0.026,0.026,0.035c0.018,0.009,0.026,0.018,0.035,0.035s0.018,0.035,0.026,0.044
					c0,0.009,0.009,0.026,0.018,0.035c0,0.026,0.009,0.044,0.009,0.053c0.018,0.018,0.018,0.026,0.018,0.045
					c0.009,0.026,0.009,0.035,0.009,0.053c0,0.009,0,0.018,0,0.035c0,0.026,0,0.044,0,0.062c-0.009,0.018-0.009,0.026-0.009,0.035
					c0,0.026-0.018,0.035-0.018,0.053c-0.009,0.018-0.009,0.026-0.018,0.054c-0.009,0.009-0.009,0.018-0.018,0.026
					c-0.009,0.018-0.018,0.035-0.026,0.044C456.443,201.12,456.443,201.12,456.443,201.12z"/>
			</g>
			<g>
				<path style="fill:#FFFFFF;" d="M434.745,192.02h-2.143l-0.433,1.146c-0.079,0.194-0.265,0.309-0.458,0.309
					c-0.063,0-0.115-0.009-0.168-0.026c-0.256-0.097-0.379-0.379-0.291-0.635l1.949-5.195c0.079-0.193,0.273-0.317,0.468-0.309
					c0.202-0.009,0.388,0.115,0.467,0.309l1.949,5.195c0.088,0.256-0.035,0.538-0.291,0.635c-0.044,0.018-0.105,0.026-0.167,0.026
					c-0.194,0-0.38-0.114-0.45-0.309L434.745,192.02z M434.384,191.049l-0.714-1.896l-0.715,1.896H434.384z"/>
				<path style="fill:#FFFFFF;" d="M439.605,190.776c0-0.291,0.238-0.528,0.521-0.528h1.658c0.282,0,0.521,0.237,0.521,0.528
					c0,0.282-0.238,0.521-0.521,0.521h-1.658C439.843,191.296,439.605,191.058,439.605,190.776z"/>
				<path style="fill:#FFFFFF;" d="M447.154,192.99c0,0.265-0.221,0.485-0.477,0.485c-0.273,0-0.485-0.221-0.485-0.485v-5.124
					c0,0,0,0,0-0.009c-0.009-0.149,0.062-0.309,0.194-0.405c0.221-0.15,0.521-0.106,0.67,0.105l2.849,3.942v-3.634
					c0-0.256,0.212-0.477,0.477-0.477s0.485,0.221,0.485,0.477v5.124c0,0.265-0.221,0.485-0.485,0.485
					c-0.141,0-0.273-0.07-0.361-0.177c-0.018-0.018-0.035-0.035-0.044-0.053l-2.822-3.916V192.99z"/>
			</g>
			<g>
				<g>
					<g>
						
							<rect x="238.275" y="84.419" transform="matrix(0.1862 -0.9825 0.9825 0.1862 127.9496 340.327)" style="fill:#E8C245;" width="62.276" height="17.016"/>
						<path style="fill:none;stroke:#FFFFFF;stroke-miterlimit:10;" d="M280.079,68.272L278.176,78.3
							c-0.147-0.031-0.304-0.047-0.461-0.047c-1.106,0-2.029,0.781-2.254,1.819l-6.977-1.321c0.037-0.162,0.058-0.325,0.058-0.498
							c0-1.137-0.823-2.086-1.913-2.27l1.908-10.033c0.157,0.037,0.32,0.052,0.487,0.052c1.08,0,1.992-0.744,2.238-1.751
							l6.977,1.321c-0.026,0.136-0.042,0.283-0.042,0.43C278.197,67.135,279.005,68.073,280.079,68.272z"/>
					</g>
					
						<line style="fill:none;stroke:#0F1109;stroke-width:0.7;stroke-linecap:round;stroke-miterlimit:10;" x1="283.57" y1="63.917" x2="271.975" y2="125.104"/>
					
						<line style="fill:none;stroke:#0F1109;stroke-width:0.7;stroke-linecap:round;stroke-miterlimit:10;" x1="266.852" y1="60.749" x2="255.257" y2="121.936"/>
				</g>
				<g>
					<g>
						
							<rect x="236.872" y="76.232" transform="matrix(0.9553 0.2956 -0.2956 0.9553 40.4995 -68.4384)" style="fill:#78CD72;" width="19.533" height="47.036"/>
						
							<rect x="245.851" y="78.436" transform="matrix(-0.2956 0.9553 -0.9553 -0.2956 406.76 -129.5374)" style="fill:none;stroke:#FFFFFF;stroke-miterlimit:10;" width="10.579" height="13.532"/>
						
							<rect x="241.44" y="92.692" transform="matrix(-0.2956 0.9553 -0.9553 -0.2956 414.6653 -106.8544)" style="fill:none;stroke:#FFFFFF;stroke-miterlimit:10;" width="10.579" height="13.532"/>
						
							<rect x="237.03" y="106.948" transform="matrix(-0.2956 0.9553 -0.9553 -0.2956 422.5706 -84.1715)" style="fill:none;stroke:#FFFFFF;stroke-miterlimit:10;" width="10.579" height="13.532"/>
					</g>
					
						<line style="fill:none;stroke:#0F1109;stroke-width:0.7;stroke-linecap:round;stroke-miterlimit:10;" x1="244.26" y1="74.396" x2="230.358" y2="119.331"/>
					
						<line style="fill:none;stroke:#0F1109;stroke-width:0.7;stroke-linecap:round;stroke-miterlimit:10;" x1="262.893" y1="80.213" x2="248.991" y2="125.149"/>
				</g>
				<g>
					<g>
						<rect x="288.527" y="104.666" style="fill:#E06F5B;" width="127.38" height="20.438"/>
						<g>
							<rect x="391.394" y="108.5" style="fill:#FFFFFF;" width="18.824" height="12.654"/>
							<g>
								<rect x="392.63" y="109.667" width="16.351" height="3.722"/>
								<rect x="392.63" y="112.966" style="fill:#E06F5B;" width="16.351" height="3.722"/>
								<rect x="392.63" y="116.265" style="fill:#E8C245;" width="16.351" height="3.722"/>
							</g>
						</g>
						<g>
							<line style="fill:none;stroke:#FFFFFF;stroke-miterlimit:10;" x1="292.803" y1="107.68" x2="292.803" y2="122.517"/>
							<line style="fill:none;stroke:#FFFFFF;stroke-miterlimit:10;" x1="296.305" y1="107.68" x2="296.305" y2="122.517"/>
							<line style="fill:none;stroke:#FFFFFF;stroke-miterlimit:10;" x1="299.808" y1="107.68" x2="299.808" y2="122.517"/>
						</g>
					</g>
					<g>
						<g>
							<path style="fill:#857FF0;" d="M367.775,96.366c0,2.288-0.928,4.363-2.432,5.868c-1.504,1.504-3.579,2.432-5.872,2.432
								h-66.668V88.062h66.668C364.057,88.062,367.775,91.78,367.775,96.366z"/>
							<path style="fill:#FFFFFF;" d="M292.803,102.681V90.047h66.491c3.582,0,6.496,2.834,6.496,6.319
								c0,1.685-0.676,3.27-1.903,4.464c-1.227,1.194-2.858,1.851-4.594,1.851H292.803z"/>
							<path style="fill:#857FF0;" d="M387.271,96.366c0,2.288-0.928,4.363-2.432,5.868c-1.504,1.504-3.579,2.432-5.872,2.432
								h-69.504v-0.065c1.891-0.223,3.584-1.087,4.86-2.368c1.504-1.504,2.432-3.579,2.432-5.868c0-4.244-3.182-7.749-7.292-8.24
								v-0.065h69.504C383.553,88.062,387.271,91.78,387.271,96.366z"/>
							<polygon style="fill:#E06F5B;" points="313.012,100.225 310.382,98.239 307.751,100.225 307.751,93.29 313.012,93.29 							
								"/>
						</g>
						<path style="fill:none;stroke:#0F1109;stroke-width:0.7;stroke-linecap:round;stroke-miterlimit:10;" d="M314.098,90.277
							c0,0,5.754,5.268,0.224,11.957"/>
						<polyline style="fill:none;stroke:#0F1109;stroke-width:0.7;stroke-linecap:round;stroke-miterlimit:10;" points="
							378.966,104.666 292.803,104.666 292.803,88.062 						"/>
						
							<line style="fill:none;stroke:#0F1109;stroke-width:0.7;stroke-linecap:round;stroke-miterlimit:10;" x1="313.012" y1="93.29" x2="295.742" y2="93.29"/>
					</g>
					<g>
						<g>
							<path style="fill:#E06F5B;" d="M290.439,65.098c0,2.288,0.928,4.363,2.432,5.868c1.504,1.504,3.579,2.432,5.872,2.432h66.668
								V56.793h-66.668C294.158,56.793,290.439,60.511,290.439,65.098z"/>
							<path style="fill:#FFFFFF;" d="M365.412,71.412V58.779h-66.491c-3.582,0-6.496,2.834-6.496,6.319
								c0,1.685,0.676,3.27,1.903,4.464c1.227,1.194,2.858,1.851,4.594,1.851H365.412z"/>
							<path style="fill:#E06F5B;" d="M290.439,65.098c0,2.288,0.928,4.363,2.432,5.868c1.504,1.504,3.579,2.432,5.872,2.432h50.008
								v-0.065c-1.891-0.223-3.584-1.087-4.86-2.368c-1.504-1.504-2.432-3.579-2.432-5.868c0-4.244,3.182-7.749,7.292-8.24v-0.065
								h-50.008C294.158,56.793,290.439,60.511,290.439,65.098z"/>
							<polygon style="fill:#E8C245;" points="345.202,68.957 347.833,66.971 350.463,68.957 350.463,62.021 345.202,62.021 							
								"/>
						</g>
						<path style="fill:none;stroke:#0F1109;stroke-width:0.7;stroke-linecap:round;stroke-miterlimit:10;" d="M344.543,58.779
							c0,0-6.855,4.987-0.168,12.634"/>
						
							<line style="fill:none;stroke:#0F1109;stroke-width:0.7;stroke-linecap:round;stroke-miterlimit:10;" x1="345.202" y1="62.021" x2="362.915" y2="62.021"/>
						<line style="fill:none;stroke:#FFFFFF;stroke-miterlimit:10;" x1="322.434" y1="61.436" x2="302.559" y2="61.436"/>
						<line style="fill:none;stroke:#FFFFFF;stroke-miterlimit:10;" x1="322.434" y1="65.433" x2="302.559" y2="65.433"/>
						<line style="fill:none;stroke:#FFFFFF;stroke-miterlimit:10;" x1="322.434" y1="69.429" x2="302.559" y2="69.429"/>
						
							<line style="fill:none;stroke:#0F1109;stroke-width:0.7;stroke-linecap:round;stroke-miterlimit:10;" x1="365.412" y1="58.779" x2="365.412" y2="71.412"/>
					</g>
					<g>
						<rect x="282.023" y="73.312" style="fill:#78CD72;" width="89.104" height="14.622"/>
						<g>
							
								<line style="fill:none;stroke:#0F1109;stroke-width:0.7;stroke-linecap:round;stroke-miterlimit:10;" x1="366.46" y1="73.398" x2="283.072" y2="73.398"/>
							
								<line style="fill:none;stroke:#0F1109;stroke-width:0.7;stroke-linecap:round;stroke-miterlimit:10;" x1="371.127" y1="87.934" x2="283.072" y2="88.062"/>
						</g>
						<g>
							<rect x="287.169" y="76.064" style="fill:#FFFFFF;" width="14.685" height="9.871"/>
							<g>
								
									<rect x="286.214" y="78.678" transform="matrix(6.123234e-17 -1 1 6.123234e-17 209.3983 371.3963)" style="fill:#78CD72;" width="8.367" height="4.641"/>
								
									<rect x="290.328" y="78.678" transform="matrix(6.123234e-17 -1 1 6.123234e-17 213.5126 375.5107)" style="fill:#FFFFFF;" width="8.367" height="4.641"/>
								
									<rect x="294.443" y="78.678" transform="matrix(6.123234e-17 -1 1 6.123234e-17 217.627 379.625)" style="fill:#E06F5B;" width="8.367" height="4.641"/>
							</g>
						</g>
					</g>
				</g>
			</g>
		</g>
	</g>
</g>
<g id="TEXT">
	
		<text transform="matrix(0.9854 -0.17 0.17 0.9854 129.8078 249.9998)" style="fill:#FFFFFF; font-family:'Quicksand-Bold'; font-size:10.3041px;">GLOSSARY</text>
</g>
</svg>
