<?xml version="1.0" encoding="UTF-8"?>
<svg xmlns="http://www.w3.org/2000/svg" version="1.1" xmlns:xlink="http://www.w3.org/1999/xlink" viewBox="0 0 2400 2000">
  <defs>
    <radialGradient id="_åçûìßííûé_ãðàäèåíò_4" data-name="åçûìßííûé ãðàäèåíò 4" cx="1279.999" cy="980" fx="1279.999" fy="980" r="808.949" gradientUnits="userSpaceOnUse">
      <stop offset="0" stop-color="#419cac"/>
      <stop offset=".165" stop-color="#51a5c9"/>
      <stop offset=".344" stop-color="#5eace0"/>
      <stop offset=".534" stop-color="#68b1f1"/>
      <stop offset=".741" stop-color="#6eb5fb"/>
      <stop offset="1" stop-color="#70b6ff"/>
    </radialGradient>
    <radialGradient id="_åçûìßííûé_ãðàäèåíò_2" data-name="åçûìßííûé ãðàäèåíò 2" cx="1140" cy="939.999" fx="1140" fy="939.999" r="720" gradientUnits="userSpaceOnUse">
      <stop offset="0" stop-color="#d9ff51"/>
      <stop offset=".152" stop-color="#beff67"/>
      <stop offset=".333" stop-color="#a7ff7c"/>
      <stop offset=".526" stop-color="#96ff8b"/>
      <stop offset=".737" stop-color="#8cff94"/>
      <stop offset="1" stop-color="#89ff97"/>
    </radialGradient>
    <radialGradient id="_åçûìßííûé_ãðàäèåíò_119" data-name="åçûìßííûé ãðàäèåíò 119" cx="1100" cy="1000" fx="1100" fy="1000" r="870.23" gradientUnits="userSpaceOnUse">
      <stop offset="0" stop-color="#006dcc"/>
      <stop offset=".07" stop-color="#0077d3"/>
      <stop offset=".269" stop-color="#008ee5"/>
      <stop offset=".481" stop-color="#009ff2"/>
      <stop offset=".712" stop-color="#00a9fa"/>
      <stop offset="1" stop-color="#00adfd"/>
    </radialGradient>
  </defs>
  <!-- Generator: Adobe Illustrator 28.7.7, SVG Export Plug-In . SVG Version: 1.2.0 Build 194)  -->
  <g style="isolation: isolate;">
    <g id="_àð_2" data-name="àð_2">
      <g>
        <rect width="2400" height="2000" style="fill: #fff;"/>
        <g>
          <rect width="2400" height="2000" style="fill: #fff;"/>
          <g style="mix-blend-mode: multiply;">
            <path d="M545.387,1217.578c286.248,338.363,586.148,572.234,1052.336,363.305,466.183-208.93,610.852-581.684,601.886-794.965-8.961-213.281-86.399-402.023-476.375-314.969-389.984,87.055-497.563,17.41-676.867-91.406-179.301-108.816-552.508-147.015-659.195,158.102-87.797,251.094,56.531,559.734,158.215,679.933Z" style="fill: url(#_åçûìßííûé_ãðàäèåíò_4);"/>
          </g>
          <g style="mix-blend-mode: multiply;">
            <path d="M1499.336,488.238c-248.88-165.258-594.856-435.422-756.065-128.203-161.209,307.223-602.465,1316.176-63.436,1299.766,539.032-16.406,978.922-263.571,1109-445.208,130.074-181.633,108.117-462.336-289.5-726.355Z" style="fill: url(#_åçûìßííûé_ãðàäèåíò_2);"/>
          </g>
          <g style="mix-blend-mode: multiply;">
            <path d="M1289.688,270.789c-218.393,172.125-489.264,340.313-765.649,382.379-245.627,37.383-340.75,222.355-307.692,356.883,47.809,194.55,167.959,181.172,382.824,396.945,172.058,172.781,288.133,315.805,432.914,382.375,207.063,95.207,397.137,80.117,561.715-58.265,164.582-138.387,286.223-364.168,361.36-779.321,75.133-415.152,21.219-627.965-89.859-723.984-101.313-87.574-350.777-134.211-575.613,42.988Z" style="fill: url(#_åçûìßííûé_ãðàäèåíò_119);"/>
          </g>
        </g>
        <rect width="2400" height="2000" style="fill: #fad4f9; opacity: .35;"/>
      </g>
      <g>
        <ellipse cx="1261.111" cy="1399.943" rx="773.098" ry="110.577" style="fill: #bed5dc;"/>
        <path d="M887.893,1436.498l-.59-.895c.061-.041,6.133-4.097,6.971-8.824.291-1.64-.095-3.195-1.147-4.618-.744-1.007-1.666-1.502-2.755-1.474-5.27.075-12.902,10.951-12.979,11.061l-1.388,1.996.421-2.394c.017-.097,1.665-9.711-1.689-12.582-1.043-.895-2.532-1.021-4.421-.375-1.989.678-3.372,1.92-4.109,3.693-2.199,5.286,1.821,13.647,1.863,13.731l-.963.47c-.175-.36-4.274-8.877-1.889-14.61.859-2.07,2.459-3.517,4.753-4.298,2.275-.775,4.114-.581,5.466.577,2.792,2.391,2.633,8.331,2.318,11.509,2.464-3.188,8.101-9.783,12.604-9.847,1.464-.025,2.681.621,3.632,1.908,1.234,1.67,1.685,3.501,1.34,5.444-.921,5.182-7.171,9.354-7.437,9.529Z" style="fill: #42428e;"/>
        <g>
          <path d="M1251.879,1336.533s-26.183-26.694-17.174-41.897c9.009-15.204,24.213,32.658,24.213,32.658,0,0-7.884-56.595,8.446-57.577,16.33-.983,0,57.577,0,57.577,0,0,6.053-13.655,11.966-14.499,5.912-.845,4.223,11.578-6.335,23.738h-21.115Z" style="fill: #bed5dc;"/>
          <path d="M1253.753,1337.204c-.075-.076-7.567-7.755-13.697-17.453-8.365-13.235-10.358-23.742-5.921-31.228,1.656-2.794,3.64-4.081,5.91-3.821,4.517.515,9.821,7.647,15.767,21.196,1.81,4.127,3.415,8.251,4.671,11.665-1.442-14.815-3.117-44.326,5.04-54.286,1.771-2.163,3.931-3.335,6.421-3.486,2.427-.144,4.42.724,5.922,2.584,7.333,9.078.705,41.149-2.937,56.154,2.717-4.401,6.571-9.306,10.509-9.869,1.866-.265,3.347.43,4.18,1.959,2.376,4.362-.903,15.483-10.506,26.542l-1.448-1.256c9.441-10.873,12.031-21.138,10.271-24.369-.447-.821-1.155-1.131-2.226-.979-5.066.724-10.981,11.712-12.832,15.886l-1.798-.646c.036-.129,3.615-13.03,6.017-27.154,3.14-18.469,2.891-30.594-.721-35.064-1.106-1.371-2.525-1.977-4.316-1.875-1.962.117-3.615,1.029-5.055,2.786-10.297,12.576-3.702,60.945-3.634,61.432l-1.863.421c-3.417-10.754-13.972-38.859-21.681-39.739-1.464-.16-2.79.778-4.044,2.894-9.731,16.42,19.046,46.065,19.338,46.362l-1.368,1.341Z" style="fill: #42428e;"/>
        </g>
        <g>
          <path d="M1103.722,581.804c7.675,9.584,13.003,9.997,16.76,6.988,3.755-3.008,4.518-8.297-3.156-17.881-13.981-17.459-27.539-20.451-27.539-20.451,0,0-.248,13.631,13.935,31.344Z" style="fill: #b2c9c6;"/>
          <path d="M1075.837,656.323c4.159,11.551,9.069,13.666,13.596,12.035,4.528-1.631,6.962-6.389,2.801-17.941-7.579-21.044-19.441-28.262-19.441-28.262,0,0-4.645,12.816,3.044,34.167Z" style="fill: #b2c9c6;"/>
          <g>
            <path d="M1006.545,851.51l2.236.638c.098-.343,10.191-34.967,40.258-79.848,27.745-41.411,78.655-100.275,163.648-145.536l-1.092-2.051c-85.462,45.511-136.65,104.722-164.544,146.381-30.244,45.166-40.407,80.069-40.507,80.416Z" style="fill: #b2c9c6;"/>
            <path d="M1120.709,688.129l2.275-.471c-17.169-82.63,39.236-153.46,39.806-154.166l-1.805-1.463c-.579.714-57.674,72.373-40.277,156.1Z" style="fill: #b2c9c6;"/>
            <path d="M1166.852,665.387c22.052,8.42,42.932,3.744,43.173,3.687l-.527-2.263c-.266.061-27.012,6.022-51.455-8.191l-1.169,2.01c3.307,1.923,6.658,3.49,9.978,4.757Z" style="fill: #b2c9c6;"/>
            <path d="M1028.884,803.996c46.531,11.956,90.971,4.012,132.087-23.61,1.425-.956,2.771-1.86,3.115-1.983-.004.002-.106.036-.266.029l.1-2.32c-.686-.031-1.267.345-4.243,2.345-40.545,27.236-84.354,35.071-130.214,23.288l-.58,2.251Z" style="fill: #b2c9c6;"/>
            <path d="M1100.865,804.694l2.313.234c3.157-31.383,38.09-65.964,38.443-66.31l-1.626-1.659c-.09.088-9.063,8.925-18.305,21.59-8.563,11.734-19.127,29.264-20.825,46.145Z" style="fill: #b2c9c6;"/>
            <path d="M1218.759,615.213c-15.442,5.975-18.629,11.391-16.892,15.88,1.737,4.488,7.738,6.349,23.18.374,28.13-10.885,38.582-24.272,38.582-24.272,0,0-16.331-3.024-44.87,8.018Z" style="fill: #b2c9c6;"/>
            <path d="M1206.881,659.833c-16.524,1.041-21.196,5.244-20.892,10.047.302,4.802,5.463,8.387,21.988,7.346,30.103-1.896,44.105-11.509,44.105-11.509,0,0-14.658-7.808-45.201-5.884Z" style="fill: #b2c9c6;"/>
            <path d="M1137.848,729.086c-9.148,8.19-9.267,13.533-6.057,17.119,3.211,3.585,8.533,4.056,17.681-4.134,16.664-14.919,18.906-28.623,18.906-28.623,0,0-13.623.502-30.53,15.639Z" style="fill: #b2c9c6;"/>
            <path d="M1157.852,622.328c-6.88,10.169-5.696,15.38-1.71,18.077,3.987,2.698,9.264,1.859,16.145-8.311,12.534-18.525,11.374-32.361,11.374-32.361,0,0-13.092,3.8-25.809,22.596Z" style="fill: #b2c9c6;"/>
            <path d="M1076.539,782.23c-3.744,11.693-1.143,16.361,3.44,17.828,4.583,1.468,9.413-.82,13.158-12.513,6.821-21.301,1.82-34.254,1.82-34.254,0,0-11.496,7.327-18.417,28.939Z" style="fill: #b2c9c6;"/>
            <path d="M1151.906,774.702c-10.689,6.041-11.948,11.235-9.581,15.424,2.368,4.19,7.467,5.789,18.157-.253,19.471-11.004,24.595-23.91,24.595-23.91,0,0-13.416-2.428-33.171,8.739Z" style="fill: #b2c9c6;"/>
            <path d="M1159.766,521.487c-9.348,13.666-8.909,19.934-4.937,22.651,3.972,2.717,9.973.855,19.321-12.812,17.03-24.895,18.069-41.847,18.069-41.847,0,0-15.175,6.749-32.453,32.008Z" style="fill: #b2c9c6;"/>
          </g>
        </g>
        <path d="M799.413,1165.489s-235.026-300.664-314.216-233.825c-79.188,66.839,202.129,166.576,267.774,256.269l46.442-22.444Z" style="fill: #b2c9c6;"/>
        <g>
          <path d="M701.074,1118.546s-254.74-213.158-324.272-135.625c-69.532,77.535,210.166,101.6,281.87,166.213l42.402-30.589Z" style="fill: #9bbcb6;"/>
          <path d="M677.506,1135.866c-48.709-45.523-116.873-77.854-165.477-96.959-52.692-20.712-94.362-30.767-94.777-30.867l.619-2.59c.417.1,42.269,10.198,95.134,30.978,48.819,19.19,117.303,51.681,166.318,97.491l-1.817,1.947Z" style="fill: #74a1bd;"/>
        </g>
        <g>
          <path d="M576.768,1323.687c55.064-11.111,80.003,68.689,131.149,29.496,51.135-39.228,44.777-40.819,83.238-27.975,0,0,21.261,19.371,45.808,13.401,96.856-23.552,161.675-210.362,35.771-242.634-9.092-2.329-19.847-.054-31.516,3.01-63.283,16.663-69.851,51.928-147.047,2.522-77.221-49.417-96.782,78.398-138.051,92.249-41.269,13.85-81.491,17.246-94.037,72.881-12.535,55.671,59.632,68.196,114.685,57.049Z" style="fill: #cfd3a3;"/>
          <g>
            <path d="M886.398,1205.291l.66-3.634c-1.601-.293-163.354-27.948-426.879,80.053l1.402,3.42c262.536-107.594,423.223-80.128,424.817-79.839Z" style="fill: #c4c695;"/>
            <path d="M680.036,1175.546c20.863-46.015,16.165-73.247,15.955-74.383l-3.633.669c.049.267,4.643,27.349-15.689,72.19l3.367,1.524Z" style="fill: #c4c695;"/>
            <path d="M690.051,1214.672c2.213-21.265-9.441-45.416-33.701-69.842-18.167-18.292-37.253-30.521-37.444-30.641l-1.984,3.114c.746.475,74.543,48.092,69.453,96.989l3.675.38Z" style="fill: #c4c695;"/>
            <path d="M618.822,1238.814c2.597-5.217,3.835-8.413,3.89-8.559l-3.454-1.307c-.256.675-26.422,67.942-96.198,95.99l1.378,3.426c56.223-22.6,84.714-70.108,94.384-89.549Z" style="fill: #c4c695;"/>
            <path d="M619.232,1331.885c8.047-24.408,4.866-43.892.782-55.938-4.446-13.112-10.763-20.359-11.029-20.662l-2.771,2.445c.244.278,24.242,28.309,9.508,73.001l3.51,1.155Z" style="fill: #c4c695;"/>
          </g>
        </g>
        <path d="M1182.63,1019.305s154.676-546.135,301.291-498.596c146.616,47.539-184.732,342.994-224.722,503.403l-76.57-4.807Z" style="fill: #b2c9c6;"/>
        <g>
          <path d="M1292.1,990.666s189.264-327.437,293.903-271.647c104.639,55.789-185.134,190.711-236.608,287.813l-57.295-16.166Z" style="fill: #9bbcb6;"/>
          <path d="M1324.07,999.992c34.329-67.706,94.617-128.895,139.147-168.302,48.276-42.723,88.921-69.744,89.326-70.012l-1.674-2.529c-.406.268-41.23,27.407-89.663,70.269-44.728,39.583-105.296,101.069-139.841,169.201l2.705,1.373Z" style="fill: #74a1bd;"/>
        </g>
        <g>
          <g>
            <path d="M1119.382,1296.58v-112.604h-227.136v112.603c0,29.262-19.473,52.982-43.494,52.982h-9.153v14.538h332.429v-14.538h-9.153c-24.02,0-43.493-23.72-43.493-52.981Z" style="fill: #56335b;"/>
            <path d="M1170.173,1364.099h-328.717c-4.014,0-7.269-3.255-7.269-7.269h0c0-4.014,3.255-7.269,7.269-7.269h328.717c4.014,0,7.27,3.255,7.27,7.269h0c0,4.014-3.256,7.269-7.27,7.269Z" style="fill: #2f1a31;"/>
          </g>
          <path d="M1392.716,1253.108l-768.097-8.814c-16.442-.189-29.673-13.571-29.673-30.016v-468.805c0-16.399,13.161-29.764,29.559-30.014l758.188-11.61c16.519-.253,30.137,12.889,30.471,29.407l9.908,489.228c.344,16.948-13.405,30.818-30.356,30.625Z" style="fill: #6f4975;"/>
          <rect x="624.71" y="751.07" width="758.086" height="409.059" rx="14.811" ry="14.811" style="fill: #96a7e2;"/>
        </g>
        <g>
          <g>
            <path d="M1613.776,1236.998l141.246.323,160.795,4.006.418,12.108-155.532-6.758c-15.631.539-27.822,14.856-27.232,31.979h0c.59,17.122,13.741,30.566,29.371,30.026l155.114-5.349.31,8.944-302.337,13.331c-20.29.699-37.359-19.655-38.126-41.881h0c-.766-22.226,15.686-46.028,35.975-46.728Z" style="fill: #cfd3a3;"/>
            <path d="M1719.672,1278.833h0c-.767-22.227,15.06-40.811,35.35-41.512l160.795,4.006.418,12.108-155.532-6.758c-15.631.539-27.822,14.856-27.232,31.979h0c.59,17.122,13.741,30.566,29.371,30.026l155.114-5.349.31,14.497-160.467-.021c-20.289.701-37.359-16.75-38.125-38.977Z" style="fill: #cfd3a3;"/>
            <path d="M1760.704,1246.71l155.531,6.725h0c-14.03,2.26-18.252,16.521-20.191,24.129-3.931,15.429,7.753,24.302,21.906,25.591l.007.212-155.114,5.35c-15.631.539-28.78-12.905-29.371-30.027h0c-.59-17.123,11.602-31.44,27.233-31.979Z" style="fill: #e6edff;"/>
            <rect x="1764.041" y="1285.723" width="93.077" height=".846" transform="translate(-28.421 40.977) rotate(-1.287)" style="fill: #2f1a31;"/>
            <path d="M1729.52,1303.781c.448,0,.887-.19,1.155-.537.424-.553.252-1.3-.383-1.67-.102-.059-10.14-6.084-11.771-22.95-1.62-16.757,11.92-23.201,12.057-23.264.678-.313.934-1.042.575-1.629-.362-.589-1.202-.806-1.878-.499-.626.289-15.293,7.27-13.522,25.594,1.752,18.117,12.544,24.494,13.004,24.757.236.135.501.198.763.198Z" style="fill: #b7b784;"/>
            <rect x="1834.111" y="1241.929" width=".847" height="69.356" transform="translate(529.552 3091.066) rotate(-89.109)" style="fill: #2f1a31;"/>
            <path d="M1687.389,1300.336c-.164-.19-16.171-19.334-1.419-40.462.249-.358.654-.577,1.089-.593l23.611-.813c.568.025,1.006.255,1.26.71.255.453.233,1.012-.056,1.444-.066.101-6.617,10.126-4.201,19.749,2.508,9.997,6.812,17.429,6.856,17.503.246.422.253.942.017,1.371-.236.429-.679.701-1.167.718l-24.887.857c-.017,0-.033.002-.047.002-.405,0-.793-.178-1.057-.487ZM1704.979,1281.047c-2.008-7.998,1.31-15.95,3.286-19.718l-20.408.703c-11.757,17.496-1.105,32.968,1.233,35.99l21.96-.756c-1.5-2.94-4.224-8.856-6.071-16.219Z" style="fill: #b7b784;"/>
          </g>
          <g>
            <path d="M1920.32,1161.05l-144.6-2.905-163.748,6.436-.248,12.341,158.346-9.164c15.931.321,28.561,14.727,28.211,32.179h0c-.351,17.452-13.55,31.341-29.48,31.02l-158.099-3.177-.183,9.115,308.152,6.193c20.68.415,37.813-17.613,38.268-40.266h0c.456-22.653-15.94-41.355-36.62-41.771Z" style="fill: #e28569;"/>
            <path d="M1812.341,1199.915h0c.455-22.654-15.94-41.355-36.62-41.771l-163.748,6.436-.248,12.341,158.346-9.164c15.931.321,28.561,14.727,28.211,32.179h0c-.351,17.452-13.55,31.341-29.48,31.02l-158.099-3.177-.183,9.115,163.552,3.287c20.68.415,37.813-17.612,38.269-40.266Z" style="fill: #e28569;"/>
            <path d="M1770.07,1167.791l-158.346,9.13h0c14.327,2.098,18.837,16.564,20.923,24.285,4.231,15.661-7.543,24.871-21.941,26.391l-.005.216,158.098,3.177c15.932.32,29.13-13.568,29.481-31.02h0c.351-17.452-12.28-31.859-28.21-32.179Z" style="fill: #e6edff;"/>
            <rect x="1696.731" y="1146.305" width=".862" height="127.635" transform="translate(453.187 2882.63) rotate(-88.849)" style="fill: #2f1a31;"/>
            <path d="M1808.615,1226.425c.245,0,.493-.071.71-.219.412-.281,10.118-7.102,11.439-26.094,1.336-19.21-12.089-26.326-12.662-26.62-.62-.319-1.381-.074-1.698.546-.319.62-.075,1.379.543,1.698.514.266,12.516,6.705,11.298,24.201-1.237,17.783-10.251,24.121-10.343,24.183-.576.392-.725,1.178-.332,1.754.244.358.641.551,1.044.551Z" style="fill: #d3715b;"/>
            <rect x="1632.625" y="1199.309" width="98.006" height=".862" transform="translate(-35.705 51.691) rotate(-1.743)" style="fill: #2f1a31;"/>
            <path d="M1841.389,1219.591l-6.462-.13c-2.967-.059-5.647-1.487-7.353-3.914-1.691-2.409-2.123-5.386-1.183-8.168.68-2.014,1.263-4.04,1.729-6.021.608-2.577.57-5.427-.113-8.473-.615-2.746.057-5.574,1.843-7.759,1.802-2.205,4.473-3.434,7.317-3.378l5.101.102h0c3.35.067,6.368,1.897,7.878,4.773,6.245,11.907,2.394,22.719-.457,28.105-1.597,3.015-4.691,4.867-8.11,4.866-.064,0-.125,0-.19-.002ZM1837.117,1184.27c-2.052-.048-4.004.853-5.311,2.453-1.293,1.581-1.779,3.626-1.335,5.611.767,3.421.801,6.651.106,9.602-.486,2.058-1.09,4.161-1.795,6.251-.681,2.011-.367,4.165.857,5.909,1.238,1.763,3.183,2.798,5.338,2.842l6.462.129c2.52.062,4.84-1.298,6.018-3.522,2.619-4.946,6.161-14.869.452-25.751-1.082-2.061-3.263-3.372-5.693-3.421l-5.1-.102Z" style="fill: #d3715b;"/>
          </g>
          <g>
            <path d="M1920.32,1318.096l-144.6-2.905-163.748,6.436-.248,12.341,158.346-9.164c15.931.32,28.561,14.727,28.211,32.179h0c-.351,17.452-13.55,31.34-29.48,31.021l-158.099-3.177-.183,9.115,308.152,6.192c20.68.415,37.813-17.612,38.268-40.266h0c.456-22.654-15.94-41.355-36.62-41.77Z" style="fill: #96a7e2;"/>
            <path d="M1812.341,1356.962h0c.455-22.654-15.94-41.355-36.62-41.771l-163.748,6.436-.248,12.341,158.346-9.164c15.931.32,28.561,14.727,28.211,32.179h0c-.351,17.452-13.55,31.34-29.48,31.021l-158.099-3.177-.183,9.115,163.552,3.287c20.68.415,37.813-17.612,38.269-40.266Z" style="fill: #96a7e2;"/>
            <path d="M1770.07,1324.838l-158.346,9.13h0c14.327,2.097,18.837,16.562,20.923,24.285,4.231,15.659-7.543,24.87-21.941,26.391l-.005.216,158.098,3.177c15.932.32,29.13-13.568,29.481-31.02h0c.351-17.452-12.28-31.86-28.21-32.179Z" style="fill: #e6edff;"/>
            <rect x="1696.731" y="1303.351" width=".862" height="127.635" transform="translate(296.184 3036.53) rotate(-88.849)" style="fill: #2f1a31;"/>
            <path d="M1808.615,1383.471c.245,0,.493-.071.71-.22.412-.281,10.118-7.101,11.439-26.094,1.336-19.21-12.089-26.326-12.662-26.62-.62-.319-1.381-.073-1.698.547-.319.62-.075,1.379.543,1.698.514.267,12.516,6.706,11.298,24.2-1.237,17.784-10.251,24.121-10.343,24.184-.576.392-.725,1.177-.332,1.752.244.359.641.552,1.044.552Z" style="fill: #436e8e;"/>
            <rect x="1632.625" y="1356.354" width="98.006" height=".862" transform="translate(-40.448 51.721) rotate(-1.741)" style="fill: #2f1a31;"/>
            <path d="M1841.389,1376.636l-6.462-.13c-2.967-.059-5.647-1.486-7.353-3.913-1.691-2.409-2.123-5.386-1.183-8.169.68-2.014,1.263-4.04,1.729-6.021.608-2.577.57-5.427-.113-8.472-.615-2.746.057-5.574,1.843-7.76,1.802-2.204,4.473-3.433,7.317-3.379l5.101.102h0c3.35.068,6.368,1.897,7.878,4.773,6.245,11.908,2.394,22.72-.457,28.106-1.597,3.014-4.691,4.866-8.11,4.866-.064,0-.125,0-.19-.003ZM1837.117,1341.317c-2.052-.048-4.004.852-5.311,2.452-1.293,1.581-1.779,3.626-1.335,5.61.767,3.421.801,6.653.106,9.603-.486,2.059-1.09,4.16-1.795,6.25-.681,2.013-.367,4.167.857,5.909,1.238,1.763,3.183,2.798,5.338,2.842l6.462.129c2.52.062,4.84-1.298,6.018-3.522,2.619-4.946,6.161-14.868.452-25.75-1.082-2.061-3.263-3.373-5.693-3.421l-5.1-.102Z" style="fill: #436e8e;"/>
          </g>
        </g>
        <g>
          <path d="M1631.016,920.138s-49.754,64.287-46.373,113.987c3.382,49.7,62.314,9.974,62.314,9.974l5.075-117.682-21.016-6.279Z" style="fill: #f7b686;"/>
          <path d="M1562.846,1365.113s.431,14.61-9.217,19.264c-9.647,4.654-38.047,9.928-26.848,18.724,6.426,5.048,35.139-.007,43.298-.452,8.16-.445,16.015,2.693,21.782-3.1,6.343-6.372-1.961-35.912-1.961-35.912,0,0-6.841,4.052-13.182,4.233-9.139.262-13.873-2.757-13.873-2.757Z" style="fill: #2f1a31;"/>
          <path d="M1473.956,1365.02s.431,14.609-9.217,19.263c-9.646,4.654-38.047,9.928-26.847,18.724,6.426,5.047,35.139-.007,43.298-.452,8.16-.445,16.015,2.693,21.781-3.099,6.343-6.373-1.96-35.913-1.96-35.913,0,0-6.842,4.052-13.183,4.234-9.139.261-13.873-2.757-13.873-2.757Z" style="fill: #2f1a31;"/>
          <path d="M1463.375,1340.887c7.224-95.707,8.927-160.287,39.212-201.777,33.146-45.408,122.013-77.524,156.279-79.529,55.878-3.267,82.209,5.051,82.209,5.051,41.944,87.222-23.755,98.794-72.353,101.178-1.604.079-3.217.169-4.835.271-29.422,1.853-81.736,9.328-101.537,38.563-15.68,23.15-26.561,55.653-31.149,139.487-.88,16.088-14.375,28.564-30.48,28.122,0,0-39.945,3.056-37.346-31.367Z" style="fill: #436e8e;"/>
          <path d="M1542.685,1345.816c-.952-95.975-3.931-144.974,24.875-187.506,18.506-27.325,46.337-47.95,82.72-61.304,25.965-9.53,56.507-15.378,90.773-17.383,55.878-3.267,80.987-10.016,80.987-10.016,45.225,111.65-120.202,87.948-163.267,135.517-18.766,20.727-42.017,60.147-46.605,143.981-.881,16.088-14.376,28.564-30.48,28.122,0,0-38.654,3.679-39.001-31.413Z" style="fill: #436e8e;"/>
          <path d="M1542.96,1251.549l-.64-.03c.028-.574,2.872-57.637,12.469-77.639,12.141-25.31,47.343-51.727,83.703-62.814l.186.613c-36.202,11.039-71.24,37.314-83.312,62.477-9.539,19.886-12.377,76.82-12.406,77.393Z" style="fill: #020202;"/>
          <path d="M1782.401,892.336s-23.772-40.635-78.573-28.165c-54.801,12.47-77.128,68.442-81.054,202.856,0,0,50.734-1.863,184.03,42.349,15.788,5.236,38.948,1.083,30.841-25.813-15.069-49.997-29.665-149.723-55.245-191.226Z" style="fill: #96a7e2;"/>
          <path d="M1842.685,904.202l-56.369,10.595s-98.568,29.152-126.162,29.381c-27.594.23-39.013-19.951-39.013-19.951,0,0,22.256-37.776,68.9-55.6,4.381-1.681,8.971-3.177,13.785-4.454,8.079-2.137,16.291-4.01,24.51-4.105,93.047-1.067,114.35,44.134,114.35,44.134Z" style="fill: #96a7e2;"/>
          <path d="M1842.685,904.202c1.22,4.444-10.596,11.859-26.391,16.562-15.796,4.704-29.587,4.913-30.806.47-1.22-4.444,10.595-11.858,26.391-16.561,15.795-4.704,29.587-4.914,30.807-.47Z" style="fill: #2f1a31;"/>
          <path d="M1728.239,860.077c-6.021.49-11.852-2.24-15.235-7.244l-10.602-15.682-3.077-4.552-18.091-26.764,7.918,29.794,4.755,17.883,1.355,5.098c1.106,4.159-1.132,8.451-5.152,9.99l-.07.027c-1.543,4.056-3.225,12.025,6.549,13.205,11.485,1.388,27.38-10.466,31.745-21.764-.032.003-.065.005-.097.009Z" style="fill: #f7b686;"/>
          <path d="M1714.432,794.372s-.228,5.182,4.554,14.8c6.996,14.073-8.814,23.508-13.968,20.092-.637-.422-4.732-25.843-4.732-25.843l4.818-4.258,9.327-4.79Z" style="fill: #264c63;"/>
          <path d="M1702.338,836.645c.027.167.048.337.064.506,1.131,9.874-8.421,16.404-8.421,16.404l-.073-.042-4.755-17.883c2.963-1.771,7.27-3.833,10.173-3.031,1.517.419,2.65,1.619,3.013,4.046Z" style="fill: #2f1a31;"/>
          <path d="M1652.399,816.322c-3.676-19.338,6.051-37.431,21.726-40.411,15.675-2.979,31.363,10.282,35.038,29.621,3.677,19.339-6.05,37.431-21.725,40.411-15.676,2.979-31.362-10.282-35.039-29.621Z" style="fill: #f7b686;"/>
          <path d="M1664.431,786.186c.992.925-.05,19.788,34.14,17.746,34.189-2.043,6.445-38.721-18.353-34.955-35.805,5.437-35.4,35.016-30.348,42.97,5.051,7.954,14.561-25.762,14.561-25.762Z" style="fill: #264c63;"/>
          <path d="M1711.656,754.265s-13.085,12.877.24,20.125c13.327,7.246,45.821,5.347,40.201,22.919-5.62,17.571-8.63,42.592,7.498,42.582,16.127-.01,25.704-3.053,34.401,8.13,8.697,11.182,35.49-1.857,30.38-16.167-5.109-14.309,16.638-31.89,3.682-43.485-12.957-11.595-40.569-18.571-50.275-35.062-9.705-16.493-55.478-9.013-66.128.957Z" style="fill: #264c63;"/>
          <path d="M1693.801,798.896s16.369,11.785,14.434,27.382c0,0,6.267-10.147,5.829-13.406-.438-3.259-4.756-14.51-4.756-14.51l-15.507.534Z" style="fill: #264c63;"/>
          <path d="M1706.372,809.888c-2.632,3.681-7.067,4.851-9.907,2.612-2.841-2.239-3.01-7.038-.379-10.718,2.631-3.682,7.067-4.851,9.907-2.612,2.841,2.238,3.01,7.038.379,10.718Z" style="fill: #f7b686;"/>
          <path d="M1793.423,848.173c-4.2-15.798-13.511-16.51-23.369-17.263-3.909-.299-7.952-.609-11.809-1.844-1.837-.587-3.121-1.608-3.821-3.03-1.749-3.559.279-9.169,2.629-15.665,3.422-9.462,7.301-20.187,1.512-28.512-11.209-16.123-28.176-16.823-28.345-16.83-9.871.625-14.989-.483-15.576-3.389-.594-2.932,4.027-6.194,5.731-6.789,13.817-4.836,29.798-6.785,52.945,11.509,18.256,14.428,17.002,22.547,15.415,32.827-.351,2.268-.713,4.614-.88,7.163-.132,2.017.291,3.512,1.292,4.569,2.232,2.353,7.209,2.296,12.021,2.239,6.228-.075,12.66-.149,14.394,4.798,1.357,3.87-.186,8.469-1.678,12.919-1.529,4.557-2.973,8.864-1.195,11.877,1.161,1.967,3.636,3.273,7.567,3.992l-.213,1.168c-4.29-.786-7.03-2.275-8.377-4.558-2.053-3.479-.525-8.034,1.093-12.858,1.428-4.258,2.905-8.662,1.683-12.147-1.452-4.142-7.184-4.075-13.26-4.003-5.064.059-10.309.121-12.897-2.61-1.225-1.293-1.767-3.13-1.615-5.463.17-2.601.536-4.974.89-7.267,1.528-9.897,2.736-17.715-14.977-31.714-22.697-17.939-38.317-16.043-51.816-11.321-1.641.574-5.357,3.475-4.961,5.434.201.993,2.009,3.219,14.394,2.438.232.005,17.792.729,29.34,17.338,6.139,8.828,1.975,20.342-1.371,29.592-2.258,6.241-4.208,11.631-2.681,14.738.56,1.138,1.579,1.931,3.117,2.424,3.725,1.193,7.697,1.497,11.538,1.79,10.291.787,20.01,1.53,24.426,18.142l-1.148.305Z" style="fill: #436e8e;"/>
          <path d="M1692.87,793.453c-10.604,0-17.419-7.304-17.496-7.386l.798-.731c.08.089,8.205,8.774,20.424,6.721l.179,1.068c-1.351.227-2.655.328-3.906.328Z" style="fill: #436e8e;"/>
          <path d="M1662.958,837.723c-2.094.663-4.443.542-6.784-.375-3.781-1.481-7.2-4.863-9.379-9.281-4.068-8.242-2.663-17.667,3.133-21.009,2.479-1.428,5.505-1.567,8.516-.388,3.782,1.481,7.201,4.863,9.381,9.28,4.068,8.243,2.662,17.668-3.134,21.01-.552.318-1.132.573-1.732.763ZM1651.909,807.087c-.559.177-1.097.413-1.61.709-5.459,3.148-6.753,12.084-2.885,19.923,2.082,4.221,5.34,7.45,8.938,8.858,2.824,1.107,5.653.98,7.968-.353,5.46-3.147,6.754-12.086,2.886-19.923-2.084-4.222-5.341-7.451-8.939-8.859-2.198-.86-4.399-.975-6.358-.355Z" style="fill: #6f4975;"/>
          <path d="M1688.881,828.215c-2.224.424-4.605.038-6.879-1.139-3.673-1.9-6.733-5.651-8.397-10.29-3.105-8.658-.47-17.874,5.874-20.543,2.715-1.141,5.82-.937,8.744.576,3.674,1.9,6.735,5.651,8.397,10.291h0c3.105,8.659.47,17.873-5.874,20.543-.605.254-1.23.44-1.867.562ZM1681.499,796.494c-.593.113-1.173.287-1.736.524-5.974,2.513-8.433,11.258-5.482,19.491,1.59,4.435,4.506,8.014,8,9.822,2.744,1.418,5.651,1.614,8.182.548,5.975-2.514,8.435-11.257,5.483-19.492h0c-1.591-4.434-4.506-8.014-8-9.822-2.135-1.104-4.368-1.467-6.447-1.071Z" style="fill: #6f4975;"/>
          <path d="M1666.535,821.41c-.106.02-.221-.01-.306-.091-.137-.132-.143-.352-.01-.49.132-.138,3.306-3.38,9.873-3.636.192-.008.353.141.36.333.008.191-.14.355-.333.36-6.271.244-9.367,3.391-9.398,3.423-.052.054-.117.087-.186.101Z" style="fill: #6f4975;"/>
          <path d="M1669.416,836.564s9.738-1.619,18.786-6.867c0,0,2.621,9.402-7.758,12.039-6.035,1.533-11.028-5.172-11.028-5.172Z" style="fill: #db6b49;"/>
          <path d="M1669.416,836.564s2.716,1.501,8.185.437c5.47-1.065,10.601-7.305,10.601-7.305,0,0-11.073,5.43-18.786,6.867Z" style="fill: #fff;"/>
          <path d="M1678.1,811.787c-.198-.015-.388-.121-.503-.302-.195-.305-.106-.711.198-.906.179-.116,4.1-3.176,8.712.275.291.217.362.622.15.917-.212.294-.583.294-.918.151-3.343-1.429-7.086-.329-7.235-.236-.126.08-.267.112-.405.101Z" style="fill: #060633;"/>
          <path d="M1684.557,817.91c.341,1.531-.282,2.972-1.392,3.221-1.111.248-2.287-.792-2.629-2.322-.342-1.53.281-2.972,1.391-3.221,1.111-.248,2.289.792,2.63,2.322Z" style="fill: #060633;"/>
          <path d="M1655.697,819.533c-.19.061-.405.036-.58-.088-.297-.208-.37-.616-.162-.913.122-.175,2.581-4.498,8.158-3.064.352.09.573.436.489.79-.083.354-.426.494-.79.49-3.636-.048-6.678,2.394-6.779,2.54-.086.12-.205.204-.336.247Z" style="fill: #060633;"/>
          <path d="M1663.999,822.735c.899,1.285.872,2.855-.06,3.507-.932.652-2.417.14-3.316-1.145-.899-1.285-.872-2.855.06-3.509.932-.652,2.417-.139,3.316,1.147Z" style="fill: #060633;"/>
          <path d="M1823.754,1023.35c-20.287,29.305-45.392,45.412-98.763,55.139l-2.043-34.173c65.06-23.865,72.238-101.489,68.906-121.099-.316-1.859.417-3.732,1.915-4.878,4.969-3.807,17.842-11.543,40.845-11.999,2.047-.04,3.859,1.333,4.384,3.311,9.624,36.248,8.691,79.125-15.245,113.699Z" style="fill: #f7b686;"/>
          <g style="opacity: .3;">
            <path d="M1803.051,1033.646c-.881,0-1.737-.171-2.543-.517-4.216-1.801-5.697-7.877-3.303-13.546,1.37-3.242,3.822-5.839,6.561-6.944,1.886-.762,3.767-.787,5.436-.075,4.216,1.801,5.698,7.877,3.304,13.546h0c-1.37,3.244-3.823,5.84-6.562,6.944-.975.394-1.949.592-2.894.592ZM1806.659,1013.902c-.709,0-1.451.151-2.2.454-2.292.926-4.367,3.149-5.548,5.947-1.998,4.733-.956,9.722,2.324,11.124,1.207.516,2.595.485,4.017-.089,2.292-.925,4.367-3.149,5.549-5.948h0c1.998-4.731.956-9.722-2.325-11.123-.571-.244-1.182-.365-1.817-.365Z" style="fill: #e08b65;"/>
          </g>
          <g>
            <path d="M1722.948,1044.316s-31.673-1.802-39.852,4.991c-8.178,6.793-13.49,21.652-7.526,18.519,5.963-3.134,12.477-9.243,12.477-9.243,0,0-13.303,13.707-8.751,15.43,4.554,1.722,16.009-10.309,16.009-10.309,0,0-14.531,17.571-9.703,17.806,4.828.236,15.773-13.192,15.773-13.192,0,0-12.867,16.888-7.252,17.031,5.615.141,10.542-14.026,15.095-12.303,4.553,1.722,17.588,11.655,23.922-.417l-10.192-28.312Z" style="fill: #f7b686;"/>
            <path d="M1688.367,1058.811l-.638-.457c.135-.188,3.295-4.546,6.75-4.546.035,0,.071,0,.106.002l-.021.784c-3.06-.06-6.165,4.174-6.197,4.217Z" style="fill: #dd8964;"/>
            <path d="M1695.629,1063.925l-.647-.445c.128-.185,3.178-4.544,8.048-5.394l.134.772c-4.54.792-7.506,5.024-7.536,5.067Z" style="fill: #dd8964;"/>
            <path d="M1701.695,1068.545l-.638-.456c.16-.225,3.951-5.489,7.68-5.074l-.087.779c-3.278-.359-6.919,4.698-6.955,4.75Z" style="fill: #dd8964;"/>
          </g>
          <g>
            <path d="M1688.82,1093.039h-105.071c-2.201,0-4.153-1.399-4.848-3.472l-21.835-65.21c-1.099-3.283,1.362-6.673,4.847-6.673h101.045c4.605,0,8.692,2.928,10.145,7.267l20.565,61.414c1.099,3.284-1.363,6.674-4.848,6.674Z" style="fill: #2f1a31;"/>
            <path d="M1682.225,1093.039h-105.073c-2.2,0-4.152-1.399-4.847-3.472l-21.834-65.21c-1.1-3.283,1.361-6.673,4.847-6.673h101.044c4.605,0,8.693,2.928,10.146,7.267l20.565,61.414c1.099,3.284-1.363,6.674-4.848,6.674Z" style="fill: #2f1a31;"/>
            <path d="M1608.603,1053.228c0-2.475,2.856-3.485,5.349-3.485s6.564,2.717,6.538,6.186c-.028,3.744-2.954,4.231-5.446,4.231s-6.441-3.78-6.441-6.932Z" style="fill: #deebe9;"/>
            <path d="M1577.101,1083.824h143.782c3.356,0,6.081,2.725,6.081,6.081v.044c0,1.706-1.385,3.09-3.09,3.09h-146.773v-9.215h0Z" style="fill: #2f1a31;"/>
            <path d="M1674.754,1050.651c-.052-.194-5.206-19.526-8.544-25.533-3.278-5.898-7.344-7.093-7.386-7.105l.182-.657c.176.048,4.371,1.261,7.8,7.43,3.379,6.082,8.396,24.892,8.608,25.69l-.66.175Z" style="fill: #436e8e;"/>
            <path d="M1690.284,1084.165c-3.895,0-4.865-1.723-4.905-1.796l-8.212-24.509.647-.217,8.189,24.457v-.002c.01,0,.889,1.385,4.281,1.385v.682Z" style="fill: #436e8e;"/>
          </g>
        </g>
        <g>
          <path d="M684.648,768.707h658.258c7.474,0,13.542,6.068,13.542,13.542v351.326c0,7.473-6.067,13.541-13.541,13.541h-658.258c-7.474,0-13.543-6.068-13.543-13.543v-351.324c0-7.474,6.068-13.542,13.542-13.542Z" style="fill: #e7f2f0;"/>
          <g>
            <path d="M671.106,1103.872v11.113c0,6.854,5.557,12.41,12.41,12.41h394.198c.872-.216,1.729-.489,2.57-.792-28.056-27.255-82.052-70.019-155.857-84.454-5.421-1.073-10.945-1.994-16.581-2.731-4.972-.648-10.025-1.168-15.166-1.537-.272-.024-.551-.048-.824-.064-15.693-1.089-31.378-.52-46.839,1.106-3.131.328-6.253.696-9.36,1.105-4.604.608-9.095,1.257-13.491,1.961-73.828,11.762-121.044,36.606-151.061,61.883Z" style="fill: #2f1a31;"/>
            <path d="M841.937,1057.412c-8.36-12.858,3.652-13.971,7.452-26.967l11.758-40.212,3.42-11.707,20.122-68.834,3.884,68.088,2.325,40.869.737,12.937c.499,8.78,2.913,9.989,9.553,17.52,2.69,3.051,12.736,15.394-.111,21.596-11.522,5.563-48.481,3.101-59.14-13.29Z" style="fill: #f7b686;"/>
            <path d="M845.812,974.753s-67.036-23.398-57.038-73.272c9.999-49.875,61.12,45.129,61.12,45.129l2.702,26.086-6.784,2.057Z" style="fill: #2f1a31;"/>
            <path d="M860.928,989.127c.061.371.134.74.219,1.106,4.499,21.523,29.623,28.555,29.623,28.555l.128-.139-2.325-40.869c-7.615-1.65-18.327-2.967-24.006.746-2.968,1.94-4.56,5.251-3.639,10.601Z" style="fill: #2f1a31;"/>
            <path d="M949.164,920.014c-5.203-39.636-36.068-68.267-68.939-63.953-32.871,4.315-55.299,39.945-50.095,79.581,5.203,39.636,36.069,68.267,68.939,63.952,32.871-4.316,55.299-39.945,50.095-79.581Z" style="fill: #f7b686;"/>
            <path d="M837.751,926.126s19.783,3.997,28.181-10.744c8.399-14.74,13.346-27.356,47.667-26.068,34.321,1.289,62.141-18.852,60.691-37.132-1.45-18.28-20.235-24.281-37.474-15.542-17.24,8.74-.248-10.455-19.96-21.44-19.713-10.985-43.049,20.079-62.141,18.851-19.093-1.229-77.124,16.458-65.941,67.43l48.977,24.645Z" style="fill: #2f1a31;"/>
            <path d="M830.258,940.738c6.085,3.872,13.824,2.602,17.284-2.836,3.461-5.439,1.332-12.985-4.754-16.858-6.086-3.871-13.823-2.602-17.284,2.836s-1.332,12.986,4.754,16.858Z" style="fill: #f7b686;"/>
            <path d="M929.635,862.026c-2.688,0-5.67-.23-8.944-.692-7.925-1.117-14.697-3.249-14.766-3.27l.248-.78c.267.085,26.773,8.365,36.621.545,4.761-3.78,5.174-7.011,3.971-8.774-1.46-2.14-5.589-2.834-9.975-.29-8.481,4.921-14.576,4.129-14.831,4.091l.114-.81c.06.01,6.09.777,14.306-3.99,4.798-2.783,9.393-1.913,11.063.537,1.409,2.067,1.062,5.748-4.138,9.876-2.983,2.369-7.563,3.557-13.669,3.557Z" style="fill: #fff;"/>
            <path d="M820.678,849.853l-.474-.668c7.255-5.13,15.989-4.627,26.102-4.047,5.022.29,10.215.589,15.858.279,17.17-.942,30.72-17.204,31.067-18.219l.783.239c-.497,1.643-14.699,17.858-31.806,18.797-5.689.311-10.904.012-15.95-.279-9.958-.573-18.561-1.067-25.581,3.898Z" style="fill: #fff;"/>
            <path d="M800.855,892.176c-.675,0-1.501-.451-1.832-2.47l-.012-.072.014-.071c.094-.498,2.394-12.185,7.192-11.549.593.079,1.576.506,1.509,2.491-.132,3.877-4.202,11.503-6.772,11.668-.033.002-.066.002-.099.002ZM799.843,889.645c.142.819.438,1.752,1.059,1.711,1.952-.125,5.882-7.242,6.006-10.878.052-1.539-.588-1.624-.798-1.652-3.336-.436-5.635,7.589-6.266,10.819Z" style="fill: #fff;"/>
            <path d="M900.926,924.796c.312-.197.531-.533.564-.929.055-.668-.44-1.255-1.109-1.313-.394-.033-9.46-1.654-14.027,7.983-.288.608-.056,1.333.548,1.633.602.299,1.208-.023,1.632-.547,4.237-5.232,11.316-6.667,11.643-6.643.274.022.533-.048.748-.184Z" style="fill: #060633;"/>
            <path d="M895.65,940.405c.764,2.802,3.032,4.623,5.064,4.068,2.033-.554,3.062-3.275,2.297-6.076-.763-2.801-3.032-4.623-5.064-4.068-2.032.555-3.06,3.275-2.297,6.076Z" style="fill: #060633;"/>
            <path d="M945.943,921.183c.282-.05.53-.262.657-.607.216-.582.005-1.317-.472-1.644-.281-.193-6.527-5.411-12.407,1.409-.37.429-.389,1.182-.024,1.701.364.52.895.479,1.344.182,4.486-2.974,10.07-1.342,10.304-1.183.195.133.405.176.598.143Z" style="fill: #060633;"/>
            <path d="M934.846,933.654c-.36,2.881,1.042,5.429,3.133,5.69,2.091.261,4.078-1.862,4.44-4.743.36-2.882-1.043-5.429-3.133-5.691-2.09-.262-4.078,1.862-4.439,4.743Z" style="fill: #060633;"/>
            <g>
              <path d="M902.734,978.756c-4.821,0-10.112-1.313-15.348-5.105-.379-.275-.464-.806-.189-1.187.275-.379.806-.466,1.186-.189,15.908,11.52,31.979-1.006,32.655-1.544.368-.293.902-.232,1.194.135.292.367.233.9-.134,1.193-.121.097-8.56,6.696-19.365,6.696Z" style="fill: #020202;"/>
              <path d="M886.676,977.156c-.429,0-.798-.325-.843-.761-.229-2.213.688-4.758,2.727-7.567.048-.066.083-.113.102-.142.257-.388.782-.504,1.171-.252.391.251.513.763.266,1.157-.025.041-.082.121-.164.236-2.223,3.063-2.539,5.167-2.413,6.393.049.467-.291.883-.757.932-.029.003-.059.005-.089.005Z" style="fill: #020202;"/>
            </g>
            <path d="M951.29,969.669c-1.924,0-3.866-.352-5.796-1.06-13.507-4.946-22.688-26.413-20.469-47.854,1.365-13.177,6.781-23.918,14.49-28.732,4.61-2.88,9.693-3.433,14.696-1.601,13.507,4.946,22.689,26.414,20.469,47.855-1.365,13.176-6.781,23.916-14.489,28.731-2.832,1.768-5.841,2.659-8.901,2.659ZM948.433,891.899c-2.604,0-5.167.759-7.581,2.267-7.053,4.405-12.032,14.443-13.315,26.849h0c-2.109,20.363,6.336,40.65,18.824,45.223,4.247,1.556,8.566,1.082,12.491-1.37,7.053-4.406,12.032-14.443,13.316-26.85,2.108-20.363-6.336-40.651-18.823-45.224-1.636-.598-3.282-.896-4.911-.896Z" style="fill: #fff;"/>
            <g style="opacity: .3;">
              <path d="M858.047,921.046c-.378,20.494,11.123,40.015,25.688,43.603,14.564,3.587,26.677-10.117,27.056-30.611.378-20.493-11.123-40.015-25.687-43.603-14.565-3.587-26.678,10.117-27.057,30.611Z" style="fill: #fff;"/>
            </g>
            <g style="opacity: .3;">
              <path d="M924.838,922.481c-.371,20.585,10.02,40.659,23.209,44.833,13.189,4.175,24.181-9.128,24.553-29.714.371-20.585-10.02-40.659-23.21-44.834-13.189-4.175-24.181,9.128-24.552,29.714Z" style="fill: #fff;"/>
            </g>
            <path d="M889.445,965.552c-1.686,0-3.402-.206-5.139-.617-16.019-3.808-28.644-24.742-28.141-46.665h0c.292-12.751,4.857-23.458,12.525-29.376,5.292-4.086,11.505-5.432,17.975-3.894,16.018,3.808,28.643,24.742,28.141,46.665-.292,12.751-4.857,23.458-12.525,29.376-3.871,2.988-8.238,4.511-12.835,4.511ZM858.689,918.327c-.475,20.797,11.278,40.603,26.201,44.15,5.699,1.354,11.18.167,15.847-3.435,6.958-5.371,11.273-15.626,11.543-27.433.475-20.798-11.278-40.603-26.2-44.151-5.701-1.355-11.181-.167-15.848,3.436-6.958,5.37-11.273,15.626-11.543,27.433h0Z" style="fill: #fff;"/>
            <path d="M909.334,929.752c-.919,0-1.792-.541-2.171-1.44-.509-1.199.052-2.582,1.252-3.09,12.043-5.093,20.831-.557,21.199-.362,1.151.61,1.587,2.039.976,3.188-.609,1.147-2.028,1.587-3.178.982-.317-.163-7.295-3.637-17.161.536-.3.127-.612.187-.918.187Z" style="fill: #fff;"/>
            <path d="M788.476,902.075c-10.617-5.343-7.903-17.032-7.874-17.149l1.291.314c-.106.438-2.48,10.787,7.18,15.648l-.597,1.187Z" style="fill: #2f1a31;"/>
            <path d="M781.473,916.281l-1.117-.721c.223-.345,5.535-8.485,11.711-9.858l.288,1.298c-5.641,1.254-10.83,9.202-10.882,9.282Z" style="fill: #2f1a31;"/>
          </g>
          <g style="opacity: .5;">
            <path d="M1060.942,844.477h184.302c5.307,0,9.615,4.308,9.615,9.615v106.411c0,5.307-4.309,9.616-9.617,9.616h-184.3c-5.307,0-9.616-4.309-9.616-9.616v-106.411c0-5.307,4.309-9.616,9.616-9.616Z" transform="translate(2306.186 1814.596) rotate(180)" style="fill: #96a7e2;"/>
          </g>
          <path d="M1101.81,809.89h184.301c5.307,0,9.616,4.309,9.616,9.616v106.41c0,5.307-4.309,9.616-9.616,9.616h-184.302c-5.307,0-9.616-4.309-9.616-9.616v-106.409c0-5.307,4.309-9.617,9.617-9.617Z" transform="translate(2387.92 1745.422) rotate(180)" style="fill: #96a7e2;"/>
          <g>
            <path d="M1192.947,996.357c-6.278-6.885-38.224-6.176-62.872-.86.032-1.322-.01-2.702-.134-4.146-2.621-30.534-8.707-72.559-24.025-70.013-10.474,1.739-7.332,103.155-7.332,103.155-.096,2.725-.117,5.633-.08,8.651-12.113-18.569-38.11-34.93-43.697-26.548-6.116,9.173,15.289,31.888,24.899,55.031,9.597,23.109,25.5,53.472,25.684,64.733h102.682c-.594-30.927-7.325-121.446-15.124-130.002Z" style="fill: #eaa97d;"/>
            <path d="M1135.62,967.499c-5.536.948-11.089-.751-13.687,30.215-1.301,15.487-2.371,64.238,12.245,61.782,14.615-2.456,19.607-57.71,19.607-57.71,0,0-.3,63.352,12.455,56.74,12.755-6.613,17.62-56.738,17.62-56.738,0,0-3.817,61.708,10.789,53.687,14.607-8.021,19.072-40.885,17.845-54.991-1.533-17.627-14.43-18.656-28.15-19.553,0,0-13.57-8.41-22.558-6.854-3.447.596-15.318-8.433-26.165-6.578Z" style="fill: #f7b686;"/>
          </g>
          <g>
            <path d="M671.106,1113.444v20.129c0,7.478,6.063,13.542,13.542,13.542h658.259c7.478,0,13.541-6.063,13.541-13.542v-13.428c-79.774-1.206-529.7-5.294-685.342-6.701Z" style="fill: #96a7e2;"/>
            <g>
              <rect x="1014.558" y="835.732" width="5.242" height="592.407" transform="translate(-120.443 2142.75) rotate(-89.679)" style="fill: #e7f2f0;"/>
              <polygon points="1015.825 1129.31 1016.542 1134.552 1313.367 1136.212 1313.394 1130.97 1015.825 1129.31" style="fill: #e28569;"/>
              <path d="M1026.006,1131.935c0-4.875-3.952-8.827-8.828-8.827s-8.826,3.951-8.826,8.827,3.952,8.826,8.826,8.826,8.828-3.951,8.828-8.826Z" style="fill: #e28569;"/>
            </g>
          </g>
          <g>
            <path d="M1332.904,788.728c0-3.607-2.924-6.531-6.531-6.531s-6.529,2.924-6.529,6.531,2.924,6.53,6.529,6.53,6.531-2.924,6.531-6.53Z" style="fill: #ced891;"/>
            <path d="M1309.295,788.728c0-3.607-2.924-6.531-6.531-6.531s-6.53,2.924-6.53,6.531,2.924,6.53,6.53,6.53,6.531-2.924,6.531-6.53Z" style="fill: #6f4975;"/>
            <path d="M1285.1,788.728c0-3.607-2.924-6.531-6.531-6.531s-6.529,2.924-6.529,6.531,2.923,6.53,6.529,6.53,6.531-2.924,6.531-6.53Z" style="fill: #e28569;"/>
          </g>
          <g>
            <path d="M1200.732,852.057h-89.37c-1.967,0-4.994-2.049-5.255-3.999-.536-4,3.283-5.142,5.249-5.142l89.376,1.988c1.967,0,3.576,1.609,3.576,3.577h0c0,1.967-1.609,3.576-3.576,3.576Z" style="fill: #b2c9c6;"/>
            <path d="M1177.517,835.265h-67.457c-1.484,0-3.769-1.647-3.966-3.213-.405-3.213,2.478-4.131,3.963-4.131l67.46,1.597c1.486,0,2.699,1.294,2.699,2.875h0c0,1.579-1.213,2.873-2.699,2.873Z" style="fill: #b2c9c6;"/>
            <path d="M1177.517,868.973h-67.457c-1.484,0-3.769-1.646-3.966-3.213-.405-3.213,2.478-4.131,3.963-4.131l67.46,1.598c1.486,0,2.699,1.292,2.699,2.873h0c0,1.581-1.213,2.873-2.699,2.873Z" style="fill: #b2c9c6;"/>
            <path d="M1188.295,901.906h80.418c1.77,0,4.493-1.844,4.728-3.598.482-3.598-2.952-4.627-4.723-4.627l-80.423,1.79c-1.77,0-3.217,1.448-3.217,3.218h0c0,1.771,1.448,3.217,3.217,3.217Z" style="fill: #b2c9c6;"/>
            <path d="M1209.184,917.128h60.699c1.336,0,3.391-1.481,3.569-2.891.364-2.891-2.229-3.717-3.565-3.717l-60.703,1.437c-1.337,0-2.429,1.163-2.429,2.586h0c0,1.423,1.093,2.586,2.429,2.586Z" style="fill: #b2c9c6;"/>
            <path d="M1270.265,877.029l-46.42,2.532c-3.706.202-6.754-2.881-6.512-6.583l2.848-43.42c.222-3.39,3.136-5.967,6.529-5.773l42.271,2.428c3.194.183,5.722,2.771,5.83,5.969l1.302,38.459c.114,3.366-2.485,6.205-5.848,6.389Z" style="fill: #b2c9c6;"/>
            <path d="M1170.749,916.535l-19.923,1.087c-1.591.087-2.899-1.236-2.794-2.825l1.221-18.635c.096-1.454,1.347-2.561,2.802-2.477l18.142,1.042c1.37.078,2.456,1.188,2.502,2.561l.559,16.506c.049,1.444-1.067,2.663-2.509,2.741Z" style="fill: #b2c9c6;"/>
            <path d="M1135.419,916.535l-19.922,1.087c-1.591.087-2.899-1.236-2.794-2.825l1.221-18.635c.096-1.454,1.347-2.561,2.802-2.477l18.142,1.042c1.371.078,2.456,1.188,2.502,2.561l.559,16.506c.049,1.444-1.067,2.663-2.51,2.741Z" style="fill: #b2c9c6;"/>
          </g>
          <g>
            <g style="opacity: .5;">
              <path d="M1266.789,991.351h57.548c6.584,0,11.93,5.346,11.93,11.93v78.957c0,6.584-5.345,11.929-11.929,11.929h-57.549c-6.584,0-11.93-5.346-11.93-11.93v-78.956c0-6.584,5.346-11.93,11.93-11.93Z" transform="translate(2591.126 2085.518) rotate(180)" style="fill: #96a7e2;"/>
            </g>
            <path d="M1270.219,1026.196h50.046c1.102,0,2.796-1.148,2.942-2.24.301-2.24-1.837-2.879-2.94-2.879l-50.049,1.113c-1.102,0-2.002.902-2.002,2.002h0c0,1.102.901,2.003,2.002,2.003Z" style="fill: #deebe9;"/>
            <path d="M1283.219,1016.793h37.775c.832,0,2.111-.922,2.221-1.8.227-1.798-1.387-2.313-2.218-2.313l-37.778.894c-.832,0-1.511.725-1.511,1.609h0c0,.885.679,1.609,1.511,1.609Z" style="fill: #deebe9;"/>
            <path d="M1283.219,1035.669h37.775c.832,0,2.111-.922,2.221-1.8.227-1.799-1.387-2.313-2.218-2.313l-37.778.894c-.832,0-1.511.724-1.511,1.609h0c0,.885.679,1.61,1.511,1.61Z" style="fill: #deebe9;"/>
            <path d="M1270.219,1063.949h50.046c1.102,0,2.796-1.148,2.942-2.24.301-2.24-1.837-2.88-2.94-2.88l-50.049,1.114c-1.102,0-2.002.901-2.002,2.002h0c0,1.102.901,2.003,2.002,2.003Z" style="fill: #deebe9;"/>
            <path d="M1283.219,1054.546h37.775c.832,0,2.111-.922,2.221-1.8.227-1.799-1.387-2.314-2.218-2.314l-37.778.894c-.832,0-1.511.725-1.511,1.609h0c0,.885.679,1.61,1.511,1.61Z" style="fill: #deebe9;"/>
            <path d="M1283.219,1073.422h37.775c.832,0,2.111-.922,2.221-1.798.227-1.8-1.387-2.314-2.218-2.314l-37.778.895c-.832,0-1.511.725-1.511,1.609h0c0,.885.679,1.609,1.511,1.609Z" style="fill: #deebe9;"/>
          </g>
        </g>
        <g>
          <path d="M585.402,773.628s-8.021,70.641,8.143,70.044c16.165-.598,48.938-30.836,113.073-23.873,64.135,6.963,142.374,23.343,192.397-59.392,50.015-82.737-57.619-110.14-57.619-110.14l-255.995,123.362h0Z" style="fill: #264c63;"/>
          <path d="M422.585,793.292c-7.526.523-14.916-2.198-20.306-7.476l-2.915-2.855c-4.24-4.151-3.649-11.138,1.227-14.52l300.253-208.272c5.012-3.476,10.845-5.584,16.921-6.113l298.71-26.015c4.057-.353,7.883,1.931,9.498,5.668h0c1.728,3.999.499,8.661-2.975,11.289l-295.075,223.146c-3.729,2.819-8.196,4.493-12.859,4.817l-292.478,20.332Z" style="fill: #436e8e;"/>
          <g>
            <path d="M510.969,1026.758c1.654-6.365,7.878-10.084,13.9-8.309,6.02,1.778,9.56,8.377,7.905,14.746-1.651,6.365-7.876,10.084-13.896,8.31-6.021-1.782-9.56-8.381-7.909-14.746h0Z" style="fill: #e28569;"/>
            <path d="M520.725,1030.015c-11.71-.883-13.308,111.788-13.308,111.788,0,0,7.664,3.744,11.405,2.825s5.501-16.144,5.501-16.144l.523,15.947s12.834.383,17.249-2.951c0,0-2.85-110.067-21.371-111.464h0Z" style="fill: #e28569;"/>
          </g>
          <path d="M516.525,1021.741l-1.744-229.816c-2.379-20.857,6.886-41.338,24.122-53.322l141.005-98.031c3.095-2.152,7.348-1.385,9.498,1.711h0c1.071,1.545.689,3.667-.855,4.74l-149.666,104.04c-11.515,8.005-17.696,21.69-16.09,35.62l1.96,237.746-8.231-2.689Z" style="fill: #e28569;"/>
        </g>
        <g>
          <path d="M1882.132,1429.255s-25.21-25.703-16.536-40.341c8.676-14.639,23.314,31.445,23.314,31.445,0,0-7.59-54.492,8.132-55.438,15.723-.947,0,55.438,0,55.438,0,0,5.828-13.147,11.521-13.96,5.692-.814,4.066,11.148-6.1,22.856h-20.331Z" style="fill: #bed5dc;"/>
          <path d="M1883.938,1429.901c-.073-.074-7.286-7.466-13.189-16.805-8.056-12.743-9.974-22.859-5.703-30.068,1.595-2.691,3.515-3.93,5.691-3.678,4.348.496,9.456,7.362,15.181,20.408,1.754,3.997,3.306,7.991,4.519,11.289-.442-4.597-.913-10.676-1.085-17.075-.486-18.005,1.505-29.865,5.916-35.252,1.706-2.082,3.786-3.211,6.183-3.355,2.329-.144,4.254.695,5.702,2.487,7.06,8.741.678,39.62-2.829,54.069,2.616-4.239,6.327-8.961,10.119-9.504,1.792-.256,3.224.414,4.025,1.887,2.288,4.199-.871,14.908-10.116,25.555l-1.393-1.209c9.09-10.469,11.584-20.353,9.889-23.465-.43-.79-1.112-1.088-2.144-.942-4.878.698-10.572,11.278-12.355,15.296l-1.732-.621c.034-.124,3.481-12.546,5.793-26.145,3.024-17.784,2.785-29.459-.693-33.763-1.066-1.32-2.434-1.914-4.156-1.805-1.889.114-3.48.991-4.866,2.683-9.918,12.112-3.565,58.68-3.5,59.15l-1.793.406c-3.29-10.355-13.453-37.416-20.876-38.263-1.412-.167-2.687.751-3.894,2.787-9.365,15.804,18.34,44.353,18.621,44.639l-1.317,1.293Z" style="fill: #42428e;"/>
        </g>
        <g>
          <path d="M1413.888,1430.277s10.027,1.822,9.636,4.001c-.628,3.517-9.739,3.744-9.739,3.744l.103-7.746Z" style="fill: #2f1a31;"/>
          <path d="M742.502,1425.867c-.442,0-.89-.052-1.338-.16-3.046-.737-4.917-3.803-4.181-6.849l5.584-23.088c.036-.151.079-.3.127-.448,2.29-6.924,8.974-11.497,16.26-11.111l199.58,10.484c3.129.164,5.533,2.835,5.37,5.964-.165,3.129-2.845,5.558-5.964,5.368l-199.581-10.485c-2.132-.121-4.086,1.182-4.828,3.164l-5.519,22.819c-.628,2.597-2.951,4.341-5.51,4.341Z" style="fill: #2f1a31;"/>
          <path d="M1356.032,1463.617l-634.917-12.752c-6.052-.143-10.862-5.132-10.781-11.185l.198-14.911c.08-6.01,4.953-10.853,10.964-10.894l634.107-3.591.428,53.334Z" style="fill: #e28569;"/>
          <path d="M710.549,1423.55l-39.671,2.065c-3.302.172-5.903,2.876-5.947,6.182l-.037,2.77c-.046,3.463,2.725,6.309,6.189,6.355l39.227.521.238-17.892Z" style="fill: #2f1a31;"/>
          <path d="M811.979,1413.25s-6.624,16.247-.529,39.737l40.444.951s-10.186-21.952.544-40.966l-40.459.279Z" style="fill: #2f1a31;"/>
          <path d="M1413.887,1430.32l-.094,7.082c-.026,1.975-1.206,3.751-3.017,4.539l-46.656,20.332c-6.827,2.974-14.887.976-19.328-5.002-3.246-4.368-5.722-10.746-4.898-19.851,1.055-11.647,3.959-18.445,7.069-22.411,3.298-4.205,8.93-5.813,14.012-4.161l50.792,16.512c1.279.417,2.138,1.615,2.12,2.959Z" style="fill: #96a7e2;"/>
          <path d="M790.064,1443.376h-.013l-67.499-.898c-.482-.006-.868-.402-.861-.884.006-.479.397-.862.873-.862.004,0,.008,0,.011,0l67.5.898c.482.006.867.402.86.884-.006.478-.395.861-.871.861Z" style="fill: #2f1a31;"/>
          <path d="M1321.618,1450.44s-.007,0-.011,0l-456.492-6.066c-.482-.006-.867-.402-.861-.884.007-.478.396-.862.873-.862.004,0,.007,0,.012,0l456.491,6.066c.482.006.868.402.861.884-.006.478-.396.862-.873.862Z" style="fill: #2f1a31;"/>
        </g>
        <g>
          <path d="M549.744,1403.836s-24.854-25.339-16.302-39.77c8.551-14.432,22.983,31.001,22.983,31.001,0,0-7.483-53.722,8.018-54.654,15.5-.933,0,54.654,0,54.654,0,0,5.745-12.961,11.358-13.763,5.612-.802,4.009,10.989-6.013,22.532h-20.043Z" style="fill: #bed5dc;"/>
          <path d="M551.524,1404.472c-1.171-1.194-28.565-29.432-18.623-46.208,1.571-2.652,3.458-3.872,5.61-3.628,4.287.49,9.322,7.259,14.966,20.12,1.719,3.917,3.241,7.832,4.433,11.072-1.368-14.063-2.958-42.075,4.784-51.529,1.681-2.053,3.732-3.166,6.095-3.309,2.304-.141,4.196.686,5.62,2.453,6.962,8.616.669,39.059-2.787,53.303,2.578-4.178,6.237-8.835,9.975-9.368,1.768-.251,3.178.408,3.967,1.86,2.256,4.14-.857,14.697-9.972,25.194l-1.374-1.193c8.961-10.32,11.42-20.065,9.749-23.131-.424-.779-1.095-1.076-2.114-.929-4.813.687-10.424,11.118-12.18,15.079l-1.707-.613c.034-.121,3.431-12.368,5.712-25.774,2.981-17.531,2.744-29.04-.685-33.284-1.05-1.3-2.39-1.879-4.096-1.78-1.863.113-3.432.978-4.797,2.646-9.777,11.939-3.514,57.849-3.45,58.311l-1.767.401c-3.243-10.208-13.263-36.886-20.58-37.721-1.398-.155-2.65.74-3.84,2.748-9.236,15.587,18.081,43.726,18.358,44.008l-1.298,1.273Z" style="fill: #42428e;"/>
        </g>
        <g>
          <path d="M1491.384,1485.48s-19.069-19.441-12.508-30.513c6.561-11.072,17.634,23.784,17.634,23.784,0,0-5.741-41.217,6.151-41.932,11.892-.716,0,41.932,0,41.932,0,0,4.408-9.944,8.713-10.559,4.307-.615,3.076,8.432-4.613,17.288h-15.378Z" style="fill: #bed5dc;"/>
          <path d="M1492.75,1485.969c-.899-.916-21.917-22.581-14.288-35.453,1.205-2.035,2.655-2.971,4.304-2.782,3.29.375,7.152,5.569,11.483,15.436,1.318,3.005,2.486,6.009,3.402,8.496-1.051-10.79-2.27-32.283,3.67-39.536,1.29-1.576,2.863-2.429,4.677-2.539,1.761-.106,3.217.526,4.312,1.882,5.34,6.61.514,29.968-2.139,40.897,1.979-3.206,4.786-6.779,7.654-7.189,1.353-.195,2.437.313,3.043,1.427,1.732,3.177-.658,11.276-7.65,19.33l-1.055-.914c6.875-7.918,8.762-15.395,7.48-17.748-.326-.598-.841-.823-1.622-.713-3.692.528-7.997,8.53-9.344,11.569l-1.309-.47c.025-.094,2.632-9.489,4.382-19.775,2.286-13.451,2.105-22.281-.525-25.537-.806-.998-1.823-1.443-3.144-1.366-1.429.087-2.632.75-3.68,2.029-7.501,9.158-2.697,44.385-2.647,44.739l-1.356.307c-2.488-7.832-10.176-28.299-15.79-28.941-1.072-.117-2.033.568-2.945,2.108-7.086,11.959,13.872,33.549,14.084,33.765l-.996.977Z" style="fill: #42428e;"/>
        </g>
        <g>
          <path d="M1620.236,652.547c0-12.787,10.366-23.153,23.153-23.153s23.154,10.366,23.154,23.153-10.366,23.153-23.154,23.153-23.153-10.366-23.153-23.153Z" style="fill: #264c63;"/>
          <path d="M1601.133,632.194c-2.118,0-4.261-.591-6.173-1.829-5.271-3.415-6.777-10.458-3.363-15.73,11.429-17.646,30.791-28.181,51.793-28.181,19.638,0,38.276,9.484,49.858,25.37,3.701,5.076,2.585,12.191-2.49,15.892-5.075,3.702-12.191,2.586-15.892-2.49-7.313-10.033-19.081-16.023-31.475-16.023-13.257,0-25.481,6.654-32.7,17.8-2.178,3.362-5.829,5.192-9.558,5.192Z" style="fill: #264c63;"/>
          <path d="M1567.366,608.925c-2.117,0-4.262-.591-6.171-1.829-5.274-3.414-6.779-10.457-3.365-15.729,19.023-29.372,51.249-46.908,86.201-46.908,32.685,0,63.706,15.786,82.984,42.227,3.701,5.076,2.587,12.191-2.49,15.892-5.074,3.7-12.189,2.587-15.891-2.49-15.011-20.59-39.162-32.881-64.603-32.881-27.207,0-52.294,13.654-67.107,36.525-2.177,3.362-5.829,5.193-9.558,5.193Z" style="fill: #264c63;"/>
        </g>
      </g>
    </g>
  </g>
</svg>