<?xml version="1.0" encoding="utf-8"?>
<!-- Generator: Adobe Illustrator 27.5.0, SVG Export Plug-In . SVG Version: 6.00 Build 0)  -->
<svg version="1.1" xmlns="http://www.w3.org/2000/svg" xmlns:xlink="http://www.w3.org/1999/xlink" x="0px" y="0px"
	 viewBox="0 0 750 500" style="enable-background:new 0 0 750 500;" xml:space="preserve">
<g id="BACKGROUND">
	<rect style="fill:#FFFFFF;" width="750" height="500"/>
</g>
<g id="OBJECTS">
	<path style="fill:#EEF6FF;" d="M681.644,471.164c35.372-35.506,46.4-91.902,24.915-145.453
		c-12.351-30.784-46.275-62.637-73.093-81.491c-52.338-36.796-118.864-43.664-165.835-88.817
		c-28.053-26.967-45.977-63.59-79.454-84.32c-30.099-18.638-67.737-25.187-102.369-17.879
		c-43.825,9.247-73.774,37.856-95.897,75.713c-20.149,34.481-40.527,69.429-66.256,100.119
		c-21.841,26.052-56.548,42.872-69.683,75.622c-21.625,53.92-8.804,117.315,22.273,166.505H681.644z"/>
	<g>
		<g>
			<polygon style="fill:#FCD4D2;" points="176.884,275.575 127.438,275.575 115,216.548 164.446,216.548 			"/>
			<polygon style="fill:#FCD4D2;" points="115.154,275.575 127.438,275.575 115,216.548 102.716,216.548 			"/>
			
				<line style="fill:none;stroke:#E0A3A2;stroke-width:1.5;stroke-miterlimit:10;" x1="115" y1="216.548" x2="127.438" y2="275.575"/>
			
				<line style="fill:none;stroke:#E0A3A2;stroke-width:1.5;stroke-miterlimit:10;" x1="129.145" y1="222.147" x2="155.882" y2="222.147"/>
			
				<line style="fill:none;stroke:#E0A3A2;stroke-width:1.5;stroke-miterlimit:10;" x1="105.12" y1="228.674" x2="117.453" y2="228.674"/>
			
				<line style="fill:none;stroke:#E0A3A2;stroke-width:1.5;stroke-miterlimit:10;" x1="114.143" y1="271.067" x2="126.476" y2="271.067"/>
			
				<line style="fill:none;stroke:#E0A3A2;stroke-width:1.5;stroke-miterlimit:10;" x1="113.141" y1="267.403" x2="125.474" y2="267.403"/>
		</g>
		<g>
			
				<rect x="103.271" y="94.831" transform="matrix(0.9723 -0.2336 0.2336 0.9723 -27.415 30.2938)" style="fill:#FCD4D2;" width="21.845" height="72.124"/>
			
				<line style="fill:none;stroke:#E0A3A2;stroke-width:1.5;stroke-miterlimit:10;" x1="99.185" y1="103.521" x2="115.131" y2="99.69"/>
			
				<line style="fill:none;stroke:#E0A3A2;stroke-width:1.5;stroke-miterlimit:10;" x1="100.383" y1="108.506" x2="116.328" y2="104.675"/>
			
				<line style="fill:none;stroke:#E0A3A2;stroke-width:1.5;stroke-miterlimit:10;" x1="113.226" y1="161.969" x2="129.171" y2="158.139"/>
		</g>
		<g>
			
				<rect x="125.774" y="94.702" transform="matrix(0.9723 -0.2336 0.2336 0.9723 -26.6398 36.5812)" style="fill:#FFE3DE;" width="30.702" height="72.124"/>
			
				<line style="fill:none;stroke:#F9D4CF;stroke-width:1.5;stroke-miterlimit:10;" x1="122.884" y1="104.167" x2="145.295" y2="98.784"/>
			
				<line style="fill:none;stroke:#F9D4CF;stroke-width:1.5;stroke-miterlimit:10;" x1="124.081" y1="109.152" x2="146.492" y2="103.769"/>
			
				<line style="fill:none;stroke:#F9D4CF;stroke-width:1.5;stroke-miterlimit:10;" x1="136.925" y1="162.616" x2="159.336" y2="157.232"/>
		</g>
		<g>
			<path style="fill:#FFD797;" d="M181.108,275.575c6.855,0,12.413,5.557,12.413,12.413c0,6.855-5.557,12.413-12.413,12.413h-68.847
				v-24.826H181.108z"/>
			<path style="fill:#F9C470;" d="M123.183,275.575c6.855,0,12.413,5.557,12.413,12.413c0,6.855-5.557,12.413-12.413,12.413H93.09
				v-24.826H123.183z"/>
			<path style="fill:#FFFFFF;" d="M122.35,280.175c4.315,0,7.813,3.498,7.813,7.813c0,4.315-3.498,7.813-7.813,7.813H93.09v-15.625
				H122.35z"/>
			
				<line style="fill:none;stroke:#292944;stroke-width:1.5;stroke-miterlimit:10;" x1="129.903" y1="291.098" x2="93.09" y2="291.098"/>
			
				<line style="fill:none;stroke:#292944;stroke-width:1.5;stroke-miterlimit:10;" x1="129.903" y1="285.442" x2="93.09" y2="285.442"/>
			<path style="fill:none;stroke:#292944;stroke-width:1.5;stroke-miterlimit:10;" d="M137.004,280.164
				c4.163,5.122,4,11.987-0.408,17.162"/>
			<path style="fill:none;stroke:#292944;stroke-width:1.5;stroke-miterlimit:10;" d="M142.622,280.164
				c4.163,5.122,4.001,11.987-0.408,17.162"/>
			<path style="fill:none;stroke:#292944;stroke-width:1.5;stroke-miterlimit:10;" d="M181.893,280.164
				c4.163,5.122,4.001,11.987-0.408,17.162"/>
		</g>
		<g>
			<polygon style="fill:#EDB2CD;" points="224.963,300.401 176.869,300.401 161.561,227.752 209.655,227.752 			"/>
			<polygon style="fill:#DD97BA;" points="210.881,252.557 174.16,252.557 171.16,238.321 207.881,238.321 			"/>
			<polygon style="fill:#EDB2CD;" points="161.751,300.401 176.869,300.401 161.561,227.752 146.443,227.752 			"/>
			<polygon style="fill:#DD97BA;" points="160.191,275.261 167.703,275.261 160.097,239.163 152.585,239.163 			"/>
			
				<line style="fill:none;stroke:#292944;stroke-width:1.5;stroke-miterlimit:10;" x1="161.561" y1="227.752" x2="176.869" y2="300.401"/>
			
				<line style="fill:none;stroke:#292944;stroke-width:1.5;stroke-miterlimit:10;" x1="150.086" y1="232.381" x2="159.402" y2="232.381"/>
			
				<line style="fill:none;stroke:#292944;stroke-width:1.5;stroke-miterlimit:10;" x1="188.797" y1="289.145" x2="210.285" y2="289.145"/>
			
				<line style="fill:none;stroke:#292944;stroke-width:1.5;stroke-miterlimit:10;" x1="162.946" y1="293.835" x2="172.262" y2="293.835"/>
			
				<line style="fill:none;stroke:#292944;stroke-width:1.5;stroke-miterlimit:10;" x1="193.654" y1="293.835" x2="208.507" y2="293.835"/>
		</g>
		<g>
			
				<rect x="157.372" y="95.585" transform="matrix(0.9723 -0.2336 0.2336 0.9723 -26.1056 42.8598)" style="fill:#FFD797;" width="21.057" height="72.124"/>
			
				<line style="fill:none;stroke:#E5B97F;stroke-width:1.5;stroke-miterlimit:10;" x1="153.179" y1="104.205" x2="168.55" y2="100.513"/>
			
				<line style="fill:none;stroke:#E5B97F;stroke-width:1.5;stroke-miterlimit:10;" x1="167.22" y1="162.654" x2="182.59" y2="158.961"/>
			
				<line style="fill:none;stroke:#E5B97F;stroke-width:1.5;stroke-miterlimit:10;" x1="168.976" y1="157.39" x2="178.635" y2="155.069"/>
		</g>
		<g>
			
				<rect x="178.834" y="95.435" transform="matrix(0.9727 -0.2319 0.2319 0.9727 -25.2206 48.4283)" style="fill:#F9C470;" width="29.118" height="72.124"/>
			
				<line style="fill:none;stroke:#CE9659;stroke-width:1.5;stroke-miterlimit:10;" x1="175.777" y1="104.731" x2="197.04" y2="99.662"/>
			
				<line style="fill:none;stroke:#CE9659;stroke-width:1.5;stroke-miterlimit:10;" x1="177.042" y1="110.038" x2="198.306" y2="104.97"/>
			
				<line style="fill:none;stroke:#CE9659;stroke-width:1.5;stroke-miterlimit:10;" x1="189.716" y1="163.204" x2="210.979" y2="158.135"/>
			<path style="fill:none;stroke:#CE9659;stroke-width:1.5;stroke-miterlimit:10;" d="M202.381,142.389
				c1.606,6.737-0.084,12.912-3.774,13.792c-3.691,0.88-7.984-3.869-9.59-10.606c-1.606-6.738,0.084-12.913,3.774-13.792
				C196.481,130.903,200.775,135.651,202.381,142.389z"/>
		</g>
		<g>
			<rect x="88.799" y="142.316" style="fill:#EFB5A0;" width="76.695" height="27.671"/>
			<rect x="134.04" y="142.316" style="fill:#F4CABD;" width="59.353" height="27.671"/>
			<rect x="140.777" y="147.662" style="fill:#FFFFFF;" width="52.616" height="16.98"/>
			
				<line style="fill:none;stroke:#292944;stroke-width:1.5;stroke-miterlimit:10;" x1="140.777" y1="152.931" x2="193.393" y2="152.931"/>
			
				<line style="fill:none;stroke:#292944;stroke-width:1.5;stroke-miterlimit:10;" x1="140.777" y1="156.897" x2="193.393" y2="156.897"/>
			
				<line style="fill:none;stroke:#292944;stroke-width:1.5;stroke-miterlimit:10;" x1="140.777" y1="161.459" x2="193.393" y2="161.459"/>
			
				<line style="fill:none;stroke:#292944;stroke-width:1.5;stroke-miterlimit:10;" x1="134.04" y1="142.316" x2="134.04" y2="169.988"/>
			
				<line style="fill:none;stroke:#292944;stroke-width:1.5;stroke-miterlimit:10;" x1="127.334" y1="142.316" x2="127.334" y2="169.988"/>
			
				<line style="fill:none;stroke:#292944;stroke-width:1.5;stroke-miterlimit:10;" x1="96.455" y1="146.152" x2="96.455" y2="166.152"/>
			
				<line style="fill:none;stroke:#292944;stroke-width:1.5;stroke-miterlimit:10;" x1="119.97" y1="146.152" x2="119.97" y2="166.152"/>
		</g>
		
			<line style="fill:none;stroke:#231F20;stroke-width:1.5;stroke-miterlimit:10;" x1="73.769" y1="300.401" x2="359.621" y2="300.401"/>
		
			<line style="fill:none;stroke:#231F20;stroke-width:1.5;stroke-miterlimit:10;" x1="73.769" y1="169.761" x2="359.621" y2="169.761"/>
		<g>
			<g>
				<path style="fill:#98A48D;" d="M272.593,105.078c2.004-3.164,3.739-6.48,6.309-9.314c4.874-5.374,10.646-3.987,16.918-4.178
					c4.09-0.125,8.13-1.338,12.199-1.966c3.94-0.607,8.19-0.568,12.105-0.498c11.005,0.196,19.368,7.615,26.753,14.631
					c2.262,2.149,6.203,4.477,7.342,7.468c0.932,2.446,1.213,2.25-1.35,3.206c-3.582,1.336-8.924,0.208-12.895,1.293
					c-1.883,0.515-3.315,1.818-5.159,2.544c-2.229,0.878-4.614,1.265-6.93,1.348c-3.96,0.142-7.85-0.58-11.285-2.093
					c-5.215-2.298-9.802-6.477-15.824-6.099c-4.447,0.28-8.555,3.052-12.027,6.03c-3.472,2.978-6.721,6.342-10.826,8.387
					c-3.754,1.87-8.075,2.487-11.947,1.706c-0.86-0.174-1.729-0.431-2.328-1.005c-0.537-0.516-0.804-1.24-0.982-1.966
					c-0.795-3.241-0.014-6.951,2.094-9.942c1.502-2.132,3.597-3.858,5.252-5.896C270.961,107.565,271.798,106.334,272.593,105.078z"
					/>
				<path style="fill:none;stroke:#2B301F;stroke-width:1.5;stroke-miterlimit:10;" d="M354.813,113.462
					c-3.492-2.152-9.486-4.19-13.376-5.718c-1.746-0.686-3.596-1.118-5.181-2.056c-1.944-1.151-3.871-2.327-5.806-3.491
					c-2.743-1.649-5.593-3.335-8.888-3.714c-4.293-0.494-8.704,1.297-13.078,1.471c-3.542,0.141-7.004-0.783-10.546-0.368
					c-2.872,0.336-5.695,1.574-7.927,3.477c-2.777,2.367-5.194,5.317-7.96,7.793c-4.746,4.249-10.368,7.063-14.482,12.061
					c-3.4,4.131-5.882,9.019-7.183,14.21c-1.443,5.757-0.987,11.84-1.497,17.713"/>
			</g>
			<g>
				<path style="fill:#98A48D;" d="M213.511,112.174c1.635,0.326,3.187,0.981,4.809,1.37c2.736,0.657,5.593,0.545,8.399,0.345
					c3.125-0.222,6.35-0.535,9.322,0.454c4.257,1.417,7.224,5.235,9.564,9.064c0.37,0.605,0.744,1.271,0.675,1.977
					c-0.085,0.859-0.796,1.51-1.501,2.007c-3.964,2.795-9.374,3.403-13.859,1.557c-1.893-0.779-3.668-1.973-5.702-2.202
					c-3.298-0.372-6.575,1.878-9.805,1.118c-2.468-0.58-4.214-2.764-6.493-3.875c-2.867-1.398-6.298-0.98-9.322-1.993
					c-0.38-0.127-0.766-0.285-1.04-0.577c-1.993-2.117,3.34-5.616,4.735-6.659C206.226,112.563,209.852,111.443,213.511,112.174z"/>
				<path style="fill:none;stroke:#2B301F;stroke-width:1.5;stroke-miterlimit:10;" d="M198.704,121.176
					c2.065-2.723,5.912-3.411,9.311-3.063c3.4,0.348,6.694,1.511,10.109,1.647c2.327,0.093,4.649-0.295,6.978-0.283
					c3.317,0.018,6.57,0.845,9.784,1.666c5.391,1.378,10.963,3.726,14.69,8.133c4.305,5.09,6.387,11.934,7.301,18.429"/>
			</g>
			<polygon style="fill:#EDB2CD;" points="291.435,146.408 286.532,169.025 232.539,169.025 227.636,146.408 			"/>
			<g>
				<path style="fill:#98A48D;" d="M231.338,163.743c-1.523,3.331-5.252,5.113-8.041,7.572c-5.602,4.941-7.459,12.775-11.307,19.178
					c-0.409,0.68-0.88,1.38-1.602,1.709c-1.598,0.726-3.432-0.854-3.797-2.571c-0.365-1.717,0.195-3.475,0.419-5.216
					c0.83-6.456-2.996-12.818-2.266-19.286c0.51-4.521,3.186-8.508,4.264-12.929c0.988-4.052,0.738-10.188,4.709-12.786
					c2.089-1.367,5.481-1.718,7.863-2.699c2.869-1.182,5.647-2.577,8.633-3.46c5.575-1.648,12.853-0.762,15.358,4.484
					c0.232,0.486,0.418,1.031,0.303,1.557c-0.294,1.348-2.087,1.545-3.461,1.677c-5.716,0.551-10.624,5.712-10.887,11.449
					c-0.167,3.642,1.296,7.436,0.009,10.848C231.474,163.431,231.408,163.589,231.338,163.743z"/>
				<path style="fill:none;stroke:#2B301F;stroke-width:1.5;stroke-miterlimit:10;" d="M258.121,146.408
					c0-2.347-4.385-8.305-9.133-10.405c-4.749-2.1-10.645-2.207-15.494-0.281c-5.054,2.007-8.658,5.902-12.066,9.661
					c-2.237,2.467-4.498,4.969-5.938,7.835c-3.652,7.27-1.77,14.469-3.607,21.9c-0.496,2.008-1.318,3.947-1.935,5.931
					c-1.219,3.917-1.636,8.014-1.227,12.051"/>
			</g>
			<g>
				<path style="fill:#6D8257;" d="M243.592,138.445c4.008-0.957,8.97,1.237,9.668,5.298c-2.929-0.612-5.039,2.739-5.908,5.603
					c-1.483,4.887-2.166,10.015-2.014,15.119c0.242,8.125,0.073,18.678-3.384,26.167c-1.794,3.887-4.726,7.173-6.432,11.1
					c-1.336,3.077-1.428,11.228-4.05,13.248c-3.645,2.808-5.547-7.19-6.193-9.554c-1.372-5.027-0.158-6.109,0.202-11.078
					c0.29-4.002-0.678-8.363-1.737-12.292c-1.107-4.108-1.314-8.398-0.653-12.614C224.673,159.364,232.837,141.014,243.592,138.445z
					"/>
				<path style="fill:none;stroke:#2B301F;stroke-width:1.5;stroke-miterlimit:10;" d="M255.632,146.408
					c0-2.091-3.404-5.163-5.942-5.505c-2.81-0.379-5.742,0.248-7.885,2.184c-2.733,2.47-3.688,6.299-4.507,9.89
					c-1.086,4.757-2.172,9.515-3.257,14.272c-0.673,2.948-1.401,5.879-2.131,8.814c-0.548,2.202-1.098,4.416-1.272,6.678
					c-0.34,4.41,0.756,8.812,0.723,13.235c-0.049,6.526-2.545,13.099-1.045,19.451"/>
			</g>
			<g>
				<path style="fill:#98A48D;" d="M311.584,130.577c1.717,0.534,3.446,1.167,4.799,2.445c1.297,1.226,2.166,2.968,3.217,4.494
					c2.631,3.823,6.375,6.263,9.732,9.176c11.125,9.656,19.289,39.424,16.599,43.591c-2.69,4.166-6.877-3.773-10.54-5.092
					c-4.484-1.615-9.479-2.887-12.201-7.283c-3.538-5.714-2.263-15.323-7.006-19.607c-1.024-0.925-2.254-1.507-3.321-2.365
					c-2.65-2.133-4.086-5.768-5.682-9.094c-1.872-3.903-4.258-7.703-7.853-9.224c-1.718-0.727-4.594-1.147-4.89-3.84
					c-0.308-2.804,1.858-3.658,3.764-4.207C302.707,128.272,307.44,129.288,311.584,130.577z"/>
				<path style="fill:none;stroke:#2B301F;stroke-width:1.5;stroke-miterlimit:10;" d="M345.096,190.285
					c-1.823-4.92-3.683-9.912-6.651-13.853c-2.965-3.938-6.962-6.725-9.427-11.154c-2.295-4.124-3.095-9.393-5.474-13.443
					c-2.299-3.914-5.891-6.391-8.676-9.801c-1.543-1.889-2.842-4.069-4.521-5.787c-4.784-4.897-14.526-5.417-20.684-3.566
					c-9.493,2.853-14.848,11.688-19.441,19.84"/>
			</g>
			<g>
				<path style="fill:none;stroke:#2B301F;stroke-width:1.5;stroke-miterlimit:10;" d="M282.434,127.731
					c-4.795-0.007-8.578,2.094-11.13,4.204c-5.208,4.306-8.019,9.385-8.011,14.472"/>
				<path style="fill:#6D8257;" d="M279.68,125.973c4.166,0.256,8.386-1.571,12.426-0.653c2.259,0.513,4.155,1.834,5.789,3.277
					c2.873,2.539,4.657,5.827,7.105,8.618c3.757,4.283,4.281,8.662,4.743,14.214c0.436,5.234,2.485,8.947,4.72,13.537
					c2.396,4.921,1.182,9.623,2.207,14.751c0.423,2.118,1.444,4.066,2.055,6.137c1.914,6.482,0.653,13.162-2.652,18.92
					c-1.084,1.889-3.542,3.943-5.578,2.78c-0.821-0.469-1.202-1.322-1.564-2.112c-1.391-3.038-3.193-5.934-5.358-8.612
					c-6.053-7.487-15.228-13.857-16.637-22.909c-0.534-3.427,0.124-7.032-1.265-10.275c-0.822-1.92-2.306-3.566-3.438-5.364
					c-4.685-7.448-3.167-17.184-8.928-24.046c-2.528-0.947-2.713-3.585-1.119-5.527C273.78,126.77,276.932,125.804,279.68,125.973z"
					/>
				<path style="fill:none;stroke:#2B301F;stroke-width:1.5;stroke-miterlimit:10;" d="M311.877,207.835
					c1.627-7.974-0.832-16.185-4.526-23.626c-1.779-3.585-3.866-7.111-4.708-10.943c-0.664-3.019-0.529-6.12-0.628-9.191
					c-0.106-3.286-0.482-6.564-1.126-9.804c-0.458-2.305-1.067-4.629-2.401-6.663c-1.123-1.712-2.715-3.152-4.068-4.736
					c-1.877-2.197-2.834-4.837-4.477-7.151c-2.326-3.276-3.981-7.904-8.182-9.791"/>
			</g>
			<g>
				<path style="fill:#98A48D;" d="M278.242,158.514c0.599,4.223,0.31,8.537,0.955,12.753c1.126,7.362,5.057,14.167,5.489,21.603
					c0.251,4.307-0.692,8.583-1.628,12.794c-1.302,5.853-2.604,11.705-3.906,17.558c-0.488,2.195-1.013,4.469-2.395,6.242
					c-1.382,1.773-3.885,2.887-5.938,1.969c-2.94-1.315-3.011-5.333-3.42-8.528c-1.329-10.392-10.798-19.09-9.719-29.511
					c0.263-2.543,1.159-4.97,1.795-7.446c2.882-11.217,0.422-23.04,3.216-34.259c1.004-4.031,2.803-11.156,8.21-8.428
					C275.415,145.54,277.601,153.998,278.242,158.514z"/>
				<path style="fill:none;stroke:#2B301F;stroke-width:1.5;stroke-miterlimit:10;" d="M272.442,231.44
					c0.754-9.476,1.509-18.951,2.263-28.427c0.403-5.061,0.804-10.181-0.017-15.191c-0.586-3.58-1.785-7.031-2.508-10.586
					c-1.278-6.279-1.188-12.707-1.359-19.082c-0.09-3.356,0.562-23.087-7.161-18.863c-0.682,0.373-1.173,1.016-1.569,1.685
					c-1.019,1.721-1.462,3.732-1.462,5.432"/>
			</g>
		</g>
		<g>
			<circle style="fill:#F9EFCF;" cx="577.959" cy="111.522" r="51.266"/>
			
				<circle style="fill:none;stroke:#616184;stroke-width:1.5;stroke-linejoin:round;stroke-miterlimit:10;" cx="577.959" cy="111.522" r="45.45"/>
			
				<line style="fill:none;stroke:#616184;stroke-width:1.5;stroke-linejoin:round;stroke-miterlimit:10;" x1="577.959" y1="69.425" x2="577.959" y2="75.639"/>
			
				<line style="fill:none;stroke:#616184;stroke-width:1.5;stroke-linejoin:round;stroke-miterlimit:10;" x1="577.959" y1="147.762" x2="577.959" y2="153.976"/>
			
				<line style="fill:none;stroke:#616184;stroke-width:1.5;stroke-linejoin:round;stroke-miterlimit:10;" x1="620.234" y1="111.7" x2="614.02" y2="111.7"/>
			
				<line style="fill:none;stroke:#616184;stroke-width:1.5;stroke-linejoin:round;stroke-miterlimit:10;" x1="541.897" y1="111.7" x2="535.683" y2="111.7"/>
			<polyline style="fill:none;stroke:#616184;stroke-width:1.5;stroke-linejoin:round;stroke-miterlimit:10;" points="
				598.592,103.081 577.959,111.522 591.512,78.772 			"/>
		</g>
	</g>
	<g>
		<g>
			<g>
				<path style="fill:#8E5034;" d="M388.221,468.423c23.064-58.515,28.848-130.466,43.02-191.969
					c1.74-7.55,3.712-15.225,7.901-21.65c7.948-12.19,22.459-17.703,36.057-18.925c17.568-1.579,36.333-1.974,54.306-0.109
					c13.511,1.402,27.759,2.831,40.255,8.801c9.049,4.324,15.291,12.488,18.447,22.22c3.492,10.771,3.921,22.436,4.736,33.679
					c4.102,56.545-3.513,113.98-22.175,167.256"/>
				<path style="fill:none;stroke:#6D3B26;stroke-width:1.5;stroke-miterlimit:10;" d="M555.605,467.765
					c17.727-50.961,24.961-105.9,21.064-159.989c-0.775-10.754-1.182-21.913-4.499-32.215c-2.997-9.309-8.927-17.119-17.523-21.255
					c-11.869-5.71-25.404-7.078-38.238-8.419c-15.984-1.67-32.445-1.68-48.47-0.443c-12.045,0.929-24.344,4.289-30.47,14.983"/>
			</g>
			<g>
				<path style="fill:#ED8E6E;" d="M239.979,349.025c0,0,9.263,28.241,13.907,40.994c5.731,15.738,11.598,31.443,17.922,46.954
					c6.773,16.611,17.918,33.905,37.892,33.905c19.811,0,31.073-8.57,41.293-23.943c10.03-15.087,27.374-57.887,27.374-57.887
					l-57.047-25.865l-10.473,21.93c0,0-27.598-37.613-26.668-43.917c0.651-4.415,2.316-8.628,2.721-13.087
					c0.608-6.711-1.795-13.383-1.526-20.116c0.11-2.757,0.467-6.032-1.675-7.77c-1.926-1.562-5.344-0.878-6.975,0.863
					c-1.856,1.981-1.749,6.234-2.438,8.91c-0.319,1.239-0.694,2.513-1.525,3.485c-1.2,1.403-3.204,1.936-5.035,1.7
					c-1.831-0.236-3.512-1.145-5.008-2.228c-1.13-0.818-2.268-1.78-3.656-1.92c-1.454-0.147-3.304,0.803-4.843,0.936
					c-2.738,0.236-4.6,2.819-5.936,5.221c-3.825,6.875-6.547,14.362-8.032,22.089C239.401,343.704,239.979,349.025,239.979,349.025z
					"/>
				<path style="fill:none;stroke:#231F20;stroke-width:1.5;stroke-miterlimit:10;" d="M310.848,385.114
					c0,0,14.072,21.664,16.388,25.907c4.745,8.691,6.211,18.354,6.211,18.354"/>
				<path style="fill:#FFFFFF;" d="M392.428,363.015l-16.365,35.027l-58.242-28.692c0,0,10.094-24.22,14.104-34.213
					c10.171-25.347,19.136-36.922,26.98-43.024c18.07-14.054,28.832-13.091,44.403-16.438"/>
				
					<line style="fill:none;stroke:#231F20;stroke-width:1.5;stroke-miterlimit:10;" x1="381.938" y1="386.2" x2="323.489" y2="355.704"/>
				<path style="fill:#FFFFFF;" d="M394.887,277.522l-25.594,11.544l7.563,79.118c0,0,21.229,50.769,22.323,60.694
					s3.687,24.049,3.687,24.049l143.226-5.726l-27.102-128.987l-43.802-48.705c0,0-4.886-0.415-6.746-0.443
					c-11.806-0.179-32.44-0.551-32.44-0.551L394.887,277.522z"/>
				<path style="fill:#E5C6B5;" d="M388.13,470.878c2.92-13.644,4.205-26.867,2.198-43.945
					c-1.823-15.511-7.135-28.386-12.142-43.027c-3.375-9.87-6.126-20.031-6.773-30.484c-0.543-8.767,0.392-17.551,1.326-26.286
					l83.684-4.182c0,0,8.949,22.02,30.931,34.193c21.352,11.824,41.168,1.656,41.168,1.656s18.79,67.558,21.218,83.962
					c2.894,19.548,2.894,28.113,2.894,28.113H388.13z"/>
				<path style="fill:#E5C6B5;" d="M475.37,269.085l-17.678-0.753c-7.892,20.904-11.766,41.147-11.783,63.242
					c-0.003,4.303,3.942,8.652,8.796,7.754c5.243-0.971,7.202-5.492,7.511-9.612c0.425-5.655,1.115-11.29,2.064-16.882
					C466.835,297.785,469.203,283.085,475.37,269.085z"/>
				<path style="fill:#E5C6B5;" d="M391.462,277.256c-6.241,1.16-18.028,5.784-18.028,5.784
					c-2.182,19.279-0.284,39.841,2.499,52.675c0.511,2.357,1.31,4.78,3.075,6.424c2.208,2.057,5.8,2.442,8.393,0.899
					c6.228-3.706,2.587-14.467,2.126-20.109C388.284,307.715,389.768,285.474,391.462,277.256z"/>
				<path style="fill:none;stroke:#231F20;stroke-width:1.5;stroke-miterlimit:10;" d="M393.43,285.231
					c1.404,3.627,4.084,6.745,7.458,8.677c3.375,1.932,7.421,2.665,11.259,2.039"/>
				<path style="fill:none;stroke:#231F20;stroke-width:1.5;stroke-miterlimit:10;" d="M417.147,296.066
					c16.002-3.493,29.314-14.465,33.65-27.735"/>
				<path style="fill:none;stroke:#231F20;stroke-width:1.5;stroke-miterlimit:10;" d="M445.909,323.48
					c-0.301,4.251-0.647,8.997,1.276,12.952c2.271,4.672,8.589,6.712,12.346,2.448c1.391-1.578,1.782-3.777,2.119-5.855"/>
				<path style="fill:none;stroke:#231F20;stroke-width:1.5;stroke-miterlimit:10;" d="M374.065,328.693
					c0.474,2.979,1.113,5.932,1.913,8.841c0.343,1.249,0.739,2.531,1.59,3.507c1.702,1.952,4.705,2.11,7.232,1.541
					c0.587-0.132,1.177-0.3,1.681-0.628c0.57-0.372,0.994-0.928,1.351-1.507c2.275-3.694,2.089-8.337,1.829-12.667"/>
				<path style="fill:none;stroke:#231F20;stroke-width:1.5;stroke-miterlimit:10;" d="M379.374,333.434
					c2.343-0.191,4.675-0.508,6.984-0.95"/>
				
					<line style="fill:none;stroke:#231F20;stroke-width:1.5;stroke-miterlimit:10;" x1="449.28" y1="328.906" x2="457.968" y2="330.102"/>
			</g>
			<g>
				<path style="fill:#FFFFFF;" d="M396.168,448.32c-30.574,1.559-36.286,15.387-36.286,15.387s-5.712-13.828-36.286-15.387
					c-19.544-0.996-69.124,8.813-69.124,8.813v11.853h216.202v-11.853C470.675,457.133,415.712,447.324,396.168,448.32z"/>
				<path style="fill:none;stroke:#EDD9C5;stroke-width:1.5;stroke-miterlimit:10;" d="M470.675,460.086
					c0,0-54.962-6.479-74.506-5.821c-30.574,1.029-36.286,10.057-36.286,10.057s-5.712-9.027-36.286-10.057
					c-19.544-0.658-69.124,5.821-69.124,5.821"/>
				<path style="fill:none;stroke:#EDD9C5;stroke-width:1.5;stroke-miterlimit:10;" d="M470.675,462.318
					c0,0-54.962-3.533-74.506-3.174c-30.574,0.561-36.286,6.831-36.286,6.831s-5.712-6.27-36.286-6.831
					c-19.544-0.359-69.124,3.174-69.124,3.174"/>
				<rect x="249.427" y="465.042" style="fill:#989DD8;" width="226.294" height="6.122"/>
			</g>
			<g>
				<path style="fill:#FFBF66;" d="M454.564,187.628c-8.93-0.533-18.387,0.831-25.467,5.766l1.915,6.605
					c10.877-1.881,22.383,0.753,31.71,6.139c9.327,5.385,16.587,13.353,21.868,22.13l17.427-16.433
					C491.291,197.915,473.321,188.748,454.564,187.628z"/>
				<path style="fill:#FFBF66;" d="M464.466,205.862c-6.639-6.625-17.253-11.929-26.703-8.975c-1.835,0.574-4.168,2.544-5.972,2.728
					c5.033-0.513,9.743,2.536,13.411,6.02c10.574,10.044,11.518,18.743,14.039,30.121l17.463-7.466
					C474.493,219.961,470.565,211.948,464.466,205.862z"/>
				<path style="fill:#FFBF66;" d="M427.533,195.892c0.117-2.685,1.531-5.606,4.13-6.289c2.387-0.628,4.864,0.859,6.447,2.754
					c1.373,1.643,2.34,3.693,2.381,5.834c0.041,2.141-0.95,4.351-2.768,5.481c-1.819,1.13-4.445,0.944-5.882-0.644
					C431.338,199.922,430.191,197.574,427.533,195.892z"/>
				<path style="fill:#372419;" d="M389.52,270.995c0,0-21.74,5.704-35.572,5.704c-1.111-7.367-1.425-15.697-1.01-23.916
					c0.605-11.998,1.864-26.896,5.986-38.181c0,0,17.149-12.943,27.665-9.383C397.104,208.778,389.52,270.995,389.52,270.995z"/>
				<path style="fill:#ED8E6E;" d="M390.793,262.775l4.935,16.015c0,0,1.884,10.273,12.607,10.29
					c20.028,0.032,36.487-19.681,36.487-19.681l-17.29-31.758L390.793,262.775z"/>
				<path style="fill:#ED8E6E;" d="M421.598,220.632c-3.314-13.547-10.647-19.612-24.73-23.096
					c-18.686-4.623-36.193,4.541-35.867,22.658c0.34,18.911,7.623,38.41,16.227,46.779c14.888,14.481,32.791-1.277,40.391-16.461
					C422.565,240.631,424.19,231.225,421.598,220.632z"/>
				<path style="fill:#372419;" d="M412.376,244.812c-0.005,1.661-0.251,20.674-0.883,28.671c13.6-2.194,27.175-9.385,38.029-17.032
					c-0.23-15.801-2.491-32.673-8.935-48.892c-0.596-1.5-1.269-3.01-2.371-4.189c-1.672-1.79-4.186-2.663-5.72-4.574
					c-1.887-2.351-1.319-5.544-3.704-7.704c-1.81-1.639-4.232-2.265-6.409-3.245c-3.253-1.465-6.391-3.207-9.457-5.028
					c-4.322-2.567-9.073-4.827-14.179-5.025c-3.611-0.14-7.378,0.596-10.602,2.248c-2.502,1.282-4.952,1.852-7.592,2.859
					c-6.039,2.302-11.168,6.798-14.65,12.201c-4.77,7.401-6.687,16.344-6.966,25.145c-0.219,6.901,0.649,14.193,4.709,19.777
					c-1.132-5.498-1.458-10.364,0.559-15.645c0.624-1.635,4.617-4.131,5.956-5.258c1.689-1.422,4.045-1.735,6.253-1.707
					c4.316,0.055,7.809,1.767,11.85,2.73c3.933,0.937,7.991,0.805,11.797,2.373C410.684,226.889,412.379,243.652,412.376,244.812z"
					/>
				<path style="fill:none;stroke:#231F20;stroke-width:1.5;stroke-miterlimit:10;" d="M393.852,272.701
					c0,0,8.962-0.653,14.014-8.711"/>
				<path style="fill:#231F20;" d="M392.985,240.795c0.313,1.419-0.24,2.747-1.235,2.966s-2.054-0.754-2.367-2.173
					c-0.312-1.419,0.24-2.747,1.235-2.966C391.613,238.403,392.673,239.376,392.985,240.795z"/>
				<path style="fill:#231F20;" d="M372.376,245.995c0.313,1.419-0.24,2.747-1.235,2.966c-0.995,0.219-2.054-0.754-2.367-2.173
					c-0.313-1.419,0.24-2.747,1.235-2.966C371.004,243.604,372.064,244.576,372.376,245.995z"/>
				<path style="fill:none;stroke:#231F20;stroke-width:1.5;stroke-miterlimit:10;" d="M377.466,240.063
					c0.532,2.315,0.577,9.687,0.902,12.029c0.346,2.49,2.511,2.355,5.808,1.646"/>
				<path style="fill:none;stroke:#231F20;stroke-width:1.5;stroke-miterlimit:10;" d="M385.221,260.365
					c3.415,0.442,6.001-3.093,6.237-6.179"/>
				<path style="fill:none;stroke:#231F20;stroke-width:1.5;stroke-miterlimit:10;" d="M397.644,232.789
					c-4.515-2.494-10.22-1.868-13.931,1.529"/>
				<path style="fill:none;stroke:#231F20;stroke-width:1.5;stroke-miterlimit:10;" d="M371.613,237.046
					c-2.822-1.567-6.255-0.721-7.999,1.973"/>
				<g>
					<path style="fill:#ED8E6E;" d="M403.476,235.756c1.863-3.043,5.604-5.342,9.153-3.76c3.807,1.697,4.927,6.761,4.363,10.508
						c-0.613,4.077-3.07,9.553-7.896,9.607c-2.702,0.03-5.252-1.859-5.429-4.662"/>
					<path style="fill:none;stroke:#231F20;stroke-width:1.5;stroke-miterlimit:10;" d="M415.636,247.032
						c-2.74,6.494-10.422,6.476-11.969,0.416"/>
					<path style="fill:none;stroke:#231F20;stroke-width:1.5;stroke-miterlimit:10;" d="M403.476,235.756
						c1.863-3.043,5.604-5.342,9.153-3.76"/>
					
						<line style="fill:none;stroke:#231F20;stroke-width:1.5;stroke-miterlimit:10;" x1="404.9" y1="243.702" x2="412.969" y2="237.597"/>
				</g>
				<path style="fill:#FFBF66;" d="M430.982,195.404c-23.034,10.43-49.363,16.547-75.867,21.091l-0.152,13.336
					c37.946-2.272,63.447-12.166,81.899-29.446L430.982,195.404z"/>
				<path style="fill:#372419;" d="M397.644,182.549c-14.912,0.409-31.328,2.193-39.473,11.057
					c-2.791,3.038-4.989,6.568-7.025,10.155c-2.089,3.682-4.068,7.585-4.372,11.807c-0.1,1.386,0.034,2.909,0.977,3.93
					c0.704,0.764,1.746,1.116,2.763,1.327c2.793,0.58,5.76,0.296,8.392-0.803c2.153-0.899,4.133-2.341,6.445-2.649
					c1.893-0.252,3.789,0.288,5.663,0.657c3.704,0.728,7.788,0.724,10.968-1.309c1.793-1.146,3.151-2.842,4.647-4.356
					c3.499-3.543,7.9-6.187,12.671-7.612"/>
				<path style="fill:none;stroke:#231F20;stroke-width:1.5;stroke-miterlimit:10;" d="M431.211,195.805
					c1.994,1.364,3.442,3.504,3.967,5.862"/>
				<path style="fill:none;stroke:#231F20;stroke-width:1.5;stroke-miterlimit:10;" d="M435.926,190.567
					c1.245-0.391,2.031,0.736,2.415,1.755c0.988,2.625,1.843,6.493,1.132,9.31"/>
				<path style="fill:none;stroke:#231F20;stroke-width:1.5;stroke-miterlimit:10;" d="M439.735,196.096
					c11.297-0.121,22.479,5.262,28.582,13.758"/>
				<path style="fill:none;stroke:#231F20;stroke-width:1.5;stroke-miterlimit:10;" d="M440.148,198.58
					c10.796,5.34,19.556,14.681,24.191,25.798"/>
				<path style="fill:none;stroke:#231F20;stroke-width:1.5;stroke-miterlimit:10;" d="M439.167,192.925
					c4.126-1.025,8.614-0.683,12.854,0.011c14.801,2.425,28.343,9.166,37.306,18.571"/>
				<path style="fill:none;stroke:#231F20;stroke-width:1.5;stroke-miterlimit:10;" d="M401.507,215.3
					c11.239-4.329,21.814-10.376,31.244-17.868"/>
			</g>
			<g>
				<path style="fill:#FFFFFF;" d="M248.564,258.474l5.731-2.36c0,0,21.004,3.236,28.377,8.628
					c7.875,5.76,10.358,12.621,10.358,12.621s8.641-6.95,22.217-9.533c10.41-1.981,43.128-4.472,43.128-4.472l11.5,88.596
					l-52.011,6.905l-13.049-1.79l-35.274-17.172L248.564,258.474z"/>
				<path style="fill:none;stroke:#292944;stroke-width:1.5;stroke-miterlimit:10;" d="M252.118,256.85
					c0,0,20.665,4.956,28.283,9.996c11.296,7.474,12.462,14.13,12.462,14.13s7.17-7.702,20.746-10.284
					c10.41-1.981,45.003-5.494,45.003-5.494"/>
				<path style="fill:none;stroke:#292944;stroke-width:1.5;stroke-miterlimit:10;" d="M249.659,258.023
					c0,0,18.136,5.839,26.062,10.381c11.037,6.324,17.143,12.573,17.143,12.573s9.286-4.309,22.862-6.892
					c10.41-1.981,43.263-5.993,43.263-5.993"/>
				<polygon style="fill:#989DD8;" points="361.269,269.911 298.797,282.236 285.916,280.428 248.564,258.474 268.785,343.87 
					305.462,362.025 316.54,362.95 372.089,352.284 				"/>
				
					<line style="fill:none;stroke:#292944;stroke-width:1.5;stroke-miterlimit:10;" x1="285.916" y1="280.428" x2="305.462" y2="362.025"/>
				
					<line style="fill:none;stroke:#292944;stroke-width:1.5;stroke-miterlimit:10;" x1="298.797" y1="282.236" x2="316.54" y2="362.95"/>
				<polygon style="fill:#B1B7E5;" points="290.547,288.175 297.717,289.502 300.158,302.786 294.028,302.011 				"/>
				
					<line style="fill:none;stroke:#292944;stroke-width:1.5;stroke-miterlimit:10;" x1="287.027" y1="285.065" x2="299.9" y2="287.252"/>
				
					<line style="fill:none;stroke:#292944;stroke-width:1.5;stroke-miterlimit:10;" x1="304.815" y1="357.069" x2="315.477" y2="357.872"/>
				
					<line style="fill:none;stroke:#292944;stroke-width:1.5;stroke-miterlimit:10;" x1="277.357" y1="341.05" x2="288.361" y2="345.342"/>
				
					<line style="fill:none;stroke:#292944;stroke-width:1.5;stroke-miterlimit:10;" x1="273.607" y1="334.394" x2="294.487" y2="342.537"/>
				<polygon style="fill:#B1B7E5;" points="360.042,317.277 319.115,325.137 313.386,297.755 356.558,289.932 				"/>
				
					<line style="fill:none;stroke:#292944;stroke-width:1.5;stroke-miterlimit:10;" x1="320.615" y1="286.2" x2="346.156" y2="281.738"/>
				
					<line style="fill:none;stroke:#292944;stroke-width:1.5;stroke-miterlimit:10;" x1="334.9" y1="352.627" x2="354.305" y2="349.237"/>
			</g>
			<g>
				<path style="fill:#ED8E6E;" d="M247.446,319.221c1.497-3.113,3.04-6.29,5.485-8.729c2.446-2.439,6.009-4.042,9.372-3.252
					c2.833,0.666,5.052,2.883,6.684,5.293c1.632,2.409,2.838,5.096,4.581,7.426c0.923,1.234,2.038,2.473,2.162,4.009
					c0.236,2.924-3.493,4.849-6.307,4.021c-2.814-0.828-4.76-3.324-6.509-5.679c-1.489,2.722,0.243,5.978,1.339,8.88
					c3.047,8.071,0.849,17.654-5.231,23.798l-16.114,1.95c-9.827-20.913-4.668-40.199,1.966-59.613
					c1.367-4.001,5.5-9.13,9.311-11.125c4.32-2.262,9.685-3.346,13.981-1.495c3.168,1.365,5.582,3.896,8.151,6.111
					c2.325,2.004,7.125,3.252,6.249,7.276c-0.93,4.269-5.871,7.11-9.871,4.901c-2.176-1.201-3.989-2.992-6.194-4.139
					c-2.206-1.146-5.134-1.507-7.017,0.116"/>
				<path style="fill:none;stroke:#231F20;stroke-width:1.5;stroke-miterlimit:10;" d="M278.587,292.346c0,0-1.42,1.659-1.815,2.467
					c-0.395,0.808-0.613,1.812-0.053,2.534c0.18,0.232,0.426,0.414,0.682,0.577c0.42,0.268,0.902,0.498,1.414,0.489
					c0.598-0.01,1.142-0.352,1.505-0.786c0.633-0.758,0.957-1.778,1.273-2.698"/>
				<path style="fill:#ED8E6E;" d="M248.564,303.812c1.738-2.432,4.759-6.512,7.844-7.308c3.573-0.922,8.719,2.596,11.61,4.278
					c3.361,1.955,5.725,5.189,7.698,8.564c1.323,2.264,3.602,3.785,5.129,5.881c0.762,1.045,0.642,3.597-2.277,5.074
					c-2.533,1.282-5.624,0.289-7.553-1.412c-1.424-1.256-2.152-0.874-3.325-2.366c-1.222-1.555-2.484-3.352-4.419-3.758
					c-2.298-0.481-8.497,6.99-10.239,8.563"/>
				<path style="fill:#ED8E6E;" d="M244.875,300.823c1.339-2.025,2.732-4.021,4.063-6.042c2.619-3.975,6.391-5.532,11.041-5.624
					c3.258-0.064,6.804,0.079,9.927,1.283c4.372,1.686,4.927,4.888,7.236,8.478c1.333,2.072,3.421,5.121,5.027,7.819
					c1.278,2.146,3.035,3.959,0.884,5.936c-1.404,1.29-4.402,3.143-6.273,2.774c-1.827-0.361-3.307-1.686-4.535-3.086
					c-2.613-2.982-4.513-6.507-6.391-9.999c-0.219-0.407-4.842,0.115-5.402,0.238c-1.236,0.271-1.849,0.966-2.782,1.78"/>
				<path style="fill:none;stroke:#231F20;stroke-width:1.5;stroke-miterlimit:10;" d="M261.434,319.856
					c0.447,0.878,0.954,1.725,1.517,2.534c1.009,1.451,1.674,2.753,3.165,3.703"/>
				<path style="fill:none;stroke:#231F20;stroke-width:1.5;stroke-miterlimit:10;" d="M255.382,310.406
					c2.396-1.852,5.254-3.103,8.24-3.608c2.285-0.386,4.185,1.112,5.47,2.89c3.208,4.439,6.22,12.396,6.638,14.281"/>
				<path style="fill:none;stroke:#231F20;stroke-width:1.5;stroke-miterlimit:10;" d="M256.722,300.545
					c2.247-1.129,4.656-1.937,7.129-2.392c1.349-0.248,2.752-0.39,4.084-0.061c2.296,0.567,4.039,2.439,5.331,4.419
					c2.671,4.096,4.024,9.009,7.135,12.782"/>
				<path style="fill:none;stroke:#231F20;stroke-width:1.5;stroke-miterlimit:10;" d="M256.157,290.538
					c5.886-2.374,13.307-1.581,17.69,3.315c2.459,2.747,4.393,6.002,5.984,9.315"/>
				<path style="fill:none;stroke:#231F20;stroke-width:1.5;stroke-miterlimit:10;" d="M273.598,318.89
					c-1.002,0.389-2.003,0.778-3.005,1.167c-0.367,0.143-0.75,0.295-0.995,0.568c-0.152,0.168-0.241,0.373-0.285,0.582
					c-0.172,0.81,0.346,1.663,1.158,2.113c0.812,0.449,1.865,0.522,2.8,0.306c0.935-0.217,1.762-0.7,2.449-1.28"/>
				<path style="fill:none;stroke:#231F20;stroke-width:1.5;stroke-miterlimit:10;" d="M277.732,311.587
					c-0.701,0.191-1.413,0.388-2.014,0.739c-0.601,0.351-1.086,0.886-1.129,1.49c-0.015,0.212,0.024,0.424,0.083,0.63
					c0.226,0.785,0.844,1.563,1.796,1.772c0.696,0.153,1.45-0.028,2.053-0.35c0.603-0.322,1.082-0.775,1.552-1.221"/>
				<path style="fill:none;stroke:#231F20;stroke-width:1.5;stroke-miterlimit:10;" d="M281.06,305.069
					c-0.532,0.424-1.089,0.816-1.667,1.173c-0.331,0.205-0.675,0.403-0.934,0.694c-0.658,0.741-0.563,1.973,0.088,2.719
					c0.193,0.221,0.427,0.407,0.695,0.525c0.574,0.254,1.252,0.176,1.83-0.068c0.579-0.244,1.717-1.205,2.208-1.596"/>
				<path style="fill:none;stroke:#231F20;stroke-width:1.5;stroke-miterlimit:10;" d="M262.71,322.203
					c-1.209,1.962-0.238,4.358,0.438,6.512c2.12,6.76,0.925,14.284-3.217,20.26"/>
			</g>
			<g>
				<path style="fill:#ED8E6E;" d="M471.084,334.594l-8.831,50.535l-50.004-48.351l-25.983,38.016c0,0,41.909,61.642,49.595,71.503
					c12.203,15.657,20.443,24.581,40.936,24.581c16.605,0,27.934-19.95,35.831-44.958c7.865-24.907,17.042-72.974,17.042-72.974"/>
				<g>
					<path style="fill:#ED8E6E;" d="M364.607,341.508c-1.121-0.441-2.833-0.802-3.897-0.033c-0.366,0.264-0.628,0.646-0.862,1.032
						c-2.297,3.781-6.017,11.781-11.484,10.74c-0.853-0.162-3.677-1.461-4.084-2.228c-0.822-1.547,2.422-7.136,2.134-7.109
						c-2.104,0.197-4.544-0.578-5.34-2.535c-0.543-1.334-0.188-2.848,0.213-4.231c0.625-2.156,1.35-4.283,2.171-6.373
						c-2.728-0.258-4.396-2.478-4.727-3.855c-0.447-1.856,0.165-2.926,1.133-4.047c1.025-1.187,4.715-4.272,4.715-4.272
						c-2.218-1.538-2.812-3.904-2.116-5.717c0.678-1.767,2.974-2.59,4.769-3.09c1.883-0.524,3.763-1.13,5.456-2.106
						c2.729-1.573,4.949-4.087,7.958-5.015c1.634-0.504,5.423-1.273,7.126-1.114c5.519,0.514,9.84,2.255,14.478,5.196
						c6.439,4.083,12.613,8.78,17.899,14.29c5.906,6.157,11.162,12.916,15.679,20.163c0,0-20.564,40.838-20.565,40.839
						c-0.413,0.82-9.543-4.452-10.376-5.021c-3.133-2.14-5.952-4.738-8.338-7.688c-2.7-3.338-5.396-7.272-6.263-11.56
						c-0.809-4.003,1.212-8.544-1.096-12.246C368.099,343.778,366.5,342.252,364.607,341.508z"/>
					<path style="fill:none;stroke:#231F20;stroke-width:1.5;stroke-miterlimit:10;" d="M344.579,318.598
						c2.389-1.857,4.453-4.081,6.718-6.079c5.228-4.611,12.148-4.549,18.588-3.178"/>
					<path style="fill:none;stroke:#231F20;stroke-width:1.5;stroke-miterlimit:10;" d="M343.457,330.772
						c3.264-5.305,6.041-12.038,11.554-15.389c4.393-2.67,9.305-1.892,14.046-0.908"/>
					<path style="fill:none;stroke:#231F20;stroke-width:1.5;stroke-miterlimit:10;" d="M346.506,343.936
						c1.923-4.287,4.022-8.496,6.288-12.613c2.741-4.979,9.974-5.728,14.978-4.409"/>
					<path style="fill:none;stroke:#231F20;stroke-width:1.5;stroke-miterlimit:10;" d="M344.875,347.61
						c0.885,0.16,1.617,0.752,2.359,1.26c0.742,0.508,1.617,0.965,2.501,0.798c0.835-0.157,1.486-0.858,1.813-1.643
						c0.15-0.36,0.245-0.749,0.219-1.138c-0.04-0.602-0.369-1.155-0.795-1.581c-0.426-0.427-0.946-0.744-1.461-1.058
						c-0.781-0.475-1.561-0.951-2.342-1.426"/>
					<path style="fill:none;stroke:#231F20;stroke-width:1.5;stroke-miterlimit:10;" d="M341.506,336.542
						c0.213,0.187,0.426,0.373,0.639,0.559c0.601,0.526,1.255,1.076,2.049,1.16c1.189,0.126,2.256-0.891,2.611-2.033
						c0.09-0.291,0.147-0.594,0.136-0.898c-0.031-0.88-0.621-1.653-1.321-2.188s-1.518-0.889-2.266-1.354"/>
					<path style="fill:none;stroke:#231F20;stroke-width:1.5;stroke-miterlimit:10;" d="M340.061,322.778
						c0.122,0.344,0.245,0.687,0.367,1.03c0.17,0.477,0.347,0.966,0.677,1.35c0.331,0.384,0.854,0.645,1.345,0.522
						c0.198-0.049,0.377-0.157,0.535-0.284c0.73-0.588,1.025-1.591,0.966-2.526c-0.06-0.935-0.426-1.822-0.821-2.672"/>
					<path style="fill:none;stroke:#231F20;stroke-width:1.5;stroke-miterlimit:10;" d="M344.391,310.954
						c0.096,0.53,0.225,1.054,0.386,1.568c0.136,0.435,0.3,0.872,0.581,1.231c0.281,0.359,0.699,0.636,1.155,0.651
						c0.396,0.013,0.774-0.168,1.106-0.384c0.325-0.211,0.63-0.465,0.849-0.785c0.34-0.498,0.447-1.125,0.414-1.727
						c-0.033-0.602-0.196-1.188-0.359-1.768"/>
					<path style="fill:none;stroke:#231F20;stroke-width:1.5;stroke-miterlimit:10;" d="M388.471,379.176
						c3.237,0.768,6.143,2.846,7.915,5.662"/>
				</g>
				<path style="fill:#FFFFFF;" d="M475.187,269.509c0,0,18.855-0.009,37.432,14.076c6.002,4.551,10.718,10.931,13.452,17.95
					c8.344,21.42,5.521,54.878-0.635,82.243l-62.5-13.412l5.479-44.026"/>
				
					<line style="fill:none;stroke:#231F20;stroke-width:1.5;stroke-miterlimit:10;" x1="462.936" y1="370.366" x2="470.632" y2="308.526"/>
				<path style="fill:none;stroke:#231F20;stroke-width:1.5;stroke-miterlimit:10;" d="M462.253,385.129
					c0,0,21.937,19.973,24.3,22.115c7.49,6.792,7.49,14.938,7.49,14.938"/>
				
					<line style="fill:none;stroke:#231F20;stroke-width:1.5;stroke-miterlimit:10;" x1="464.375" y1="358.803" x2="527.958" y2="371.1"/>
			</g>
		</g>
		<g>
			<polygon style="fill:none;stroke:#EAA16E;stroke-width:1.5;stroke-linejoin:round;stroke-miterlimit:10;" points="
				314.06,257.744 315.817,250.627 308.207,251.473 			"/>
			<polygon style="fill:none;stroke:#EAA16E;stroke-width:1.5;stroke-linejoin:round;stroke-miterlimit:10;" points="
				611.627,295.406 613.261,288.788 606.184,289.575 			"/>
			<polygon style="fill:none;stroke:#EAA16E;stroke-width:1.5;stroke-linejoin:round;stroke-miterlimit:10;" points="
				365.438,137.824 380.212,145.02 381.934,127.942 			"/>
			<polygon style="fill:none;stroke:#EAA16E;stroke-width:1.5;stroke-linejoin:round;stroke-miterlimit:10;" points="
				527.846,204.359 520.712,213.32 532.07,217.079 			"/>
			<path style="fill:#FFFFFF;" d="M420.903,132.506c-6.471,2.874-5.861,2.263-8.734,8.734c-2.873-6.471-2.263-5.861-8.734-8.734
				c6.471-2.874,5.861-2.263,8.734-8.734C415.042,130.243,414.431,129.632,420.903,132.506z"/>
			<path style="fill:#FFFFFF;" d="M558.831,315.494c-6.471,2.874-5.861,2.263-8.734,8.734c-2.873-6.471-2.263-5.861-8.734-8.734
				c6.471-2.874,5.861-2.263,8.734-8.734C552.971,313.231,552.36,312.62,558.831,315.494z"/>
			<path style="fill:#FFFFFF;" d="M435.988,156.897c-4.882,2.168-4.421,1.707-6.589,6.589c-2.168-4.882-1.707-4.421-6.589-6.589
				c4.882-2.168,4.421-1.707,6.589-6.589C431.567,155.19,431.106,154.729,435.988,156.897z"/>
			<path style="fill:#FFFFFF;" d="M338.199,221.375c-7.332,3.256-6.64,2.564-9.896,9.896c-3.256-7.332-2.564-6.64-9.896-9.896
				c7.332-3.256,6.64-2.564,9.896-9.896C331.558,218.811,330.866,218.119,338.199,221.375z"/>
			<path style="fill:#FFFFFF;" d="M512.293,252.557c-4.882,2.168-4.421,1.707-6.589,6.589c-2.168-4.882-1.707-4.421-6.589-6.589
				c4.882-2.168,4.421-1.707,6.589-6.589C507.872,250.85,507.412,250.39,512.293,252.557z"/>
			<path style="fill:#FFFFFF;" d="M567.677,289.249c-4.882,2.168-4.421,1.707-6.589,6.589c-2.168-4.882-1.707-4.421-6.589-6.589
				c4.882-2.168,4.421-1.707,6.589-6.589C563.256,287.542,562.795,287.081,567.677,289.249z"/>
		</g>
	</g>
	<g>
		<g>
			<path style="fill:#FE624B;" d="M674.163,471.12H542.807v-32.934h131.356c9.094,0,16.467,7.372,16.467,16.467l0,0
				C690.63,463.747,683.258,471.12,674.163,471.12z"/>
			<path style="fill:#D14D3F;" d="M588.592,471.12h-77.06v-32.934h77.06c9.094,0,16.467,7.372,16.467,16.467l0,0
				C605.059,463.747,597.686,471.12,588.592,471.12z"/>
			<path style="fill:#D14D3F;" d="M610.466,454.653c0-9.095-7.372-16.467-16.467-16.467h6.586c9.094,0,16.467,7.372,16.467,16.467
				c0,9.094-7.373,16.467-16.467,16.467h-6.586C603.094,471.12,610.466,463.747,610.466,454.653z"/>
			<path style="fill:none;stroke:#292944;stroke-width:1.5;stroke-miterlimit:10;" d="M596.826,440.407
				c4.917,2.849,8.234,8.155,8.234,14.246c0,6.091-3.316,11.397-8.234,14.246"/>
			<path style="fill:none;stroke:#292944;stroke-width:1.5;stroke-miterlimit:10;" d="M602.067,440.407
				c4.917,2.849,8.233,8.155,8.233,14.246c0,6.091-3.316,11.397-8.233,14.246"/>
			<path style="fill:none;stroke:#292944;stroke-width:1.5;stroke-miterlimit:10;" d="M678.802,440.407
				c4.917,2.849,8.233,8.155,8.233,14.246c0,6.091-3.316,11.397-8.233,14.246"/>
			<path style="fill:none;stroke:#292944;stroke-width:1.5;stroke-miterlimit:10;" d="M662.454,440.407
				c4.917,2.849,8.233,8.155,8.233,14.246c0,6.091-3.316,11.397-8.233,14.246"/>
			<path style="fill:#D14D3F;" d="M676.332,454.653c0-9.095-7.372-16.467-16.467-16.467h6.586c9.094,0,16.467,7.372,16.467,16.467
				c0,9.094-7.373,16.467-16.467,16.467h-6.586C668.96,471.12,676.332,463.747,676.332,454.653z"/>
			<path style="fill:#D14D3F;" d="M622.65,454.653c0-9.095-7.372-16.467-16.467-16.467h6.586c9.094,0,16.467,7.372,16.467,16.467
				c0,9.094-7.372,16.467-16.467,16.467h-6.586C615.278,471.12,622.65,463.747,622.65,454.653z"/>
			<path style="fill:#FFFFFF;" d="M587.487,444.289h-75.955v20.729h75.955c5.724,0,10.365-4.64,10.365-10.364
				C597.852,448.929,593.211,444.289,587.487,444.289z"/>
			<path style="fill:#FEC74F;" d="M574.667,457.117l9.517,0.076c-0.485,3.741-1.383,7.36-2.648,10.664l-10.11-0.131
				C573.065,464.534,574.124,461.067,574.667,457.117z"/>
			
				<line style="fill:none;stroke:#292944;stroke-width:1.5;stroke-miterlimit:10;" x1="597.555" y1="457.117" x2="545.297" y2="457.117"/>
			
				<line style="fill:none;stroke:#292944;stroke-width:1.5;stroke-miterlimit:10;" x1="535.21" y1="457.117" x2="511.532" y2="457.117"/>
			<path style="fill:#989DD8;" d="M551.624,449.876l11.327,0.099c-0.946,4.859-2.701,9.56-5.17,13.851l-12.485-0.171
				C548.498,459.509,550.566,455.007,551.624,449.876z"/>
			
				<line style="fill:none;stroke:#292944;stroke-width:1.5;stroke-miterlimit:10;" x1="511.532" y1="449.876" x2="596.826" y2="449.876"/>
		</g>
		<g>
			<path style="fill:#989DD8;" d="M652.727,438.39H530.328v-48.332h122.399c13.347,0,24.166,10.82,24.166,24.166l0,0
				C676.893,427.57,666.073,438.39,652.727,438.39z"/>
			<path style="fill:#7376BF;" d="M551.915,438.39h-53.287v-48.332h53.287c13.347,0,24.166,10.82,24.166,24.166l0,0
				C576.081,427.57,565.262,438.39,551.915,438.39z"/>
			<path style="fill:none;stroke:#292944;stroke-width:1.5;stroke-miterlimit:10;" d="M571.69,393.317
				c7.216,4.18,12.083,11.967,12.083,20.907c0,8.94-4.867,16.727-12.083,20.907"/>
			<path style="fill:none;stroke:#292944;stroke-width:1.5;stroke-miterlimit:10;" d="M659.534,393.317
				c7.216,4.18,12.083,11.967,12.083,20.907c0,8.94-4.867,16.727-12.083,20.907"/>
			<path style="fill:none;stroke:#292944;stroke-width:1.5;stroke-miterlimit:10;" d="M652.868,393.317
				c7.216,4.18,12.083,11.967,12.083,20.907c0,8.94-4.867,16.727-12.083,20.907"/>
			<g>
				<path style="fill:none;stroke:#7376BF;stroke-width:1.5;stroke-miterlimit:10;" d="M648.361,426.771
					c0.451-9.031-4.461-18.31-14.993-19.466c-5.68-0.624-11.377,2.117-13.342,6.42c-1.673,3.661-0.277,8.33,3.422,10.549
					c3.48,2.087,9.24,1.619,11.565-1.858c2.582-3.863-1.195-10.048-7.158-7.941"/>
				<path style="fill:none;stroke:#7376BF;stroke-width:1.5;stroke-miterlimit:10;" d="M620.436,412.943
					c-7.479,5.841-17.874-1.701-14.063-8.9c2.179-4.116,9.837-4.541,11.351-0.245c0.684,1.941-0.055,4.275-1.839,5.467"/>
				<path style="fill:none;stroke:#7376BF;stroke-width:1.5;stroke-miterlimit:10;" d="M608.136,412.575
					c-5.393-2.936-13.023,1.783-11.646,7.642c1.012,4.308,8.224,6.33,10.219,1.579c0.596-1.418,0.201-3.13-1.052-4.184
					c-1.253-1.054-3.321-1.341-4.85-0.606"/>
				<path style="fill:none;stroke:#7376BF;stroke-width:1.5;stroke-miterlimit:10;" d="M603.27,405.371
					c-0.607-0.539-1.063-1.21-1.433-1.911c-0.421-0.796-0.743-1.711-0.469-2.56c0.061-0.187,0.155-0.374,0.318-0.497
					c0.439-0.332,1.106-0.056,1.516,0.307c0.479,0.424,0.836,0.953,1.133,1.503c0.572,1.06,0.949,2.232,1.066,3.414
					c0.057,0.573-0.025,0.821-0.676,0.609C604.182,406.06,603.684,405.739,603.27,405.371z"/>
				<path style="fill:none;stroke:#7376BF;stroke-width:1.5;stroke-miterlimit:10;" d="M617.16,422.293
					c-1.077,0.215-2.197,0.18-3.288,0.038c-1.24-0.162-2.546-0.511-3.336-1.414c-0.174-0.199-0.323-0.431-0.346-0.687
					c-0.064-0.688,0.749-1.157,1.476-1.303c0.848-0.171,1.73-0.141,2.59-0.035c1.659,0.204,3.307,0.687,4.774,1.44
					c0.711,0.365,0.94,0.631,0.214,1.131C618.637,421.88,617.894,422.146,617.16,422.293z"/>
				<path style="fill:none;stroke:#7376BF;stroke-width:1.5;stroke-miterlimit:10;" d="M622.165,427.522
					c-1.054,0.779-2.301,1.305-3.58,1.699c-1.453,0.448-3.087,0.724-4.48,0.134c-0.307-0.13-0.605-0.31-0.781-0.578
					c-0.472-0.721,0.145-1.645,0.856-2.172c0.83-0.615,1.813-1.027,2.817-1.345c1.937-0.613,4.023-0.915,6.07-0.83
					c0.992,0.042,1.398,0.217,0.894,1.131C623.541,426.325,622.883,426.991,622.165,427.522z"/>
				<path style="fill:none;stroke:#7376BF;stroke-width:1.5;stroke-miterlimit:10;" d="M631.634,428.228
					c-0.072,0.987-0.405,1.945-0.838,2.849c-0.492,1.027-1.189,2.062-2.302,2.504c-0.246,0.098-0.517,0.164-0.779,0.116
					c-0.705-0.128-0.957-0.955-0.909-1.622c0.056-0.778,0.32-1.531,0.655-2.246c0.646-1.378,1.568-2.672,2.712-3.738
					c0.554-0.516,0.881-0.644,1.187,0.117C631.615,426.843,631.684,427.555,631.634,428.228z"/>
				<path style="fill:none;stroke:#7376BF;stroke-width:1.5;stroke-miterlimit:10;" d="M636.17,404.845
					c-0.021-0.99-0.305-1.961-0.691-2.883c-0.439-1.048-1.082-2.112-2.171-2.603c-0.24-0.108-0.508-0.186-0.772-0.151
					c-0.711,0.096-1.005,0.912-0.992,1.579c0.016,0.78,0.241,1.544,0.539,2.273c0.575,1.406,1.429,2.739,2.517,3.854
					c0.527,0.54,0.847,0.682,1.192-0.064C636.08,406.228,636.185,405.52,636.17,404.845z"/>
				<path style="fill:none;stroke:#7376BF;stroke-width:1.5;stroke-miterlimit:10;" d="M644.229,406.938
					c0.602-1.291,0.852-2.702,0.939-4.105c0.099-1.596-0.056-3.324-1.151-4.556c-0.242-0.272-0.538-0.52-0.903-0.619
					c-0.98-0.266-1.878,0.627-2.285,1.497c-0.475,1.016-0.67,2.128-0.748,3.233c-0.151,2.132,0.106,4.324,0.803,6.363
					c0.338,0.988,0.661,1.346,1.581,0.572C643.233,408.675,643.819,407.817,644.229,406.938z"/>
				<path style="fill:none;stroke:#7376BF;stroke-width:1.5;stroke-miterlimit:10;" d="M650.928,414.557
					c0.97-1.229,1.601-2.664,2.057-4.128c0.518-1.664,0.803-3.525-0.035-5.072c-0.185-0.341-0.434-0.67-0.793-0.856
					c-0.967-0.5-2.147,0.241-2.803,1.07c-0.766,0.967-1.259,2.098-1.629,3.249c-0.712,2.219-1.01,4.593-0.802,6.904
					c0.101,1.119,0.349,1.571,1.522,0.958C649.426,416.17,650.267,415.394,650.928,414.557z"/>
			</g>
			<path style="fill:#FFFFFF;" d="M550.294,399.013h-51.666v30.421h51.666c8.401,0,15.211-6.81,15.211-15.21
				C565.505,405.823,558.695,399.013,550.294,399.013z"/>
			
				<line style="fill:none;stroke:#292944;stroke-width:1.5;stroke-miterlimit:10;" x1="565.068" y1="408.443" x2="549.16" y2="408.443"/>
			
				<line style="fill:none;stroke:#292944;stroke-width:1.5;stroke-miterlimit:10;" x1="498.628" y1="419.42" x2="563.998" y2="419.42"/>
			<path style="fill:#E05D4F;" d="M517.721,408.054l11.327,0.135c-0.946,6.618-2.701,13.021-5.17,18.866l-4.888-3.814l-7.597,3.582
				C514.595,421.174,516.663,415.042,517.721,408.054z"/>
			
				<line style="fill:none;stroke:#292944;stroke-width:1.5;stroke-miterlimit:10;" x1="537.704" y1="408.443" x2="498.628" y2="408.443"/>
		</g>
		<g>
			<g>
				<polygon style="fill:#989DD8;" points="157.309,423.953 174.887,418.23 149.158,327.198 131.579,332.921 				"/>
				<g>
					
						<line style="fill:none;stroke:#292944;stroke-width:1.5;stroke-miterlimit:10;" x1="133.214" y1="338.697" x2="141.077" y2="336.041"/>
					
						<line style="fill:none;stroke:#292944;stroke-width:1.5;stroke-miterlimit:10;" x1="134.622" y1="343.674" x2="139.597" y2="341.993"/>
					
						<line style="fill:none;stroke:#292944;stroke-width:1.5;stroke-miterlimit:10;" x1="136.031" y1="348.651" x2="141.006" y2="346.97"/>
					
						<line style="fill:none;stroke:#292944;stroke-width:1.5;stroke-miterlimit:10;" x1="137.439" y1="353.627" x2="142.414" y2="351.947"/>
					
						<line style="fill:none;stroke:#292944;stroke-width:1.5;stroke-miterlimit:10;" x1="138.848" y1="358.604" x2="146.711" y2="355.948"/>
					
						<line style="fill:none;stroke:#292944;stroke-width:1.5;stroke-miterlimit:10;" x1="140.256" y1="363.581" x2="145.231" y2="361.901"/>
					
						<line style="fill:none;stroke:#292944;stroke-width:1.5;stroke-miterlimit:10;" x1="141.665" y1="368.558" x2="146.639" y2="366.877"/>
					
						<line style="fill:none;stroke:#292944;stroke-width:1.5;stroke-miterlimit:10;" x1="143.073" y1="373.534" x2="148.048" y2="371.854"/>
					
						<line style="fill:none;stroke:#292944;stroke-width:1.5;stroke-miterlimit:10;" x1="144.481" y1="378.511" x2="152.344" y2="375.856"/>
					
						<line style="fill:none;stroke:#292944;stroke-width:1.5;stroke-miterlimit:10;" x1="145.89" y1="383.488" x2="150.865" y2="381.808"/>
					
						<line style="fill:none;stroke:#292944;stroke-width:1.5;stroke-miterlimit:10;" x1="147.298" y1="388.465" x2="152.273" y2="386.784"/>
					
						<line style="fill:none;stroke:#292944;stroke-width:1.5;stroke-miterlimit:10;" x1="148.707" y1="393.441" x2="153.682" y2="391.761"/>
					
						<line style="fill:none;stroke:#292944;stroke-width:1.5;stroke-miterlimit:10;" x1="150.115" y1="398.418" x2="157.978" y2="395.763"/>
					
						<line style="fill:none;stroke:#292944;stroke-width:1.5;stroke-miterlimit:10;" x1="151.523" y1="403.395" x2="156.498" y2="401.715"/>
					
						<line style="fill:none;stroke:#292944;stroke-width:1.5;stroke-miterlimit:10;" x1="152.932" y1="408.372" x2="157.907" y2="406.692"/>
					
						<line style="fill:none;stroke:#292944;stroke-width:1.5;stroke-miterlimit:10;" x1="154.34" y1="413.349" x2="159.315" y2="411.668"/>
					
						<line style="fill:none;stroke:#292944;stroke-width:1.5;stroke-miterlimit:10;" x1="155.749" y1="418.326" x2="163.612" y2="415.67"/>
				</g>
			</g>
			<g>
				<polygon style="fill:#D36F37;" points="173.284,434.636 165.308,435.419 161.684,348.533 169.66,347.75 				"/>
				<path style="fill:#F49C5B;" d="M172.109,439.204l-5.256,0.516c-0.751,0.074-1.387-0.513-1.42-1.311l-0.125-2.989l7.976-0.783
					l0.125,2.989C173.442,438.423,172.86,439.13,172.109,439.204z"/>
				
					<line style="fill:none;stroke:#231F20;stroke-width:1.5;stroke-miterlimit:10;" x1="165.308" y1="435.419" x2="173.284" y2="434.636"/>
				<polyline style="fill:#F9E4CA;" points="161.684,348.533 165.355,340.551 169.66,347.75 				"/>
				<polygon style="fill:#995E28;" points="165.355,340.551 163.724,344.098 167.268,343.75 				"/>
			</g>
			<g>
				<path style="fill:#CACFED;" d="M167.547,436.358l53.561-89.381l-45.859-7.451L167.547,436.358z M201.635,356.811l-16.91,28.219
					l2.432-30.572L201.635,356.811z"/>
				
					<line style="fill:none;stroke:#292944;stroke-width:1.5;stroke-miterlimit:10;" x1="174.813" y1="345.02" x2="181.254" y2="346.066"/>
				
					<line style="fill:none;stroke:#292944;stroke-width:1.5;stroke-miterlimit:10;" x1="174.331" y1="351.073" x2="178.105" y2="351.686"/>
				
					<line style="fill:none;stroke:#292944;stroke-width:1.5;stroke-miterlimit:10;" x1="173.85" y1="357.126" x2="177.623" y2="357.739"/>
				
					<line style="fill:none;stroke:#292944;stroke-width:1.5;stroke-miterlimit:10;" x1="173.368" y1="363.179" x2="177.142" y2="363.792"/>
				
					<line style="fill:none;stroke:#292944;stroke-width:1.5;stroke-miterlimit:10;" x1="172.887" y1="369.232" x2="179.328" y2="370.279"/>
				
					<line style="fill:none;stroke:#292944;stroke-width:1.5;stroke-miterlimit:10;" x1="172.405" y1="375.285" x2="176.179" y2="375.899"/>
				
					<line style="fill:none;stroke:#292944;stroke-width:1.5;stroke-miterlimit:10;" x1="171.924" y1="381.339" x2="175.697" y2="381.952"/>
				
					<line style="fill:none;stroke:#292944;stroke-width:1.5;stroke-miterlimit:10;" x1="171.442" y1="387.392" x2="175.216" y2="388.005"/>
				
					<line style="fill:none;stroke:#292944;stroke-width:1.5;stroke-miterlimit:10;" x1="170.961" y1="393.445" x2="177.402" y2="394.492"/>
				
					<line style="fill:none;stroke:#292944;stroke-width:1.5;stroke-miterlimit:10;" x1="170.479" y1="399.498" x2="174.253" y2="400.111"/>
				
					<line style="fill:none;stroke:#292944;stroke-width:1.5;stroke-miterlimit:10;" x1="169.998" y1="405.551" x2="173.771" y2="406.164"/>
				
					<line style="fill:none;stroke:#292944;stroke-width:1.5;stroke-miterlimit:10;" x1="169.516" y1="411.604" x2="173.29" y2="412.218"/>
				
					<line style="fill:none;stroke:#292944;stroke-width:1.5;stroke-miterlimit:10;" x1="169.035" y1="417.658" x2="175.476" y2="418.704"/>
			</g>
			<g>
				<polygon style="fill:#F3B68D;" points="209.215,326.095 216.788,328.589 193.184,412.691 185.61,410.196 				"/>
				<path style="fill:#E5936A;" d="M211.71,322.228l4.991,1.644c0.713,0.235,1.115,1.052,0.899,1.824l-0.812,2.893l-7.574-2.494
					l0.812-2.893C210.243,322.429,210.997,321.993,211.71,322.228z"/>
				
					<line style="fill:none;stroke:#231F20;stroke-width:1.5;stroke-miterlimit:10;" x1="216.788" y1="328.589" x2="209.215" y2="326.095"/>
				<polyline style="fill:#F9E4CA;" points="193.184,412.691 187.335,418.791 185.61,410.196 				"/>
				<polygon style="fill:#292944;" points="187.335,418.791 189.934,416.08 186.569,414.972 				"/>
			</g>
			<g>
				<polygon style="fill:#98A48D;" points="211.12,360.398 219.744,365.413 187.207,431.079 178.583,426.065 				"/>
				
					<line style="fill:none;stroke:#828E75;stroke-width:1.5;stroke-miterlimit:10;" x1="181.318" y1="427.677" x2="214.031" y2="361.656"/>
				
					<line style="fill:none;stroke:#828E75;stroke-width:1.5;stroke-miterlimit:10;" x1="184.777" y1="431.009" x2="217.831" y2="364.3"/>
				<path style="fill:#FFD797;" d="M218.528,356.657L218.528,356.657c2.382,1.385,3.276,4.599,1.997,7.178l-0.781,1.577
					l-8.624-5.015l0.782-1.577C213.18,356.241,216.147,355.272,218.528,356.657z"/>
				
					<line style="fill:none;stroke:#231F20;stroke-width:1.5;stroke-miterlimit:10;" x1="219.744" y1="365.413" x2="211.12" y2="360.398"/>
				<polyline style="fill:#F9E4CA;" points="187.207,431.079 180.052,434.309 178.583,426.065 				"/>
				<polygon style="fill:#292944;" points="180.052,434.309 183.231,432.874 179.399,430.646 				"/>
			</g>
			<rect x="149.009" y="399.126" style="fill:#F9BF64;" width="57.073" height="71.752"/>
		</g>
		<g>
			<g>
				<path style="fill:none;stroke:#292944;stroke-width:1.5;stroke-miterlimit:10;" d="M112.012,452.13
					c-2.475-9.466-6.87-19.636-14.741-25.887c-2.767-2.198-6.276-3.686-9.79-3.311"/>
				<path style="fill:#D36F37;" d="M76.861,424.995c2.043,4.942,7.706,7.292,12.648,5.249c4.942-2.043,7.292-7.706,5.249-12.648
					c-2.043-4.942-7.706-7.292-12.648-5.249C77.168,414.39,74.818,420.052,76.861,424.995z"/>
				<path style="fill:none;stroke:#292944;stroke-width:1.5;stroke-miterlimit:10;" d="M83.221,411.823
					c-0.333,3.257,0.399,6.566,1.738,9.554c1.338,2.988,3.264,5.68,5.376,8.183"/>
				<path style="fill:none;stroke:#292944;stroke-width:1.5;stroke-miterlimit:10;" d="M85.47,422.294
					c-3.015,0.598-6.107,1.857-7.836,4.398"/>
				<path style="fill:none;stroke:#292944;stroke-width:1.5;stroke-miterlimit:10;" d="M83.184,417.305
					c-1.291,0.472-2.362,1.513-2.872,2.789c-0.509,1.277-0.449,2.769,0.162,4"/>
			</g>
			<g>
				<path style="fill:none;stroke:#292944;stroke-width:1.5;stroke-miterlimit:10;" d="M109.864,457.342
					c-6.338-10.678-11.546-23.807-9.984-36.817c0.549-4.574,2.428-9.234,6.008-12.263"/>
				
					<ellipse transform="matrix(0.8233 -0.5676 0.5676 0.8233 -209.6064 130.951)" style="fill:#D36F37;" cx="105.513" cy="402.118" rx="13.787" ry="13.787"/>
				<path style="fill:none;stroke:#292944;stroke-width:1.5;stroke-miterlimit:10;" d="M98.365,390.103
					c3.668,2.878,6.334,6.899,8.074,11.225c1.74,4.325,2.595,8.96,3.073,13.597"/>
				<path style="fill:none;stroke:#292944;stroke-width:1.5;stroke-miterlimit:10;" d="M106.873,402.757
					c3.593-2.499,7.939-4.423,12.252-3.683"/>
				<path style="fill:none;stroke:#292944;stroke-width:1.5;stroke-miterlimit:10;" d="M104.021,395.483
					c1.76-0.856,3.885-0.925,5.697-0.186c1.812,0.74,3.282,2.276,3.94,4.12"/>
			</g>
			<g>
				<path style="fill:none;stroke:#292944;stroke-width:1.5;stroke-miterlimit:10;" d="M111.681,460.664
					c0.364-9.769,2.904-20.921,10.861-29.73c2.798-3.098,6.716-5.813,11.172-6.792"/>
				
					<ellipse transform="matrix(0.7778 -0.6286 0.6286 0.7778 -232.1303 177.4285)" style="fill:#D36F37;" cx="134.843" cy="416.978" rx="17.345" ry="17.345"/>
				<path style="fill:none;stroke:#292944;stroke-width:1.5;stroke-miterlimit:10;" d="M134.319,399.398
					c2.276,5.405,2.753,11.456,2.024,17.276c-0.728,5.819-2.618,11.439-4.925,16.831"/>
				<path style="fill:none;stroke:#292944;stroke-width:1.5;stroke-miterlimit:10;" d="M135.948,418.511
					c5.478-0.554,11.433-0.016,15.725,3.432"/>
				<path style="fill:none;stroke:#292944;stroke-width:1.5;stroke-miterlimit:10;" d="M137.254,408.768
					c2.458,0.133,4.838,1.355,6.379,3.275c1.541,1.92,2.219,4.508,1.817,6.937"/>
			</g>
			<g>
				<path style="fill:none;stroke:#292944;stroke-width:1.5;stroke-miterlimit:10;" d="M120.547,456.073
					c4.416-7.99,11.15-15.211,19.521-19.071c8.332-3.843,20.011-4.845,27.254,1.822"/>
				<path style="fill:#D36F37;" d="M173.594,446.068c-4.121,2.332-9.353,0.882-11.685-3.239c-2.332-4.121-0.882-9.353,3.24-11.685
					c4.121-2.332,9.352-0.882,11.685,3.239C179.165,438.505,177.715,443.736,173.594,446.068z"/>
				<path style="fill:none;stroke:#292944;stroke-width:1.5;stroke-miterlimit:10;" d="M176.344,433.413
					c-1.545,2.453-3.861,4.361-6.424,5.715c-2.564,1.354-5.375,2.18-8.213,2.774"/>
				<path style="fill:none;stroke:#292944;stroke-width:1.5;stroke-miterlimit:10;" d="M169.063,439.488
					c1.777,2.062,3.246,4.626,3.065,7.342"/>
				<path style="fill:none;stroke:#292944;stroke-width:1.5;stroke-miterlimit:10;" d="M173.379,437.257
					c0.643,1.034,0.822,2.344,0.481,3.512c-0.341,1.168-1.197,2.176-2.295,2.701"/>
			</g>
			
				<rect x="90.91" y="443.506" transform="matrix(-1 -1.224647e-16 1.224647e-16 -1 248.6798 914.3845)" style="fill:#E89838;" width="66.859" height="27.372"/>
			
				<line style="fill:none;stroke:#292944;stroke-width:1.5;stroke-miterlimit:10;" x1="157.628" y1="448.827" x2="90.91" y2="448.827"/>
			
				<line style="fill:none;stroke:#292944;stroke-width:1.5;stroke-miterlimit:10;" x1="157.628" y1="465.334" x2="90.91" y2="465.334"/>
		</g>
		
			<line style="fill:none;stroke:#231F20;stroke-width:1.5;stroke-miterlimit:10;" x1="55.084" y1="470.878" x2="694.916" y2="470.878"/>
		<g>
			<path style="fill:#FDCD72;" d="M523.159,365.272c-6.961,0-12.605,5.643-12.605,12.605c0,6.961,5.643,12.605,12.605,12.605
				h100.454v-25.209H523.159z"/>
			<path style="fill:#EFB745;" d="M612.523,365.272c-6.961,0-12.605,5.643-12.605,12.605c0,6.961,5.643,12.605,12.605,12.605h44.11
				v-25.209H612.523z"/>
			<path style="fill:#FFFFFF;" d="M613.368,369.943c-4.382,0-7.933,3.552-7.933,7.934c0,4.382,3.552,7.934,7.933,7.934h43.264
				v-15.867H613.368z"/>
			
				<line style="fill:none;stroke:#292944;stroke-width:1.5;stroke-miterlimit:10;" x1="631.856" y1="381.034" x2="656.633" y2="381.034"/>
			
				<line style="fill:none;stroke:#292944;stroke-width:1.5;stroke-miterlimit:10;" x1="605.698" y1="381.034" x2="621.694" y2="381.034"/>
			
				<line style="fill:none;stroke:#292944;stroke-width:1.5;stroke-miterlimit:10;" x1="605.698" y1="375.291" x2="656.633" y2="375.291"/>
			<path style="fill:#EFB745;" d="M585.025,369.918h-30.264c-0.319,0-0.634,0.125-0.858,0.353c-4.935,5.01-4.646,11.614,0.74,16.758
				c0.223,0.213,0.526,0.329,0.834,0.329h30.158c1.016,0,1.549-1.171,0.915-1.964c-3.447-4.304-3.662-9.333-0.58-13.55
				C586.556,371.042,586.018,369.918,585.025,369.918z"/>
			<path style="fill:none;stroke:#292944;stroke-width:1.5;stroke-miterlimit:10;" d="M598.488,369.931
				c-4.228,5.202-4.062,12.172,0.414,17.427"/>
			<path style="fill:none;stroke:#292944;stroke-width:1.5;stroke-miterlimit:10;" d="M593.883,369.931
				c-4.228,5.202-4.062,12.172,0.414,17.427"/>
			<path style="fill:none;stroke:#292944;stroke-width:1.5;stroke-miterlimit:10;" d="M522.363,369.931
				c-4.228,5.202-4.062,12.172,0.414,17.427"/>
		</g>
	</g>
</g>
</svg>
