<svg clip-rule="evenodd" fill-rule="evenodd" height="512" image-rendering="optimizeQuality" shape-rendering="geometricPrecision" text-rendering="geometricPrecision" viewBox="0 0 6.82666 6.82666" width="512" xmlns="http://www.w3.org/2000/svg"><g id="Layer_x0020_1"><g id="_463247888"><g><path id="_463248992" d="m3.39509 1.1759 1.22935 1.00759 1.5684-.257925-1.22931-1.00747-1.56844.257799zm1.20902 1.15507c-.0164094 0-.0324764-.00559055-.0453622-.0161496l-1.37676-1.12848c-.0217402-.0177638-.0310354-.0467126-.0237559-.0737953.00727165-.0272087.0297677-.0475866.0575118-.0521811l1.7565-.288858c.0202717-.00323228.0410551.00223622.0569685.0152835l1.37682 1.12847c.0217402.0177717.0309331.0467205.0237283.0738071-.00732677.0272047-.029815.0475827-.0575236.0521772l-1.75652.288732c-.00385827.00074803-.00774016.00099606-.0116142.00099606z"/><path id="_463248680" d="m6.2695 2.54156c-.0691969 0-.125606.0564055-.125606.125732.00000394.0693228.0564055.125606.125606.125606.0693268 0 .125732-.0562795.125732-.125606 0-.0693268-.0564055-.125728-.125732-.125732zm0 .394465c-.148217 0-.268732-.120512-.268732-.268732.00000394-.14822.120512-.268854.268732-.268854.14835-.00000394.268858.120634.268858.268854s-.120516.268732-.268858.268732z"/><path id="_463248944" d="m6.2695 2.54156c-.0395039 0-.071563-.0320551-.071563-.0715591v-.499449c0-.0395118.0320551-.071563.071563-.071563.0396339 0 .071563.0320512.071563.071563v.499445c0 .0395079-.0319331.0715669-.071563.071563z"/><path id="_463248800" d="m5.07098 2.93403c-.207496 0-.421602-.0282008-.631929-.0846063-.411075-.110205-.779098-.320169-1.03629-.591512-.0171181-.0181378-.023626-.0437283-.0171929-.0678346l.195827-.73078c.0102402-.0381417.0494488-.0607559.0876417-.0505669.0381811.010185.0608386.0494488.0506142.0875866l-.185311.69165c.490969.492984 1.34654.722083 2.02501.542059l.191583-.689657c.0105591-.0381457.050063-.060378.0880827-.0498189.0381417.0105591.060378.0500669.0498228.0880866l-.202386.728665c-.00658268.0238583-.0252244.042622-.0489528.0495709-.176669.0514409-.368622.0771575-.56652.0771575z"/><path id="_463249160" d="m.665461 5.352c-.0395197 0-.0715669-.0320551-.0715669-.071563l.00000394-2.72173c0-.274571.223343-.497953.497862-.497953h2.38337c.0395354 0 .0715591.0320512.0715591.071563 0 .0395039-.0320315.0715591-.071563.0715591h-2.38336c-.195602 0-.354748.15915-.354748.354831l.00000394 2.72173c0 .0395079-.0320354.071563-.071563.071563zm4.72691 0c-.0395039 0-.071563-.0320551-.071563-.071563v-2.44232c0-.0395079.0320512-.071563.071563-.071563s.0715591.0320551.0715591.0715669v2.44231c0 .0395079-.0320551.071563-.0715591.071563z"/><path id="_463248392" d="m.986213 5.352c-.0395197 0-.0715551-.0320551-.0715551-.071563l.00000787-2.70645c0-.1225.0989252-.222138.220531-.222138l2.56457-.00000394c.0395315 0 .0715709.0320591.0715709.0715669.00000787.0395039-.0320433.071563-.0715787.071563l-2.56456-.00000394c-.0419685 0-.0774331.0361535-.0774331.0790157l.00000787 2.70645c0 .0395079-.0320472.071563-.071563.071563zm4.08545 0c-.0395197 0-.071563-.0320551-.071563-.071563v-2.41785c0-.0395039.0320433-.0715591.071563-.0715591.0395276-.00000394.071563.0320551.071563.071563v2.41784c0 .0395079-.0320433.071563-.071563.071563z"/><path id="_463248344" d="m3.44229 5.70409h-.826705c-.136528 0-.247591-.111071-.247591-.24761v-.176051c0-.0395079.0320315-.071563.0715512-.071563.0395236 0 .071563.0320551.071563.071563l.00000394.176051c0 .0575236.0468701.104488.104469.104488h.826709c.0576181 0 .104472-.0469646.104472-.104488v-.176051c0-.0395079.0320433-.071563.071563-.071563.0395276 0 .071563.0320551.071563.071563l.00000787.176051c0 .136539-.111079.24761-.247606.24761z"/><path id="_463248272" d="m1.61299 3.70979c-.0189882 0-.037189-.00757874-.0506063-.0210039l-.16624-.166228c-.0279528-.0279567-.0279606-.0732992-.00000787-.101256.0279488-.0279567.073252-.0279528.101193 0l.115661.115665.512055-.512118c.0279409-.0278307.0732638-.0278307.101205 0 .0279449.0279567.0279409.0733071 0 .101256l-.562669.562681c-.0134213.0134252-.031622.0210039-.0505906.0210039z"/><path id="_463247696" d="m4.61114 3.42838h-2.14104c-.0395197 0-.071563-.0320512-.071563-.071563 0-.0395079.0320433-.071563.071563-.071563h2.14104c.0395354 0 .0715669.0320551.0715669.071563.00000787.0395118-.0320394.071563-.0715669.071563z"/><path id="_463248008" d="m1.61299 4.69986c-.0183268 0-.0366417-.00695669-.0506063-.0208701l-.16624-.166236c-.0279528-.0279528-.0279606-.0732992-.00000787-.101252.0279488-.0279567.073252-.0279567.101193 0l.115661.115665.512055-.512118c.0279409-.0279567.0732638-.0279567.101205 0 .0279449.0279528.0279409.0733031 0 .101256l-.562669.562685c-.0139646.0139134-.0322835.0208701-.0505906.0208701z"/><path id="_463247936" d="m4.61114 4.41858h-2.14104c-.0395197 0-.071563-.0320512-.071563-.0715591 0-.0395118.0320433-.071563.071563-.071563l2.14104-.00000394c.0395354 0 .0715669.0320551.0715669.0715669.00000787.0395079-.0320394.0715591-.0715669.0715591z"/></g><path id="_463247960" d="m.431429 5.352v.280539c0 .154673.125827.280406.280504.280406h4.63397c.154685 0 .280535-.125728.280535-.280406v-.280539h-5.19501zm4.91447.704071h-4.63396c-.233598 0-.423642-.189965-.423642-.423531l.00000394-.352102c0-.0395079.0320394-.071563.0715591-.071563h5.33814c.0395118 0 .071563.0320551.071563.071563l.00000394.352102c0 .233567-.189969.423531-.423665.423531z"/></g></g></svg>