<svg id="Layer_2" viewBox="0 0 64 64" xmlns="http://www.w3.org/2000/svg" data-name="Layer 2"><path d="m58.47 14.5-1.55-1.55c-1.08-1.08-2.67-1.34-3.99-.78v-4.67c0-3.58-2.92-6.5-6.5-6.5h-35.47c-3.58 0-6.5 2.92-6.5 6.5v49c0 3.58 2.92 6.5 6.5 6.5h35.46c3.58 0 6.5-2.92 6.5-6.5v-31.3c.07-.09 5.29-5.28 5.54-5.54 1.42-1.42 1.42-3.74 0-5.16zm-6.6 42c0 3-2.44 5.44-5.44 5.44h-35.47c-3 0-5.44-2.44-5.44-5.44v-49c0-3 2.44-5.44 5.44-5.44h35.46c3 0 5.44 2.44 5.44 5.44v5.36s-28.98 28.99-29.03 29.01c-.07.06-.12.14-.15.22 0 0-2.16 5.81-2.16 5.81s-1.37 3.69-1.37 3.69c-.17.4.27.85.68.68 2.19-.81 7.27-2.7 9.5-3.54.08-.03.16-.09.22-.15l22.32-22.32zm1.22-32.95s-.35-.35-.33-.33c0 0-4.89-4.89-4.89-4.89l1.27-1.27 5.21 5.21-1.27 1.27zm-22.21 22.21-2.23-2.23 21.46-21.46 1.77 1.77v.94l-20.99 20.99zm-1.73 1.73-5.21-5.21.98-.98 5.21 5.21zm-5.54 2.25c-.38-.85-1.08-1.55-1.92-1.92 0 0 1.7-4.58 1.7-4.58l4.8 4.8zm-3.07 1.14.78-2.1c.28.14.53.33.76.56.22.23.41.48.56.76zm26.57-31.79 2.23 2.23-21.46 21.46-2.23-2.23zm10.6-.17-2.62 2.62-5.21-5.21 2.62-2.62c1.01-.97 2.65-1.03 3.66 0 0 0 1.55 1.55 1.55 1.55 1.01 1.01 1.01 2.65 0 3.66z"/><path d="m21.17 12.72h19.56c.68 0 .7-1.05 0-1.06h-19.56c-.68 0-.7 1.05 0 1.06z"/><path d="m21.17 20.49h19.56c.68 0 .7-1.05 0-1.06h-19.56c-.68 0-.7 1.05 0 1.06z"/><path d="m21.17 28.26h10.79c.69 0 .69-1.05 0-1.06h-10.79c-.69 0-.69 1.05 0 1.06z"/><path d="m16.18 9.64h-4.06c-.29 0-.53.24-.53.53v4.05c0 .29.24.53.53.53h4.06c.29 0 .53-.24.53-.53v-4.05c0-.29-.24-.53-.53-.53zm-.53 4.05h-3v-3h3z"/><path d="m16.18 17.41h-4.06c-.29 0-.53.24-.53.53v4.05c0 .29.24.53.53.53h4.06c.29 0 .53-.24.53-.53v-4.05c0-.29-.24-.53-.53-.53zm-.53 4.05h-3v-3h3z"/><path d="m16.18 25.17h-4.06c-.29 0-.53.24-.53.53v4.05c0 .29.24.53.53.53h4.06c.29 0 .53-.24.53-.53v-4.05c0-.29-.24-.53-.53-.53zm-.53 4.05h-3v-3h3z"/></svg>