<svg fill="none" height="24" viewBox="0 0 24 24" width="24" xmlns="http://www.w3.org/2000/svg"><g fill="rgb(0,0,0)"><path d="m9.44661 15.3975c-.33276-.2467-.80248-.1769-1.04913.1559-.24666.3328-.17686.8025.15591 1.0491.97241.7208 2.16161 1.1475 3.44661 1.1475s2.4742-.4267 3.4466-1.1475c.3328-.2466.4026-.7163.1559-1.0491-.2466-.3328-.7163-.4026-1.0491-.1559-.7284.5398-1.6075.8525-2.5534.8525s-1.825-.3127-2.55339-.8525z"/><path clip-rule="evenodd" d="m12 1.25c-.7081 0-1.3515.20282-2.04945.54224-.6747.32811-1.45413.81185-2.42769 1.41608l-2.06658 1.28258c-.92119.57171-1.65884 1.0295-2.22738 1.46491-.58875.45088-1.04095.91008-1.36759 1.50682-.32596.59549-.47274 1.22911-.54312 1.97807-.0682.7258-.0682 1.6134-.06819 2.7265v1.6127c-.00001 1.9038-.00002 3.4067.1527 4.5817.15667 1.2054.48586 2.1785 1.22966 2.9478.74722.773 1.6981 1.1183 2.87525 1.282 1.14088.1586 2.59795.1586 4.43424.1586h4.11625c1.8363 0 3.2934 0 4.4343-.1586 1.1771-.1637 2.128-.509 2.8752-1.282.7438-.7693 1.073-1.7424 1.2297-2.9478.1527-1.175.1527-2.6778.1527-4.5817v-1.6127c0-1.1131 0-2.0007-.0682-2.7265-.0704-.74896-.2172-1.38258-.5431-1.97807-.3266-.59674-.7788-1.05594-1.3676-1.50682-.5685-.43541-1.3062-.89319-2.2274-1.4649l-2.0666-1.2826c-.9735-.60422-1.753-1.08797-2.4277-1.41607-.6979-.33942-1.3413-.54224-2.0494-.54224zm-3.72047 3.25412c1.01576-.63041 1.72997-1.07259 2.32697-1.36292.5817-.28287.9937-.3912 1.3935-.3912s.8118.10833 1.3935.39119c.597.29034 1.3112.73252 2.327 1.36293l2 1.24125c.9608.59632 1.6354 1.01598 2.1386 1.40133.4896.37494.7712.68436.9638 1.03615.1933.35304.3061.7658.3655 1.39819.0608.64756.0616 1.46476.0616 2.62286v1.5211c0 1.9709-.0015 3.3762-.1402 4.4433-.1362 1.048-.3928 1.6561-.8206 2.0986-.4243.4389-1.0021.6995-2.0034.8388-1.0256.1426-2.3783.1443-4.2858.1443h-4c-1.90753 0-3.26017-.0017-4.28578-.1443-1.00136-.1393-1.57908-.3999-2.00343-.8388-.42778-.4425-.68437-1.0506-.8206-2.0986-.1387-1.0671-.14019-2.4724-.14019-4.4433v-1.5211c0-1.1581.00076-1.9753.06161-2.62286.05942-.63239.17224-1.04515.36548-1.39819.19256-.35179.47424-.66121.96383-1.03615.50318-.38535 1.17777-.80501 2.13861-1.40133z" fill-rule="evenodd"/></g></svg>