<?xml version="1.0" encoding="utf-8"?>
<!-- Generator: Adobe Illustrator 27.5.0, SVG Export Plug-In . SVG Version: 6.00 Build 0)  -->
<svg version="1.1" xmlns="http://www.w3.org/2000/svg" xmlns:xlink="http://www.w3.org/1999/xlink" x="0px" y="0px"
	 viewBox="0 0 500 500" style="enable-background:new 0 0 500 500;" xml:space="preserve">
<g id="BACKGROUND">
	<rect x="-0.494" y="0.155" style="fill:#FFFFFF;" width="500" height="499"/>
	<g>
		<path style="fill:#FFEBE3;" d="M426.799,218.057c-23.215-14.32,4.653-55.546-14.334-83.204
			c-16.62-24.209-50.158-10.373-119.09-35.118c-59.387-21.319-58.786-40.309-90.396-41.566
			c-56.993-2.266-120.246,57.032-136.062,121.014c-12.254,49.575,3.319,104.599,41.175,141.852
			c87.217,85.826,276.578,61.44,326.966-8.702c18.065-25.147,31.25-74.248,12.438-87.914
			C440.646,219.442,434.924,223.069,426.799,218.057z"/>
		<path style="fill:#FFEBE3;" d="M256.904,60.408c0.25,6.215,9.218,11.745,30.78,18.889c17.277,5.724,54.238,17.97,57.867,11.624
			c3.06-5.35-18.982-21.456-39.399-30.15c-13.353-5.686-39.585-13.98-47.197-5.812C256.822,57.25,256.889,60.042,256.904,60.408z"/>
	</g>
</g>
<g id="OBJECTS">
	<path style="fill:#FFFFFF;" d="M204.281,108.455h-18.148c-0.565,0-1.037,0.453-1.031,1.018c0.007,0.575-0.457,1.043-1.03,1.043
		h-6.037c-1.39,0-2.516,1.127-2.516,2.516l0,0c0,1.39-1.127,2.516-2.516,2.516h-0.08c-1.39,0-2.516,1.127-2.516,2.516v1.569
		c0,1-1.092,1.586-1.945,1.063c-1.239-0.76-2.684-1.183-4.212-1.183c-3.103,0-5.884,1.729-7.26,4.513l-4.743,9.611
		c-0.026,0.019-0.048,0.035-0.075,0.054l-10.27,1.492c-2.877,0.418-5.474,2.188-6.612,4.863c-1.336,3.14-0.61,6.66,1.788,8.996
		l7.676,7.482c0.01,0.031,0.019,0.057,0.029,0.088l-1.783,10.397c-0.261,1.523-0.175,3.11,0.416,4.538
		c1.315,3.176,4.303,5.097,7.535,5.097c1.306,0,2.609-0.323,3.768-0.933l9.488-4.988c0.033,0,0.06,0,0.092,0l9.703,5.102
		c0.92,0.484,1.934,0.779,2.973,0.813c1.65,0.054,3.328-0.274,4.738-1.136c2.959-1.81,4.373-5.108,3.821-8.325l-1.812-10.565
		c0.01-0.031,0.018-0.057,0.029-0.088l7.675-7.481c1.765-1.72,2.611-4.078,2.405-6.454c-0.068-0.786,0.46-1.423,1.249-1.423h9.087
		c1.284,0,1.74-0.461,1.74-1.031v-30.06C205.902,109.18,205.176,108.455,204.281,108.455z M175.52,132.065v0.085l-0.042-0.085
		H175.52z"/>
	<g>
		<circle style="fill:#AD7632;" cx="344.844" cy="182.675" r="22.276"/>
		
			<ellipse transform="matrix(0.9217 -0.3879 0.3879 0.9217 -42.7902 148.9654)" style="fill:#E09941;" cx="347.565" cy="180.466" rx="22.276" ry="22.276"/>
		<path style="fill:#F3A646;" d="M367.12,169.791c-3.281-5.997-9.24-10.319-16.269-11.358c-1.84,3.581-3.007,7.769-2.794,11.868
			c0.238,4.573,1.975,4.81,1.676,7.922c-0.76,7.906-12.473,11.618-19.934,15.679c1.947,2.571,4.439,4.704,7.304,6.232
			c3.117-5.652,10.361-8.855,14.458-15.513C356.23,177.032,361.959,175.781,367.12,169.791z"/>
		<circle style="fill:none;stroke:#F3A646;stroke-miterlimit:10;" cx="348.051" cy="180.041" r="16.944"/>
		<circle style="fill:none;stroke:#AD7632;stroke-miterlimit:10;" cx="347.565" cy="180.466" r="16.944"/>
	</g>
	<path style="fill:#2D543D;" d="M382.998,437.314c0,0-8.018-45.484-2.289-42.831c5.728,2.653,5.728,40.187,5.728,40.187
		s7.964-39.049,13.33-35.227c5.366,3.822-10.561,38.964-10.561,38.964s24.295-22.253,26.047-17.052
		c1.752,5.202-23.976,20.121-23.976,20.121l-9.68-0.736c0,0-9.816-28.385-10.003-32.238
		C371.408,404.651,377.776,414.956,382.998,437.314z"/>
	<path style="fill:#5E8F4D;" d="M340.126,456.604v-41.441c3.071-2.109,7.118-3.428,9.971,1.094c0,0,14.307-10.418,25.024,12.356
		c0,0,10.91-3.392,11.885,5.572c0,0,9.631-1.27,7.982,7.239c0,0,18.242-9.098,27.05,3.945c0,0,13.898-6.129,16.845,4.184
		c0,0,2.123-7.763,7.759-0.663c0,0,12.502-4.839,17.016,7.714H340.126z"/>
	<g>
		<path style="fill:#2D543D;" d="M359.617,434.094c0.27-2.193,1.007-3.906,1.645-3.828c0.639,0.079,0.937,1.92,0.667,4.112
			c-0.27,2.193-1.007,3.906-1.645,3.828C359.645,438.128,359.347,436.287,359.617,434.094z"/>
		<path style="fill:#2D543D;" d="M347.09,440.246c-1.881-1.159-3.132-2.542-2.794-3.09c0.337-0.548,2.136-0.053,4.017,1.106
			c1.881,1.159,3.132,2.542,2.794,3.09C350.77,441.9,348.971,441.405,347.09,440.246z"/>
		<path style="fill:#2D543D;" d="M370.556,448.123c-1.015-1.962-1.375-3.792-0.803-4.088c0.572-0.296,1.857,1.055,2.872,3.018
			c1.015,1.962,1.375,3.792,0.803,4.088C372.857,451.436,371.571,450.085,370.556,448.123z"/>
		<path style="fill:#2D543D;" d="M367.614,431.575c1.768-1.324,3.514-1.98,3.9-1.465c0.386,0.515-0.735,2.006-2.504,3.33
			c-1.768,1.324-3.515,1.98-3.9,1.465C364.725,434.39,365.846,432.899,367.614,431.575z"/>
		<path style="fill:#2D543D;" d="M387.931,444.586c-1.122,1.903-2.481,3.181-3.035,2.854c-0.554-0.327-0.094-2.134,1.028-4.037
			c1.122-1.903,2.481-3.181,3.035-2.854C389.514,440.875,389.053,442.683,387.931,444.586z"/>
		<path style="fill:#2D543D;" d="M407.77,447.622c-2.035-0.861-3.481-2.039-3.23-2.631c0.251-0.593,2.103-0.375,4.138,0.485
			c2.035,0.861,3.481,2.039,3.23,2.631C411.657,448.7,409.805,448.482,407.77,447.622z"/>
	</g>
	<path style="fill:#2D543D;" d="M122.42,433.81c0,0,8.018-45.484,2.29-42.831c-5.728,2.653-5.728,40.187-5.728,40.187
		s-7.964-39.049-13.33-35.227c-5.366,3.822,10.561,38.964,10.561,38.964s-24.295-22.253-26.047-17.052
		c-1.752,5.202,23.976,20.121,23.976,20.121l9.68-0.736c0,0,9.816-28.385,10.002-32.238
		C134.011,401.146,127.642,411.452,122.42,433.81z"/>
	<path style="fill:#2D543D;" d="M146.404,418.763c0,0,8.018-45.484,2.29-42.831c-5.728,2.653-5.728,40.187-5.728,40.187
		s-7.964-39.049-13.33-35.227c-5.366,3.822,10.561,38.964,10.561,38.964s-24.295-22.253-26.047-17.052
		c-1.752,5.202,23.976,20.121,23.976,20.121l9.68-0.736c0,0,9.816-28.385,10.003-32.238
		C157.994,386.1,151.626,396.405,146.404,418.763z"/>
	<path style="fill:#5E8F4D;" d="M165.292,453.099v-41.44c-3.071-2.109-7.118-3.428-9.971,1.094c0,0-14.307-10.418-25.024,12.356
		c0,0-10.91-3.392-11.885,5.572c0,0-9.631-1.27-7.982,7.239c0,0-18.242-9.098-27.05,3.945c0,0-13.899-6.129-16.845,4.184
		c0,0-2.122-7.763-7.759-0.663c0,0-12.502-4.839-17.016,7.714H165.292z"/>
	<g>
		<path style="fill:#2D543D;" d="M147.264,431.746c-0.27-2.193-1.007-3.906-1.645-3.828c-0.638,0.079-0.937,1.92-0.667,4.112
			c0.27,2.193,1.007,3.906,1.645,3.827C147.236,435.78,147.534,433.939,147.264,431.746z"/>
		<path style="fill:#2D543D;" d="M159.791,437.898c1.881-1.159,3.132-2.542,2.795-3.09c-0.337-0.548-2.136-0.052-4.017,1.106
			c-1.881,1.159-3.132,2.542-2.794,3.09C156.111,439.552,157.91,439.057,159.791,437.898z"/>
		<path style="fill:#2D543D;" d="M136.325,445.774c1.015-1.962,1.374-3.793,0.803-4.088c-0.571-0.296-1.857,1.055-2.872,3.017
			c-1.015,1.962-1.374,3.793-0.803,4.088C134.024,449.087,135.31,447.737,136.325,445.774z"/>
		<path style="fill:#2D543D;" d="M139.267,429.227c-1.768-1.324-3.514-1.98-3.9-1.465c-0.386,0.515,0.735,2.006,2.504,3.33
			s3.514,1.98,3.9,1.465C142.156,432.041,141.035,430.551,139.267,429.227z"/>
		<path style="fill:#2D543D;" d="M118.95,442.237c1.122,1.903,2.481,3.181,3.035,2.854c0.554-0.327,0.094-2.134-1.028-4.037
			c-1.122-1.903-2.481-3.181-3.035-2.854C117.367,438.527,117.828,440.335,118.95,442.237z"/>
		<path style="fill:#2D543D;" d="M99.111,445.274c2.035-0.861,3.481-2.039,3.23-2.631c-0.251-0.593-2.103-0.375-4.138,0.485
			c-2.035,0.861-3.481,2.039-3.23,2.631C95.224,446.352,97.076,446.134,99.111,445.274z"/>
	</g>
	<g>
		<path style="fill:#2D3954;" d="M395.504,196.63h-26.125v1.056c-2.603-0.757-5.457-1.159-8.577-1.159h-12.375h-13.383h-36.196
			c-3.665-0.273-12.039,13.734-12.039,15.171v11.081c-0.453-0.468-0.735-1.104-0.735-1.807v-21.842c0-1.437-1.165-2.602-2.602-2.602
			h-13.719h-13.227h-14.671h-20.382h-9.257c-1.123,0-2.119,0.72-2.471,1.786l-0.799,2.421l-0.798-2.42
			c-0.352-1.067-1.348-1.787-2.471-1.787h-9.361h-20.683h-27.507h-0.091l-28.1,0.329c-1.437,0-10.795,13.405-10.795,14.842v49.646
			c0,1.437,1.165,2.602,2.602,2.602h26.856h15.18h33.385h0.229h22.039c1.075,0,2.039-0.661,2.427-1.664l0.179-0.462v2.126h35.053
			h13.741h28.295c1.437,0,5.126-6.068,6.866-4.716c1.209,0.939,2.525,1.772,3.945,2.492c3.855,1.952,8.26,2.943,13.092,2.943
			c4.628,0,8.852-0.932,12.579-2.752v2.033h26.947c1.437,0,7.754-9.874,8.211-8.656c0.691,1.842,1.764,3.509,3.198,4.942
			c2.697,2.699,6.202,4.124,10.137,4.124c3.967,0,7.489-1.425,10.186-4.124c2.48-2.479,7.899-11.031,9.437-12.569
			c2.699-2.697,4.126-6.221,4.126-10.188c0-2.163-0.455-4.236-1.321-6.105c-0.212-0.458-0.309-0.959-0.244-1.46l1.799-13.719
			c0.015-0.112,0.022-0.225,0.022-0.338v-16.621C398.106,197.795,396.941,196.63,395.504,196.63z"/>
		<path style="fill:#6697CF;" d="M398.106,199.232c0-1.437-1.165-2.602-2.602-2.602h-26.125v1.056
			c-2.603-0.757-5.457-1.159-8.577-1.159h-12.375h-13.383h-36.196c-1.437,0-2.602,1.165-2.602,2.602v21.843
			c0,1.437-1.165,2.602-2.602,2.602h-4.969c-1.437,0-2.602-1.165-2.602-2.602v-21.843c0-1.437-1.165-2.602-2.602-2.602h-13.719
			h-13.228h-14.671h-20.382h-9.257c-1.123,0-2.119,0.72-2.471,1.786l-0.799,2.421l-0.798-2.42c-0.352-1.067-1.348-1.787-2.471-1.787
			h-9.361h-20.683h-27.507h-0.091h-26.856c-1.437,0-2.602,1.165-2.602,2.602v49.646c0,1.437,1.165,2.602,2.602,2.602h26.856h15.18
			h33.385h0.229h22.039c1.075,0,2.039-0.661,2.427-1.664l0.178-0.462v2.126h35.053h13.741h28.295c1.437,0,2.602-1.165,2.602-2.602
			v-0.112c0-2.204,2.524-3.354,4.264-2.002c1.209,0.939,2.525,1.772,3.945,2.492c3.855,1.952,8.26,2.943,13.092,2.943
			c4.628,0,8.852-0.932,12.579-2.752v2.033h26.947c1.437,0,2.602-1.165,2.602-2.602v-5.083c0-1.23,0.862-2.306,2.07-2.538
			c0.201-0.039,0.4-0.079,0.598-0.122c1.272-0.274,2.484,0.471,2.941,1.689c0.691,1.842,1.764,3.509,3.198,4.942
			c2.697,2.699,6.202,4.124,10.137,4.124c3.967,0,7.489-1.425,10.186-4.124c2.699-2.697,4.126-6.221,4.126-10.188
			c0-2.163-0.455-4.236-1.321-6.105c-0.212-0.458-0.309-0.959-0.244-1.46l1.799-13.719c0.015-0.112,0.022-0.225,0.022-0.338V199.232
			z"/>
		<path style="opacity:0.3;fill:#FFFFFF;" d="M398.053,198.706c-0.243-1.185-1.292-2.077-2.549-2.077h-26.125v1.056
			c-2.603-0.757-5.457-1.159-8.577-1.159h-12.375h-13.383h-36.196c-1.437,0-2.602,1.165-2.602,2.602v21.842
			c0,1.437-1.165,2.602-2.602,2.602h-4.969c-1.437,0-2.602-1.165-2.602-2.602v-21.842c0-1.437-1.165-2.602-2.602-2.602h-13.719
			h-13.228h-3.286c3.377,10.397,14.663,13.357,13.824,22.085c-1.759,18.302-73.247,15.148-124.448,32.765h5.417h15.18h33.385h0.229
			h22.039c1.075,0,2.039-0.661,2.427-1.664l0.178-0.462v2.126h35.053h13.741C303.545,197.451,359.74,198.23,398.053,198.706z"/>
	</g>
	<path style="fill:#E09941;" d="M337.491,304.965l-6.13-3.223c-0.159-0.084-0.35-0.084-0.509,0l-6.13,3.223
		c-0.401,0.211-0.87-0.13-0.794-0.577l1.171-6.826c0.031-0.177-0.028-0.359-0.157-0.484l-4.96-4.834
		c-0.325-0.316-0.146-0.868,0.303-0.933l6.854-0.996c0.178-0.026,0.332-0.138,0.412-0.299l3.065-6.211
		c0.201-0.407,0.781-0.407,0.981,0l3.065,6.211c0.08,0.161,0.234,0.273,0.412,0.299l6.854,0.996
		c0.449,0.065,0.628,0.617,0.303,0.933l-4.96,4.834c-0.129,0.126-0.188,0.307-0.157,0.484l1.171,6.826
		C338.362,304.835,337.893,305.176,337.491,304.965z"/>
	<path style="fill:#E09941;" d="M177.041,169.516l-12.281-6.456c-0.319-0.168-0.701-0.168-1.02,0l-12.281,6.456
		c-0.804,0.423-1.744-0.26-1.59-1.155l2.345-13.675c0.061-0.356-0.057-0.718-0.315-0.97l-9.936-9.685
		c-0.65-0.634-0.291-1.739,0.607-1.87l13.73-1.995c0.357-0.052,0.666-0.276,0.825-0.6l6.141-12.442c0.402-0.815,1.564-0.815,1.966,0
		l6.14,12.442c0.16,0.324,0.468,0.548,0.825,0.6l13.73,1.995c0.899,0.131,1.258,1.236,0.607,1.87l-9.936,9.685
		c-0.258,0.252-0.376,0.615-0.315,0.97l2.345,13.675C178.785,169.255,177.845,169.938,177.041,169.516z"/>
	<path style="fill:#E09941;" d="M311.761,144.988l-6.2-3.259c-0.161-0.085-0.354-0.085-0.515,0l-6.199,3.259
		c-0.406,0.213-0.88-0.131-0.803-0.583l1.184-6.903c0.031-0.18-0.029-0.363-0.159-0.49l-5.016-4.889
		c-0.328-0.32-0.147-0.878,0.307-0.944l6.931-1.007c0.18-0.026,0.336-0.139,0.417-0.303l3.1-6.281c0.203-0.411,0.789-0.411,0.992,0
		l3.1,6.281c0.081,0.163,0.236,0.277,0.417,0.303l6.931,1.007c0.454,0.066,0.635,0.624,0.307,0.944l-5.016,4.889
		c-0.13,0.127-0.19,0.31-0.159,0.49l1.184,6.903C312.641,144.857,312.167,145.202,311.761,144.988z"/>
	<g>
		<path style="fill:#C1DAF7;" d="M78.817,352.346c-10.302,0-18.654,5.001-18.654,11.17h37.307
			C97.471,357.347,89.119,352.346,78.817,352.346z"/>
		<path style="fill:#C1DAF7;" d="M58.548,345.054c-11.589,0-20.984,8.266-20.984,18.462h41.967
			C79.532,353.32,70.137,345.054,58.548,345.054z"/>
		<path style="fill:#C1DAF7;" d="M101.954,357.112c-5.907,0-10.695,2.867-10.695,6.404h21.391
			C112.649,359.979,107.861,357.112,101.954,357.112z"/>
		<path style="fill:#C1DAF7;" d="M39.894,357.112c-5.907,0-10.695,2.867-10.695,6.404H50.59
			C50.59,359.979,45.801,357.112,39.894,357.112z"/>
	</g>
	<g>
		<path style="fill:#C1DAF7;" d="M411.903,86.826c-16.558,0-29.981,6.858-29.981,15.318h59.963
			C441.885,93.684,428.462,86.826,411.903,86.826z"/>
		<path style="fill:#C1DAF7;" d="M449.091,93.361c-9.494,0-17.19,3.932-17.19,8.783h34.38
			C466.281,97.293,458.585,93.361,449.091,93.361z"/>
	</g>
	<g>
		<g>
			<rect x="177.386" y="407.829" style="fill:#6697CF;" width="171.175" height="48.775"/>
			<polygon style="fill:#2D3954;" points="177.386,456.604 158.136,453.054 158.136,404.279 177.386,407.829 			"/>
			<polygon style="fill:#E09941;" points="329.311,404.279 158.136,404.279 177.386,407.829 348.562,407.829 			"/>
		</g>
		<g>
			<rect x="202.975" y="345.597" style="fill:#6697CF;" width="113.514" height="48.775"/>
			<polygon style="fill:#2D3954;" points="202.975,394.371 190.209,390.822 190.209,342.047 202.975,345.597 			"/>
			<polygon style="fill:#E09941;" points="303.723,342.047 190.209,342.047 202.975,345.597 316.489,345.597 			"/>
		</g>
		<g>
			<rect x="224.278" y="286.696" style="fill:#6697CF;" width="65.51" height="48.775"/>
			<polygon style="fill:#2D3954;" points="224.278,335.471 216.91,333.093 216.91,286.696 224.278,286.696 			"/>
		</g>
	</g>
	<g>
		
			<ellipse transform="matrix(0.7071 -0.7071 0.7071 0.7071 -144.6462 210.0753)" style="fill:#AD7632;" cx="181.26" cy="279.641" rx="22.276" ry="22.276"/>
		
			<ellipse transform="matrix(0.1613 -0.9869 0.9869 0.1613 -119.4943 414.2542)" style="fill:#E09941;" cx="183.981" cy="277.432" rx="22.276" ry="22.276"/>
		<path style="fill:#F3A646;" d="M203.536,266.758c-3.281-5.998-9.24-10.319-16.269-11.358c-1.84,3.581-3.007,7.769-2.794,11.868
			c0.238,4.573,1.975,4.81,1.676,7.921c-0.76,7.906-12.473,11.618-19.934,15.679c1.947,2.571,4.439,4.704,7.304,6.232
			c3.117-5.652,10.361-8.855,14.458-15.513C192.647,273.998,198.376,272.747,203.536,266.758z"/>
		<circle style="fill:none;stroke:#F3A646;stroke-miterlimit:10;" cx="184.467" cy="277.007" r="16.944"/>
		<circle style="fill:none;stroke:#AD7632;stroke-miterlimit:10;" cx="183.981" cy="277.432" r="16.944"/>
	</g>
	<g>
		<g>
			<path style="fill:#F0CF56;" d="M123.136,303.337c0-4.294-4.779-9.073-9.073-9.073c4.294,0,9.073-4.779,9.073-9.073
				c0,4.294,4.779,9.073,9.073,9.073C127.915,294.264,123.136,299.043,123.136,303.337z"/>
			<path style="fill:#F0CF56;" d="M381.877,324.983c0-7.607-8.465-16.072-16.072-16.072c7.607,0,16.072-8.465,16.072-16.072
				c0,7.607,8.466,16.072,16.072,16.072C390.342,308.91,381.877,317.376,381.877,324.983z"/>
			<path style="fill:#F0CF56;" d="M191.67,90.096c0-3.216-3.579-6.794-6.794-6.794c3.215,0,6.794-3.579,6.794-6.794
				c0,3.215,3.578,6.794,6.794,6.794C195.248,83.302,191.67,86.88,191.67,90.096z"/>
			<path style="fill:#F0CF56;" d="M353.769,351.207c0-5.696-6.339-12.036-12.036-12.036c5.696,0,12.036-6.339,12.036-12.036
				c0,5.697,6.339,12.036,12.036,12.036C360.108,339.171,353.769,345.51,353.769,351.207z"/>
			<path style="fill:#F0CF56;" d="M234.883,170.856c0-5.39-5.998-11.389-11.388-11.389c5.39,0,11.388-5.999,11.388-11.389
				c0,5.39,5.999,11.389,11.389,11.389C240.881,159.467,234.883,165.466,234.883,170.856z"/>
		</g>
	</g>
	<g>
		<polygon style="fill:#C1DAF7;" points="135.629,349.772 162.64,349.772 149.135,321.169 		"/>
	</g>
	<g>
		<polygon style="fill:#C1DAF7;" points="351.004,63.015 378.014,63.015 364.509,34.412 		"/>
	</g>
	<g>
		<g>
			<polygon style="fill:#C1DAF7;" points="417.349,282.97 430.854,282.97 424.102,268.668 			"/>
		</g>
		<g>
			<polygon style="fill:#C1DAF7;" points="425.249,290.614 438.755,290.614 432.002,276.312 			"/>
		</g>
	</g>
	<g>
		<g>
			<polygon style="fill:#C1DAF7;" points="73.824,94.485 94.945,94.485 84.384,72.119 			"/>
		</g>
	</g>
</g>
<g id="TEXTS">
	
		<text transform="matrix(1 0 0 1 124.9861 241.9407)" style="fill:#FFFFFF; font-family:'Montserrat-ExtraBold'; font-size:51.3208px;">LEVEL UP!</text>
	
		<text transform="matrix(1 0 0 1 176.1214 134.1665)" style="fill:#E09941; font-family:'Montserrat-Regular'; font-size:26.7697px;">+1</text>
</g>
</svg>
