<?xml version="1.0" encoding="iso-8859-1"?>
<!-- Generator: Adobe Illustrator 19.0.0, SVG Export Plug-In . SVG Version: 6.00 Build 0)  -->
<svg version="1.1" id="Capa_1" xmlns="http://www.w3.org/2000/svg" xmlns:xlink="http://www.w3.org/1999/xlink" x="0px" y="0px"
	 viewBox="0 0 409.6 409.6" style="enable-background:new 0 0 409.6 409.6;" xml:space="preserve">
<g>
	<g>
		<path d="M121.111,337.572H94.282c-2.831,0-5.12,2.289-5.12,5.12s2.289,5.12,5.12,5.12h26.829c2.831,0,5.12-2.289,5.12-5.12
			S123.942,337.572,121.111,337.572z"/>
	</g>
</g>
<g>
	<g>
		<path d="M121.111,316.477H94.282c-2.831,0-5.12,2.289-5.12,5.12s2.289,5.12,5.12,5.12h26.829c2.831,0,5.12-2.289,5.12-5.12
			S123.942,316.477,121.111,316.477z"/>
	</g>
</g>
<g>
	<g>
		<path d="M52.022,337.572H25.193c-2.831,0-5.12,2.289-5.12,5.12s2.289,5.12,5.12,5.12h26.829c2.831,0,5.12-2.289,5.12-5.12
			S54.853,337.572,52.022,337.572z"/>
	</g>
</g>
<g>
	<g>
		<path d="M52.022,316.477H25.193c-2.831,0-5.12,2.289-5.12,5.12s2.289,5.12,5.12,5.12h26.829c2.831,0,5.12-2.289,5.12-5.12
			S54.853,316.477,52.022,316.477z"/>
	</g>
</g>
<g>
	<g>
		<path d="M190.41,94.188h-26.829c-2.831,0-5.12,2.289-5.12,5.12s2.289,5.12,5.12,5.12h26.829c2.831,0,5.12-2.289,5.12-5.12
			S193.242,94.188,190.41,94.188z"/>
	</g>
</g>
<g>
	<g>
		<path d="M190.41,114.196h-26.829c-2.831,0-5.12,2.289-5.12,5.12s2.289,5.12,5.12,5.12h26.829c2.831,0,5.12-2.289,5.12-5.12
			S193.242,114.196,190.41,114.196z"/>
	</g>
</g>
<g>
	<g>
		<path d="M284.362,143.759h-48.481c-2.831,0-5.12,2.289-5.12,5.12s2.289,5.12,5.12,5.12h48.481c2.831,0,5.12-2.289,5.12-5.12
			S287.194,143.759,284.362,143.759z"/>
	</g>
</g>
<g>
	<g>
		<path d="M260.124,69.955c-16.189,0-29.358,13.169-29.358,29.358c-0.005,16.179,13.169,29.353,29.358,29.353
			s29.358-13.169,29.358-29.353C289.482,83.123,276.314,69.955,260.124,69.955z M260.124,118.42
			c-10.542,0-19.118-8.576-19.118-19.113c-0.005-10.542,8.571-19.118,19.118-19.118c10.547,0,19.118,8.576,19.118,19.118
			S270.666,118.42,260.124,118.42z"/>
	</g>
</g>
<g>
	<g>
		<path d="M380.521,337.572H332.04c-2.831,0-5.12,2.289-5.12,5.12s2.289,5.12,5.12,5.12h48.481c2.831,0,5.12-2.289,5.12-5.12
			S383.352,337.572,380.521,337.572z"/>
	</g>
</g>
<g>
	<g>
		<path d="M356.283,263.767c-16.189,0-29.358,13.169-29.358,29.358s13.169,29.358,29.358,29.358
			c16.189,0,29.358-13.169,29.358-29.358S372.472,263.767,356.283,263.767z M356.283,312.238c-10.542,0-19.118-8.576-19.118-19.118
			c0-10.542,8.571-19.118,19.118-19.118s19.118,8.576,19.118,19.118C375.401,303.662,366.825,312.238,356.283,312.238z"/>
	</g>
</g>
<g>
	<g>
		<path d="M404.426,107.223h-90.47V39.117c0-2.831-2.289-5.12-5.12-5.12h-95.585c-2.831,0-5.12,2.289-5.12,5.12v21.151h-62.269
			V39.117c0-2.831-2.289-5.12-5.12-5.12H78.994V5.12c0-2.831-2.289-5.12-5.12-5.12c-0.328,0-0.609,0.128-0.917,0.184
			C72.65,0.128,72.364,0,72.041,0H5.174c-2.831,0-5.12,2.289-5.12,5.12v399.36c0.005,2.826,2.294,5.12,5.125,5.12h399.247
			c2.831,0,5.12-2.289,5.12-5.12V112.343C409.546,109.512,407.258,107.223,404.426,107.223z M68.759,399.36h-58.46V10.24h58.46
			V399.36z M135.621,399.36H78.994V44.237h56.627V399.36z M208.131,399.36h-62.269V70.508h62.269V399.36z M303.716,112.343V399.36
			h-85.345V44.237h85.345V112.343z M399.301,399.36h-85.345V117.463h85.345V399.36z"/>
	</g>
</g>
<g>
</g>
<g>
</g>
<g>
</g>
<g>
</g>
<g>
</g>
<g>
</g>
<g>
</g>
<g>
</g>
<g>
</g>
<g>
</g>
<g>
</g>
<g>
</g>
<g>
</g>
<g>
</g>
<g>
</g>
</svg>
